<?xml version="1.0" encoding="UTF-8"?>
<svg id="Layer_2" data-name="Layer 2" xmlns="http://www.w3.org/2000/svg" viewBox="0 0 225 27.27">
  <defs>
    <style>
      .cls-1 {
        fill: #733200;
      }

      .cls-2 {
        fill: #f05a23;
      }
    </style>
  </defs>
  <g id="Layer_1-2" data-name="Layer 1">
    <g>
      <g>
        <path class="cls-1" d="M59.55,23.95h.02c.16-.92.54-3.09,1.61-7.83.02-.08.07-.13.19-.13h2.09c.1,0,.16.05.12.16l-2.87,10.49c-.03.1-.09.11-.17.11h-2.13c-.12,0-.16-.03-.19-.11-.52-2.17-1.51-6.32-1.87-8.04h-.02c-.33,1.74-1.47,5.92-2.03,7.99-.02.1-.07.16-.19.16h-2.08c-.1,0-.16-.05-.21-.15l-2.86-10.48c-.02-.1.03-.15.1-.15h2.28c.09,0,.16,0,.19.13,1.32,5.48,1.56,6.86,1.71,7.81h.02c.19-1.15.68-2.88,1.83-7.81.02-.1.09-.13.19-.13h2.27c.12,0,.14.03.17.13.61,2.55,1.42,5.84,1.8,7.83Z"/>
        <path class="cls-1" d="M66.32,24.19l-.83,2.43c-.03.08-.09.13-.19.13h-2.01c-.12,0-.16-.07-.14-.16l3.46-9.49c.07-.18.14-.38.17-1,0-.07.05-.11.1-.11h2.77c.09,0,.12.02.14.1l3.93,10.53c.03.08.02.15-.09.15h-2.25c-.1,0-.16-.03-.19-.11l-.88-2.45h-4ZM69.68,22.14c-.35-1.09-1.04-3.08-1.37-4.24h-.02c-.28,1.1-.9,2.91-1.35,4.24h2.73Z"/>
        <path class="cls-1" d="M76.1,18.04h-3.41c-.1,0-.12-.05-.1-.15l.24-1.76c.02-.11.05-.15.17-.15h8.65c.12,0,.17.05.19.15l.17,1.74c.02.11-.03.16-.14.16h-3.38v8.55c0,.11-.07.16-.16.16h-2.08c-.12.02-.17-.05-.17-.15v-8.57Z"/>
        <path class="cls-1" d="M91.02,26.4c0,.11-.03.2-.14.23-.57.2-1.44.3-2.41.3-3.36,0-5.97-1.89-5.97-5.49,0-3.34,2.42-5.61,6.25-5.61,1.09,0,1.8.08,2.25.28.09.03.12.1.12.2v1.79c0,.15-.09.15-.16.11-.57-.26-1.39-.36-2.25-.36-2.32,0-3.74,1.37-3.74,3.5,0,2.57,1.97,3.54,3.79,3.54.85,0,1.49-.07,2.11-.26.09-.03.14-.02.14.08v1.69Z"/>
        <path class="cls-1" d="M99.75,26.76c-.12,0-.14-.03-.14-.15v-4.41h-4.38v4.41c0,.08-.05.15-.17.15h-2.06c-.14,0-.17-.05-.17-.15v-10.46c0-.13.03-.16.16-.16h2.08c.14,0,.17.03.17.15v4.01h4.38v-4.03c0-.08.02-.13.12-.13h2.16c.07,0,.1.03.1.13v10.49c0,.12-.03.15-.14.15h-2.11Z"/>
        <path class="cls-1" d="M116.11,26.49c0,.19-.09.27-.29.27h-4.5c-.17,0-.26-.11-.26-.27V9.2c0-.16.06-.22.26-.22h12.11c.23,0,.29.06.32.25l.43,3.51c.03.19-.06.3-.29.3h-7.79v3.4h7.04c.2,0,.26.06.26.25v3.53c0,.16-.09.25-.26.25h-7.04v6.03Z"/>
        <path class="cls-1" d="M131.8,26.43c0,.22-.06.33-.32.33h-4.41c-.26,0-.32-.11-.32-.33V9.23c0-.19.12-.25.29-.25h4.47c.2,0,.29.06.29.25v17.21Z"/>
        <path class="cls-1" d="M136.16,26.76c-.29,0-.32-.11-.32-.36V9.25c0-.19.06-.27.26-.27h4.53c.17,0,.23.08.23.25v13.48h7.82c.2,0,.26.08.23.27l-.61,3.51c-.06.25-.2.27-.37.27h-11.77Z"/>
        <path class="cls-1" d="M151.68,8.98h6.95c.23,0,.32.06.37.22.72,3.18,1.88,8.77,2.31,11.48h.03c.52-2.49,1.73-8.22,2.51-11.51.03-.11.09-.19.26-.19h6.86c.2,0,.26.03.29.16l.58,17.34c0,.19-.12.27-.29.27h-4.64c-.17,0-.26-.03-.26-.22.03-5.23.03-12.47.12-14.3h-.09c-.58,2.77-2.08,10-3.14,14.27-.03.16-.14.25-.35.25h-4.33c-.2,0-.29-.03-.35-.25-.86-3.81-2.28-10.63-2.97-14.33h-.09c0,3.34.03,8.63-.17,14.33,0,.22-.06.25-.26.25h-4.18c-.23,0-.29-.03-.29-.27l.86-17.34c.03-.16.12-.16.26-.16Z"/>
        <path class="cls-1" d="M187.89,26.76c-.12,0-.14-.03-.14-.15v-4.41h-4.38v4.41c0,.08-.05.15-.17.15h-2.06c-.14,0-.17-.05-.17-.15v-10.46c0-.13.03-.16.16-.16h2.08c.14,0,.17.03.17.15v4.01h4.38v-4.03c0-.08.02-.13.12-.13h2.16c.07,0,.1.03.1.13v10.49c0,.12-.03.15-.14.15h-2.11Z"/>
        <path class="cls-1" d="M199.99,26.61c-.02.13-.05.15-.17.15h-7.04c-.1,0-.14-.05-.14-.15v-10.48c0-.1.03-.15.14-.15h6.84c.14,0,.17.02.19.13l.19,1.78c.02.08,0,.15-.12.15h-4.83v2.2h4.41c.09,0,.14.03.14.13v1.81c0,.1-.07.11-.14.11h-4.41v2.4h5.11c.14,0,.16.05.14.15l-.29,1.76Z"/>
        <path class="cls-1" d="M202.01,26.76c-.1,0-.14-.03-.14-.15v-10.44c0-.08.02-.16.12-.16,1.56-.03,2.22-.05,3.62-.05,2.87,0,4.48,1.17,4.48,3.29,0,1.37-.9,2.42-2.16,2.89.57.74,2.53,3.54,3.06,4.42.05.1.07.2-.05.2h-2.51c-.16,0-.21-.03-.24-.1-.5-.72-1.59-2.48-2.3-3.6-.12-.2-.21-.28-.4-.28h-1.26v3.85c0,.08-.05.13-.14.13h-2.08ZM205.56,20.84c1.3,0,2.13-.49,2.13-1.46s-.87-1.43-2.15-1.43c-.57,0-1.06.02-1.32.03v2.86h1.33Z"/>
        <path class="cls-1" d="M219.58,26.61c-.02.13-.05.15-.17.15h-7.05c-.1,0-.14-.05-.14-.15v-10.48c0-.1.03-.15.14-.15h6.84c.14,0,.17.02.19.13l.19,1.78c.02.08,0,.15-.12.15h-4.83v2.2h4.41c.09,0,.14.03.14.13v1.81c0,.1-.07.11-.14.11h-4.41v2.4h5.11c.14,0,.16.05.14.15l-.29,1.76Z"/>
        <path class="cls-1" d="M222.18,25.64c0-.76.59-1.28,1.4-1.28s1.42.53,1.42,1.28-.57,1.27-1.42,1.27-1.4-.49-1.4-1.27ZM224.83,15.99c.09.05.09.13.09.18v1.17c0,1.38-.33,5.08-.4,5.56,0,.05-.02.11-.12.11h-1.61c-.07,0-.1-.05-.12-.11-.05-.46-.38-4.13-.38-5.51v-1.17s0-.13.1-.18c.26-.13.92-.23,1.21-.23.38,0,1,.07,1.23.18Z"/>
      </g>
      <g>
        <path class="cls-2" d="M9.46,1.07c-.66-.66-1.58-1.07-2.59-1.07s-1.93.41-2.59,1.07c-.66.66-1.07,1.58-1.07,2.59s.41,1.93,1.07,2.59c.66.66,1.58,1.07,2.59,1.07s1.93-.41,2.59-1.07c.66-.66,1.07-1.58,1.07-2.59s-.41-1.93-1.07-2.59Z"/>
        <path class="cls-2" d="M19.75,2.46c-.51-.51-1.23-.83-2.02-.83s-1.5.32-2.01.83c-.51.51-.83,1.23-.83,2.02s.32,1.5.83,2.02,1.23.83,2.02.83,1.5-.32,2.02-.83.83-1.23.83-2.02-.32-1.5-.83-2.02Z"/>
        <path class="cls-2" d="M22.84,9.96c-.59-.59-1.41-.96-2.3-.96H3.26c-.9,0-1.71.37-2.3.95-.59.59-.96,1.41-.96,2.31v11.18c0,.9.37,1.71.96,2.3.59.59,1.41.96,2.3.96h17.28c.9,0,1.71-.37,2.3-.96.59-.59.96-1.41.96-2.3v-11.18c0-.9-.37-1.71-.96-2.3ZM16.91,19.03c-.2.34-.48.64-.86.86l-5.95,3.44c-.38.22-.79.32-1.18.32-.42,0-.83-.12-1.18-.32-.35-.21-.65-.5-.86-.86-.2-.34-.31-.75-.31-1.18v-6.87c0-.44.12-.84.32-1.18.2-.34.48-.62.81-.83l.05-.03c.36-.2.76-.32,1.18-.32.37,0,.76.09,1.12.29l.06.03h0s5.95,3.43,5.95,3.43c.35.2.63.48.82.8l.03.05c.21.37.32.78.32,1.18s-.11.82-.32,1.18Z"/>
        <path class="cls-2" d="M25.41,14.77v6.16l6.96,6.01c.27.23.58.33.88.33.2,0,.4-.04.58-.12.18-.08.34-.2.47-.36.19-.22.32-.53.32-.89V9.79c0-.36-.12-.66-.32-.89-.13-.15-.29-.27-.47-.36-.18-.08-.37-.12-.58-.12-.3,0-.61.1-.88.33l-6.96,6.01h0Z"/>
      </g>
    </g>
  </g>
</svg>