<?xml version="1.0" encoding="UTF-8"?>
<svg id="Layer_2" data-name="Layer 2" xmlns="http://www.w3.org/2000/svg" xmlns:xlink="http://www.w3.org/1999/xlink" viewBox="0 0 68.23 75">
  <defs>
    <style>
      .cls-1 {
        fill: #28a0e1;
      }

      .cls-2 {
        fill: #0f1e91;
      }

      .cls-3 {
        fill: #641e00;
      }

      .cls-4 {
        fill: #0a8200;
      }

      .cls-5 {
        filter: url(#drop-shadow-1);
      }

      .cls-6 {
        fill: #f05a23;
      }

      .cls-7 {
        fill: #87b928;
      }
    </style>
    <filter id="drop-shadow-1" x="0" y="0" width="68.73" height="75.5" filterUnits="userSpaceOnUse">
      <feOffset dx=".5" dy=".5"/>
      <feGaussianBlur result="blur" stdDeviation="0"/>
      <feFlood flood-color="#fff" flood-opacity="1"/>
      <feComposite in2="blur" operator="in"/>
      <feComposite in="SourceGraphic"/>
    </filter>
  </defs>
  <g id="Layer_1-2" data-name="Layer 1">
    <g class="cls-5">
      <path class="cls-6" d="M15.35,50.35c-3.16,0-5.73,2.57-5.73,5.73,0,.05,0,.1,0,.16.02.79.2,1.54.52,2.23.07,0,.14-.02.22-.03.25-.03.5-.04.75-.04.1,0,.2,0,.3,0,.36.02.69.06.99.13-.25-.69-.4-1.47-.41-2.3,0-.05,0-.1,0-.16,0-2.82,1.51-5.1,3.38-5.1s3.38,2.28,3.38,5.1c0,.05,0,.1,0,.16h2.35c0-.05,0-.1,0-.16,0-3.16-2.57-5.73-5.73-5.73Z"/>
      <rect class="cls-6" x="14.25" y="55.61" width="4.69" height=".62"/>
      <path class="cls-4" d="M38.23,33.6h0s.03,0,.08-.02c.35-.07.78-.16.98-.21.48-.11,1-.24,1.24-.33,0,0-1.98.38-3.39.1l-.13-.03s-.04-.01-.06-.01c0,0,0,0,0,0-.05-.01-.08-.02-.14-.06-.46-.35-.94-.72-1.43-1.05-1.14-.85-2.54-.21-3.3.81.66-.55,1.61-1.04,2.45-.71.19.08.35.19.52.34.33.28.65.57.96.86-.65.23-1.24.63-1.67,1.18-.31.38-.52.85-.66,1.32-.72,2.79-1.97,5.12-4.65,6.27,1.68-2.32,2.31-5.24,1.24-8.3-1.62-4-5.78-6.39-9.86-7.16,0,0-.73-.14-.73-.14.07.46.14,1.08.26,1.52.04.17.08.33.12.5.28,1.08.67,2.16,1.2,3.16.77,1.45,1.82,2.74,3.25,3.6,1.06.65,2.28.93,3.49.99,0,0,0,0,0,0-.31-1.29-.92-2.48-1.74-3.51-.73-.9-1.64-1.66-2.69-2.15,1.44.91,2.54,2.28,3.21,3.83.15.36.3.74.41,1.12-1.47-.29-2.68-1.09-3.64-2.16-.88-.98-1.54-2.19-1.98-3.45-.24-.68-.45-1.38-.6-2.09.14.04.28.07.42.11.65.18,1.29.4,1.91.66,1.89.79,3.6,1.96,4.9,3.56.47.59.93,1.24,1.19,1.93,1.17,3.06.52,5.93-1.17,8.29-2.29.73-4.74.59-7.15.33.82.26,1.69.49,2.54.63,1.31.23,2.57.27,3.74.12-.72.78-1.55,1.5-2.47,2.12,1.15-.59,2.18-1.34,3.05-2.21,2.99-.57,5.34-2.51,6.38-6.01.26-.77.31-1.62.78-2.29.42-.61,1.13-1.02,1.85-1.18l.81-.17s.21-.04.47-.09Z"/>
      <path class="cls-4" d="M44.24,31.65c-.88,0-1.73.48-2.53,1.44-.78.92-1.44,2.15-1.97,3.64-.12.33-.22.67-.32,1.01v-3.51c-.24.06-.59.13-.95.2-.42.1-.84.18-1.03.21l-.11.02v8.34c.09,0,.19,0,.32,0,0,0,.33,0,.7,0,.59,0,1.06-.48,1.06-1.06v-.8c.13-1.38.42-2.75.87-4.06.45-1.34.99-2.44,1.61-3.27.58-.79,1.13-1.2,1.62-1.2.28,0,.51.16.71.48h0s.34.41.62,2.16c.12-.32.26-.63.42-.93.31-.56.67-1.05,1.09-1.49-.62-.79-1.33-1.19-2.11-1.19Z"/>
      <path class="cls-6" d="M26.17,55c-1.61-.77-3.13-1.5-3.13-3.05,0-.34.09-.67.25-.97-.24.11-.45.23-.64.37-.71.52-1.08,1.24-1.08,2.09,0,1.79,1.81,2.67,3.56,3.52,1.65.8,3.21,1.55,3.21,3.13,0,.47-.16.92-.46,1.3,1.24-.52,1.93-1.47,1.93-2.7,0-1.95-1.85-2.83-3.63-3.69Z"/>
      <path class="cls-6" d="M22.74,58.12c-.68,0-1.18.51-1.18,1.2,0,.46.18.9.53,1.28l.5-.05c.82-.09,1.35-.59,1.35-1.28s-.51-1.15-1.2-1.15Z"/>
      <path class="cls-6" d="M28.47,53.16c.23-.23.36-.53.36-.84,0-.31-.14-.61-.38-.85-.32-.32-.77-.51-1.29-.53l-.32.39c-.52.64-.54,1.37-.05,1.86.22.22.51.35.8.35.31,0,.62-.14.86-.38Z"/>
      <rect class="cls-3" x="11.43" y="65.26" width="45.38" height=".19"/>
      <path class="cls-3" d="M57.09,27.31c-.33,0-.59.26-.59.59s.26.59.59.59.59-.26.59-.59-.26-.59-.59-.59ZM57.09,28.31c-.23,0-.41-.19-.41-.41s.19-.41.41-.41.41.19.41.41-.19.41-.41.41Z"/>
      <path class="cls-3" d="M57.09,27.55c-.19,0-.34.15-.34.34s.15.34.34.34.34-.15.34-.34-.15-.34-.34-.34Z"/>
      <path class="cls-3" d="M54.84,28.2h1.66s-.04-.1-.05-.15h-1.55c-.01.05-.03.1-.05.15Z"/>
      <path class="cls-3" d="M56.43,27.98s0-.06,0-.09c0-.02,0-.04,0-.06h-1.52s0,.04,0,.06c0,.03,0,.06,0,.09h1.53Z"/>
      <path class="cls-3" d="M54.9,27.77h1.54c.04-.23.2-.41.41-.49h-2.37c.21.08.37.27.41.49Z"/>
      <path class="cls-3" d="M56.08,28.33v.23s.03.07.07.07.07-.03.07-.07v-.23s-.03-.07-.07-.07-.07.03-.07.07Z"/>
      <path class="cls-3" d="M55.84,28.33v.23s.03.07.07.07.07-.03.07-.07v-.23s-.03-.07-.07-.07-.07.03-.07.07Z"/>
      <path class="cls-3" d="M54.77,28.55v-.23s0,0,0-.01c-.04.05-.09.1-.15.13v.1s.03.07.07.07.07-.03.07-.07Z"/>
      <path class="cls-3" d="M56.33,28.33v.23s.03.07.07.07.07-.03.07-.07v-.23s-.03-.07-.07-.07-.07.03-.07.07Z"/>
      <path class="cls-3" d="M55.35,28.33v.23s.03.07.07.07.07-.03.07-.07v-.23s-.03-.07-.07-.07-.07.03-.07.07Z"/>
      <path class="cls-3" d="M56.72,28.55v-.11c-.05-.04-.1-.08-.15-.13,0,0,0,0,0,.01v.23s.03.07.07.07.07-.03.07-.07Z"/>
      <path class="cls-3" d="M54.87,28.33v.23s.03.07.07.07.07-.03.07-.07v-.23s-.03-.07-.07-.07-.07.03-.07.07Z"/>
      <path class="cls-3" d="M55.11,28.33v.23s.03.07.07.07.07-.03.07-.07v-.23s-.03-.07-.07-.07-.07.03-.07.07Z"/>
      <path class="cls-3" d="M55.6,28.33v.23s.03.07.07.07.07-.03.07-.07v-.23s-.03-.07-.07-.07-.07.03-.07.07Z"/>
      <path class="cls-3" d="M54.4,28.77s.04.09.09.09h2.34s.09-.04.09-.09-.04-.09-.09-.09h-2.34s-.09.04-.09.09Z"/>
      <path class="cls-3" d="M56.83,28.92h-2.34s-.09.04-.09.09.04.09.09.09h2.34s.09-.04.09-.09-.04-.09-.09-.09Z"/>
      <path class="cls-3" d="M54.25,27.31c-.33,0-.59.26-.59.59s.26.59.59.59.59-.26.59-.59-.26-.59-.59-.59ZM54.25,28.31c-.23,0-.41-.19-.41-.41s.19-.41.41-.41.41.19.41.41-.19.41-.41.41Z"/>
      <path class="cls-3" d="M54.25,27.55c-.19,0-.34.15-.34.34s.15.34.34.34.34-.15.34-.34-.15-.34-.34-.34Z"/>
      <path class="cls-3" d="M58.3,43h.11v-.57h-.59c-.56,0-1.02-.46-1.02-1.02v-10.78h0v-1.16s.01-.07.03-.09v-.21h-2.36v.21s.03.06.03.09v11.95c0,.56-.46,1.01-1.02,1.01h-.59v.57h5.4ZM54.92,42.46s-.03.06-.06.06-.06-.03-.06-.06v-12.76s.03-.06.06-.06.06.03.06.06v12.76ZM55.32,42.46s-.03.06-.06.06-.06-.03-.06-.06v-12.76s.03-.06.06-.06.06.03.06.06v12.76ZM55.72,42.46s-.03.06-.06.06-.06-.03-.06-.06v-12.76s.03-.06.06-.06.06.03.06.06v12.76ZM56.12,42.46s-.03.06-.06.06-.06-.03-.06-.06v-12.76s.03-.06.06-.06.06.03.06.06v12.76ZM56.53,42.46s-.03.06-.06.06-.06-.03-.06-.06v-12.76s.03-.06.06-.06.06.03.06.06v12.76Z"/>
      <path class="cls-3" d="M48.18,32.36c-.94.53-1.71,1.32-2.27,2.33-.49.89-.77,1.94-.83,3.13,0,.16-.01.33-.01.5,0,.09,0,.17,0,.26.04,1.55.4,2.7,1.08,3.44.72.78,1.64,1.18,2.73,1.18,1,0,1.93-.42,2.77-1.26.82-.82,1.54-1.98,2.13-3.45.27-.68.51-1.42.72-2.22v-3.8c-1.05-.6-2.13-.9-3.21-.9-1.13,0-2.18.27-3.12.8ZM54.05,35.55c-.17.75-.38,1.56-.65,2.2-.55,1.34-1.1,2.45-1.81,3.25-.68.77-1.4,1.16-2.15,1.16-.65,0-1.14-.4-1.49-1.24-.37-.88-.56-1.94-.56-3.15,0-1.08.17-2.06.51-2.92.33-.84.8-1.51,1.38-1.98.57-.46,1.21-.64,1.9-.69.07,0,.13,0,.2,0,1.76-.03,3.06,1.65,2.67,3.37Z"/>
      <path class="cls-3" d="M4.19,46.34c-.19,0-.34.15-.34.34s.15.34.34.34.34-.15.34-.34-.15-.34-.34-.34Z"/>
      <path class="cls-3" d="M1.99,46.84c-.01.05-.03.1-.05.15h1.66s-.04-.1-.05-.15h-1.55Z"/>
      <path class="cls-3" d="M3.53,46.77s0-.06,0-.09c0-.02,0-.04,0-.06h-1.52s0,.04,0,.06c0,.03,0,.06,0,.09h1.53Z"/>
      <path class="cls-3" d="M3.95,46.06H1.58c.21.08.37.27.41.49h1.54c.04-.23.2-.41.41-.49Z"/>
      <path class="cls-3" d="M3.33,47.34v-.23s-.03-.07-.07-.07-.07.03-.07.07v.23s.03.07.07.07.07-.03.07-.07Z"/>
      <path class="cls-3" d="M3.08,47.34v-.23s-.03-.07-.07-.07-.07.03-.07.07v.23s.03.07.07.07.07-.03.07-.07Z"/>
      <path class="cls-3" d="M1.87,47.34v-.23s0,0,0-.01c-.04.05-.09.1-.15.13v.1s.03.07.07.07.07-.03.07-.07Z"/>
      <path class="cls-3" d="M3.57,47.34v-.23s-.03-.07-.07-.07-.07.03-.07.07v.23s.03.07.07.07.07-.03.07-.07Z"/>
      <path class="cls-3" d="M2.6,47.34v-.23s-.03-.07-.07-.07-.07.03-.07.07v.23s.03.07.07.07.07-.03.07-.07Z"/>
      <path class="cls-3" d="M3.81,47.34v-.11c-.05-.04-.1-.08-.15-.13,0,0,0,0,0,.01v.23s.03.07.07.07.07-.03.07-.07Z"/>
      <path class="cls-3" d="M2.11,47.34v-.23s-.03-.07-.07-.07-.07.03-.07.07v.23s.03.07.07.07.07-.03.07-.07Z"/>
      <path class="cls-3" d="M2.35,47.34v-.23s-.03-.07-.07-.07-.07.03-.07.07v.23s.03.07.07.07.07-.03.07-.07Z"/>
      <path class="cls-3" d="M2.84,47.34v-.23s-.03-.07-.07-.07-.07.03-.07.07v.23s.03.07.07.07.07-.03.07-.07Z"/>
      <path class="cls-3" d="M1.5,47.55s.04.09.09.09h2.34s.09-.04.09-.09-.04-.09-.09-.09H1.59s-.09.04-.09.09Z"/>
      <path class="cls-3" d="M3.92,47.71H1.59s-.09.04-.09.09.04.09.09.09h2.34s.09-.04.09-.09-.04-.09-.09-.09Z"/>
      <path class="cls-3" d="M1.34,47.02c.19,0,.34-.15.34-.34s-.15-.34-.34-.34-.34.15-.34.34.15.34.34.34Z"/>
      <path class="cls-3" d="M.83,46.97c.1.18.29.31.52.31.33,0,.59-.26.59-.59s-.26-.59-.59-.59c-.21,0-.39.11-.5.27h-.85v.57h.59c.08,0,.16.01.24.03ZM1.34,46.27c.23,0,.41.19.41.41s-.19.41-.41.41-.41-.19-.41-.41.19-.41.41-.41Z"/>
      <path class="cls-3" d="M67.5,46.74c0-.33-.26-.59-.59-.59s-.59.26-.59.59.26.59.59.59.59-.26.59-.59ZM66.5,46.74c0-.23.19-.41.41-.41s.41.19.41.41-.19.41-.41.41-.41-.19-.41-.41Z"/>
      <path class="cls-3" d="M67.25,46.74c0-.19-.15-.34-.34-.34s-.34.15-.34.34.15.34.34.34.34-.15.34-.34Z"/>
      <path class="cls-3" d="M66.26,46.89h-1.55c-.01.05-.03.1-.05.15h1.66s-.04-.1-.05-.15Z"/>
      <path class="cls-3" d="M66.25,46.83s0-.06,0-.09c0-.02,0-.04,0-.06h-1.52s0,.04,0,.06c0,.03,0,.06,0,.09h1.53Z"/>
      <path class="cls-3" d="M66.67,46.12h-2.37c.21.08.37.27.41.49h1.54c.04-.23.2-.41.41-.49Z"/>
      <path class="cls-3" d="M65.9,47.17v.23s.03.07.07.07.07-.03.07-.07v-.23s-.03-.07-.07-.07-.07.03-.07.07Z"/>
      <path class="cls-3" d="M65.66,47.17v.23s.03.07.07.07.07-.03.07-.07v-.23s-.03-.07-.07-.07-.07.03-.07.07Z"/>
      <path class="cls-3" d="M64.44,47.29v.1s.03.07.07.07.07-.03.07-.07v-.23s0,0,0-.01c-.04.05-.09.1-.15.13Z"/>
      <path class="cls-3" d="M66.14,47.17v.23s.03.07.07.07.07-.03.07-.07v-.23s-.03-.07-.07-.07-.07.03-.07.07Z"/>
      <path class="cls-3" d="M65.17,47.17v.23s.03.07.07.07.07-.03.07-.07v-.23s-.03-.07-.07-.07-.07.03-.07.07Z"/>
      <path class="cls-3" d="M66.53,47.4v-.11c-.05-.04-.1-.08-.15-.13,0,0,0,0,0,.01v.23s.03.07.07.07.07-.03.07-.07Z"/>
      <path class="cls-3" d="M64.69,47.17v.23s.03.07.07.07.07-.03.07-.07v-.23s-.03-.07-.07-.07-.07.03-.07.07Z"/>
      <path class="cls-3" d="M64.93,47.17v.23s.03.07.07.07.07-.03.07-.07v-.23s-.03-.07-.07-.07-.07.03-.07.07Z"/>
      <path class="cls-3" d="M65.41,47.17v.23s.03.07.07.07.07-.03.07-.07v-.23s-.03-.07-.07-.07-.07.03-.07.07Z"/>
      <path class="cls-3" d="M66.65,47.52h-2.34s-.09.04-.09.09.04.09.09.09h2.34s.09-.04.09-.09-.04-.09-.09-.09Z"/>
      <path class="cls-3" d="M66.65,47.76h-2.34s-.09.04-.09.09.04.09.09.09h2.34s.09-.04.09-.09-.04-.09-.09-.09Z"/>
      <path class="cls-3" d="M63.48,46.74c0,.33.26.59.59.59s.59-.26.59-.59-.26-.59-.59-.59-.59.26-.59.59ZM64.48,46.74c0,.23-.19.41-.41.41s-.41-.19-.41-.41.19-.41.41-.41.41.19.41.41Z"/>
      <path class="cls-3" d="M63.73,46.74c0,.19.15.34.34.34s.34-.15.34-.34-.15-.34-.34-.34-.34.15-.34.34Z"/>
      <path class="cls-3" d="M67.76,61.27h-.11c-.56,0-1.02-.46-1.02-1.02v-10.78h0v-1.16s.01-.07.03-.09v-.21h-2.36v.21s.03.06.03.09v11.95c0,.51-.38.92-.87,1l.11.58h4.66v-.57h-.47ZM64.73,61.3s-.03.06-.06.06-.06-.03-.06-.06v-12.76s.03-.06.06-.06.06.03.06.06v12.76ZM65.14,61.3s-.03.06-.06.06-.06-.03-.06-.06v-12.76s.03-.06.06-.06.06.03.06.06v12.76ZM65.54,61.3s-.03.06-.06.06-.06-.03-.06-.06v-12.76s.03-.06.06-.06.06.03.06.06v12.76ZM65.94,61.3s-.03.06-.06.06-.06-.03-.06-.06v-12.76s.03-.06.06-.06.06.03.06.06v12.76ZM66.34,61.3s-.03.06-.06.06-.06-.03-.06-.06v-12.76s.03-.06.06-.06.06.03.06.06v12.76Z"/>
      <path class="cls-3" d="M62.72,61.84h.03s-.02,0-.03,0h0Z"/>
      <path class="cls-3" d="M8.55,52.76c-.05.08-.27.3-1.24.5-.76.15-1.48.23-2.15.23h-1.26v-4.08h0v-1.16s.01-.07.03-.09v-.21H1.58v.21s.03.06.03.09v11.95c0,.56-.46,1.01-1.02,1.01h-.59v.57h5.51v-.57h-.59c-.56,0-1.02-.46-1.02-1.02v-6.08h1.26c.31,0,.67.08,1.07.23.39.15.72.34.96.57.19.17.27.32.23.41l-.3.87.54.34c.2-.65.51-1.46.93-2.42.39-.9.85-1.74,1.35-2.5l-.52-.32-.87,1.47ZM2.01,61.24s-.03.06-.06.06-.06-.03-.06-.06v-12.76s.03-.06.06-.06.06.03.06.06v12.76ZM2.41,61.24s-.03.06-.06.06-.06-.03-.06-.06v-12.76s.03-.06.06-.06.06.03.06.06v12.76ZM2.82,61.24s-.03.06-.06.06-.06-.03-.06-.06v-12.76s.03-.06.06-.06.06.03.06.06v12.76ZM3.22,61.24s-.03.06-.06.06-.06-.03-.06-.06v-12.76s.03-.06.06-.06.06.03.06.06v12.76ZM3.62,61.24s-.03.06-.06.06-.06-.03-.06-.06v-12.76s.03-.06.06-.06.06.03.06.06v12.76Z"/>
      <path class="cls-3" d="M12.17,49.28l-.78-3.45c-.01-.14-.12-.23-.26-.23-.1,0-.19.05-.23.12-.39.43-1.19.65-2.4.65h-3.82c-.1-.16-.29-.27-.5-.27-.33,0-.59.26-.59.59s.26.59.59.59c.21,0,.4-.11.5-.28h1.29c.81,0,1.65.15,2.5.44.64.22,1.21.49,1.71.81h0s.01,0,.04.02c.14.09.28.19.42.29.07.05.13.1.19.15.28.22.62.5.92.81.18.18.48.01.42-.23ZM4.19,47.1c-.23,0-.41-.19-.41-.41s.19-.41.41-.41.41.19.41.41-.19.41-.41.41Z"/>
      <path class="cls-4" d="M32.42,47.81c0,.39-.08.78-.25,1.14-.17.36-.38.67-.63.94-.35.37-.79.68-1.3.93-.16.07-.52.22-1.01.31.15.19.26.4.33.61,0,0,0,0,0,0h1.4v7.24c0,1.85.71,2.88,2.12,3.06.04,0,.08.01.13.01.01,0,.03,0,.05,0,.02,0,.03,0,.05,0,.03,0,.05,0,.08,0,.86,0,1.61-.46,2.02-1.14-.1.05-.21.08-.32.11-.12.03-.24.04-.37.04-.06,0-.11,0-.17,0-.62-.06-1.14-.47-1.36-1.02-.08-.19-.12-.4-.12-.62v-7.67h2.09c.06,0,.31.02.45.12,0,0,0,0,0,0,.18.09.32.24.42.44.21.41.32,1.03.32,1.84v3.05c0,1.53.25,2.73.74,3.57.31.52.78.89,1.4,1.1v-4.4c0-.11,0-.22,0-.33v-3.76s0-3.05,0-3.05c-.03.02-.06.03-.08.05,0,0-.01,0-.02.01-.97.58-2.44.71-3.19.74-.05,0-.09,0-.14,0h0s-.12,0-.12,0h-1.85v-3.5h-.68v.2Z"/>
      <path class="cls-6" d="M14.01,27.55c-.19,0-.34.15-.34.34s.15.34.34.34.34-.15.34-.34-.15-.34-.34-.34Z"/>
      <path class="cls-6" d="M11.81,28.05c-.01.05-.03.1-.05.15h1.66s-.04-.1-.05-.15h-1.55Z"/>
      <path class="cls-6" d="M13.35,27.98s0-.06,0-.09c0-.02,0-.04,0-.06h-1.52s0,.04,0,.06c0,.03,0,.06,0,.09h1.53Z"/>
      <path class="cls-6" d="M11.81,27.77h1.54c.04-.23.2-.41.41-.49h-2.37c.21.08.37.27.41.49Z"/>
      <path class="cls-6" d="M13.14,28.55v-.23s-.03-.07-.07-.07-.07.03-.07.07v.23s.03.07.07.07.07-.03.07-.07Z"/>
      <path class="cls-6" d="M12.9,28.55v-.23s-.03-.07-.07-.07-.07.03-.07.07v.23s.03.07.07.07.07-.03.07-.07Z"/>
      <path class="cls-6" d="M11.69,28.55v-.23s0,0,0-.01c-.04.05-.09.1-.15.13v.1s.03.07.07.07.07-.03.07-.07Z"/>
      <path class="cls-6" d="M13.39,28.55v-.23s-.03-.07-.07-.07-.07.03-.07.07v.23s.03.07.07.07.07-.03.07-.07Z"/>
      <path class="cls-6" d="M12.41,28.55v-.23s-.03-.07-.07-.07-.07.03-.07.07v.23s.03.07.07.07.07-.03.07-.07Z"/>
      <path class="cls-6" d="M13.63,28.55v-.11c-.05-.04-.1-.08-.15-.13,0,0,0,0,0,.01v.23s.03.07.07.07.07-.03.07-.07Z"/>
      <path class="cls-6" d="M11.93,28.55v-.23s-.03-.07-.07-.07-.07.03-.07.07v.23s.03.07.07.07.07-.03.07-.07Z"/>
      <path class="cls-6" d="M12.17,28.55v-.23s-.03-.07-.07-.07-.07.03-.07.07v.23s.03.07.07.07.07-.03.07-.07Z"/>
      <path class="cls-6" d="M12.66,28.55v-.23s-.03-.07-.07-.07-.07.03-.07.07v.23s.03.07.07.07.07-.03.07-.07Z"/>
      <path class="cls-6" d="M11.32,28.77s.04.09.09.09h2.34s.09-.04.09-.09-.04-.09-.09-.09h-2.34s-.09.04-.09.09Z"/>
      <path class="cls-6" d="M13.74,28.92h-2.34s-.09.04-.09.09.04.09.09.09h2.34s.09-.04.09-.09-.04-.09-.09-.09Z"/>
      <path class="cls-6" d="M11.16,28.48c.33,0,.59-.26.59-.59s-.26-.59-.59-.59-.59.26-.59.59.26.59.59.59ZM11.16,27.48c.23,0,.41.19.41.41s-.19.41-.41.41-.41-.19-.41-.41.19-.41.41-.41Z"/>
      <path class="cls-6" d="M11.16,28.24c.19,0,.34-.15.34-.34s-.15-.34-.34-.34-.34.15-.34.34.15.34.34.34Z"/>
      <path class="cls-6" d="M22.17,34.75c-.98-.56-2.14-.95-3.47-1.18.6-.17,1.12-.41,1.56-.72.5-.36.84-.77,1.01-1.22-.53-1-.92-2.08-1.2-3.16-.08-.05-.16-.09-.25-.14-1-.5-2.46-.75-4.32-.75h-.98c-.1-.17-.29-.28-.5-.28-.33,0-.59.26-.59.59s.26.59.59.59c.21,0,.39-.11.5-.27h.62c1.24,0,2.18.21,2.8.62.6.39.9,1.08.9,2.03,0,.77-.17,1.39-.51,1.83-.33.42-.98.63-1.95.63h-2.65v-2.7h0v-1.16s.01-.07.03-.09v-.21h-2.36v.21s.03.06.03.09v11.95c0,.56-.46,1.01-1.02,1.01h-.59v.57h7.13c1.29,0,2.49-.17,3.57-.51,1.1-.34,2-.88,2.66-1.6.68-.73,1.02-1.64,1.02-2.7,0-1.5-.68-2.66-2.03-3.43ZM14.01,28.31c-.23,0-.41-.19-.41-.41s.19-.41.41-.41.41.19.41.41-.19.41-.41.41ZM11.83,42.46s-.03.06-.06.06-.06-.03-.06-.06v-12.76s.03-.06.06-.06.06.03.06.06v12.76ZM12.23,42.46s-.03.06-.06.06-.06-.03-.06-.06v-12.76s.03-.06.06-.06.06.03.06.06v12.76ZM12.63,42.46s-.03.06-.06.06-.06-.03-.06-.06v-12.76s.03-.06.06-.06.06.03.06.06v12.76ZM13.04,42.46s-.03.06-.06.06-.06-.03-.06-.06v-12.76s.03-.06.06-.06.06.03.06.06v12.76ZM13.44,42.46s-.03.06-.06.06-.06-.03-.06-.06v-12.76s.03-.06.06-.06.06.03.06.06v12.76ZM21.09,40.25c-.36.62-.91,1.14-1.65,1.53-.74.4-1.68.6-2.8.6h-2.23c-.41-.14-.7-.52-.7-.97v-7.44l2.65-.02c1.6,0,2.89.38,3.85,1.13.94.74,1.42,1.79,1.42,3.13,0,.73-.18,1.42-.54,2.04Z"/>
      <path class="cls-6" d="M63.46,61.26l-.18-.97c-.01-.06-.03-.11-.04-.18l-.19-1.07h0s0,0,0,0l-.88-4.94c-.27-1.48-.77-2.49-1.51-3.01-.26-.18-.54-.33-.85-.45-.48-.18-1-.25-1.52-.25h-1.35s-2.41,0-2.41,0h0s-5.19,0-5.19,0c-.22,0-.39.18-.39.39,0,.18.12.34.3.38.08.02.15.04.23.05.63.16,1.19.47,1.66.92.45.43.68,1.04.68,1.8s-.23,1.56-.67,2.38c-.46.85-1.14,1.92-2.03,3.19l-.21.3-.82-1.86c-.46.36-1.67-.04-2.47-.37l.07.17c1.03.54,1.99.73,1.99.73-.31.4-1.15.03-1.82-.36l.13.29c.55.4,1.11.77,1.11.77-.09.07-.36.12-.7.19l1.07,2.46h.81l.86-1.25.43-.62c.94-1.35,1.66-2.49,2.14-3.39.49-.92.74-1.8.74-2.62,0-.68-.13-1.23-.39-1.64-.02-.03-.04-.06-.06-.09-.74-1.01-1.44-1.26-1.44-1.26h3.98s.58,0,.58,0h2.48c.52,0,1,.26,1.43.76.45.53.78,1.28.99,2.24l.19.92c-2.61.28-4.58.8-5.86,1.56-1.36.8-2.05,1.81-2.05,3,0,.78.31,1.42.93,1.91.26.21.56.37.89.49.43.15.93.24,1.48.24.46,0,.9-.08,1.34-.24.4-.14.78-.34,1.16-.61.78-.55,1.43-1.29,1.94-2.2.29-.52.51-1.06.65-1.63l.48,2.68c.11.52.32.97.64,1.34,0,0,0,0,0,0,.23.27.57.4.92.41.01,0,.02,0,.03,0,0,0,0,0,0,0h.81s-.11-.58-.11-.58ZM59.84,57.89c-.33.88-.79,1.62-1.38,2.19-.57.56-1.21.84-1.9.84s-1.17-.17-1.48-.51c-.31-.34-.47-.84-.47-1.48,0-.76.4-1.48,1.18-2.15.77-.66,2.29-1.09,4.52-1.28,0,.78-.16,1.58-.46,2.39Z"/>
      <path class="cls-6" d="M42.41,51.23c.24.17.49.45.73.84.25.41.56,1.05.93,1.89l.57,1.3.1.22c.1-.06.19-.12.29-.19.1-.07.21-.14.32-.2h0s.67-.58,1.04-1.09l-.09-.21c-.4-.95-.6-1.64-.6-2.06,0-.27.08-.45.25-.56.2-.13.55-.2,1.03-.21.21,0,.31-.14.32-.28v-.03c0-.14-.11-.28-.32-.28-.16,0-.32,0-.47,0,0,0,0,0,0,0h-4.87s-.07,0-.07,0h-1.62c-.16,0-.29.13-.29.29h0c0,.16.13.29.29.29h1.62c.34.02.63.1.86.26Z"/>
      <path class="cls-6" d="M17.81,60.89s.02,0,.03,0h0s-.02,0-.03,0Z"/>
      <path class="cls-7" d="M27.66,33.78c-.37-1.23-1.01-2.38-1.88-3.32-.21-.22-.42-.44-.65-.63-.56-.48-1.16-.92-1.82-1.24-.62-.26-1.26-.48-1.91-.66.26,1.76.96,3.44,1.87,4.97.09.16.19.31.29.46.96,1.07,2.17,1.87,3.64,2.16-.11-.38-.25-.76-.41-1.12-.67-1.55-1.77-2.92-3.21-3.83,1.05.49,1.96,1.25,2.69,2.15.82,1.03,1.43,2.22,1.74,3.51,0,0-.01-.65-.02-.69-.05-.59-.16-1.18-.33-1.75Z"/>
      <path class="cls-7" d="M38.5,47.09c-.29-.28-.66-.43-1.09-.43s-.79.15-1.08.45c-.28.29-.43.65-.43,1.06s.15.79.45,1.08c.08.08.16.14.25.2.24.15.51.23.81.23.18,0,.35-.02.5-.07.24-.07.45-.19.62-.37.28-.28.42-.65.42-1.07s-.15-.79-.45-1.08Z"/>
      <g>
        <path class="cls-3" d="M12.27,3.87c-.24-.13-.42-.32-.55-.56-.13-.25-.2-.54-.2-.89v-1.26c0-.4,0-.65-.02-.77-.01-.12-.04-.23-.08-.32h.88c-.03.07-.05.13-.06.2-.01.06-.02.16-.03.29,0,.13,0,.33,0,.61v1.12c0,.36.08.64.24.84.16.21.38.31.66.31.3,0,.53-.1.68-.3.15-.2.23-.48.23-.85v-1.16c0-.37,0-.62-.02-.73-.01-.12-.04-.22-.08-.32h.83c-.04.09-.07.2-.08.32-.01.12-.02.36-.02.73v1.34c0,.51-.13.9-.4,1.18-.26.28-.65.42-1.15.42-.32,0-.6-.06-.84-.19Z"/>
        <path class="cls-3" d="M17.09.66v2.25c0,.4,0,.65.02.77.01.12.04.23.08.32h-.88c.03-.07.05-.13.06-.2.01-.06.02-.16.03-.29,0-.13,0-.33,0-.61V.66h-.11c-.34,0-.57,0-.67.01-.11,0-.2.03-.26.06l.1-.7c.12.03.32.05.6.05h1.38c.28,0,.48-.02.6-.05l.1.7c-.07-.03-.15-.05-.26-.06-.11,0-.33-.01-.67-.01h-.11Z"/>
        <path class="cls-3" d="M20.3.66v2.25c0,.4,0,.65.02.77.01.12.04.23.08.32h-.88c.03-.07.05-.13.06-.2.01-.06.02-.16.03-.29,0-.13,0-.33,0-.61V.66h-.11c-.34,0-.57,0-.67.01-.11,0-.2.03-.26.06l.1-.7c.12.03.32.05.6.05h1.38c.28,0,.48-.02.6-.05l.1.7c-.07-.03-.15-.05-.26-.06-.11,0-.33-.01-.67-.01h-.11Z"/>
        <path class="cls-3" d="M24.22,4s.02-.09.02-.16c0-.15-.05-.37-.15-.64l-.11-.31h-1.36l-.11.31c-.1.3-.15.52-.15.66,0,.06,0,.11.02.15h-.91c.07-.09.15-.26.24-.51l.7-1.92c.09-.24.17-.45.24-.64.07-.18.12-.3.14-.36.09-.22.14-.37.15-.45l.77-.11c.01.09.04.19.07.29.03.1.11.31.22.62l.23.64.68,1.89c.09.25.18.43.26.54h-.96ZM22.81,2.35h.99l-.1-.29c-.13-.36-.22-.63-.27-.8-.05-.17-.1-.37-.14-.59-.04.24-.09.45-.14.63-.05.18-.13.42-.24.73l-.11.32Z"/>
        <path class="cls-3" d="M28.23,2.96c.04.05.08.1.11.14.03.04.06.08.08.11.28.4.48.66.59.78h-.84c-.08-.1-.25-.34-.51-.71l-.11-.16-.72-1.05h.02c.31.01.55-.04.73-.16.17-.12.26-.34.26-.66,0-.21-.07-.37-.2-.49s-.32-.18-.57-.18c-.16,0-.28,0-.38.03-.02.15-.03.56-.03,1.26v1.03c0,.4,0,.65.02.77.01.12.04.23.08.32h-.88c.03-.07.05-.13.06-.2.01-.06.02-.16.03-.29,0-.13,0-.33,0-.61v-1.04c0-.51,0-.88,0-1.1,0-.22-.01-.37-.03-.46-.01-.08-.03-.16-.06-.23.36-.05.73-.07,1.12-.07.35,0,.64.05.88.14.23.1.4.22.51.39s.16.34.16.54c0,.3-.09.53-.26.7s-.4.29-.69.35l.62.85Z"/>
        <path class="cls-3" d="M33.61.32c.25.21.38.5.38.88s-.12.67-.37.89c-.25.22-.65.33-1.2.33-.13,0-.24,0-.32-.01v.49c0,.4,0,.65.02.77.01.12.04.23.08.32h-.88c.03-.07.05-.13.06-.2.01-.06.02-.16.03-.29,0-.13,0-.33,0-.61v-1.04c0-.51,0-.87,0-1.09,0-.22-.01-.37-.03-.46-.01-.09-.03-.16-.06-.24.4-.04.8-.07,1.19-.07.49,0,.86.11,1.11.32ZM32.1,2.34c.28-.03.51-.09.68-.2.17-.11.3-.24.38-.39.08-.15.11-.3.11-.45,0-.23-.06-.41-.19-.52-.13-.12-.31-.18-.54-.18-.19,0-.33,0-.41.03-.01.1-.02.22-.02.35,0,.13,0,.43,0,.91v.47Z"/>
        <path class="cls-3" d="M37.08,2.96c.04.05.08.1.11.14.03.04.06.08.08.11.28.4.48.66.59.78h-.84c-.08-.1-.25-.34-.51-.71l-.11-.16-.72-1.05h.02c.31.01.55-.04.73-.16.17-.12.26-.34.26-.66,0-.21-.07-.37-.2-.49s-.32-.18-.57-.18c-.16,0-.28,0-.38.03-.02.15-.03.56-.03,1.26v1.03c0,.4,0,.65.02.77.01.12.04.23.08.32h-.88c.03-.07.05-.13.06-.2.01-.06.02-.16.03-.29,0-.13,0-.33,0-.61v-1.04c0-.51,0-.88,0-1.1,0-.22-.01-.37-.03-.46-.01-.08-.03-.16-.06-.23.36-.05.73-.07,1.12-.07.35,0,.64.05.88.14.23.1.4.22.51.39s.16.34.16.54c0,.3-.09.53-.26.7s-.4.29-.69.35l.62.85Z"/>
        <path class="cls-3" d="M40.87,4s.02-.09.02-.16c0-.15-.05-.37-.15-.64l-.11-.31h-1.36l-.11.31c-.1.3-.15.52-.15.66,0,.06,0,.11.02.15h-.91c.07-.09.15-.26.24-.51l.7-1.92c.09-.24.17-.45.24-.64.07-.18.12-.3.14-.36.09-.22.14-.37.15-.45l.77-.11c.01.09.04.19.07.29.03.1.11.31.22.62l.23.64.68,1.89c.09.25.18.43.26.54h-.96ZM39.46,2.35h.99l-.1-.29c-.13-.36-.22-.63-.27-.8-.05-.17-.1-.37-.14-.59-.04.24-.09.45-.14.63-.05.18-.13.42-.24.73l-.11.32Z"/>
        <path class="cls-3" d="M42.54,4c.03-.07.06-.13.07-.2.01-.07.02-.16.02-.29,0-.13,0-.33,0-.61v-1.74c0-.4,0-.65-.02-.77-.01-.12-.04-.23-.08-.32.38-.04.82-.07,1.32-.07.47,0,.86.08,1.18.24.32.16.56.39.73.68.16.29.24.64.24,1.04s-.08.78-.25,1.1c-.17.32-.42.56-.75.74-.33.18-.73.27-1.21.27-.45,0-.87-.02-1.27-.07ZM44.55,3.31c.2-.11.38-.27.52-.49.14-.22.21-.51.21-.84s-.07-.6-.21-.8c-.14-.2-.32-.35-.54-.43-.22-.09-.45-.13-.69-.13-.11,0-.27,0-.47.03-.01.05-.02.16-.02.35,0,.18,0,.54,0,1.06,0,.78,0,1.23.01,1.34.07.03.14.05.24.07.09.01.22.02.37.02.2,0,.4-.05.61-.16Z"/>
        <path class="cls-3" d="M48.57,3.41c.27,0,.45,0,.56-.03.1-.02.2-.05.28-.09l-.22.75c-.08-.02-.17-.04-.25-.04-.08,0-.2,0-.36,0h-1.62c.03-.07.06-.14.07-.2.01-.06.02-.16.03-.29,0-.13,0-.33,0-.61v-1.72c0-.28,0-.49,0-.62,0-.13-.01-.23-.03-.29-.01-.06-.03-.13-.06-.2h1.42c.16,0,.29,0,.39,0,.1,0,.19-.02.27-.04l.21.7c-.06-.03-.14-.05-.23-.06-.09,0-.29-.01-.6-.01h-.67c-.01.16-.02.5-.02,1.01h.7c.22,0,.39,0,.5-.03l.08.66c-.05-.02-.12-.04-.2-.05-.08-.01-.19-.02-.35-.02h-.72v.04c0,.59,0,.96.01,1.13h.81Z"/>
        <path class="cls-3" d="M50.51,4.01c-.17-.03-.32-.08-.43-.13l-.09-.81c.16.12.32.22.48.29.17.07.37.11.6.11s.4-.05.51-.14c.12-.09.18-.21.18-.36,0-.18-.06-.32-.18-.44-.12-.11-.32-.22-.6-.33-.25-.09-.44-.2-.58-.32-.14-.12-.23-.24-.28-.38-.05-.14-.08-.3-.08-.49,0-.17.04-.33.13-.48.09-.15.22-.28.41-.37.18-.09.41-.14.69-.14.17,0,.34.02.5.05.16.03.3.08.41.13l.09.77c-.12-.08-.21-.14-.29-.18s-.18-.08-.3-.11c-.12-.03-.26-.05-.41-.05-.18,0-.32.03-.42.1s-.14.17-.14.32c0,.12.05.22.15.31s.26.18.48.26c.38.13.66.3.83.5.17.2.26.47.26.81,0,.22-.05.41-.16.59-.11.18-.26.31-.47.42-.21.1-.46.15-.75.15-.2,0-.39-.02-.57-.05Z"/>
        <path class="cls-3" d="M56.71,2.9c0,.4,0,.65.02.77.01.12.04.23.08.32h-.88c.03-.07.05-.13.06-.2.01-.06.02-.16.03-.29,0-.13,0-.33,0-.61v-.66h-1.9v.66c0,.4,0,.65.02.77.01.12.04.23.08.32h-.88c.03-.07.05-.13.06-.2.01-.06.02-.16.03-.29,0-.13,0-.33,0-.61v-1.74c0-.4,0-.65-.02-.77-.01-.12-.04-.23-.08-.32h.88c-.03.07-.05.13-.06.2-.01.06-.02.16-.03.29,0,.13,0,.33,0,.61v.48h1.9v-.48c0-.4,0-.65-.02-.77-.01-.12-.04-.23-.08-.32h.88c-.03.07-.05.13-.06.2-.01.06-.02.16-.03.29,0,.13,0,.33,0,.61v1.74Z"/>
      </g>
      <g>
        <path class="cls-3" d="M31.54,29.11s.02-.07.02-.12c0-.11-.04-.27-.11-.47l-.08-.23h-.99l-.08.23c-.07.22-.11.38-.11.48,0,.04,0,.08.02.11h-.67c.05-.07.11-.19.18-.37l.51-1.4c.06-.18.12-.33.17-.47.05-.13.09-.22.1-.26.06-.16.1-.27.11-.33l.56-.08c.01.07.03.14.05.21.03.07.08.23.16.45l.17.47.5,1.38c.07.18.13.31.19.39h-.7ZM30.51,27.91h.72l-.08-.21c-.09-.27-.16-.46-.19-.58-.04-.12-.07-.27-.1-.43-.03.18-.06.33-.1.46-.04.13-.1.31-.18.53l-.08.23Z"/>
        <path class="cls-3" d="M33.31,28.34c0,.27,0,.45.01.54,0,.08.03.16.06.23h-.61c.03-.07.05-.15.06-.23,0-.08.01-.26.01-.54v-.84c0-.46,0-.77-.01-.92,0-.15-.03-.27-.07-.34h.76l1.29,2.13h0v-1.36c0-.27,0-.45-.01-.54,0-.08-.03-.16-.06-.23h.61c-.03.07-.05.15-.06.23,0,.08-.01.26-.01.54v.83c0,.44,0,.74.01.9,0,.16.03.29.07.37h-.63l-1.42-2.27h0v1.5Z"/>
        <path class="cls-3" d="M36.16,29.11s.04-.1.05-.14c0-.05.02-.12.02-.21,0-.09,0-.24,0-.45v-1.27c0-.29,0-.48-.01-.56,0-.09-.03-.17-.06-.23.28-.03.6-.05.96-.05.34,0,.63.06.87.17.23.12.41.28.53.5s.18.47.18.76-.06.57-.18.8c-.12.23-.31.41-.55.54-.24.13-.54.19-.88.19-.33,0-.64-.02-.93-.05ZM37.63,28.6c.15-.08.28-.2.38-.36.1-.16.15-.37.15-.62s-.05-.44-.16-.59c-.1-.15-.24-.25-.4-.32-.16-.06-.33-.09-.51-.09-.08,0-.2,0-.34.02,0,.03-.01.12-.02.25,0,.14,0,.39,0,.78,0,.57,0,.9,0,.98.05.02.11.04.17.05.07.01.16.02.27.02.15,0,.29-.04.44-.12Z"/>
      </g>
      <g>
        <path class="cls-2" d="M34.01,32.54c-.2,0-.36.16-.36.36s.16.36.36.36.36-.16.36-.36-.16-.36-.36-.36Z"/>
        <path class="cls-2" d="M45.35,56.92c-.15-.03-.31-.07-.47-.11,0,0,.17.02.44.04.56.05,1.54.09,2.29-.04.56-.1.99-.29,1.04-.66,0,0-.41.19-1.18.34-.57.11-1.32.18-2.25.13-.1,0-.2-.01-.3-.02,0,0,.11,0,.28-.02.46-.04,1.38-.13,2.15-.35.71-.2,1.29-.51,1.22-.98,0,0-.45.35-1.36.67-.54.19-1.24.37-2.1.45-.06,0-.13.01-.19.02,0,0,.07-.01.18-.04.37-.09,1.25-.32,2.01-.67.74-.34,1.37-.79,1.3-1.32,0,0-.52.46-1.45.96-.52.28-1.18.57-1.95.8,0,0-.02,0-.02,0,0,0,0,0,.02-.01.19-.09,1.54-.74,1.84-.95.01,0,.02-.01.03-.02.37-.25,1.6-.97.91-2.65,0,0,0,.74-1.29,1.78-.18.15-.39.3-.62.45-.18.12-.36.24-.54.35,0,0,0,0,0,0-.1.07-.21.14-.31.2-.1.06-.19.13-.29.19-1.47.96-2.72,1.86-2.97,2.99-.32,1.41,1.43,3.17,3.52,4.43,0,0-1.6-1.28-1.33-2.33.2-.75,1.59-1.02,2.47-1.2.34-.07.61-.12.7-.19,0,0-.56-.36-1.11-.77-.46-.33-.91-.69-1.04-.9,0,0,.41.31.92.61.67.39,1.51.76,1.82.36,0,0-.96-.2-1.99-.73-.28-.14-.56-.31-.83-.51,0,0,.31.16.75.34.8.33,2.02.73,2.47.37.05-.04.09-.08.12-.14,0,0-.06,0-.17,0-.37,0-1.3-.05-2.53-.5-.2-.07-.41-.16-.63-.25,0,0,.23.06.58.14.66.14,1.72.33,2.41.23.37-.05.63-.18.66-.45,0,0-.29.08-.81.12-.56.04-1.38.03-2.39-.19Z"/>
        <path class="cls-2" d="M41.77,56.62c.35-.03.72.04.72.04,0,0-.84-.5-1.66-.11-.18.08-.34.19-.5.31-.15.12-.3.27-.47.37-.12.07-.51.03-.58.14,0,0,1.48,0,2.09.9,0,0-.2-.44-.25-.85-.02-.28.05-.71.65-.8ZM40.63,57.08s-.09-.04-.09-.09.04-.09.09-.09.09.04.09.09-.04.09-.09.09Z"/>
        <path class="cls-2" d="M13.01,59.17c-.11-.07-.28-.15-.54-.23-.26-.07-.61-.14-1.09-.17-.3-.01-.64,0-.99.03-.2.02-.4.05-.61.09-.56.11-1.11.3-1.56.53-.23.11-.43.24-.61.35-.18.12-.33.24-.45.34-.06.05-.11.1-.16.14-.05.04-.08.08-.11.11-.06.06-.09.1-.09.1,0,0,.04-.02.12-.07.04-.02.08-.05.14-.08.05-.03.11-.06.19-.09.14-.07.31-.14.5-.21.19-.07.41-.14.64-.19.46-.11.98-.18,1.5-.2.37-.02.73,0,1.07,0,.14,0,.27.01.39.02.44.02.78.03,1.04.02.26,0,.44-.03.56-.07.25-.07.27-.18.27-.18,0,0,.02-.11-.2-.25Z"/>
      </g>
      <path class="cls-1" d="M20.42,59.35s-.03,0-.1.04c-.04.02-.08.06-.14.12-.06.05-.13.13-.23.22-.02.02-.05.05-.07.07-.03.02-.06.05-.09.08-.06.06-.13.11-.2.18-.05.04-.1.08-.16.12,0,0,0,0-.01,0-.04.03-.09.06-.14.1,0,0,0,0-.01,0-.08.05-.17.11-.26.16-.03.02-.06.03-.09.05-.03.02-.07.03-.1.05-.07.04-.14.07-.21.1-.07.03-.15.06-.23.09-.08.03-.17.06-.26.08-.18.06-.37.09-.59.13-.16.02-.32.04-.5.05-.07,0-.13,0-.2,0-.51,0-1.06-.05-1.65-.16-.4-.07-.82-.17-1.25-.28-.04-.01-.09-.02-.13-.03-.02,0-.04,0-.06-.01-.13-.03-.26-.07-.39-.1-.09-.02-.19-.05-.28-.07-.54-.13-1.1-.25-1.66-.32-.04,0-.07,0-.11-.01-.29-.03-.58-.06-.87-.06-.04,0-.08,0-.12,0-.04,0-.08,0-.12,0-.08,0-.16,0-.24,0-.16.01-.31.02-.46.04-.3.03-.59.09-.87.15-.27.07-.53.14-.77.23-.34.12-.65.26-.92.4-.11.05-.21.11-.3.16-.16.09-.3.19-.43.27-.12.08-.22.16-.31.22-.16.13-.25.2-.25.2,0,0,.1-.06.27-.16.09-.05.2-.11.33-.17.13-.06.28-.14.45-.2.11-.05.23-.09.36-.14.26-.09.55-.18.87-.25.11-.02.22-.05.33-.07.14-.02.28-.05.43-.07.27-.03.54-.05.82-.05.14,0,.29,0,.43,0,.07,0,.15.01.22.02h.11s.11.02.11.02c.29.03.59.09.89.15.48.11.97.26,1.46.42.12.04.24.08.36.12.13.04.26.09.39.13.07.02.14.05.21.07.42.13.84.26,1.27.36.3.07.61.13.91.17.33.04.65.07.96.06.3,0,.59-.03.85-.08.27-.05.52-.11.74-.2.11-.04.22-.09.32-.13.1-.05.2-.09.28-.15.09-.05.17-.1.25-.16.04-.03.08-.05.12-.08.04-.03.07-.06.11-.08.28-.22.47-.44.61-.64.07-.1.13-.2.17-.29.02-.04.04-.09.06-.13,0-.02.02-.04.02-.06,0-.02.01-.04.02-.06.06-.15.07-.27.08-.36,0-.09,0-.15-.01-.2-.02-.09-.05-.1-.05-.1Z"/>
      <path class="cls-1" d="M17.59,60.45c.09,0,.22-.01.37-.05.15-.04.3-.1.45-.19.14-.09.27-.2.36-.32.05-.06.08-.12.1-.17.02-.05.04-.1.04-.14.01-.09,0-.15-.02-.2-.04-.09-.11-.12-.11-.12,0,0-.07-.02-.16,0-.04.01-.1.04-.15.08-.03.02-.06.05-.08.08-.03.03-.06.07-.09.11-.07.09-.14.19-.22.3-.08.11-.17.21-.27.3-.09.09-.19.17-.26.22-.04.03-.07.04-.09.06-.02.01-.03.02-.03.02,0,0,.01,0,.04,0,.02,0,.06,0,.11,0Z"/>
      <path class="cls-3" d="M12.91,53.23c0,.21.03.41.07.62.04.22.06.45.11.67.06.18.13.35.19.53.06.17.08.35.13.52.04.12.1.22.16.33.03.06.08.11.07.18,0,.15,0,.29.02.43.01.07.02.15.03.22.02.11.07.21.08.32,0,.07.04.13.06.2.03.12.06.24.1.36.01.07.05.13.07.2.01.1,0,.2,0,.31,0,.18.03.37.03.55.03.11.06.23.08.35.02.12.04.24.04.36-.02.21-.06.41-.09.62,0,.05-.04.06-.07.09-.02.02,0,.06-.02.08-.05.04-.13-.08-.13.05,0,.09.03.09.1.09.02,0,.05,0,.05.03,0,.01,0,.02-.01.03-.08.04-.23,0-.19-.11,0-.02-.02-.02-.03,0-.06.04-.06.12-.06.19,0,.04.07,0,.04.07,0,0,0,0,0,0h0s.04,0,.06.01h0s.1-.05.15-.03c.01.01.01.05,0,.06,0,0,0,0-.01,0h0c.43.11.84.2,1.25.28.59.11,1.14.17,1.65.16.07,0,.14,0,.2,0h0s0-.07,0-.11c0-.08.03-.16,0-.24,0-.06-.05-.11-.06-.17,0-.07.01-.15-.01-.21-.02-.08-.07-.14-.08-.22-.03-.09-.02-.19-.04-.28-.03-.12-.09-.24-.12-.36,0-.1-.02-.2-.01-.3,0-.2.08-.39.09-.58.02-.21,0-.41,0-.62,0-.16.05-.31.09-.46.01-.1.01-.21.05-.31.04-.11.06-.23.1-.34.03-.07.03-.15.04-.23.01-.09.04-.19.04-.29,0-.09,0-.19,0-.28.09-.2.21-.39.27-.61.09-.3.24-.59.33-.89.03-.12.03-.24.04-.37.02-.15.05-.31.06-.46.02-.18.04-.37.03-.55,0-.06.03-.12.01-.18-.05-.15-.08-.29-.14-.44-.06-.12-.15-.23-.18-.36-.09-.25-.23-.48-.38-.7-.03-.04,0-.08,0-.12,0-.08-.05-.16-.13-.19-.03-.01-.08,0-.1,0-.06-.07-.1-.16-.15-.23-.04-.07-.09-.13-.09-.21-.04-.08-.08-.16-.14-.23-.02-.03-.05-.05-.07-.08,0-.01.01-.03.02-.05,0-.02,0-.04-.02-.04-.02,0-.05.02-.07.02-.02,0-.04-.02-.05-.03-.03-.04-.06-.09-.09-.14-.14-.23-.26-.48-.41-.7-.01-.04,0-.09-.01-.14-.06-.1-.13-.2-.19-.3-.07-.11-.11-.23-.19-.32-.02-.02-.05-.02-.08-.03-.03-.02-.07-.02-.08.01-.04.07-.07.14-.09.22-.06.1-.13.2-.18.3-.04.07-.08.15-.11.22-.06.09-.14.18-.18.28-.1.18-.19.36-.29.54-.06.1-.16.17-.23.26-.08.13-.12.32-.25.42-.05,0-.14-.01-.16.06,0,.05.04.08.04.13,0,.05-.04.12-.09.14-.02,0-.06,0-.08,0-.03.01-.04.04-.05.07-.02.03-.04.05-.06.08-.02.06-.07.12-.07.19,0,.02.03.05.03.07-.11.18-.19.37-.28.56-.08.15-.2.29-.25.46-.02.11-.1.2-.09.31,0,.09.06.18.05.28ZM14.72,52.89s0,0,0,0c0,0,0-.02,0-.03h0s.02,0,.03.02c0,0-.01,0-.02.01ZM14.74,52.83s0,0,0,0c0,0,0-.01-.01-.02,0,0,.02-.01.03-.02h0s-.01.02-.01.03ZM14.74,52.67h0s0,.05-.01.07c-.01-.03,0-.05,0-.07ZM14.74,52.72s0,0,0,0c0,0,0,.02,0,.02,0,0,0,0,0,0v-.02ZM14.83,52.51s0,0,0,0h0s0-.02,0-.03c0,0,0,0,0,0,0,0,0,.01,0,.02,0,0,0,.01,0,.02ZM14.86,52.5s0,0,0,0c0,0,0-.02,0-.03h0s.02,0,.02.01c0,0-.01.01-.02.02ZM14.88,52.46h0s-.02-.02-.01-.03c0-.01.01-.02.02-.01,0,0,0,0,0,0,0,0,0,0,0,0,0,.02-.02.02-.02.03ZM15.01,52.45s-.01.01-.02.02c0,0,0,0,0,0,0,0,0-.01.01-.02,0,0,0,0,.01,0h0ZM15.22,52.17s0,0,0,0c0,0,0,0,.01-.01,0,0,0,0,0,0,0,0,0,0-.01.01ZM15.38,52.2s-.02,0-.03,0c0,0,0-.01,0-.02,0,0,0,0,0,0,.01,0,.02,0,.03.02h0ZM15.47,52.22h0s-.02,0-.02-.02c0,0,.02,0,.02,0,0,0,0,.01,0,.02ZM15.42,52.07s.02-.03.04-.03c0,0,0,0,0,0,0,0,0,0,0,0h0s-.03.02-.04.02ZM15.49,52.05s0,0,0,0c0,0,.01,0,.02,0,0,0,0,0,0,0,0,0-.01,0-.02,0ZM15.56,52.31s0,.02.01.02t-.01-.02ZM15.59,52.38s0-.01,0-.02c0,0,0,0,0,0,0,0,0,.01,0,.02,0,0,0,0,0,0ZM15.62,52.42s0,0,.01.01t-.01-.01ZM15.81,52.63s0-.01-.01-.02c0,0,0,0,0-.01h0s0,.02.01.02c0,0,0,0,0,0ZM15.83,52.66s0,0,0,0c0,0,0-.02,0-.02,0,0,0,0,0,0h0s0,.02.01.03c0,0,0,0,0,0ZM15.93,52.94s-.01,0-.02,0c0,0,0-.01,0-.02,0,0,0,0,0,0h0s.02.01.02.02c0,0,0,0,0,0ZM15.18,49.31s.05-.06.06-.1c.03-.07.06-.13.1-.2.01-.03.04-.05.06-.02.02.05.03.1.05.15.01.04.07.13.04.16-.02.02-.04,0-.06-.02-.03-.02-.07-.05-.1-.02-.03.03-.06.05-.09.08,0,0-.02.01-.03.02h0s-.03-.03-.02-.05ZM13.64,52.75c.07-.15.14-.3.22-.44.05-.1.09-.21.14-.31.02-.03.03-.08.06-.1.04-.02.08.01.11-.05.04-.05.05-.12.08-.17.03-.03.08-.03.09-.08.01-.06-.04-.08-.07-.13,0-.01-.01-.03,0-.04.09-.03.05-.09.07-.16,0-.02.04-.02.05-.03.05-.04-.02-.07-.04-.09-.01-.04.04-.08.05-.12.04-.09.08-.19.13-.27.04-.08.09-.16.16-.21.05-.05.12-.08.18-.12.1-.08.16-.2.2-.32.03-.07,0-.14.04-.21.05-.09.1-.18.13-.28,0-.02,0-.03.02-.05.01-.02.05-.02.05,0,.01.15.13.24.2.36.03.07.04.14.07.21.04.1.1.2.19.27.06.05.15.07.21.12.01.02.01.04.02.06,0,.02.02.04.02.05,0,.04.03.07.07.1.04.06.05.14.09.19.02.02.04.03.06.05.04.04.04.1.07.14.03.06.05.12.08.18.02.04.05.09.06.14,0,.08-.12.04-.09.2.01.07.07.13.14.15.03,0,.06,0,.08.02.09.21.17.42.27.62.03.06.06.13.09.2.04.07.08.13.11.2.02.07.07.13.08.19,0,.05-.04.11-.06.16-.02.05-.04.1-.06.15,0,.05-.02.09-.03.14,0,.05,0,.1-.02.14-.02.1-.01.21-.05.31-.01.05-.01.1-.02.14,0,.08-.03.15-.04.23,0,.04-.02.09-.04.13-.05.07-.12.13-.17.21,0,.01-.02.03-.03.04-.08.06-.12.15-.19.21-.08.07-.13.16-.18.25-.02.04-.04.09-.09.09-.02,0-.04-.03-.05-.05-.02-.04-.03-.09-.01-.13.02-.06.01-.13.02-.19,0-.04,0-.07.02-.1.02-.04,0-.08.02-.12,0-.01.05-.02.03-.04-.03-.01-.07-.04-.07-.08,0-.02.03-.03.04-.05.02-.02.03-.04.04-.06.12-.14.21-.33.15-.51,0-.01-.02-.02-.02-.03-.04-.05-.06-.11-.07-.17,0-.04-.01-.08-.02-.12-.02-.08,0-.17-.04-.26,0-.04-.07-.05-.07-.1,0-.03.05-.02.07-.04.02-.04-.07-.13-.1-.16-.03-.03-.07-.05-.1-.07-.01-.01-.02-.03-.04-.05-.02-.03-.09-.06-.05-.1.02-.02.04-.06.04-.09,0-.02-.03-.03-.04-.04-.02-.02-.01-.04-.02-.06-.03-.07,0,.03,0,.04,0,.02-.01,0-.02-.01-.01-.05-.04-.1-.09-.12-.05-.02.02-.01,0-.05,0,0,0,0-.01,0,0,0-.02-.03,0-.04.02-.02.04-.04.04-.07,0-.02-.02-.03-.03-.04,0,0-.01-.05-.01-.03,0,.08-.02,0-.03-.03-.02-.03-.05-.05-.08-.06-.02-.01-.05-.01-.07-.02-.02,0-.01-.03,0-.04.03-.02.07-.01.11,0,.02,0,0-.02,0-.02-.02-.02-.05-.01-.08-.02,0,0,.02-.02,0-.03,0,0-.01,0-.02-.01-.01,0-.02,0-.02,0,.01,0,.02-.01,0-.02-.02-.02-.04-.05-.07-.04-.05,0-.1,0-.14.04h0s-.04.07-.08.08c-.03,0-.06.01-.08.02-.02,0-.04,0-.06,0-.06.02-.13.05-.18.1-.03.03-.05.08-.05.12,0,.01,0-.02,0-.02,0,.02-.02.05-.03.06-.02.03-.04.09-.02.13,0,.02-.01.02-.02.03-.04.04-.08.1-.08.16,0,0,0,.02,0,.02,0,0,0,.01-.02.02-.04.04-.06.1-.05.16.02.05.12-.02,0,.11-.03.02-.07.04-.1.06-.02,0-.09,0-.06.05.02.02.05.02.05.05,0,.04,0,.07,0,.11,0,.02,0,.05-.02.07-.03.04-.07.09-.08.15,0,.03.01.07,0,.1,0,.07.01.15-.03.21-.04.04-.08.08-.1.14-.02.04-.03.08-.03.12,0,.02-.02.05,0,.07.04.03.03.09.06.12.04.04.02.13-.05.11-.04-.02-.07-.06-.07-.11,0-.02,0-.06,0-.08-.02,0-.03.04-.03.06-.01.04,0,.07.03.1.12.16.19,0,.29.17.03.03.04.07.03.11,0,.07.01.14.03.2.01.04.04.08.04.12,0,.02,0,.05.01.05.04,0,.05.04.03.07-.03.04-.06.08-.08.12-.01.02-.04.02-.06.03-.02,0-.04,0-.05,0-.02-.01-.01-.04-.02-.05,0-.02-.03-.04-.03-.06-.03-.08-.08-.14-.13-.21-.04-.05-.08-.08-.12-.12-.04-.04-.08-.08-.12-.12-.06-.04-.09-.11-.13-.17-.05-.05-.05-.11-.06-.17-.04-.15-.07-.31-.08-.46-.03-.24-.04-.48-.14-.71-.02-.04-.02-.08-.04-.12-.02-.1.05-.2.08-.29ZM15.59,52.13s.01,0,.02,0c0,0,.01,0,.02,0h0s-.03,0-.04,0ZM14.67,52.92s0-.04,0-.06h0s0,.04,0,.06Z"/>
      <path class="cls-2" d="M13.01,59.17c-.11-.07-.28-.15-.54-.23-.26-.07-.61-.14-1.09-.17-.3-.01-.64,0-.99.03-.2.02-.4.05-.61.09-.56.11-1.11.3-1.56.53-.23.11-.43.24-.61.35-.18.12-.33.24-.45.34-.06.05-.11.1-.16.14-.05.04-.08.08-.11.11-.06.06-.09.1-.09.1,0,0,.04-.02.12-.07.04-.02.08-.05.14-.08.05-.03.11-.06.19-.09.14-.07.31-.14.5-.21.19-.07.41-.14.64-.19.46-.11.98-.18,1.5-.2.37-.02.73,0,1.07,0,.14,0,.27.01.39.02.44.02.78.03,1.04.02.26,0,.44-.03.56-.07.25-.07.27-.18.27-.18,0,0,.02-.11-.2-.25Z"/>
      <g>
        <path class="cls-4" d="M54.02,10.35c-1,0-1.96.55-2.88,1.63-.88,1.05-1.64,2.44-2.25,4.14-.13.38-.25.76-.37,1.15v-6.93c-.09-.08-.18-.1-.24-.1-.05,0-.13.01-.22.08-.33.18-.82.37-1.44.56-.64.19-1.29.35-1.92.46h-.01v.69h.04c.52,0,.88.16,1.08.5.22.36.33.93.34,1.69v.05h0v9.48c.1,0,.22,0,.37,0h0c1.11,0,2-.9,2-2v-.61c.15-1.57.48-3.13.99-4.62.52-1.52,1.13-2.77,1.83-3.72.66-.9,1.28-1.36,1.85-1.36.36,0,.65.23.89.69.02.04.04.07.05.11.17.35.4.96.55,1.93.4-.9,1-1.72,1.77-2.43-.71-.93-1.53-1.4-2.43-1.4Z"/>
        <path class="cls-3" d="M.32,23.76s.13-.01.22-.08c.33-.18.82-.37,1.44-.56.64-.19,1.29-.35,1.92-.46h.01v-.69h-.04c-.52,0-.88-.16-1.08-.5-.22-.36-.33-.93-.34-1.69v-.34c0-.3.04-.67.11-1.1.08-.51.21-1.12.38-1.82.32-1.3.82-2.49,1.46-3.52.62-.99,1.36-1.47,2.25-1.47.82,0,1.46.3,1.96.93.5.63.75,1.78.75,3.4v3.35l-.03,4.38.07.07c.09.09.18.11.25.11.05,0,.13-.01.22-.08.33-.18.82-.37,1.44-.56.39-.12.78-.22,1.17-.31-.19-.17-.35-.35-.48-.55,0,0,0,0,0,0,0,0-1.24-1.51-.22-3.69v-2.79c0-1.74-.28-3.11-.84-4.05-.58-.99-1.66-1.49-3.2-1.49-1.88,0-3.29.92-4.19,2.74-.4.8-.76,1.7-1.06,2.66h-.03v-3.4c0-1.11-.9-2-2-2H.03v9.48s-.03,3.86-.03,3.86l.07.07c.09.09.18.11.25.11Z"/>
        <path class="cls-7" d="M21.67,21.49c.12.59.36,1.1.72,1.52,0,0,0,0,0,0,.27.31.67.47,1.09.47h.93l-.32-1.77c-.01-.07-.03-.13-.04-.2l-.22-1.22h0s0,0,0,0l-1-5.62c-.3-1.68-.88-2.83-1.72-3.42-.29-.21-.62-.37-.97-.51-.55-.21-1.14-.29-1.72-.29h-1.53s-2.74,0-2.74,0v.66h3.48c.59,0,1.13.29,1.63.86.51.6.89,1.45,1.13,2.54l.21,1.05c-2.97.32-5.21.91-6.67,1.77-1.55.91-2.34,2.06-2.34,3.41,0,.56.14,1.06.43,1.49.13.2.29.38.48.55.05.04.1.09.15.13.3.24.64.42,1.01.55.49.18,1.05.27,1.68.27.52,0,1.03-.09,1.53-.27.45-.16.89-.39,1.32-.69.89-.63,1.63-1.47,2.2-2.5.33-.59.58-1.21.74-1.85l.55,3.05ZM20.17,19c-.37,1-.9,1.84-1.57,2.49-.65.63-1.38.95-2.17.95s-1.33-.19-1.68-.58c-.12-.13-.21-.27-.29-.44.76-.04,1.5-.31,2.13-.72,1.29-.82,2.28-2.03,3.05-3.32-.74.91-1.62,1.73-2.61,2.34-.62.38-1.34.68-2.07.73,0,0,0,0,0,0-.05,0-.1,0-.15,0-.57,0-.57-.49-.54-.71.12-.71.56-1.38,1.3-2.02.87-.75,2.6-1.24,5.14-1.45,0,.89-.18,1.8-.52,2.72Z"/>
        <path class="cls-1" d="M43.43,10.35c-.09-.09-.18-.11-.25-.11-.05,0-.13.01-.22.08-.33.18-.82.37-1.44.56-.64.19-1.29.35-1.91.46h-.01v.69h.04c.52,0,.88.16,1.08.5.22.36.33.93.34,1.69v.34c0,.66-.17,1.64-.49,2.91-.32,1.3-.81,2.49-1.46,3.52-.62.99-1.36,1.47-2.25,1.47-.82,0-1.46-.3-1.96-.93-.5-.63-.75-1.77-.75-3.4v-3.95l.03-4.37-.07-.07c-.09-.09-.18-.11-.25-.11-.05,0-.13.01-.22.08-.33.18-.81.37-1.44.56-.54.16-1.08.3-1.61.4-.11.02-.21.03-.32.03v.71h.09s.34.01.52.13c0,0,0,0,0,0,.2.1.36.27.48.5.24.47.36,1.17.36,2.09v4.08c0,1.74.28,3.1.84,4.05.58.99,1.66,1.49,3.2,1.49,1.88,0,3.29-.92,4.19-2.74.4-.8.75-1.69,1.06-2.65h.03v3.39c0,1.11.9,2,2,2h.43v-9.48s.03-3.85.03-3.85l-.07-.07Z"/>
        <path class="cls-1" d="M27.55,7.89v-1.15h-.77v.23c0,.44-.09.89-.28,1.29-.19.41-.43.76-.72,1.06-.4.42-.9.77-1.48,1.06-.24.11-.86.35-1.68.42.32.19.63.39.91.62h1.59v8.83c0,2.1.81,3.27,2.41,3.47.05,0,.1.01.15.02.02,0,.04,0,.06,0,.02,0,.04,0,.06,0,.03,0,.06,0,.09,0,.97,0,1.83-.52,2.29-1.3-.11.05-.23.09-.36.12-.13.03-.27.05-.42.05-.06,0-.13,0-.19,0-.7-.07-1.29-.53-1.55-1.16-.09-.22-.14-.45-.14-.7v-9.33h2.72v-.71h-2.69v-2.82Z"/>
        <path class="cls-3" d="M61.52,10.34c-3.68,0-6.67,2.97-6.71,6.64-.04,3.7,2.97,6.75,6.66,6.78,2.89.02,5.36-1.79,6.33-4.34h-1.46c-.67,0-1.28.4-1.56,1.01-.71,1.57-1.91,2.6-3.27,2.6-2.15,0-3.89-2.58-3.96-5.79h10.66c0-.06,0-.12,0-.18,0-3.71-3-6.71-6.71-6.71ZM61.52,11.07c2.06,0,3.76,2.38,3.94,5.43h-7.88c.18-3.04,1.88-5.43,3.94-5.43Z"/>
      </g>
      <g>
        <path class="cls-3" d="M13.22,72.34c.19.15.28.35.28.61,0,.28-.09.5-.27.66-.18.16-.45.24-.82.24-.08,0-.16,0-.25-.01v.22c0,.29,0,.49.01.58,0,.09.03.2.06.31h-.81c.04-.11.06-.21.07-.3,0-.09.01-.29.01-.59v-.61c0-.36,0-.62,0-.77,0-.15,0-.26-.02-.32-.01-.06-.03-.13-.05-.2.29-.03.6-.04.92-.04.39,0,.68.07.87.22ZM12.16,73.78c.23-.04.4-.13.51-.26.1-.13.16-.29.16-.46,0-.14-.04-.25-.11-.33-.07-.08-.18-.12-.32-.12-.1,0-.17,0-.22.02,0,.07-.01.15-.02.23,0,.09,0,.28,0,.59v.32Z"/>
        <path class="cls-3" d="M15.76,74.08c.13.19.25.36.35.51.11.15.2.27.27.36h-.77c-.1-.14-.27-.39-.49-.77l-.37-.57c.19,0,.33-.05.43-.13.1-.08.15-.22.15-.42,0-.14-.04-.24-.11-.32-.07-.08-.18-.12-.33-.12-.08,0-.14,0-.2.02-.01.1-.02.37-.02.83v.6c0,.3,0,.5.01.59,0,.09.03.19.07.3h-.81c.04-.11.06-.21.07-.3,0-.09.01-.29.01-.59v-.61c0-.37,0-.63,0-.78,0-.15-.01-.26-.02-.32-.01-.06-.03-.13-.05-.2.28-.03.58-.05.89-.05.41,0,.71.07.9.22.19.15.29.34.29.58,0,.18-.05.34-.16.46-.1.12-.24.21-.42.27l.32.45Z"/>
        <path class="cls-3" d="M17.96,74.45c.19,0,.32,0,.4-.02s.15-.03.21-.07l-.17.62c-.07-.01-.13-.02-.19-.02-.06,0-.15,0-.26,0h-1.21c.03-.06.05-.12.06-.17.01-.05.02-.13.02-.22,0-.1,0-.26,0-.5v-1.01c0-.24,0-.4,0-.5,0-.1,0-.17-.02-.22-.01-.05-.03-.11-.05-.17h1.11c.12,0,.21,0,.28,0,.07,0,.13-.01.2-.02l.18.6c-.07-.03-.14-.04-.21-.05-.07,0-.21-.01-.41-.01h-.4c0,.15-.01.34-.01.57h.39c.13,0,.25,0,.34-.02l.08.56s-.09-.02-.15-.03c-.06,0-.15,0-.28,0h-.38c0,.36,0,.59,0,.71h.47Z"/>
        <path class="cls-3" d="M18.99,74.87l-.07-.69c.08.08.19.15.34.21.14.06.3.09.46.09.13,0,.23-.02.31-.07.07-.05.11-.11.11-.2,0-.1-.04-.18-.11-.24-.07-.06-.18-.13-.34-.19-.28-.11-.48-.24-.58-.38-.1-.14-.16-.31-.16-.52,0-.14.03-.26.09-.38.06-.11.16-.21.3-.28.14-.07.32-.11.53-.11.24,0,.47.04.68.13l.08.65c-.12-.08-.23-.14-.34-.19-.11-.05-.23-.07-.38-.07-.21,0-.31.07-.31.22,0,.06.03.12.09.17.06.05.17.11.33.17.2.08.35.16.46.24.11.09.19.18.24.29.05.11.07.24.07.39,0,.17-.04.32-.12.45-.08.13-.2.23-.36.31-.16.07-.34.11-.55.11-.31,0-.57-.04-.78-.13Z"/>
        <path class="cls-3" d="M22.53,74.45c.19,0,.32,0,.4-.02s.15-.03.21-.07l-.17.62c-.07-.01-.13-.02-.19-.02-.06,0-.15,0-.26,0h-1.21c.03-.06.05-.12.06-.17.01-.05.02-.13.02-.22,0-.1,0-.26,0-.5v-1.01c0-.24,0-.4,0-.5,0-.1,0-.17-.02-.22-.01-.05-.03-.11-.05-.17h1.11c.12,0,.21,0,.28,0,.07,0,.13-.01.2-.02l.18.6c-.07-.03-.14-.04-.21-.05-.07,0-.21-.01-.41-.01h-.4c0,.15-.01.34-.01.57h.39c.13,0,.25,0,.34-.02l.08.56s-.09-.02-.15-.03c-.06,0-.15,0-.28,0h-.38c0,.36,0,.59,0,.71h.47Z"/>
        <path class="cls-3" d="M25.42,74.08c.13.19.25.36.35.51.11.15.2.27.27.36h-.77c-.1-.14-.27-.39-.49-.77l-.37-.57c.19,0,.33-.05.43-.13.1-.08.15-.22.15-.42,0-.14-.04-.24-.11-.32-.07-.08-.18-.12-.33-.12-.08,0-.14,0-.2.02-.01.1-.02.37-.02.83v.6c0,.3,0,.5.01.59,0,.09.03.19.07.3h-.81c.04-.11.06-.21.07-.3,0-.09.01-.29.01-.59v-.61c0-.37,0-.63,0-.78,0-.15-.01-.26-.02-.32-.01-.06-.03-.13-.05-.2.28-.03.58-.05.89-.05.41,0,.71.07.9.22.19.15.29.34.29.58,0,.18-.05.34-.16.46-.1.12-.24.21-.42.27l.32.45Z"/>
        <path class="cls-3" d="M28.78,72.16c-.07.1-.13.24-.2.42l-.51,1.47-.12.33c-.05.14-.09.25-.12.34-.03.09-.05.17-.07.24h-.71c-.02-.08-.05-.19-.1-.32-.05-.14-.11-.33-.2-.58l-.5-1.44c-.07-.19-.14-.34-.21-.45h.87s-.02.09-.02.15c0,.11.03.25.08.4l.26.81c.06.19.11.34.14.45.03.1.06.22.08.35.02-.14.05-.27.08-.38.03-.11.07-.25.13-.41l.27-.82c.05-.16.08-.29.08-.41,0-.05,0-.1-.02-.15h.81Z"/>
        <path class="cls-3" d="M29.25,73.05c0-.3,0-.5-.01-.59,0-.09-.03-.19-.06-.3h.81c-.03.08-.04.15-.05.2-.01.06-.02.13-.02.23,0,.1,0,.25,0,.46v1.02c0,.29,0,.49.01.58,0,.09.03.2.06.31h-.81c.04-.11.06-.21.07-.3,0-.09.01-.29.01-.59v-1.02Z"/>
        <path class="cls-3" d="M31.3,74.11c0,.2,0,.35,0,.45,0,.09.01.17.02.22.01.05.03.11.05.17h-.74c.03-.06.04-.12.05-.17,0-.05.02-.12.02-.22,0-.09,0-.24,0-.45v-.7c0-.43,0-.72,0-.88,0-.16-.03-.28-.06-.38h.89l1.1,1.86h0v-1.02c0-.21,0-.36,0-.45,0-.09-.01-.16-.02-.22,0-.05-.03-.11-.05-.17h.73c-.03.06-.04.12-.05.17,0,.05-.02.12-.02.22,0,.09,0,.24,0,.45v.69c0,.42,0,.72.01.89,0,.17.03.29.06.37h-.73l-1.27-2.06h0v1.22Z"/>
        <path class="cls-3" d="M34.52,74.81c-.21-.13-.38-.3-.49-.52-.11-.22-.17-.47-.17-.74s.06-.52.18-.74c.12-.22.29-.39.5-.52.22-.13.47-.19.75-.19s.53.04.72.13l.11.67c-.12-.07-.24-.14-.36-.18-.12-.05-.27-.07-.43-.07s-.3.04-.42.12c-.12.08-.21.19-.27.32-.06.14-.09.29-.09.45,0,.27.07.48.2.65.13.17.33.25.59.25.08,0,.16,0,.24-.02s.15-.04.21-.07v-.52h-.25c-.11,0-.18,0-.23,0-.05,0-.09,0-.14.02l.14-.5c.07.01.2.02.38.02h.68s-.01.09-.02.18c0,.1,0,.26,0,.48,0,.21,0,.36,0,.45,0,.09,0,.14.02.17-.16.11-.32.19-.49.25-.17.06-.38.09-.62.09-.28,0-.52-.06-.73-.19Z"/>
        <path class="cls-4" d="M40.46,74.17c0,.28,0,.46.01.55,0,.08.03.16.05.23h-.63s.04-.1.04-.14c0-.04.02-.11.02-.2,0-.09,0-.24,0-.44v-.47h-1.36v.47c0,.28,0,.46.01.55,0,.08.03.16.05.23h-.63s.04-.1.04-.14c0-.04.02-.11.02-.2,0-.09,0-.24,0-.44v-1.24c0-.28,0-.46-.01-.55,0-.08-.03-.16-.05-.23h.63s-.04.1-.04.14c0,.04-.02.11-.02.2,0,.09,0,.24,0,.44v.34h1.36v-.34c0-.28,0-.46-.01-.55,0-.08-.03-.16-.05-.23h.63s-.04.1-.04.14c0,.04-.02.11-.02.2,0,.09,0,.24,0,.44v1.24Z"/>
        <path class="cls-4" d="M42.4,74.54c.19,0,.32,0,.4-.02.07-.01.14-.04.2-.06l-.15.53c-.06-.02-.12-.03-.18-.03-.06,0-.15,0-.26,0h-1.15s.04-.1.05-.14c0-.05.02-.11.02-.21s0-.24,0-.43v-1.23c0-.2,0-.35,0-.44,0-.09-.01-.16-.02-.21,0-.04-.02-.09-.04-.14h1.01c.11,0,.21,0,.28,0,.07,0,.14-.01.2-.03l.15.5s-.1-.04-.16-.04c-.06,0-.21,0-.43,0h-.48c0,.11-.01.35-.01.72h.5c.16,0,.28,0,.36-.02l.05.47s-.09-.03-.14-.03c-.05,0-.14-.01-.25-.01h-.52v.03c0,.42,0,.69,0,.81h.58Z"/>
        <path class="cls-4" d="M45.16,74.22s.05.07.08.1c.02.03.04.05.06.08.2.28.34.47.42.56h-.6c-.06-.07-.18-.24-.36-.51l-.08-.12-.52-.75h.02c.22,0,.4-.03.52-.11s.19-.24.19-.47c0-.15-.05-.27-.14-.35-.09-.08-.23-.13-.4-.13-.11,0-.2,0-.27.02-.01.1-.02.4-.02.9v.74c0,.28,0,.46.01.55,0,.08.03.16.05.23h-.63s.04-.1.04-.14c0-.04.02-.11.02-.2,0-.09,0-.24,0-.44v-.74c0-.36,0-.63,0-.78,0-.16-.01-.27-.02-.33,0-.06-.02-.11-.04-.17.25-.03.52-.05.8-.05.25,0,.46.03.62.1s.29.16.36.28c.08.11.12.24.12.38,0,.21-.06.38-.18.5-.12.12-.29.2-.49.25l.44.6Z"/>
        <path class="cls-4" d="M46.18,72.93c0-.28,0-.46-.01-.55,0-.08-.03-.16-.05-.23h.63s-.04.1-.04.14c0,.04-.02.11-.02.2,0,.09,0,.24,0,.44v1.24c0,.28,0,.46.01.55,0,.08.03.16.05.23h-.63s.04-.1.04-.14c0-.04.02-.11.02-.2,0-.09,0-.24,0-.44v-1.24Z"/>
        <path class="cls-4" d="M48.43,72.57v1.6c0,.28,0,.46.01.55,0,.08.03.16.05.23h-.63s.04-.1.04-.14c0-.04.02-.11.02-.2,0-.09,0-.24,0-.44v-1.6h-.08c-.24,0-.4,0-.48,0-.08,0-.14.02-.19.04l.07-.5c.09.02.23.03.43.03h.98c.2,0,.34-.01.43-.03l.07.5s-.11-.04-.19-.04c-.08,0-.24,0-.48,0h-.08Z"/>
        <path class="cls-4" d="M51.17,74.95s.02-.07.02-.12c0-.11-.03-.26-.1-.46l-.08-.22h-.97l-.08.22c-.07.21-.11.37-.11.47,0,.04,0,.08.02.1h-.65c.05-.07.11-.19.17-.36l.5-1.37c.06-.17.12-.32.17-.45.05-.13.08-.21.1-.26.06-.16.1-.27.11-.32l.55-.08c.01.06.03.13.05.21.02.07.08.22.16.44l.17.46.48,1.34c.06.18.13.31.19.38h-.69ZM50.16,73.78h.71l-.07-.21c-.09-.26-.15-.45-.19-.57-.04-.12-.07-.26-.1-.42-.03.17-.06.32-.1.45-.04.13-.09.3-.17.52l-.08.23Z"/>
        <path class="cls-4" d="M52.68,74.81c-.21-.12-.36-.3-.47-.52-.11-.22-.16-.47-.16-.74s.06-.52.17-.74c.11-.22.27-.39.48-.52s.45-.19.74-.19.53.04.72.13l.09.54c-.12-.07-.24-.13-.36-.18-.13-.05-.28-.07-.46-.07s-.33.05-.46.14-.23.22-.3.38c-.07.16-.1.32-.1.5,0,.19.03.36.1.51.07.15.17.28.3.37.14.09.3.14.5.14.1,0,.2-.01.3-.03.1-.02.18-.05.24-.09v-.64h-.25c-.13,0-.22,0-.27,0-.06,0-.1.01-.13.03l.09-.43s.08,0,.14,0c.06,0,.14,0,.24,0h.63s-.01.09-.02.18c0,.1,0,.26,0,.48,0,.19,0,.32,0,.4,0,.08,0,.13.01.16-.15.11-.31.2-.47.26-.16.06-.36.09-.58.09-.28,0-.52-.06-.73-.19Z"/>
        <path class="cls-4" d="M56.21,74.54c.19,0,.32,0,.4-.02.07-.01.14-.04.2-.06l-.16.53c-.06-.02-.12-.03-.18-.03-.06,0-.15,0-.26,0h-1.15s.04-.1.05-.14c0-.05.02-.11.02-.21,0-.09,0-.24,0-.43v-1.23c0-.2,0-.35,0-.44,0-.09-.01-.16-.02-.21,0-.04-.02-.09-.04-.14h1.01c.11,0,.21,0,.28,0,.07,0,.14-.01.2-.03l.15.5s-.1-.04-.16-.04c-.06,0-.21,0-.43,0h-.48c0,.11-.01.35-.01.72h.5c.16,0,.28,0,.36-.02l.05.47s-.09-.03-.14-.03c-.05,0-.14-.01-.25-.01h-.52v.03c0,.42,0,.69,0,.81h.58Z"/>
      </g>
      <g>
        <path class="cls-4" d="M12.1,70.26c-.21-.13-.38-.31-.5-.53-.12-.23-.17-.48-.17-.77s.06-.56.18-.79c.12-.23.29-.41.51-.54.22-.13.48-.19.78-.19.25,0,.48.04.69.13l.1.57c-.09-.06-.16-.11-.22-.14-.06-.03-.14-.06-.23-.09-.1-.03-.21-.04-.34-.04-.18,0-.33.04-.47.13-.14.09-.25.21-.32.37-.08.16-.12.35-.12.56,0,.2.03.38.11.54.07.16.18.29.32.38.14.09.31.14.51.14.32,0,.59-.09.82-.26l-.1.57c-.11.05-.22.08-.32.1-.1.02-.25.03-.45.03-.28,0-.53-.06-.75-.19Z"/>
        <path class="cls-4" d="M14.76,70.24c-.22-.14-.38-.33-.5-.56-.11-.23-.17-.48-.17-.75s.06-.52.17-.75c.11-.23.28-.41.5-.54.22-.13.47-.2.76-.2s.55.07.76.2c.22.13.38.31.49.54.11.23.17.48.17.75s-.06.52-.17.75c-.11.23-.28.42-.5.56-.22.14-.47.21-.76.21s-.54-.07-.76-.21ZM15.98,69.87c.13-.09.24-.22.31-.38.07-.16.11-.35.11-.56s-.04-.38-.11-.54c-.07-.16-.18-.28-.31-.37s-.29-.13-.46-.13-.33.04-.46.13-.24.21-.31.37c-.08.16-.11.34-.11.54s.04.4.11.56c.08.16.18.29.31.38.13.09.29.14.46.14s.33-.05.46-.14Z"/>
        <path class="cls-4" d="M18.15,69.62c0,.28,0,.46.01.55,0,.09.03.16.06.23h-.62c.03-.07.05-.15.06-.23,0-.09.01-.27.01-.55v-.85c0-.47,0-.78-.01-.94,0-.15-.03-.27-.07-.35h.77l1.31,2.17h0v-1.39c0-.28,0-.46-.01-.55,0-.09-.03-.16-.06-.23h.62c-.03.07-.05.15-.06.23,0,.09-.01.27-.01.55v.84c0,.44,0,.75.01.92,0,.17.03.29.07.38h-.64l-1.44-2.3h0v1.52Z"/>
        <path class="cls-4" d="M21.24,70.41c-.13-.03-.24-.06-.32-.1l-.07-.6c.12.09.24.16.36.21.12.05.27.08.45.08s.29-.03.38-.1c.09-.07.13-.16.13-.27,0-.13-.04-.24-.13-.33-.09-.08-.24-.17-.45-.24-.19-.07-.33-.15-.43-.23-.1-.09-.17-.18-.21-.28-.04-.1-.06-.23-.06-.37,0-.13.03-.25.1-.36.06-.11.16-.2.3-.27.14-.07.31-.11.52-.11.13,0,.25.01.37.04.12.02.22.06.31.1l.07.57c-.09-.06-.16-.1-.22-.14-.06-.03-.13-.06-.22-.08-.09-.03-.19-.04-.3-.04-.14,0-.24.02-.31.07-.07.05-.1.13-.1.24,0,.09.04.16.11.23.07.07.19.13.36.19.29.1.49.22.62.37.13.15.19.35.19.6,0,.16-.04.31-.12.44-.08.13-.19.23-.35.31-.15.08-.34.11-.56.11-.15,0-.29-.01-.42-.04Z"/>
        <path class="cls-4" d="M24.47,69.97c.2,0,.34,0,.41-.02.08-.01.15-.04.21-.07l-.16.56c-.06-.02-.12-.03-.19-.03-.06,0-.15,0-.27,0h-1.2c.02-.05.04-.1.05-.15,0-.05.02-.12.02-.21,0-.1,0-.25,0-.45v-1.28c0-.21,0-.36,0-.46,0-.1-.01-.17-.02-.21,0-.05-.02-.09-.05-.15h1.05c.12,0,.22,0,.29,0,.08,0,.14-.01.2-.03l.16.52s-.1-.04-.17-.04c-.07,0-.22,0-.44,0h-.5c0,.12-.01.37-.01.75h.52c.16,0,.29,0,.37-.02l.06.49s-.09-.03-.15-.04c-.06,0-.14-.01-.26-.01h-.54v.03c0,.44,0,.72,0,.84h.6Z"/>
        <path class="cls-4" d="M27.34,69.63s.06.08.08.11c.02.03.04.06.06.08.21.29.36.49.44.58h-.62c-.06-.07-.18-.25-.38-.53l-.08-.12-.54-.78h.02c.23,0,.41-.03.54-.12.13-.09.19-.25.19-.49,0-.16-.05-.28-.15-.37-.1-.09-.24-.13-.42-.13-.12,0-.21,0-.28.02-.01.11-.02.42-.02.93v.77c0,.29,0,.48.01.57,0,.09.03.17.06.24h-.65c.02-.05.04-.1.05-.15,0-.05.02-.12.02-.21,0-.1,0-.25,0-.45v-.78c0-.38,0-.65,0-.82,0-.16-.01-.28-.02-.34,0-.06-.02-.12-.05-.17.26-.03.54-.05.83-.05.26,0,.48.04.65.11.17.07.3.17.38.29.08.12.12.25.12.4,0,.22-.06.39-.19.52-.13.13-.3.21-.51.26l.46.63Z"/>
        <path class="cls-4" d="M30.71,67.49c-.06.08-.12.2-.18.38l-.51,1.43c-.11.31-.18.51-.21.58-.06.15-.09.26-.12.33-.02.06-.04.13-.05.21h-.57c0-.05-.02-.12-.05-.19-.02-.07-.06-.16-.1-.27l-.23-.65-.5-1.4c-.06-.18-.13-.31-.19-.4h.72s-.02.08-.02.13c0,.1.04.25.11.47l.29.84.03.08c.08.25.14.43.18.55.03.11.06.25.09.4.03-.17.06-.32.09-.45s.09-.31.18-.55l.29-.86c.07-.22.11-.38.11-.48,0-.05,0-.08-.02-.11h.68Z"/>
        <path class="cls-4" d="M31.25,68.29c0-.29,0-.48-.01-.57,0-.09-.03-.17-.06-.24h.65c-.02.05-.04.1-.05.15,0,.05-.02.12-.02.21,0,.1,0,.25,0,.45v1.29c0,.29,0,.48.01.57,0,.09.03.17.06.24h-.65c.02-.05.04-.1.05-.15,0-.05.02-.12.02-.21,0-.1,0-.25,0-.45v-1.29Z"/>
        <path class="cls-4" d="M33.14,69.62c0,.28,0,.46.01.55,0,.09.03.16.06.23h-.62c.03-.07.05-.15.06-.23,0-.09.01-.27.01-.55v-.85c0-.47,0-.78-.01-.94,0-.15-.03-.27-.07-.35h.77l1.31,2.17h0v-1.39c0-.28,0-.46-.01-.55,0-.09-.03-.16-.06-.23h.62c-.03.07-.05.15-.06.23,0,.09-.01.27-.01.55v.84c0,.44,0,.75.01.92,0,.17.03.29.07.38h-.64l-1.44-2.3h0v1.52Z"/>
        <path class="cls-4" d="M36.53,70.25c-.21-.13-.38-.31-.49-.54-.11-.23-.17-.49-.17-.78s.06-.54.17-.77c.12-.23.28-.41.5-.54.22-.13.47-.19.77-.19s.55.05.75.14l.09.57c-.12-.08-.25-.14-.38-.19-.13-.05-.29-.07-.47-.07s-.34.05-.48.15c-.14.1-.24.23-.31.39-.07.16-.11.34-.11.52,0,.19.03.37.11.53.07.16.18.29.32.39.14.1.31.15.52.15.11,0,.21-.01.32-.03.1-.02.19-.06.25-.1v-.67h-.26c-.13,0-.23,0-.28,0-.06,0-.1.01-.13.03l.09-.44s.08,0,.15.01c.06,0,.15,0,.25,0h.66s-.01.09-.02.19c0,.1,0,.27,0,.51,0,.2,0,.34,0,.42,0,.08,0,.14.01.17-.16.12-.32.21-.5.27-.17.06-.37.09-.6.09-.29,0-.54-.06-.76-.19Z"/>
        <path class="cls-3" d="M40.84,69.52c0,.21,0,.37,0,.47,0,.1.01.17.02.23.01.05.03.11.06.18h-.77c.03-.07.05-.13.05-.18,0-.05.02-.13.02-.22,0-.1,0-.25,0-.47v-.73c0-.45,0-.76-.01-.92,0-.16-.03-.29-.06-.39h.93l1.15,1.94h0v-1.07c0-.22,0-.38,0-.47,0-.1-.01-.17-.02-.22,0-.05-.03-.11-.05-.18h.76c-.03.07-.05.13-.05.18,0,.05-.02.13-.02.22,0,.1,0,.25,0,.47v.72c0,.44,0,.75.01.93,0,.18.03.31.06.39h-.76l-1.32-2.15h0v1.27Z"/>
        <path class="cls-3" d="M45.29,70.4s.02-.1.02-.16c0-.11-.03-.25-.08-.42l-.03-.1h-.94l-.03.1c-.06.18-.08.32-.08.44,0,.05,0,.1.02.15h-.82c.06-.1.13-.24.21-.44l.54-1.54c.06-.16.14-.37.24-.65.05-.13.08-.21.09-.25l.74-.08c.02.09.05.2.09.32.04.12.12.34.23.66l.53,1.5c.07.2.14.36.22.47h-.93ZM44.42,69.24h.62l-.08-.26c-.07-.2-.12-.36-.15-.47-.03-.11-.06-.24-.08-.39-.02.16-.05.3-.08.41s-.07.26-.13.44l-.09.27Z"/>
        <path class="cls-3" d="M47.65,68.02v1.45c0,.31,0,.52.01.61,0,.1.03.2.06.32h-.85c.03-.08.05-.15.06-.21.01-.06.02-.14.02-.24,0-.1,0-.26,0-.48v-1.45h-.07c-.22,0-.37,0-.46.01-.08,0-.16.03-.22.06l.09-.63c.06.01.14.02.22.02.08,0,.17,0,.25,0h1.07c.08,0,.16,0,.25,0,.08,0,.16-.01.22-.02l.09.63c-.06-.03-.14-.05-.22-.06-.08,0-.24-.01-.46-.01h-.07Z"/>
        <path class="cls-3" d="M49.15,70.12c-.22-.22-.33-.53-.33-.93v-.78c0-.31,0-.52-.01-.61,0-.1-.03-.2-.06-.32h.84c-.04.12-.06.22-.07.32,0,.1-.01.3-.01.61v.7c0,.24.05.43.16.56.11.13.25.2.43.2.2,0,.34-.06.43-.19.09-.13.14-.32.14-.58v-.73c0-.22,0-.38,0-.47,0-.1-.01-.17-.02-.23,0-.05-.03-.11-.05-.18h.78c-.03.07-.05.13-.05.18,0,.05-.02.13-.02.23,0,.1,0,.25,0,.47v.86c0,.38-.1.68-.31.9-.21.22-.51.32-.9.32s-.71-.11-.93-.33Z"/>
        <path class="cls-3" d="M53.87,69.49c.13.2.26.38.37.54.11.16.21.28.28.37h-.8c-.11-.14-.28-.41-.51-.8l-.39-.6c.2,0,.35-.05.45-.14.1-.08.16-.23.16-.44,0-.14-.04-.26-.11-.34-.08-.08-.19-.12-.34-.12-.08,0-.15,0-.21.02-.01.1-.02.39-.02.86v.63c0,.32,0,.52.01.62,0,.1.03.2.07.31h-.85c.04-.11.06-.22.07-.31,0-.1.01-.3.01-.62v-.64c0-.38,0-.65,0-.81,0-.16-.01-.27-.02-.34-.01-.07-.03-.14-.06-.21.3-.03.61-.05.93-.05.43,0,.74.08.94.23.2.15.3.36.3.61,0,.19-.05.35-.16.48-.11.13-.25.22-.43.28l.33.47Z"/>
        <path class="cls-3" d="M56.17,69.87c.2,0,.34,0,.42-.02.08-.01.15-.04.22-.07l-.17.65c-.07-.01-.14-.02-.2-.02-.06,0-.15,0-.27,0h-1.26c.03-.06.05-.12.06-.18.01-.06.02-.13.02-.23s0-.27,0-.52v-1.05c0-.25,0-.42,0-.52s0-.18-.02-.23c-.01-.06-.03-.12-.06-.18h1.16c.12,0,.22,0,.29,0,.07,0,.14-.01.2-.02l.19.63c-.07-.03-.14-.05-.22-.05-.08,0-.22-.01-.43-.01h-.41c0,.15-.01.35-.01.59h.41c.14,0,.26,0,.35-.02l.08.59s-.09-.02-.16-.03c-.06,0-.16-.01-.3-.01h-.39c0,.37,0,.62,0,.74h.49Z"/>
      </g>
    </g>
  </g>
</svg>