<?xml version="1.0" encoding="UTF-8"?>
<svg id="Layer_2" data-name="Layer 2" xmlns="http://www.w3.org/2000/svg" viewBox="0 0 300 45.82">
  <defs>
    <style>
      .cls-1 {
        fill: #0f1e91;
      }

      .cls-2 {
        fill: #f05a23;
      }
    </style>
  </defs>
  <g id="Layer_1-2" data-name="Layer 1">
    <g>
      <g>
        <path class="cls-1" d="M11.84,36.87c-1.07,0-1.93-.59-1.92-1.03-.02-.37.13-.97.14-1.59-.02-1.4-.66-2.49-2.01-2.49-1.79,0-3.22,2.37-3.21,5.14-.01,2.87,1.5,5.39,5.01,5.39,2.64,0,4.04-1.56,4.73-1.56.19,0,.33.12.33.34-.02,1.12-2.33,4.64-6.82,4.64C2.97,45.72,0,42.04,0,37.34c-.03-4.67,3.31-8.07,8.24-8.07,3.8,0,6.15,2.46,6.16,4.98.01,1.34-.74,2.62-2.56,2.62Z"/>
        <path class="cls-1" d="M32.73,37.5c.01,4.83-3.2,8.44-8.24,8.32-4.69-.12-8.21-3.15-8.24-8.35-.01-4.8,3.43-8.38,8.22-8.25,4.88.12,8.25,3.43,8.27,8.28ZM27.94,37.56c0-2.96-1.02-5.61-3.47-5.61-2.13,0-3.42,2.27-3.42,5.45,0,3.43,1.44,5.64,3.51,5.64,2.29,0,3.41-2.34,3.39-5.48Z"/>
        <path class="cls-1" d="M35.61,34.66c0-1.99-.67-2.34-1.53-2.68-.17-.09-.24-.19-.27-.37,0-.53,1.17-2.43,3.43-2.43,1.82,0,2.85,1.15,3.05,2.8.04.34.06.68.07,1.06h.09c1.11-2.62,3.41-3.83,5.35-3.86,2.51-.03,4.31,1.59,4.32,4.83.02,1.68.02,3.86,0,6.23.01,2.09.78,2.43,1.63,2.74.2.09.27.19.27.37,0,.56-1.13,2.46-3.39,2.46-1.98,0-3.3-1.25-3.29-3.46l-.07-7.23c0-1.93-.8-2.58-1.7-2.55-1.44.03-3.1,2.27-3.11,5.45l.02,7.1c-.01.16-.14.16-.16.19-.64.16-1.42.22-2.23.22s-1.64-.09-2.38-.22c-.04-.03-.13-.06-.15-.16.03-1.46.08-7.79.05-10.5Z"/>
        <path class="cls-1" d="M59.62,45.81c-2.89,0-6.51-1.31-6.81-4.67-.12-1.43.85-2.74,2.7-2.74,1.13,0,1.86.56,1.9.87.01.34-.37,1.03-.29,1.9.05.9.79,1.99,2.3,2.06,1.45.06,2.59-.84,2.39-2.24-.31-2.21-5.43-4.24-5.93-8.13-.24-1.87,1.26-3.68,3.77-3.68,1.98,0,3.55,1.03,3.69,1.34.12.22-.01.4-.22.47-1.2-.03-2.07.53-1.9,1.59.46,2.87,5.25,4.05,5.66,7.54.29,2.55-1.88,5.7-7.25,5.7Z"/>
        <path class="cls-1" d="M83.13,41.05c-.01,1.15-2.14,4.67-6.76,4.67s-8.22-3.18-8.26-8.19c0-4.98,3.39-8.22,8.25-8.25,4.61-.03,6.73,2.62,6.73,4.83.04,3.8-3.73,5.01-6.56,5.01-1.7,0-3.19-.4-3.51-.44.23,2.34,2.23,3.77,4.59,3.77,3.26,0,4.68-1.74,5.27-1.74.19,0,.25.22.23.34ZM72.88,36.5s.84.16,1.75.16c2.26,0,3.82-1.06,3.81-2.68.02-1.09-.77-2.09-2.34-2.09-2.1,0-3.19,2.37-3.22,4.61Z"/>
        <path class="cls-1" d="M95.14,34.76c0-.81-.35-1.56-1.23-1.53-1.46.09-2.55,2.68-2.56,5.79l.02,6.1c-.01.16-.14.16-.16.19-.61.16-1.42.22-2.23.22s-1.64-.09-2.38-.22c-.04-.03-.13-.06-.11-.16,0-1.46.06-7.72.06-10.43-.03-1.99-.7-2.34-1.53-2.68-.2-.09-.27-.19-.3-.37.03-.53,1.17-2.43,3.43-2.43,1.82,0,2.89,1.21,3.05,3.27.02.4,0,.81.03,1.25h.13c.69-2.74,2.48-4.48,4.7-4.52,2.2,0,3.59,1.56,3.59,3.83,0,2.3-1.77,4.11-3.62,4.11-.5,0-1.17-.09-1.17-.56,0-.19.31-1.06.3-1.87Z"/>
        <path class="cls-1" d="M116.73,35.19c.02,5.64-2.61,10.62-7.6,10.62-4.52,0-6.77-3.39-6.78-7.47.02-.06.01-3.61.01-3.61-.04-2.02-.8-2.34-1.65-2.65-.16-.06-.27-.16-.27-.41,0-.56,1.13-2.46,3.39-2.46,1.98,0,3.33,1.25,3.36,3.46,0,0,.01,5.82.02,5.86,0,1.68.61,4.11,2.59,4.11,1.82,0,3.24-2.65,3.09-5.89-.27-4.83-2.2-5.48-2.18-6.07-.02-.69,1.29-1.43,2.42-1.43,2.32,0,3.64,3.21,3.61,5.95Z"/>
        <path class="cls-1" d="M136.39,42.95c.17.09.27.19.27.37-.01.9-1.45,2.43-3.4,2.43s-3.13-1.15-3.34-3.3h-.06c-.9,2.06-2.73,3.27-4.92,3.27-3.8,0-6.29-3.8-6.27-8.38.03-4.27,2.43-8.07,6.36-8.04,2.1,0,3.77,1.03,4.75,2.77h.09l.22-2.21c-.01-.09.04-.16.13-.19.77-.12,1.36-.19,2.14-.19s1.67.06,2.28.19c.1.03.17.09.18.19-.02,1.34-.07,7.6-.07,10.34.01,2.09.77,2.4,1.63,2.74ZM129.99,37.5c0-2.74-1.2-5.01-3.24-5.01-1.79,0-3.11,1.93-3.13,4.8-.01,3.11,1.31,5.11,3.13,5.11,1.91,0,3.26-2.3,3.24-4.89Z"/>
        <path class="cls-1" d="M148.28,42.36c.25,0,.33.16.33.34,0,1.06-1.87,3.05-4.76,3.05-3.14,0-4.62-2.02-4.59-5.51l-.03-8.41h-1.63s-.13,0-.14-.12l.02-1.84c.01-.16.14-.16.14-.16h1.57v-3.83c-.03-.12.09-.16.12-.16.73-.16,1.54-.25,2.29-.25s1.61.09,2.32.25c.03,0,.13.03.15.19v3.8h3.78s.13,0,.11.16l-.02,1.81c.02.16-.11.16-.11.16h-3.77v6.73c.03,2.96.67,4.02,2.68,4.02.66,0,1.23-.22,1.54-.22Z"/>
        <path class="cls-1" d="M150.18,24.6c0-1.43,1.4-2.58,3.06-2.58s3.13,1.15,3.12,2.58-1.4,2.55-3.1,2.55-3.06-1.12-3.09-2.55ZM150.79,42.32v-12.49c-.02-.06,0-.12.1-.16.64-.12,1.48-.22,2.23-.22.82,0,1.67.06,2.35.22.04.03.13.06.11.16l.02,10.37c.01,2.09.77,2.4,1.63,2.74.2.09.27.19.27.37,0,.53-1.14,2.43-3.4,2.43-1.98,0-3.29-1.21-3.32-3.43Z"/>
        <path class="cls-1" d="M175.38,37.5c.01,4.83-3.2,8.44-8.24,8.32-4.69-.12-8.21-3.15-8.24-8.35-.01-4.8,3.43-8.38,8.22-8.25,4.88.12,8.25,3.43,8.27,8.28ZM170.59,37.56c0-2.96-1.02-5.61-3.47-5.61-2.13,0-3.42,2.27-3.42,5.45,0,3.43,1.44,5.64,3.51,5.64,2.29,0,3.41-2.34,3.39-5.48Z"/>
        <path class="cls-1" d="M178.26,34.66c0-1.99-.67-2.34-1.53-2.68-.17-.09-.24-.19-.27-.37,0-.53,1.17-2.43,3.43-2.43,1.82,0,2.85,1.15,3.05,2.8.04.34.06.68.07,1.06h.09c1.11-2.62,3.41-3.83,5.35-3.86,2.51-.03,4.31,1.59,4.32,4.83.02,1.68.02,3.86,0,6.23.01,2.09.78,2.43,1.63,2.74.2.09.27.19.27.37,0,.56-1.13,2.46-3.39,2.46-1.98,0-3.3-1.25-3.29-3.46l-.07-7.23c0-1.93-.8-2.58-1.7-2.55-1.44.03-3.1,2.27-3.11,5.45l.02,7.1c-.01.16-.14.16-.16.19-.64.16-1.42.22-2.23.22s-1.64-.09-2.38-.22c-.04-.03-.13-.06-.15-.16.03-1.46.08-7.79.05-10.5Z"/>
        <path class="cls-1" d="M224.53,32.39c.02.19-.05.34-.23.4-.38,0-.93-.12-1.85.03-2.54.53-3.92,4.77-5.84,7.91,1.91,1.68,3.74,2.74,5.45,3.39,1.33.62,1.78.65,1.81.9.01.34-.58.65-1.17.65-1.73,0-4.76-1.15-7.53-3.21-.51.44-2.67,3.21-6.06,3.21-3.3-.06-5.89-2.15-6.2-5.33-.37-3.67,2.56-5.79,4.99-6.45-.63-1.28-1.09-2.68-1.26-4.02-.56-4.45,2.29-6.98,6.23-6.85,3.34.09,5.2,2.15,5.38,4.05.11,1.37-.39,3.11-2.15,3.11-.91,0-1.4-.4-1.41-.69-.04-.28.44-1.03.32-2.15-.21-1.9-1.4-2.4-2.25-2.4-2.1,0-2.93,2.15-2.57,4.98.46,3.68,2.37,6.6,4.01,8.16h.06c2.07-3.71,3.71-8.41,7.42-8.13,1.83.09,2.81,1.59,2.85,2.4ZM212.74,40.49c-1.53-1.4-2.9-3.05-4.02-5.01-1.29.25-3.5,1.62-3.2,4.02.23,2.3,2.17,3.24,3.43,3.27,1.71.09,2.86-1,3.79-2.27Z"/>
        <path class="cls-1" d="M233.28,31.83h-1.57s-.13,0-.11-.12l-.02-1.87c.02-.12.14-.12.14-.12h1.6l-.02-2.65c-.02-3.36,1.25-5.73,5.15-5.73,2.29,0,4.43,1.53,4.46,2.49,0,.22-.15.31-.37.31-.35,0-1.21-.37-2.21-.37-2.04,0-2.24,1.9-2.25,3.58l.02,2.37h3.33s.13,0,.11.16v1.81c0,.16-.13.16-.13.16h-3.3l.05,13.3c.02.16-.11.16-.13.19-.7.16-1.51.22-2.3.22s-1.51-.06-2.26-.22c-.04-.03-.13-.06-.15-.16l-.05-13.33Z"/>
        <path class="cls-1" d="M259.99,42.95c.17.09.27.19.27.37-.01.9-1.45,2.43-3.4,2.43s-3.13-1.15-3.34-3.3h-.06c-.9,2.06-2.73,3.27-4.92,3.27-3.8,0-6.29-3.8-6.27-8.38.03-4.27,2.43-8.07,6.36-8.04,2.1,0,3.77,1.03,4.75,2.77h.09l.22-2.21c-.01-.09.04-.16.13-.19.77-.12,1.36-.19,2.14-.19s1.67.06,2.28.19c.1.03.17.09.18.19-.02,1.34-.07,7.6-.07,10.34.01,2.09.77,2.4,1.63,2.74ZM253.59,37.5c0-2.74-1.2-5.01-3.24-5.01-1.79,0-3.11,1.93-3.13,4.8-.01,3.11,1.31,5.11,3.13,5.11,1.91,0,3.26-2.3,3.24-4.89Z"/>
        <path class="cls-1" d="M261.69,24.6c0-1.43,1.4-2.58,3.06-2.58s3.13,1.15,3.12,2.58-1.4,2.55-3.1,2.55-3.06-1.12-3.09-2.55ZM262.3,42.32v-12.49c-.02-.06,0-.12.1-.16.64-.12,1.48-.22,2.23-.22.82,0,1.67.06,2.35.22.04.03.13.06.11.16l.02,10.37c.01,2.09.77,2.4,1.63,2.74.2.09.27.19.27.37,0,.53-1.14,2.43-3.4,2.43-1.98,0-3.29-1.21-3.32-3.43Z"/>
        <path class="cls-1" d="M281.1,42.36c.25,0,.33.16.33.34,0,1.06-1.87,3.05-4.76,3.05-3.14,0-4.62-2.02-4.59-5.51l-.03-8.41h-1.63s-.13,0-.14-.12l.02-1.84c.01-.16.14-.16.14-.16h1.57v-3.83c-.03-.12.09-.16.12-.16.73-.16,1.54-.25,2.29-.25s1.61.09,2.32.25c.03,0,.13.03.15.19v3.8h3.78s.13,0,.11.16l-.02,1.81c.02.16-.11.16-.11.16h-3.77v6.73c.03,2.96.67,4.02,2.68,4.02.66,0,1.23-.22,1.54-.22Z"/>
        <path class="cls-1" d="M283.53,22.05c.02-.06.08-.12.17-.16.64-.12,1.48-.22,2.2-.22.85,0,1.64.06,2.35.22.04.03.13.06.11.16l.05,11.06h.09c1.11-2.62,3.35-3.83,5.26-3.86,2.54-.03,4.34,1.59,4.35,4.83.02,1.68,0,3.74.02,6.14-.02,2.09.74,2.4,1.6,2.74.2.09.27.19.27.37,0,.53-1.11,2.43-3.37,2.43-1.98,0-3.32-1.21-3.32-3.43l-.02-7.13c-.02-1.93-.83-2.59-1.74-2.55-1.47.03-3.1,2.27-3.11,5.45v7.04c.03.16-.09.16-.12.19-.67.16-1.51.22-2.3.22-.85,0-1.58-.09-2.26-.22-.04-.03-.16-.06-.15-.16.01-2.65-.05-11.56-.1-23.11Z"/>
      </g>
      <g>
        <path class="cls-2" d="M4.05,11.24l-1.06,3.27c-.04.11-.11.18-.24.18H.18c-.15,0-.2-.09-.18-.22L4.42,1.72c.09-.24.18-.51.22-1.35,0-.09.07-.15.13-.15h3.53c.11,0,.15.02.18.13l5.01,14.14c.04.11.02.2-.11.2h-2.87c-.13,0-.2-.04-.24-.15l-1.13-3.29h-5.1ZM8.33,8.48c-.44-1.46-1.33-4.13-1.75-5.7h-.02c-.35,1.48-1.15,3.91-1.72,5.7h3.49Z"/>
        <path class="cls-2" d="M20.64,14.14c-.11-.07-.15-.18-.15-.35v-2.63c0-.11.09-.18.18-.11,1.21.77,2.67,1.15,4,1.15,1.68,0,2.34-.57,2.34-1.35,0-.71-.51-1.21-2.01-1.86l-1.1-.46c-2.72-1.15-3.47-2.52-3.47-4.24,0-2.39,1.81-4.29,5.32-4.29,1.39,0,2.65.18,3.45.57.11.07.13.15.13.29v2.47c0,.09-.07.2-.2.11-.88-.51-2.1-.73-3.4-.73-1.7,0-2.3.57-2.3,1.3,0,.68.46,1.15,2.12,1.81l.82.33c2.94,1.22,3.76,2.61,3.76,4.4,0,2.67-2.16,4.35-5.57,4.35-1.63,0-2.98-.29-3.91-.77Z"/>
        <path class="cls-2" d="M35.68,11.24l-1.06,3.27c-.04.11-.11.18-.24.18h-2.56c-.15,0-.2-.09-.18-.22l4.42-12.75c.09-.24.18-.51.22-1.35,0-.09.07-.15.13-.15h3.53c.11,0,.15.02.18.13l5.01,14.14c.04.11.02.2-.11.2h-2.87c-.13,0-.2-.04-.24-.15l-1.13-3.29h-5.1ZM39.97,8.48c-.44-1.46-1.33-4.13-1.75-5.7h-.02c-.35,1.48-1.15,3.91-1.72,5.7h3.49Z"/>
        <path class="cls-2" d="M47.54,14.69c-.13,0-.2-.02-.2-.2V.4c0-.11.04-.18.15-.18h3.58c.18,0,.2.04.29.18,1.48,2.72,4.46,8.5,5.17,10.14h.02c-.02-.64-.07-1.3-.07-3.47V.42c0-.13.07-.2.2-.2h2.47c.15,0,.2.07.2.22v14.03c0,.18-.04.22-.24.22h-3.18c-.2,0-.24-.04-.31-.18-1.24-2.43-4.57-8.62-5.5-11h-.02c.09,1.28.11,2.16.11,4.24v6.74c0,.13-.04.2-.18.2h-2.5Z"/>
        <path class="cls-2" d="M69.41,9.06c-.15,0-.2-.07-.2-.2v-2.28c0-.11.07-.13.18-.13h5.08c.18,0,.2.04.2.18v7.31c.02.13-.02.18-.15.22-1.61.57-3.16.75-4.46.75-5.24,0-7.78-3.31-7.78-7.36,0-4.57,3.27-7.55,8.24-7.55,1.46,0,2.78.15,3.58.53.11.02.15.11.15.29v2.41c0,.15-.09.2-.2.13-.97-.49-2.12-.62-3.45-.64-3.45-.04-5.17,1.77-5.17,4.75,0,2.7,1.63,4.77,4.77,4.77.64,0,1.02-.04,1.39-.15v-2.92l-2.19-.11Z"/>
        <path class="cls-2" d="M80.72,11.24l-1.06,3.27c-.04.11-.11.18-.24.18h-2.56c-.15,0-.2-.09-.18-.22l4.42-12.75c.09-.24.18-.51.22-1.35,0-.09.07-.15.13-.15h3.53c.11,0,.15.02.18.13l5.01,14.14c.04.11.02.2-.11.2h-2.87c-.13,0-.2-.04-.24-.15l-1.13-3.29h-5.1ZM85,8.48c-.44-1.46-1.33-4.13-1.75-5.7h-.02c-.35,1.48-1.15,3.91-1.72,5.7h3.49Z"/>
        <path class="cls-2" d="M92.8.22h4.06c.15,0,.2.04.24.15.62,2.23,2.19,8.08,2.61,10.23h.02c.44-1.9,2.28-7.93,2.94-10.21.02-.11.07-.18.18-.18h3.98c.13,0,.18.02.18.15l.55,14.12c.02.13-.07.2-.18.2h-2.85c-.11,0-.18-.02-.18-.15-.07-4.55-.04-10.69,0-12.11h-.02c-.49,2.19-2.43,9.08-3.29,12.08-.04.13-.11.18-.22.18h-2.54c-.15,0-.2-.02-.24-.18-.82-3.2-2.32-9.21-2.96-12.13h-.02c-.02,2.39-.11,7.51-.31,12.13,0,.15-.04.18-.18.18h-2.56c-.13,0-.2-.02-.18-.18l.77-14.16c.02-.13.09-.13.2-.13Z"/>
        <path class="cls-2" d="M129.6,7.38c.02,4.51-2.81,7.53-6.94,7.53s-6.89-3.18-6.89-7.47,2.76-7.44,6.94-7.44c4.4,0,6.87,3.34,6.89,7.38ZM122.78,12.19c2.3,0,3.67-1.88,3.67-4.73-.02-2.94-1.39-4.75-3.78-4.75-2.21,0-3.73,1.72-3.73,4.75,0,2.67,1.37,4.73,3.84,4.73Z"/>
        <path class="cls-2" d="M135.61,14.49c0,.13-.07.2-.2.2h-2.72c-.11,0-.15-.07-.15-.2V.4c0-.13.04-.18.15-.18h8.75c.15,0,.2.04.22.2l.24,2.36c.02.13-.04.2-.2.2h-6.1v3.36h5.5c.13,0,.18.04.18.18v2.41c0,.13-.04.18-.15.18h-5.52v5.39Z"/>
      </g>
    </g>
  </g>
</svg>