<?xml version="1.0" encoding="UTF-8"?>
<svg id="Layer_2" data-name="Layer 2" xmlns="http://www.w3.org/2000/svg" viewBox="0 0 15 15">
  <defs>
    <style>
      .cls-1 {
        fill: #0f1e91;
      }
    </style>
  </defs>
  <g id="Layer_1-2" data-name="Layer 1">
    <path class="cls-1" d="M11.68,10.62C15.07,6.42,12-.03,6.55,0,2.94,0,0,2.94,0,6.55c-.03,5.45,6.42,8.52,10.62,5.12l3.11,3.11c.15.15.34.22.53.22.66,0,1-.81.53-1.27,0,0-3.1-3.11-3.1-3.11h0ZM6.55,11.61c-2.79,0-5.06-2.27-5.06-5.06C1.77-.16,11.33-.16,11.61,6.55c0,2.79-2.27,5.06-5.06,5.06h0Z"/>
  </g>
</svg>