<?xml version="1.0" encoding="UTF-8"?>
<svg id="Layer_2" data-name="Layer 2" xmlns="http://www.w3.org/2000/svg" viewBox="0 0 358.3 76.12">
  <defs>
    <style>
      .cls-1 {
        fill: #0f1e91;
      }

      .cls-2 {
        fill: #f05a23;
      }
    </style>
  </defs>
  <g id="Layer_1-2" data-name="Layer 1">
    <g>
      <g>
        <path class="cls-2" d="M6.68,6.11c1.89,0,3.4.46,4.53,1.39s1.68,2.16,1.68,3.69v10.28h-3.44v-2.04h-.25c-.32.74-.85,1.33-1.59,1.76s-1.61.64-2.63.64c-1.49,0-2.7-.41-3.61-1.22-.91-.81-1.37-1.89-1.37-3.23s.45-2.46,1.36-3.29,2.11-1.24,3.62-1.24h4.32v-1.35c0-.72-.24-1.3-.73-1.73-.48-.43-1.14-.64-1.98-.64-.72,0-1.32.17-1.8.5s-.72.77-.72,1.3v.34H.57v-.54c0-1.39.56-2.5,1.69-3.35,1.13-.85,2.6-1.27,4.42-1.27ZM6.24,18.93c.91,0,1.65-.19,2.21-.56s.85-.86.85-1.48v-1.39h-3.72c-.59,0-1.06.15-1.41.45-.36.3-.54.7-.54,1.2,0,.55.23.98.7,1.3.46.32,1.1.48,1.91.48Z"/>
        <path class="cls-2" d="M30.85,6.11c1.45,0,2.62.45,3.52,1.36s1.35,2.09,1.35,3.56v5.89c0,1.46-.45,2.65-1.35,3.56s-2.07,1.36-3.52,1.36c-1,0-1.87-.24-2.62-.72-.75-.48-1.27-1.1-1.56-1.88h-.23v2.23h-3.6V.47h3.6v8.23h.23c.29-.77.81-1.4,1.56-1.88.75-.48,1.62-.72,2.62-.72ZM32.11,15.86v-3.78c0-.78-.25-1.41-.76-1.89s-1.18-.72-2.02-.72-1.53.25-2.07.75c-.54.5-.81,1.11-.81,1.83v3.84c0,.72.27,1.33.81,1.83.54.5,1.23.75,2.07.75s1.51-.24,2.02-.72.76-1.11.76-1.89Z"/>
        <path class="cls-2" d="M40.75,4.25c-.67,0-1.21-.2-1.61-.59-.4-.39-.6-.92-.6-1.56s.2-1.14.6-1.52.94-.57,1.61-.57,1.2.19,1.6.58c.4.39.6.89.6,1.52s-.2,1.17-.61,1.56c-.41.4-.94.59-1.59.59ZM38.94,21.47V6.47h3.6v15h-3.6Z"/>
        <path class="cls-2" d="M54.1,6.11h.51v3.66h-.66c-1.25,0-2.24.35-2.98,1.05-.74.7-1.11,1.58-1.11,2.64v8.01h-3.6V6.47h3.6v2.61h.23c.27-.94.76-1.67,1.46-2.19.7-.52,1.54-.78,2.54-.78Z"/>
        <path class="cls-2" d="M65.56.47h3.6v21.01h-3.6v-2.23h-.23c-.29.77-.81,1.4-1.56,1.88-.75.48-1.62.72-2.62.72-1.45,0-2.62-.45-3.52-1.36s-1.35-2.09-1.35-3.56v-5.89c0-1.46.45-2.65,1.35-3.56s2.07-1.36,3.52-1.36c1,0,1.87.24,2.62.72.75.48,1.27,1.1,1.56,1.88h.23V.47ZM60.66,17.75c.51.48,1.19.72,2.03.72s1.53-.25,2.07-.75.81-1.11.81-1.83v-3.84c0-.72-.27-1.33-.81-1.83s-1.23-.75-2.07-.75-1.52.24-2.03.72c-.51.48-.77,1.11-.77,1.89v3.78c0,.78.26,1.41.77,1.89Z"/>
        <path class="cls-2" d="M85.13,6.11c1.89,0,3.4.46,4.53,1.39s1.68,2.16,1.68,3.69v10.28h-3.44v-2.04h-.25c-.32.74-.85,1.33-1.59,1.76s-1.61.64-2.63.64c-1.49,0-2.7-.41-3.61-1.22-.91-.81-1.37-1.89-1.37-3.23s.45-2.46,1.36-3.29,2.11-1.24,3.62-1.24h4.32v-1.35c0-.72-.24-1.3-.73-1.73-.48-.43-1.14-.64-1.98-.64-.72,0-1.32.17-1.8.5s-.72.77-.72,1.3v.34h-3.5v-.54c0-1.39.56-2.5,1.69-3.35,1.13-.85,2.6-1.27,4.42-1.27ZM84.69,18.93c.91,0,1.65-.19,2.21-.56s.85-.86.85-1.48v-1.39h-3.72c-.59,0-1.06.15-1.41.45-.36.3-.54.7-.54,1.2,0,.55.23.98.7,1.3.46.32,1.1.48,1.91.48Z"/>
        <path class="cls-2" d="M102.83,6.11c1.39,0,2.51.42,3.37,1.25.86.83,1.29,1.93,1.29,3.29v10.83h-3.6v-9.48c0-.76-.24-1.37-.72-1.83s-1.12-.69-1.92-.69-1.53.24-2.06.73c-.53.48-.8,1.07-.8,1.76v9.51h-3.6V6.47h3.6v2.23h.23c.29-.76.82-1.38,1.58-1.87.76-.48,1.63-.73,2.63-.73Z"/>
        <path class="cls-2" d="M119.75.47h3.6v21.01h-3.6v-2.23h-.23c-.29.77-.81,1.4-1.56,1.88-.75.48-1.62.72-2.62.72-1.45,0-2.62-.45-3.52-1.36s-1.35-2.09-1.35-3.56v-5.89c0-1.46.45-2.65,1.35-3.56s2.07-1.36,3.52-1.36c1,0,1.87.24,2.62.72.75.48,1.27,1.1,1.56,1.88h.23V.47ZM114.85,17.75c.51.48,1.19.72,2.03.72s1.53-.25,2.07-.75.81-1.11.81-1.83v-3.84c0-.72-.27-1.33-.81-1.83s-1.23-.75-2.07-.75-1.52.24-2.03.72c-.51.48-.77,1.11-.77,1.89v3.78c0,.78.26,1.41.77,1.89Z"/>
        <path class="cls-2" d="M141.6,6.11c1.39,0,2.51.42,3.37,1.25.86.83,1.29,1.93,1.29,3.29v10.83h-3.6v-9.48c0-.76-.24-1.37-.72-1.83s-1.12-.69-1.92-.69-1.53.24-2.06.73c-.53.48-.8,1.07-.8,1.76v9.51h-3.6V6.47h3.6v2.23h.23c.29-.76.82-1.38,1.58-1.87.76-.48,1.63-.73,2.63-.73Z"/>
        <path class="cls-2" d="M155.51,6.11c1.89,0,3.4.46,4.53,1.39s1.68,2.16,1.68,3.69v10.28h-3.44v-2.04h-.25c-.32.74-.85,1.33-1.59,1.76s-1.61.64-2.63.64c-1.49,0-2.7-.41-3.61-1.22-.91-.81-1.37-1.89-1.37-3.23s.45-2.46,1.36-3.29,2.11-1.24,3.62-1.24h4.32v-1.35c0-.72-.24-1.3-.73-1.73-.48-.43-1.14-.64-1.98-.64-.72,0-1.32.17-1.8.5s-.72.77-.72,1.3v.34h-3.5v-.54c0-1.39.56-2.5,1.69-3.35,1.13-.85,2.6-1.27,4.42-1.27ZM155.07,18.93c.91,0,1.65-.19,2.21-.56s.85-.86.85-1.48v-1.39h-3.72c-.59,0-1.06.15-1.41.45-.36.3-.54.7-.54,1.2,0,.55.23.98.7,1.3.46.32,1.1.48,1.91.48Z"/>
        <path class="cls-2" d="M173.4,9.68h-3.49v6.75c0,.54.16.96.47,1.26s.74.45,1.27.45h1.55v3.33h-2.49c-1.32,0-2.38-.38-3.19-1.13s-1.22-1.75-1.22-2.99v-7.68h-2.55v-3.21h1.71c.34,0,.61-.1.8-.29.19-.19.29-.47.29-.83v-2.78h3.35v3.9h3.49v3.21Z"/>
        <path class="cls-2" d="M184.94,6.47h3.6v15h-3.6v-2.15h-.21c-.29.75-.8,1.36-1.52,1.82-.72.46-1.56.7-2.54.7-1.35,0-2.44-.41-3.27-1.23-.84-.82-1.25-1.9-1.25-3.25V6.47h3.6v9.54c0,.73.23,1.33.69,1.78.46.45,1.06.68,1.8.68.8,0,1.45-.23,1.95-.7s.75-1.04.75-1.73V6.47Z"/>
        <path class="cls-2" d="M200.08,6.11h.51v3.66h-.66c-1.25,0-2.24.35-2.98,1.05-.74.7-1.11,1.58-1.11,2.64v8.01h-3.6V6.47h3.6v2.61h.23c.27-.94.76-1.67,1.46-2.19.7-.52,1.54-.78,2.54-.78Z"/>
        <path class="cls-2" d="M215.03,15.26h-9.24v.91c0,.8.27,1.44.8,1.92.53.48,1.25.72,2.15.72.8,0,1.45-.17,1.95-.51s.75-.79.75-1.35v-.06h3.6v.09c0,1.46-.58,2.63-1.74,3.52-1.16.89-2.68,1.34-4.56,1.34-1.97,0-3.56-.54-4.75-1.62-1.2-1.08-1.79-2.51-1.79-4.3v-3.9c0-1.79.59-3.22,1.77-4.3,1.18-1.08,2.74-1.62,4.69-1.62s3.47.54,4.64,1.62c1.17,1.08,1.75,2.51,1.75,4.3v3.24ZM208.64,9.14c-.86,0-1.55.24-2.07.71s-.78,1.11-.78,1.9v.76h5.64v-.76c0-.8-.25-1.44-.76-1.9s-1.18-.7-2.02-.7Z"/>
        <path class="cls-2" d="M236.91,15.26h-9.24v.91c0,.8.27,1.44.8,1.92.53.48,1.25.72,2.15.72.8,0,1.45-.17,1.95-.51s.75-.79.75-1.35v-.06h3.6v.09c0,1.46-.58,2.63-1.74,3.52-1.16.89-2.68,1.34-4.56,1.34-1.97,0-3.56-.54-4.75-1.62-1.2-1.08-1.79-2.51-1.79-4.3v-3.9c0-1.79.59-3.22,1.77-4.3,1.18-1.08,2.74-1.62,4.69-1.62s3.47.54,4.64,1.62c1.17,1.08,1.75,2.51,1.75,4.3v3.24ZM230.53,9.14c-.86,0-1.55.24-2.07.71s-.78,1.11-.78,1.9v.76h5.64v-.76c0-.8-.25-1.44-.76-1.9s-1.18-.7-2.02-.7Z"/>
        <path class="cls-2" d="M248.1,6.11c1.39,0,2.51.42,3.37,1.25.86.83,1.29,1.93,1.29,3.29v10.83h-3.6v-9.48c0-.76-.24-1.37-.72-1.83s-1.12-.69-1.92-.69-1.53.24-2.06.73c-.53.48-.8,1.07-.8,1.76v9.51h-3.6V6.47h3.6v2.23h.23c.29-.76.82-1.38,1.58-1.87.76-.48,1.63-.73,2.63-.73Z"/>
        <path class="cls-2" d="M264.48,9.68h-3.49v6.75c0,.54.16.96.47,1.26s.74.45,1.27.45h1.55v3.33h-2.49c-1.32,0-2.38-.38-3.19-1.13s-1.22-1.75-1.22-2.99v-7.68h-2.55v-3.21h1.71c.34,0,.61-.1.8-.29.19-.19.29-.47.29-.83v-2.78h3.35v3.9h3.49v3.21Z"/>
        <path class="cls-2" d="M275.39,6.11c1.39,0,2.51.42,3.37,1.25.86.83,1.29,1.93,1.29,3.29v10.83h-3.6v-9.48c0-.76-.24-1.37-.72-1.83s-1.12-.69-1.92-.69-1.53.24-2.06.73c-.53.48-.8,1.07-.8,1.76v9.51h-3.6V.47h3.6v8.23h.23c.29-.76.82-1.38,1.58-1.87.76-.48,1.63-.73,2.63-.73Z"/>
        <path class="cls-2" d="M292.16,6.47h3.6v15h-3.6v-2.15h-.21c-.29.75-.8,1.36-1.52,1.82-.72.46-1.56.7-2.54.7-1.35,0-2.44-.41-3.27-1.23-.84-.82-1.25-1.9-1.25-3.25V6.47h3.6v9.54c0,.73.23,1.33.69,1.78.46.45,1.06.68,1.8.68.8,0,1.45-.23,1.95-.7s.75-1.04.75-1.73V6.47Z"/>
        <path class="cls-2" d="M304.58,21.84c-1.87,0-3.36-.44-4.48-1.31-1.12-.87-1.68-2.01-1.68-3.41v-.26h3.68v.26c0,.53.22.95.66,1.27.44.32,1.04.48,1.8.48s1.29-.14,1.71-.42c.42-.28.63-.64.63-1.09,0-.36-.15-.66-.46-.91-.31-.24-.71-.44-1.19-.59s-1.03-.3-1.61-.44-1.17-.32-1.77-.54c-.59-.22-1.13-.49-1.62-.8s-.89-.75-1.19-1.33c-.31-.57-.46-1.24-.46-2.01,0-1.47.52-2.61,1.55-3.42,1.04-.8,2.44-1.21,4.2-1.21s3.27.41,4.35,1.24c1.08.83,1.63,1.9,1.63,3.22v.26h-3.66v-.21c0-.46-.2-.83-.61-1.11s-.94-.42-1.62-.42-1.19.12-1.58.37c-.39.25-.58.58-.58,1,0,.35.15.65.46.89.31.24.71.43,1.19.57.49.14,1.03.28,1.63.42s1.19.31,1.78.53,1.13.48,1.62.79.89.75,1.19,1.33c.31.57.46,1.25.46,2.03,0,1.5-.54,2.69-1.63,3.54s-2.55,1.29-4.41,1.29Z"/>
        <path class="cls-2" d="M315.11,4.25c-.67,0-1.21-.2-1.61-.59-.4-.39-.6-.92-.6-1.56s.2-1.14.6-1.52.94-.57,1.61-.57,1.2.19,1.6.58c.4.39.6.89.6,1.52s-.2,1.17-.61,1.56c-.41.4-.94.59-1.59.59ZM313.31,21.47V6.47h3.6v15h-3.6Z"/>
        <path class="cls-2" d="M326.38,6.11c1.89,0,3.4.46,4.53,1.39s1.68,2.16,1.68,3.69v10.28h-3.44v-2.04h-.25c-.32.74-.85,1.33-1.59,1.76s-1.61.64-2.63.64c-1.49,0-2.7-.41-3.61-1.22-.91-.81-1.37-1.89-1.37-3.23s.45-2.46,1.36-3.29,2.11-1.24,3.62-1.24h4.32v-1.35c0-.72-.24-1.3-.73-1.73-.48-.43-1.14-.64-1.98-.64-.72,0-1.32.17-1.8.5s-.72.77-.72,1.3v.34h-3.5v-.54c0-1.39.56-2.5,1.69-3.35,1.13-.85,2.6-1.27,4.42-1.27ZM325.94,18.93c.91,0,1.65-.19,2.21-.56s.85-.86.85-1.48v-1.39h-3.72c-.59,0-1.06.15-1.41.45-.36.3-.54.7-.54,1.2,0,.55.23.98.7,1.3.46.32,1.1.48,1.91.48Z"/>
        <path class="cls-2" d="M341.17,21.84c-1.87,0-3.36-.44-4.48-1.31-1.12-.87-1.68-2.01-1.68-3.41v-.26h3.68v.26c0,.53.22.95.66,1.27.44.32,1.04.48,1.8.48s1.29-.14,1.71-.42c.42-.28.63-.64.63-1.09,0-.36-.15-.66-.46-.91-.31-.24-.71-.44-1.19-.59s-1.03-.3-1.61-.44-1.17-.32-1.77-.54c-.59-.22-1.13-.49-1.62-.8s-.89-.75-1.19-1.33c-.31-.57-.46-1.24-.46-2.01,0-1.47.52-2.61,1.55-3.42,1.04-.8,2.44-1.21,4.2-1.21s3.27.41,4.35,1.24c1.08.83,1.63,1.9,1.63,3.22v.26h-3.66v-.21c0-.46-.2-.83-.61-1.11s-.94-.42-1.62-.42-1.19.12-1.58.37c-.39.25-.58.58-.58,1,0,.35.15.65.46.89.31.24.71.43,1.19.57.49.14,1.03.28,1.63.42s1.19.31,1.78.53,1.13.48,1.62.79.89.75,1.19,1.33c.31.57.46,1.25.46,2.03,0,1.5-.54,2.69-1.63,3.54s-2.55,1.29-4.41,1.29Z"/>
        <path class="cls-2" d="M358.3,9.68h-3.49v6.75c0,.54.16.96.47,1.26s.74.45,1.27.45h1.55v3.33h-2.49c-1.32,0-2.38-.38-3.19-1.13s-1.22-1.75-1.22-2.99v-7.68h-2.55v-3.21h1.71c.34,0,.61-.1.8-.29.19-.19.29-.47.29-.83v-2.78h3.35v3.9h3.49v3.21Z"/>
        <path class="cls-2" d="M8.96,36.11c1.39,0,2.51.42,3.37,1.25.86.83,1.29,1.93,1.29,3.29v10.83h-3.6v-9.48c0-.76-.24-1.37-.72-1.83s-1.12-.69-1.92-.69-1.53.24-2.06.73c-.53.48-.8,1.07-.8,1.76v9.51H.92v-15h3.6v2.23h.23c.29-.76.82-1.38,1.58-1.87.76-.48,1.63-.73,2.63-.73Z"/>
        <path class="cls-2" d="M29.36,45.26h-9.24v.91c0,.8.27,1.44.8,1.92.53.48,1.25.72,2.15.72.8,0,1.45-.17,1.95-.51s.75-.79.75-1.35v-.06h3.6v.09c0,1.46-.58,2.63-1.74,3.52-1.16.89-2.68,1.34-4.56,1.34-1.97,0-3.56-.54-4.75-1.62-1.2-1.08-1.79-2.51-1.79-4.3v-3.9c0-1.79.59-3.22,1.77-4.3,1.18-1.08,2.74-1.62,4.69-1.62s3.47.54,4.64,1.62c1.17,1.08,1.75,2.51,1.75,4.3v3.24ZM22.98,39.14c-.86,0-1.55.24-2.07.71s-.78,1.11-.78,1.9v.76h5.64v-.76c0-.8-.25-1.44-.76-1.9s-1.18-.7-2.02-.7Z"/>
        <path class="cls-2" d="M44.75,45.26h-9.24v.91c0,.8.27,1.44.8,1.92.53.48,1.25.72,2.15.72.8,0,1.45-.17,1.95-.51s.75-.79.75-1.35v-.06h3.6v.09c0,1.46-.58,2.63-1.74,3.52-1.16.89-2.68,1.34-4.56,1.34-1.97,0-3.56-.54-4.75-1.62-1.2-1.08-1.79-2.51-1.79-4.3v-3.9c0-1.79.59-3.22,1.77-4.3,1.18-1.08,2.74-1.62,4.69-1.62s3.47.54,4.64,1.62c1.17,1.08,1.75,2.51,1.75,4.3v3.24ZM38.37,39.14c-.86,0-1.55.24-2.07.71s-.78,1.11-.78,1.9v.76h5.64v-.76c0-.8-.25-1.44-.76-1.9s-1.18-.7-2.02-.7Z"/>
        <path class="cls-2" d="M56.65,30.47h3.6v21.01h-3.6v-2.23h-.23c-.29.77-.81,1.4-1.56,1.88-.75.48-1.62.72-2.62.72-1.45,0-2.62-.45-3.52-1.36s-1.35-2.09-1.35-3.56v-5.89c0-1.46.45-2.65,1.35-3.56s2.07-1.36,3.52-1.36c1,0,1.87.24,2.62.72.75.48,1.27,1.1,1.56,1.88h.23v-8.23ZM51.75,47.75c.51.48,1.19.72,2.03.72s1.53-.25,2.07-.75.81-1.11.81-1.83v-3.84c0-.72-.27-1.33-.81-1.83s-1.23-.75-2.07-.75-1.52.24-2.03.72c-.51.48-.77,1.11-.77,1.89v3.78c0,.78.26,1.41.77,1.89Z"/>
        <path class="cls-2" d="M78.91,39.68h-3.49v6.75c0,.54.16.96.47,1.26s.74.45,1.27.45h1.55v3.33h-2.49c-1.32,0-2.38-.38-3.19-1.13s-1.22-1.75-1.22-2.99v-7.68h-2.55v-3.21h1.71c.34,0,.61-.1.8-.29.19-.19.29-.47.29-.83v-2.78h3.35v3.9h3.49v3.21Z"/>
        <path class="cls-2" d="M92.11,50.22c-1.17,1.08-2.72,1.62-4.66,1.62s-3.49-.54-4.68-1.62c-1.19-1.08-1.78-2.51-1.78-4.3v-3.9c0-1.79.59-3.22,1.78-4.3,1.19-1.08,2.75-1.62,4.68-1.62s3.49.54,4.66,1.62c1.17,1.08,1.76,2.51,1.76,4.3v3.9c0,1.79-.59,3.22-1.76,4.3ZM85.38,47.79c.52.47,1.21.71,2.07.71s1.54-.23,2.05-.7.76-1.09.76-1.88v-3.9c0-.78-.25-1.41-.76-1.88s-1.19-.7-2.05-.7-1.55.24-2.07.71c-.52.47-.78,1.1-.78,1.87v3.9c0,.77.26,1.39.78,1.87Z"/>
        <path class="cls-2" d="M107.62,51.47c-1.29,0-2.33-.37-3.11-1.1s-1.18-1.7-1.18-2.92v-16.99h3.6v16.05c0,.51.14.91.43,1.19.29.29.69.43,1.21.43h.85v3.33h-1.8Z"/>
        <path class="cls-2" d="M122.35,50.22c-1.17,1.08-2.72,1.62-4.66,1.62s-3.49-.54-4.68-1.62c-1.19-1.08-1.78-2.51-1.78-4.3v-3.9c0-1.79.59-3.22,1.78-4.3,1.19-1.08,2.75-1.62,4.68-1.62s3.49.54,4.66,1.62c1.17,1.08,1.76,2.51,1.76,4.3v3.9c0,1.79-.59,3.22-1.76,4.3ZM115.62,47.79c.52.47,1.21.71,2.07.71s1.54-.23,2.05-.7.76-1.09.76-1.88v-3.9c0-.78-.25-1.41-.76-1.88s-1.19-.7-2.05-.7-1.55.24-2.07.71c-.52.47-.78,1.1-.78,1.87v3.9c0,.77.26,1.39.78,1.87Z"/>
        <path class="cls-2" d="M137.74,50.22c-1.17,1.08-2.72,1.62-4.66,1.62s-3.49-.54-4.68-1.62c-1.19-1.08-1.78-2.51-1.78-4.3v-3.9c0-1.79.59-3.22,1.78-4.3,1.19-1.08,2.75-1.62,4.68-1.62s3.49.54,4.66,1.62c1.17,1.08,1.76,2.51,1.76,4.3v3.9c0,1.79-.59,3.22-1.76,4.3ZM131.01,47.79c.52.47,1.21.71,2.07.71s1.54-.23,2.05-.7.76-1.09.76-1.88v-3.9c0-.78-.25-1.41-.76-1.88s-1.19-.7-2.05-.7-1.55.24-2.07.71c-.52.47-.78,1.1-.78,1.87v3.9c0,.77.26,1.39.78,1.87Z"/>
        <path class="cls-2" d="M151.8,51.47l-3.4-5.98h-2.18v5.98h-3.6v-21.01h3.6v11.65h2.07l3.54-5.64h3.98l-4.76,7.05,4.85,7.95h-4.1Z"/>
        <path class="cls-2" d="M172.41,36.11c1.39,0,2.51.42,3.37,1.25.86.83,1.29,1.93,1.29,3.29v10.83h-3.6v-9.48c0-.76-.24-1.37-.72-1.83s-1.12-.69-1.92-.69-1.53.24-2.06.73c-.53.48-.8,1.07-.8,1.76v9.51h-3.6v-15h3.6v2.23h.23c.29-.76.82-1.38,1.58-1.87.76-.48,1.63-.73,2.63-.73Z"/>
        <path class="cls-2" d="M191.08,50.22c-1.17,1.08-2.72,1.62-4.66,1.62s-3.49-.54-4.68-1.62c-1.19-1.08-1.78-2.51-1.78-4.3v-3.9c0-1.79.59-3.22,1.78-4.3,1.19-1.08,2.75-1.62,4.68-1.62s3.49.54,4.66,1.62c1.17,1.08,1.76,2.51,1.76,4.3v3.9c0,1.79-.59,3.22-1.76,4.3ZM184.35,47.79c.52.47,1.21.71,2.07.71s1.54-.23,2.05-.7.76-1.09.76-1.88v-3.9c0-.78-.25-1.41-.76-1.88s-1.19-.7-2.05-.7-1.55.24-2.07.71c-.52.47-.78,1.1-.78,1.87v3.9c0,.77.26,1.39.78,1.87Z"/>
        <path class="cls-2" d="M209.54,33.47c-.55,0-.97.15-1.28.45-.31.3-.46.72-.46,1.26v1.29h3.3v3.21h-3.3v11.79h-3.6v-11.79h-2.58v-3.21h2.58v-1.89c0-1.24.4-2.24,1.2-2.99s1.86-1.13,3.18-1.13h2.52v3h-1.55Z"/>
        <path class="cls-2" d="M222.36,36.47h3.6v15h-3.6v-2.15h-.21c-.29.75-.8,1.36-1.52,1.82-.72.46-1.56.7-2.54.7-1.35,0-2.44-.41-3.27-1.23-.84-.82-1.25-1.9-1.25-3.25v-10.88h3.6v9.54c0,.73.23,1.33.69,1.78.46.45,1.06.68,1.8.68.8,0,1.45-.23,1.95-.7s.75-1.04.75-1.73v-9.57Z"/>
        <path class="cls-2" d="M237.5,36.11h.51v3.66h-.66c-1.25,0-2.24.35-2.98,1.05-.74.7-1.11,1.58-1.11,2.64v8.01h-3.6v-15h3.6v2.61h.23c.27-.94.76-1.67,1.46-2.19.7-.52,1.54-.78,2.54-.78Z"/>
        <path class="cls-2" d="M249.3,39.68h-3.49v6.75c0,.54.16.96.47,1.26s.74.45,1.27.45h1.55v3.33h-2.49c-1.32,0-2.38-.38-3.19-1.13s-1.22-1.75-1.22-2.99v-7.68h-2.55v-3.21h1.71c.34,0,.61-.1.8-.29.19-.19.29-.47.29-.83v-2.78h3.35v3.9h3.49v3.21Z"/>
        <path class="cls-2" d="M260.21,36.11c1.39,0,2.51.42,3.37,1.25.86.83,1.29,1.93,1.29,3.29v10.83h-3.6v-9.48c0-.76-.24-1.37-.72-1.83s-1.12-.69-1.92-.69-1.53.24-2.06.73c-.53.48-.8,1.07-.8,1.76v9.51h-3.6v-21.01h3.6v8.23h.23c.29-.76.82-1.38,1.58-1.87.76-.48,1.63-.73,2.63-.73Z"/>
        <path class="cls-2" d="M280.6,45.26h-9.24v.91c0,.8.27,1.44.8,1.92.53.48,1.25.72,2.15.72.8,0,1.45-.17,1.95-.51s.75-.79.75-1.35v-.06h3.6v.09c0,1.46-.58,2.63-1.74,3.52-1.16.89-2.68,1.34-4.56,1.34-1.97,0-3.56-.54-4.75-1.62-1.2-1.08-1.79-2.51-1.79-4.3v-3.9c0-1.79.59-3.22,1.77-4.3,1.18-1.08,2.74-1.62,4.69-1.62s3.47.54,4.64,1.62c1.17,1.08,1.75,2.51,1.75,4.3v3.24ZM274.22,39.14c-.86,0-1.55.24-2.07.71s-.78,1.11-.78,1.9v.76h5.64v-.76c0-.8-.25-1.44-.76-1.9s-1.18-.7-2.02-.7Z"/>
        <path class="cls-2" d="M291.58,36.11h.51v3.66h-.66c-1.25,0-2.24.35-2.98,1.05-.74.7-1.11,1.58-1.11,2.64v8.01h-3.6v-15h3.6v2.61h.23c.27-.94.76-1.67,1.46-2.19.7-.52,1.54-.78,2.54-.78Z"/>
        <path class="cls-2" d="M295.31,51.71c-.72,0-1.3-.21-1.74-.64s-.66-1.01-.66-1.74.22-1.29.66-1.72c.44-.43,1.02-.65,1.74-.65s1.32.21,1.75.64.65,1.01.65,1.73-.22,1.31-.65,1.74-1.02.64-1.75.64Z"/>
      </g>
      <g>
        <path class="cls-1" d="M2.93,68.31H.09c-.07,0-.1-.04-.08-.11l.18-1.3c.01-.08.04-.11.13-.11h6.96c.08,0,.13.03.14.13l.13,1.28c.01.08-.03.13-.1.13h-2.83v7.55c0,.08-.04.13-.11.13h-1.44c-.1.01-.13-.03-.13-.13v-7.55Z"/>
        <path class="cls-1" d="M14.65,75.98c-.08,0-.11-.03-.11-.11v-3.91h-3.91v3.89c0,.08-.03.13-.11.13h-1.44c-.1,0-.13-.04-.13-.13v-8.95c0-.1.03-.13.11-.13h1.46c.08,0,.11.03.11.11v3.54h3.91v-3.56c0-.06.03-.1.1-.1h1.5c.07,0,.1.03.1.1v8.99c0,.08-.03.11-.11.11h-1.47Z"/>
        <path class="cls-1" d="M20.35,75.86c0,.1-.03.13-.11.13h-1.47c-.08,0-.11-.04-.11-.13v-8.96c0-.1.04-.11.11-.11h1.47c.08,0,.11.03.11.11v8.96Z"/>
        <path class="cls-1" d="M22.52,75.62c-.07-.04-.1-.1-.1-.21v-1.46c0-.06.06-.08.11-.06.76.49,1.68.73,2.49.73,1.15,0,1.64-.45,1.64-1.05,0-.52-.34-.91-1.4-1.36l-.67-.28c-1.72-.73-2.17-1.6-2.17-2.65,0-1.5,1.13-2.65,3.25-2.65.88,0,1.68.13,2.14.36.07.04.08.08.08.18v1.36c0,.06-.04.11-.13.06-.53-.31-1.3-.46-2.11-.46-1.21,0-1.58.5-1.58.99s.32.85,1.43,1.32l.53.22c1.82.76,2.34,1.64,2.34,2.75,0,1.64-1.29,2.7-3.4,2.7-1.02,0-1.88-.2-2.45-.5Z"/>
        <path class="cls-1" d="M35.5,75.86c0,.1-.03.13-.11.13h-1.47c-.08,0-.11-.04-.11-.13v-8.96c0-.1.04-.11.11-.11h1.47c.08,0,.11.03.11.11v8.96Z"/>
        <path class="cls-1" d="M37.66,75.62c-.07-.04-.1-.1-.1-.21v-1.46c0-.06.06-.08.11-.06.76.49,1.68.73,2.49.73,1.15,0,1.64-.45,1.64-1.05,0-.52-.34-.91-1.4-1.36l-.67-.28c-1.72-.73-2.17-1.6-2.17-2.65,0-1.5,1.13-2.65,3.25-2.65.88,0,1.68.13,2.14.36.07.04.08.08.08.18v1.36c0,.06-.04.11-.13.06-.53-.31-1.3-.46-2.12-.46-1.21,0-1.58.5-1.58.99s.32.85,1.43,1.32l.53.22c1.82.76,2.34,1.64,2.34,2.75,0,1.64-1.29,2.7-3.4,2.7-1.02,0-1.88-.2-2.45-.5Z"/>
        <path class="cls-1" d="M50.85,68.31h-2.84c-.07,0-.1-.04-.08-.11l.18-1.3c.01-.08.04-.11.13-.11h6.96c.08,0,.13.03.14.13l.13,1.28c.01.08-.03.13-.1.13h-2.83v7.55c0,.08-.04.13-.11.13h-1.44c-.1.01-.13-.03-.13-.13v-7.55Z"/>
        <path class="cls-1" d="M62.57,75.98c-.08,0-.11-.03-.11-.11v-3.91h-3.91v3.89c0,.08-.03.13-.11.13h-1.44c-.1,0-.13-.04-.13-.13v-8.95c0-.1.03-.13.11-.13h1.46c.08,0,.11.03.11.11v3.54h3.91v-3.56c0-.06.03-.1.1-.1h1.5c.07,0,.1.03.1.1v8.99c0,.08-.03.11-.11.11h-1.47Z"/>
        <path class="cls-1" d="M72.4,75.87c-.01.1-.04.11-.13.11h-5.58c-.1,0-.13-.04-.13-.11v-8.98c0-.07.03-.11.11-.11h5.41c.08,0,.11.01.13.1l.15,1.3c.01.07-.01.13-.1.13h-4.01v2.23h3.64c.07,0,.1.01.1.1v1.33c0,.07-.04.08-.1.08h-3.64v2.41h4.24c.08,0,.11.04.1.11l-.21,1.3Z"/>
        <path class="cls-1" d="M77.9,66.91c0-.07.01-.1.1-.11.41-.01,1.36-.04,2.65-.04,3.29,0,4.94,1.86,4.94,4.47,0,3.42-2.61,4.79-4.97,4.79-.88,0-2.17,0-2.62-.03-.06,0-.1-.04-.1-.13v-8.95ZM79.6,74.53c.28.01.59.01.95.01,1.98,0,3.31-1.15,3.31-3.28s-1.33-3.04-3.22-3.04c-.39,0-.7.01-1.04.03v6.28Z"/>
        <path class="cls-1" d="M93.32,75.87c-.01.1-.04.11-.13.11h-5.58c-.1,0-.13-.04-.13-.11v-8.98c0-.07.03-.11.11-.11h5.41c.08,0,.11.01.13.1l.15,1.3c.01.07-.01.13-.1.13h-4.01v2.23h3.64c.07,0,.1.01.1.1v1.33c0,.07-.04.08-.1.08h-3.64v2.41h4.24c.08,0,.11.04.1.11l-.21,1.3Z"/>
        <path class="cls-1" d="M95.06,75.62c-.07-.04-.1-.1-.1-.21v-1.46c0-.06.06-.08.11-.06.76.49,1.68.73,2.49.73,1.15,0,1.64-.45,1.64-1.05,0-.52-.34-.91-1.4-1.36l-.67-.28c-1.72-.73-2.17-1.6-2.17-2.65,0-1.5,1.13-2.65,3.25-2.65.88,0,1.68.13,2.14.36.07.04.08.08.08.18v1.36c0,.06-.04.11-.13.06-.53-.31-1.3-.46-2.12-.46-1.21,0-1.58.5-1.58.99s.32.85,1.43,1.32l.53.22c1.82.76,2.34,1.64,2.34,2.75,0,1.64-1.29,2.7-3.4,2.7-1.02,0-1.88-.2-2.45-.5Z"/>
        <path class="cls-1" d="M104.66,68.31h-2.84c-.07,0-.1-.04-.08-.11l.18-1.3c.01-.08.04-.11.13-.11h6.96c.08,0,.13.03.14.13l.13,1.28c.01.08-.03.13-.1.13h-2.83v7.55c0,.08-.04.13-.11.13h-1.44c-.1.01-.13-.03-.13-.13v-7.55Z"/>
        <path class="cls-1" d="M112.36,75.86c0,.1-.03.13-.11.13h-1.47c-.08,0-.11-.04-.11-.13v-8.96c0-.1.04-.11.11-.11h1.47c.08,0,.11.03.11.11v8.96Z"/>
        <path class="cls-1" d="M114.92,75.98c-.08,0-.13-.01-.13-.13v-8.98c0-.07.03-.1.1-.1h1.98c.11,0,.13.03.17.1,1.04,1.85,3.18,5.8,3.67,6.85h.01c-.01-.39-.04-.85-.04-2.17v-4.66c0-.07.04-.11.13-.11h1.34c.1,0,.13.04.13.13v8.95c0,.1-.04.13-.14.13h-1.78c-.1,0-.14-.03-.18-.1-.73-1.43-3.29-5.95-3.84-7.31h-.01c.06.71.07,1.33.07,2.61v4.68c0,.08-.03.13-.11.13h-1.36Z"/>
        <path class="cls-1" d="M126.09,73.56l-.77,2.31c-.03.08-.07.11-.15.11h-1.4c-.08,0-.11-.04-.1-.14l2.89-8.21c.06-.14.1-.28.13-.76,0-.06.03-.1.08-.1h1.95c.07,0,.08.01.1.08l3.24,8.99c.01.08,0,.13-.08.13h-1.57c-.07,0-.11-.03-.14-.08l-.81-2.34h-3.35ZM128.99,72.03c-.29-.92-.95-2.87-1.23-3.85h-.01c-.22.94-.78,2.58-1.2,3.85h2.45Z"/>
        <path class="cls-1" d="M134.35,68.31h-2.84c-.07,0-.1-.04-.08-.11l.18-1.3c.01-.08.04-.11.13-.11h6.96c.08,0,.13.03.14.13l.13,1.28c.01.08-.03.13-.1.13h-2.83v7.55c0,.08-.04.13-.11.13h-1.44c-.1.01-.13-.03-.13-.13v-7.55Z"/>
        <path class="cls-1" d="M142.05,75.86c0,.1-.03.13-.11.13h-1.47c-.08,0-.11-.04-.11-.13v-8.96c0-.1.04-.11.11-.11h1.47c.08,0,.11.03.11.11v8.96Z"/>
        <path class="cls-1" d="M152.62,71.33c.01,2.9-1.78,4.79-4.33,4.79-2.72,0-4.34-2.02-4.34-4.75s1.76-4.73,4.34-4.73c2.75,0,4.31,2.1,4.33,4.69ZM148.35,74.63c1.58,0,2.54-1.3,2.52-3.25,0-1.96-.97-3.24-2.61-3.24-1.48,0-2.56,1.16-2.56,3.24,0,1.81.92,3.25,2.65,3.25Z"/>
        <path class="cls-1" d="M154.65,75.98c-.08,0-.13-.01-.13-.13v-8.98c0-.07.03-.1.1-.1h1.97c.11,0,.13.03.17.1,1.04,1.85,3.18,5.8,3.67,6.85h.01c-.01-.39-.04-.85-.04-2.17v-4.66c0-.07.04-.11.13-.11h1.34c.1,0,.13.04.13.13v8.95c0,.1-.04.13-.14.13h-1.78c-.1,0-.14-.03-.18-.1-.73-1.43-3.29-5.95-3.84-7.31h-.01c.06.71.07,1.33.07,2.61v4.68c0,.08-.03.13-.11.13h-1.36Z"/>
        <path class="cls-1" d="M169.69,75.87c0,.08-.03.11-.11.11h-1.48c-.07,0-.1-.04-.1-.11v-8.99c0-.07.03-.1.11-.1h5.41c.08,0,.11.03.13.11l.14,1.3c.01.08-.03.11-.11.11h-3.98v2.45h3.57c.07,0,.11.01.11.1v1.32c0,.07-.04.1-.11.1h-3.57v3.6Z"/>
        <path class="cls-1" d="M183.73,71.33c.01,2.9-1.78,4.79-4.33,4.79-2.72,0-4.34-2.02-4.34-4.75s1.76-4.73,4.34-4.73c2.75,0,4.31,2.1,4.33,4.69ZM179.46,74.63c1.58,0,2.54-1.3,2.52-3.25,0-1.96-.97-3.24-2.6-3.24-1.49,0-2.56,1.16-2.56,3.24,0,1.81.92,3.25,2.65,3.25Z"/>
        <path class="cls-1" d="M185.74,75.98c-.08,0-.11-.03-.11-.11v-8.95c0-.07.01-.13.1-.13,1.11-.03,1.7-.04,2.77-.04,2.24,0,3.56.97,3.56,2.76,0,1.22-.78,2.09-1.81,2.47.46.64,2.14,3.15,2.55,3.85.04.08.06.15-.03.15h-1.75c-.11,0-.15-.03-.2-.07-.41-.63-1.39-2.24-2-3.22-.1-.17-.17-.24-.32-.24h-1.2v3.42c0,.08-.04.11-.11.11h-1.44ZM188.52,71.01c1.13,0,1.86-.5,1.86-1.4s-.74-1.39-1.93-1.39c-.48,0-.92.01-1.15.03v2.76h1.22Z"/>
        <path class="cls-1" d="M196.52,66.91c-.06-.08.01-.13.07-.13h1.7c.08,0,.1.03.13.07,1.48,2.89,1.96,3.77,2.16,4.24.22-.49.67-1.42,2.09-4.23.01-.07.04-.08.11-.08h1.64c.07,0,.08.04.06.11l-3.04,5.42c-.08.14-.11.25-.11.42v3.12c0,.1-.03.13-.13.13h-1.43c-.11,0-.14-.04-.14-.13v-3.18c0-.18-.01-.25-.1-.41l-3-5.37Z"/>
        <path class="cls-1" d="M213.61,71.33c.01,2.9-1.78,4.79-4.33,4.79-2.72,0-4.34-2.02-4.34-4.75s1.76-4.73,4.34-4.73c2.75,0,4.31,2.1,4.33,4.69ZM209.33,74.63c1.58,0,2.54-1.3,2.52-3.25,0-1.96-.97-3.24-2.6-3.24-1.49,0-2.56,1.16-2.56,3.24,0,1.81.92,3.25,2.65,3.25Z"/>
        <path class="cls-1" d="M217.17,72.41c0,1.33.64,2.21,1.99,2.21,1.11,0,1.93-.53,1.93-2.24v-5.48c0-.08.03-.13.11-.13h1.47c.08,0,.11.04.11.11v5.58c0,2.62-1.61,3.66-3.68,3.66-2.21,0-3.63-1.18-3.63-3.59v-5.63c0-.08.01-.13.11-.13h1.47c.08,0,.11.03.11.11v5.52Z"/>
        <path class="cls-1" d="M225.47,75.16c0-.56.42-.97,1.01-.97s1.01.39,1.01.97-.42.94-1.01.94-1.01-.36-1.01-.94ZM227.34,66.75c.07.04.08.11.08.15v1.01c0,1.18-.24,4.48-.28,4.9,0,.04-.01.08-.1.08h-1.12c-.06,0-.08-.03-.1-.08-.03-.39-.25-3.68-.25-4.86v-1.01c0-.06,0-.11.07-.15.18-.1.63-.17.84-.17.28,0,.71.06.85.13Z"/>
      </g>
    </g>
  </g>
</svg>