<?xml version="1.0" encoding="UTF-8"?>
<svg id="Layer_2" data-name="Layer 2" xmlns="http://www.w3.org/2000/svg" viewBox="0 0 16.06 39.42">
  <defs>
    <style>
      .cls-1 {
        fill: #0f1e91;
      }
    </style>
  </defs>
  <g id="Layer_1-2" data-name="Layer 1">
    <g>
      <path class="cls-1" d="M6.47,39.25c5.14,1.07,9.59-3.12,9.59-8.46,0-2.79-1.3-5.34-3.3-6.9V5.09c0-2.79-2.07-5.09-4.76-5.09S3.25,2.3,3.25,5.09v18.8c-2.38,1.89-3.76,5.09-3.07,8.7.61,3.28,3.15,5.99,6.29,6.65ZM4.24,25.46l.69-.57V5.17c0-1.81,1.38-3.2,2.99-3.2s3.07,1.48,3.07,3.2v19.71l.69.57c1.61,1.23,2.53,3.28,2.53,5.42,0,1.81-.69,3.53-1.84,4.76-1.23,1.23-2.76,1.97-4.45,1.97-3.15,0-5.6-2.38-6.14-5.34-.38-2.71.54-5.34,2.46-6.82Z"/>
      <path class="cls-1" d="M8,35.64c1.23,0,2.38-.49,3.22-1.4.84-.9,1.3-2.13,1.3-3.45,0-3.28-2.61-4.35-3.3-5.01v-13.88h-2.53v13.88c-.54.66-3.91,1.97-3.15,5.99.38,2.13,2.15,3.86,4.45,3.86Z"/>
    </g>
  </g>
</svg>