<?xml version="1.0" encoding="UTF-8"?>
<svg id="Layer_2" data-name="Layer 2" xmlns="http://www.w3.org/2000/svg" viewBox="0 0 134.14 251.48">
  <defs>
    <style>
      .cls-1 {
        fill: #f05a23;
      }
    </style>
  </defs>
  <g id="Layer_1-2" data-name="Layer 1">
    <g>
      <path class="cls-1" d="M64.97,49.24c-1.51,3.71-2.2,8.11-4.66,11.02-13.99,16.51-18.99,37.01-25.95,56.65-1.86,5.26-3.52,10.59-5.62,16.93,16.24-13.68,27.33-29.59,33.62-48.63,1.21-3.67.17-8.07.17-11.89,2.79,2.76,3.77,7.72,1.95,14.03-5.71,19.79-16.69,35.98-33.13,48.54-2.55,1.95-4.83,4.98-5.93,7.99-4.15,11.33-7.75,22.85-12.45,34.05,3.18-12.05,6.36-24.09,9.6-36.39-5.62,1.71-10.88,3.32-16.14,4.92-.09-.25-.19-.51-.28-.76,4.39-1.91,8.79-3.79,13.15-5.75,3.16-1.42,5.01-3.62,6.15-7.21,4.61-14.54,9.68-28.94,14.64-43.36,3.4-9.89,8.91-18.47,15.71-26.43,3.44-4.03,5.76-9.03,8.59-13.59.19-.04.38-.08.58-.13Z"/>
      <path class="cls-1" d="M63.1,2.78c13.84-6.38,30.52-1.52,41.48,11.72,7.86,9.49,10.94,20.82,12.33,32.59,2.35,19.88.81,39.59-5.95,58.51-3.31,9.25-8.11,17.98-12.23,26.94-.37-.18-.74-.35-1.1-.53,3.37-8.16,7.46-16.1,9.98-24.52,7.72-25.78,9.82-51.95,1.33-77.93-4.99-15.26-15.44-25.57-32.05-27.74-4.42-.58-9.07.59-13.77.96Z"/>
      <path class="cls-1" d="M69.56,167.11c6.34-4.61,12.17-8.65,17.78-12.99,21.76-16.85,36.01-38.87,44.03-64.99,2.12-6.9.45-10.43-5.15-14.39,6.29,1.79,9.13,7.44,7.46,15.27-3.28,15.37-10.51,28.88-19.33,41.74-10.88,15.88-26.28,26.12-42.61,35.33-.34.19-.88.02-2.17.02Z"/>
      <path class="cls-1" d="M36.51,208.96c16.01-19.75,22.32-44.22,32.08-67.01-5.37,24.93-11.76,49.35-32.08,67.01Z"/>
      <path class="cls-1" d="M11.76,248.8c8.89-20.02,17.42-39.26,26.35-59.39-4,22.31-12.38,41.62-26.35,59.39Z"/>
      <path class="cls-1" d="M.02,251.48c-.52-8.75,12.47-33.6,20.26-40.01C13.52,224.81,6.77,238.14.02,251.48Z"/>
      <path class="cls-1" d="M57.34,17.51c-1.07,8.22,2.37,12.74,7.62,16.92.13-7.2,3.95-11.4,10.35-15.03-.8,1.41-1.01,2.11-1.47,2.55-3.53,3.4-5.47,7.31-4.85,12.41.17,1.43-.5,4.08-1.26,4.27-1.46.37-3.53-.22-4.87-1.12-6.99-4.66-9.58-12.66-5.51-20.01Z"/>
      <path class="cls-1" d="M3.15,225.32c5.53-13.38,11.07-26.75,16.6-40.13-.07,15.6-7.4,28.35-16.6,40.13Z"/>
      <path class="cls-1" d="M83.56,31.11c-3.73-15.19-15.32-17.82-28.34-18.54,7.36-2.08,14.59-2.68,21.23,1.62,5.97,3.87,7.92,9.85,7.11,16.92Z"/>
      <path class="cls-1" d="M71.25,33.48c3.51.41,7.02.82,10.53,1.23.16.38.32.76.48,1.14-2.05.81-4.2,2.45-6.11,2.21-2.12-.27-4.02-2.25-6.02-3.49.37-.37.75-.73,1.12-1.1Z"/>
    </g>
  </g>
</svg>