<?xml version="1.0" encoding="UTF-8"?>
<svg id="Layer_2" data-name="Layer 2" xmlns="http://www.w3.org/2000/svg" viewBox="0 0 250 35">
  <defs>
    <style>
      .cls-1 {
        fill: #fff;
      }

      .cls-2 {
        fill: #f15a25;
      }
    </style>
  </defs>
  <g id="Layer_1-2" data-name="Layer 1">
    <g>
      <rect class="cls-2" width="250" height="35" rx="10" ry="10"/>
      <g>
        <path class="cls-1" d="M80.2,22.11c0,.1-.02.14-.1.16-.64.26-1.46.32-2.24.32-3.24,0-5.28-2.18-5.28-5.12s2.26-5.22,5.66-5.22c.98,0,1.52.1,1.84.22.1.04.12.1.12.22l-.02,2.06c0,.14-.08.16-.16.14-.38-.14-.94-.24-1.68-.24-1.68,0-2.9.92-2.9,2.72,0,2.08,1.54,2.76,2.94,2.76.7,0,1.32-.08,1.66-.18.12-.04.16,0,.16.08v2.08Z"/>
        <path class="cls-1" d="M82,8.37c0-.1.04-.16.2-.16h2.38c.14,0,.2.06.2.16v11.2c0,.56.18.76.66.76.16,0,.18,0,.36-.02.08,0,.1.04.1.14v1.72c0,.16-.02.2-.14.24-.24.1-.62.18-1.24.18-1.44,0-2.52-.54-2.52-2.76v-11.46Z"/>
        <path class="cls-1" d="M87.3,9.83c0-.9.66-1.54,1.56-1.54.96,0,1.54.64,1.54,1.54s-.62,1.56-1.56,1.56-1.54-.62-1.54-1.56ZM87.44,12.61c0-.1.04-.16.16-.16h2.46c.12,0,.16.04.16.16v9.6c0,.12-.02.18-.18.18h-2.4c-.14,0-.2-.06-.2-.18v-9.6Z"/>
        <path class="cls-1" d="M99.64,22.11c0,.1-.02.14-.1.16-.64.26-1.46.32-2.24.32-3.24,0-5.28-2.18-5.28-5.12s2.26-5.22,5.66-5.22c.98,0,1.52.1,1.84.22.1.04.12.1.12.22l-.02,2.06c0,.14-.08.16-.16.14-.38-.14-.94-.24-1.68-.24-1.68,0-2.9.92-2.9,2.72,0,2.08,1.54,2.76,2.94,2.76.7,0,1.32-.08,1.66-.18.12-.04.16,0,.16.08v2.08Z"/>
        <path class="cls-1" d="M110.4,12.45c.14,0,.2.1.12.2-.62.74-3.02,3.4-3.78,4.22-.02.02-.02.06,0,.08,1.16,1.44,3.06,3.76,4.3,5.26.08.06.02.18-.1.18h-3.18c-.14,0-.18-.06-.26-.14-.62-.76-2.34-3.02-3.28-4.26v4.2c0,.14-.04.2-.18.2h-2.42c-.16,0-.2-.06-.2-.2v-13.82c0-.08.04-.16.2-.16h2.42c.1,0,.18.04.18.16v8.22c1.04-1.24,2.9-3.48,3.32-4,.1-.12.16-.14.28-.14h2.58Z"/>
        <path class="cls-1" d="M121.18,22.05c0,.12-.02.22-.14.26-.56.2-1.08.28-1.78.28-1.74,0-2.76-.86-2.76-2.86v-4.96h-1.2c-.12-.02-.16-.06-.16-.18v-1.96c0-.14.04-.18.18-.18h1.2c.02-.68.1-1.86.2-2.42.02-.1.08-.16.18-.18l2.34-.3c.1-.02.16-.02.16.12-.06.62-.1,1.8-.1,2.78h1.84c.12,0,.16.04.16.16v2.02c0,.1-.04.12-.14.14h-1.88v4.28c0,.88.26,1.28,1.08,1.28.24,0,.44-.04.68-.08.08,0,.14.02.14.14v1.66Z"/>
        <path class="cls-1" d="M132.06,17.37c0,3.14-2.04,5.22-4.92,5.22-3.42,0-4.94-2.58-4.94-5.16,0-2.84,1.9-5.18,4.98-5.18s4.88,2.42,4.88,5.12ZM125.02,17.39c0,1.76.82,2.88,2.16,2.88,1.16,0,2.04-1,2.04-2.84,0-1.56-.64-2.86-2.16-2.86-1.16,0-2.04,1.04-2.04,2.82Z"/>
        <path class="cls-1" d="M140.76,22.39c-.14,0-.2-.06-.24-.14-.76-2.26-2.44-7.34-3.26-9.64-.02-.08.02-.16.14-.16h2.62c.14,0,.18.04.22.14,1.3,4.5,1.74,6.28,1.94,7.18h.04c.2-.9.72-2.7,2.12-7.18.04-.1.08-.14.18-.14h2.32c.08,0,.16.06.12.18-.86,2.36-2.54,7.42-3.34,9.6-.06.1-.1.16-.24.16h-2.62Z"/>
        <path class="cls-1" d="M148.16,9.83c0-.9.66-1.54,1.56-1.54.96,0,1.54.64,1.54,1.54s-.62,1.56-1.56,1.56-1.54-.62-1.54-1.56ZM148.3,12.61c0-.1.04-.16.16-.16h2.46c.12,0,.16.04.16.16v9.6c0,.12-.02.18-.18.18h-2.4c-.14,0-.2-.06-.2-.18v-9.6Z"/>
        <path class="cls-1" d="M155.72,18.15c.1,1.14.9,2.08,2.86,2.08.9,0,1.7-.14,2.46-.46.06-.04.12-.02.12.1v1.9c0,.14-.04.2-.14.24-.8.38-1.68.58-3.06.58-3.76,0-5.08-2.58-5.08-5.06,0-2.76,1.7-5.28,4.84-5.28s4.22,2.34,4.22,4.32c0,.62-.04,1.12-.1,1.34-.02.1-.06.14-.16.16-.26.04-1.02.08-2.06.08h-3.9ZM158.32,16.21c.64,0,.92-.02,1-.04v-.14c0-.48-.38-1.58-1.7-1.58s-1.8.94-1.92,1.76h2.62Z"/>
        <path class="cls-1" d="M172.04,22.39c-.16,0-.2-.06-.24-.18-1-4.08-1.32-5.92-1.52-6.9h-.02c-.5,2.2-.9,3.86-1.74,6.9-.04.14-.1.18-.22.18h-2.5c-.2,0-.24-.04-.28-.18l-2.6-9.58c-.04-.1.02-.18.16-.18h2.54c.12,0,.16.04.18.14,1.06,4.32,1.34,6.24,1.48,7.08h.04c.16-.72.48-2.6,1.64-7.04.02-.12.04-.18.18-.18h2.64c.1,0,.14.04.16.14,1.06,4.42,1.34,6.36,1.48,7.16h.04c.28-1.3.58-3.46,1.54-7.16.02-.08.06-.14.18-.14h2.34c.08,0,.16.06.12.16l-2.86,9.6c-.04.14-.06.18-.24.18h-2.5Z"/>
      </g>
    </g>
  </g>
</svg>