<?xml version="1.0" encoding="UTF-8"?>
<svg id="Layer_2" data-name="Layer 2" xmlns="http://www.w3.org/2000/svg" viewBox="0 0 300 215.93">
  <defs>
    <style>
      .cls-1 {
        fill: #fff;
      }

      .cls-2 {
        fill: #0f1e91;
        opacity: .9;
      }
    </style>
  </defs>
  <g id="Layer_1-2" data-name="Layer 1">
    <g>
      <rect class="cls-2" x="0" width="300" height="215.93" rx="20" ry="20"/>
      <g>
        <path class="cls-1" d="M26.65,47.05c-.18,0-.27-.03-.27-.27v-19.14c0-.15.06-.24.21-.24h4.86c.24,0,.27.06.39.24,2.01,3.69,6.06,11.55,7.02,13.77h.03c-.03-.87-.09-1.77-.09-4.71v-9.03c0-.18.09-.27.27-.27h3.36c.21,0,.27.09.27.3v19.05c0,.24-.06.3-.33.3h-4.32c-.27,0-.33-.06-.42-.24-1.68-3.3-6.21-11.7-7.47-14.94h-.03c.12,1.74.15,2.94.15,5.76v9.15c0,.18-.06.27-.24.27h-3.39Z"/>
        <path class="cls-1" d="M57.82,43.72c0,.78,0,1.41.06,2.13,0,.06,0,.12-.06.15-2.64,1.02-4.38,1.35-6.54,1.35-3.33,0-6.06-1.53-6.06-5.01,0-3.18,2.79-4.86,6.78-4.86.81,0,1.5,0,1.77.06v-.21c0-.57-.36-1.89-2.88-1.89-1.5,0-2.82.3-3.96.81-.12.06-.27,0-.27-.15v-3.03c0-.15.03-.24.21-.3,1.32-.63,3.03-.93,4.71-.93,4.32,0,6.24,2.67,6.24,6.09v5.79ZM53.77,40.63c-.48-.06-.9-.09-1.5-.09-2.13,0-3,.69-3,1.77,0,.99.75,1.8,2.64,1.8.69,0,1.29-.09,1.86-.27v-3.21Z"/>
        <path class="cls-1" d="M68.62,46.54c0,.18-.03.33-.21.39-.84.3-1.62.42-2.67.42-2.61,0-4.14-1.29-4.14-4.29v-7.44h-1.8c-.18-.03-.24-.09-.24-.27v-2.94c0-.21.06-.27.27-.27h1.8c.03-1.02.15-2.79.3-3.63.03-.15.12-.24.27-.27l3.51-.45c.15-.03.24-.03.24.18-.09.93-.15,2.7-.15,4.17h2.76c.18,0,.24.06.24.24v3.03c0,.15-.06.18-.21.21h-2.82v6.42c0,1.32.39,1.92,1.62,1.92.36,0,.66-.06,1.02-.12.12,0,.21.03.21.21v2.49Z"/>
        <path class="cls-1" d="M83.92,43.72c0,1.53.12,2.46.18,3.09.03.18-.06.24-.27.24h-3.18c-.24,0-.3-.06-.36-.21-.06-.27-.15-.66-.18-.93-1.32,1.14-2.82,1.44-4.11,1.44-3,0-5.07-1.65-5.07-5.79v-9.18c0-.21.06-.24.27-.24h3.66c.18,0,.21.06.21.24v8.7c0,1.62.69,2.67,2.34,2.67.99,0,1.68-.3,2.34-.87v-10.5c0-.18.09-.24.3-.24h3.63c.21,0,.24.06.24.24v11.34Z"/>
        <path class="cls-1" d="M90.85,32.14c.21,0,.3.09.36.27.15.39.3,1.02.33,1.68.99-1.17,2.64-2.25,4.77-2.25.18,0,.24.06.24.24v3.69c0,.15-.06.21-.27.21-2.16-.09-3.9.57-4.53,1.29l-.03,9.54c0,.18-.06.24-.27.24h-3.6c-.24,0-.3-.09-.3-.27v-10.35c0-1.29-.03-3.03-.15-4.08,0-.15.03-.21.18-.21h3.27Z"/>
        <path class="cls-1" d="M102.13,40.69c.15,1.71,1.35,3.12,4.29,3.12,1.35,0,2.55-.21,3.69-.69.09-.06.18-.03.18.15v2.85c0,.21-.06.3-.21.36-1.2.57-2.52.87-4.59.87-5.64,0-7.62-3.87-7.62-7.59,0-4.14,2.55-7.92,7.26-7.92s6.33,3.51,6.33,6.48c0,.93-.06,1.68-.15,2.01-.03.15-.09.21-.24.24-.39.06-1.53.12-3.09.12h-5.85ZM106.03,37.78c.96,0,1.38-.03,1.5-.06v-.21c0-.72-.57-2.37-2.55-2.37s-2.7,1.41-2.88,2.64h3.93Z"/>
        <path class="cls-1" d="M131.95,38.29c.72.75,2.1,2.46,2.76,3.36,1.08,1.41,1.98,1.89,3.39,1.89.24,0,.54-.03.72-.03.15-.03.21.03.21.21v3c0,.27-.03.33-.24.42-.33.12-.87.21-1.65.21-2.25,0-3.81-.66-5.79-3.48-2.1-3.03-4.08-5.16-4.71-5.43-.81.09-2.04.9-2.04,2.43,0,1.44,1.02,2.61,3.27,2.61.84,0,1.53-.12,2.07-.3.12-.03.15.03.15.18v3.3c0,.21-.06.24-.21.3-.66.24-1.38.39-2.76.39-3.93,0-6.75-2.31-6.75-6.06,0-3.09,2.16-4.8,4.02-5.58-.75-.87-1.44-2.01-1.44-3.6,0-3.03,2.49-5.04,6.24-5.04,1.44,0,2.67.18,3.45.57.12.06.18.21.18.39v3.15c0,.18-.12.24-.24.15-.75-.36-1.77-.66-3.18-.66-1.71,0-2.34.66-2.34,1.53,0,.69.63,1.44,1.83,2.46h9.45c.21,0,.24.09.21.27l-.48,3.12c-.03.21-.09.24-.3.24h-5.82Z"/>
        <path class="cls-1" d="M26.38,57.73c0-.18.03-.27.18-.3,1.05-.03,3.99-.09,6.12-.09,6.39,0,7.44,3.27,7.44,5.25s-1.08,3.27-1.83,3.81c1.11.57,2.79,1.86,2.79,4.62,0,3.66-3.18,6.09-8.34,6.09-2.91,0-5.04-.03-6.15-.06-.15-.03-.21-.12-.21-.27v-19.05ZM30.46,65.08h2.04c1.02,0,2.22.09,2.67.15.54-.48.9-1.05.9-2.04,0-1.53-1.14-2.34-3.42-2.34-.93,0-1.53.03-2.19.06v4.17ZM30.46,73.57c.63.03,1.29.06,2.19.06,2.58.03,4.11-.81,4.11-2.55,0-1.02-.42-1.89-1.83-2.25-.48-.12-1.14-.18-1.89-.18h-2.58v4.92Z"/>
        <path class="cls-1" d="M43.66,58.21c0-1.35.99-2.31,2.34-2.31,1.44,0,2.31.96,2.31,2.31s-.93,2.34-2.34,2.34-2.31-.93-2.31-2.34ZM43.87,62.38c0-.15.06-.24.24-.24h3.69c.18,0,.24.06.24.24v14.4c0,.18-.03.27-.27.27h-3.6c-.21,0-.3-.09-.3-.27v-14.4Z"/>
        <path class="cls-1" d="M54.82,62.14c.21,0,.3.09.36.27.15.39.3,1.02.33,1.68.99-1.17,2.64-2.25,4.77-2.25.18,0,.24.06.24.24v3.69c0,.15-.06.21-.27.21-2.16-.09-3.9.57-4.53,1.29l-.03,9.54c0,.18-.06.24-.27.24h-3.6c-.24,0-.3-.09-.3-.27v-10.35c0-1.29-.03-3.03-.15-4.08,0-.15.03-.21.18-.21h3.27Z"/>
        <path class="cls-1" d="M61.84,69.73c0-4.29,3.21-7.89,8.7-7.89.24,0,.54.03.99.06v-5.91c0-.15.09-.21.21-.21h3.78c.15,0,.18.06.18.18v17.73c0,.69.03,1.59.12,2.19,0,.15-.03.21-.21.27-2.07.87-4.05,1.2-5.91,1.2-4.44,0-7.86-2.52-7.86-7.62ZM71.53,65.47c-.3-.12-.69-.15-1.11-.15-2.31,0-4.29,1.41-4.29,4.2,0,2.97,1.71,4.26,3.99,4.26.51,0,.99-.03,1.41-.18v-8.13Z"/>
        <path class="cls-1" d="M90.64,76.78c0,.18-.09.27-.27.27h-3.69c-.15,0-.21-.09-.21-.27v-19.14c0-.18.06-.24.21-.24h11.88c.21,0,.27.06.3.27l.33,3.21c.03.18-.06.27-.27.27h-8.28v4.56h7.47c.18,0,.24.06.24.24v3.27c0,.18-.06.24-.21.24h-7.5v7.32Z"/>
        <path class="cls-1" d="M104.71,70.69c.15,1.71,1.35,3.12,4.29,3.12,1.35,0,2.55-.21,3.69-.69.09-.06.18-.03.18.15v2.85c0,.21-.06.3-.21.36-1.2.57-2.52.87-4.59.87-5.64,0-7.62-3.87-7.62-7.59,0-4.14,2.55-7.92,7.26-7.92s6.33,3.51,6.33,6.48c0,.93-.06,1.68-.15,2.01-.03.15-.09.21-.24.24-.39.06-1.53.12-3.09.12h-5.85ZM108.61,67.78c.96,0,1.38-.03,1.5-.06v-.21c0-.72-.57-2.37-2.55-2.37s-2.7,1.41-2.88,2.64h3.93Z"/>
        <path class="cls-1" d="M121.81,65.17c-1.41,0-1.86.51-1.86,1.02s.39.9,2.13,1.56c3.63,1.32,4.77,2.73,4.77,4.86,0,2.85-2.22,4.74-6.18,4.74-1.83,0-3.42-.33-4.35-.84-.15-.09-.21-.18-.21-.33v-3.24c0-.18.12-.27.24-.18,1.38.87,3.06,1.2,4.41,1.2s2.04-.39,2.04-1.02c0-.57-.51-.99-2.28-1.65-3.39-1.26-4.5-2.7-4.5-4.86,0-2.34,1.89-4.59,5.85-4.59,1.77,0,3.15.24,3.9.6.18.09.21.24.21.39v3c0,.18-.12.3-.3.21-.99-.51-2.52-.87-3.87-.87Z"/>
        <path class="cls-1" d="M136.99,76.54c0,.18-.03.33-.21.39-.84.3-1.62.42-2.67.42-2.61,0-4.14-1.29-4.14-4.29v-7.44h-1.8c-.18-.03-.24-.09-.24-.27v-2.94c0-.21.06-.27.27-.27h1.8c.03-1.02.15-2.79.3-3.63.03-.15.12-.24.27-.27l3.51-.45c.15-.03.24-.03.24.18-.09.93-.15,2.7-.15,4.17h2.76c.18,0,.24.06.24.24v3.03c0,.15-.06.18-.21.21h-2.82v6.42c0,1.32.39,1.92,1.62,1.92.36,0,.66-.06,1.02-.12.12,0,.21.03.21.21v2.49Z"/>
        <path class="cls-1" d="M139.36,58.21c0-1.35.99-2.31,2.34-2.31,1.44,0,2.31.96,2.31,2.31s-.93,2.34-2.34,2.34-2.31-.93-2.31-2.34ZM139.57,62.38c0-.15.06-.24.24-.24h3.69c.18,0,.24.06.24.24v14.4c0,.18-.03.27-.27.27h-3.6c-.21,0-.3-.09-.3-.27v-14.4Z"/>
        <path class="cls-1" d="M150.88,77.05c-.21,0-.3-.09-.36-.21-1.14-3.39-3.66-11.01-4.89-14.46-.03-.12.03-.24.21-.24h3.93c.21,0,.27.06.33.21,1.95,6.75,2.61,9.42,2.91,10.77h.06c.3-1.35,1.08-4.05,3.18-10.77.06-.15.12-.21.27-.21h3.48c.12,0,.24.09.18.27-1.29,3.54-3.81,11.13-5.01,14.4-.09.15-.15.24-.36.24h-3.93Z"/>
        <path class="cls-1" d="M173.32,73.72c0,.78,0,1.41.06,2.13,0,.06,0,.12-.06.15-2.64,1.02-4.38,1.35-6.54,1.35-3.33,0-6.06-1.53-6.06-5.01,0-3.18,2.79-4.86,6.78-4.86.81,0,1.5,0,1.77.06v-.21c0-.57-.36-1.89-2.88-1.89-1.5,0-2.82.3-3.96.81-.12.06-.27,0-.27-.15v-3.03c0-.15.03-.24.21-.3,1.32-.63,3.03-.93,4.71-.93,4.32,0,6.24,2.67,6.24,6.09v5.79ZM169.27,70.63c-.48-.06-.9-.09-1.5-.09-2.13,0-3,.69-3,1.77,0,.99.75,1.8,2.64,1.8.69,0,1.29-.09,1.86-.27v-3.21Z"/>
        <path class="cls-1" d="M176.89,56.02c0-.15.06-.24.3-.24h3.57c.21,0,.3.09.3.24v16.8c0,.84.27,1.14.99,1.14.24,0,.27,0,.54-.03.12,0,.15.06.15.21v2.58c0,.24-.03.3-.21.36-.36.15-.93.27-1.86.27-2.16,0-3.78-.81-3.78-4.14v-17.19Z"/>
        <path class="cls-1" d="M25.21,107.05c-.21,0-.21-.12-.21-.27v-2.31c0-.21,0-.3.12-.39,1.32-.99,3.21-2.34,4.74-3.75,3.06-2.73,3.54-4.41,3.54-5.79,0-1.83-.99-3-3.36-3-1.86,0-3.12.54-4.38,1.2-.18.09-.27.03-.27-.15v-3.15c0-.18.03-.24.18-.33,1.56-.84,3.33-1.29,5.4-1.29,4.53,0,6.66,2.91,6.66,6.18,0,2.19-.81,4.41-3.3,6.75-1.44,1.41-2.31,2.04-3.33,2.85,1.17-.12,2.43-.12,4.23-.12h3.12c.24,0,.3.06.27.21l-.72,3.12c-.06.18-.12.24-.3.24h-12.39Z"/>
        <path class="cls-1" d="M40.33,97.54c0-5.67,2.61-9.72,7.2-9.72,5.61,0,7.11,5.04,7.11,9.72,0,5.13-2.01,9.81-7.11,9.81s-7.2-4.29-7.2-9.81ZM44.5,97.42c0,4.14,1.02,6.36,3.03,6.36s2.94-2.04,2.94-6.27-.99-6.18-3-6.18c-1.74,0-2.97,1.8-2.97,6.09Z"/>
        <path class="cls-1" d="M56.71,107.05c-.21,0-.21-.12-.21-.27v-2.31c0-.21,0-.3.12-.39,1.32-.99,3.21-2.34,4.74-3.75,3.06-2.73,3.54-4.41,3.54-5.79,0-1.83-.99-3-3.36-3-1.86,0-3.12.54-4.38,1.2-.18.09-.27.03-.27-.15v-3.15c0-.18.03-.24.18-.33,1.56-.84,3.33-1.29,5.4-1.29,4.53,0,6.66,2.91,6.66,6.18,0,2.19-.81,4.41-3.3,6.75-1.44,1.41-2.31,2.04-3.33,2.85,1.17-.12,2.43-.12,4.23-.12h3.12c.24,0,.3.06.27.21l-.72,3.12c-.06.18-.12.24-.3.24h-12.39Z"/>
        <path class="cls-1" d="M77.11,91.75c-.18.72-.51,2.04-.66,2.7,6.18.69,8.55,3,8.55,6.57,0,3.84-3.03,6.33-7.56,6.33-1.92,0-3.63-.33-4.89-.93-.15-.06-.21-.15-.21-.36v-3.39c0-.15.15-.21.24-.15,1.29.69,3.03,1.17,4.83,1.17,2.46,0,3.39-1.02,3.39-2.4,0-2.16-2.34-3.12-8.04-3.63-.15,0-.3-.03-.3-.21v-1.68c.21-.93,2.01-7.29,2.07-7.44.06-.15.12-.21.3-.21h9.39c.18,0,.24.06.18.24l-.9,3.18c-.03.15-.09.21-.3.21h-6.09Z"/>
      </g>
      <g>
        <path class="cls-1" d="M31.7,143.17c0,.07-.01.13-.07.14-.46.2-1.11.27-1.89.27-2.34,0-4.73-1.36-4.73-4.79,0-2.8,1.93-4.75,4.92-4.75.94,0,1.49.1,1.79.25.04.01.07.06.07.11v.94c0,.08-.06.08-.1.07-.39-.21-1.02-.32-1.79-.32-2.2,0-3.7,1.43-3.7,3.67,0,2.93,2.2,3.75,3.67,3.75.71,0,1.23-.06,1.75-.25.06-.01.08-.01.08.06v.85Z"/>
        <path class="cls-1" d="M33.05,133.47c0-.07.03-.08.1-.08h.98c.07,0,.08.03.08.08v8.45c0,.55.22.67.56.67.1,0,.15-.01.28-.04.04,0,.06.03.06.08v.73c0,.07-.01.08-.07.11-.13.06-.35.1-.64.1-.69,0-1.34-.24-1.34-1.55v-8.54Z"/>
        <path class="cls-1" d="M36.31,134.57c0-.42.29-.71.71-.71.45,0,.7.31.7.71s-.28.71-.71.71-.7-.29-.7-.71ZM36.42,136.72c0-.07.03-.1.1-.1h1c.06,0,.08.01.08.08v6.63c0,.07-.01.1-.1.1h-.97c-.07,0-.11-.03-.11-.11v-6.6Z"/>
        <path class="cls-1" d="M44.13,143.25c0,.06,0,.08-.06.1-.46.18-1.01.22-1.53.22-2.28,0-3.46-1.62-3.46-3.52,0-2.04,1.46-3.57,3.66-3.57.71,0,1.11.08,1.33.18.06.03.06.06.06.13v.88c0,.07-.04.07-.1.06-.35-.14-.71-.21-1.29-.21-1.44,0-2.47.97-2.47,2.49,0,1.68,1.16,2.51,2.47,2.51.52,0,.95-.06,1.3-.2.07-.01.08.01.08.06v.87Z"/>
        <path class="cls-1" d="M50.92,136.63c.07,0,.1.06.04.11-.39.43-2.51,2.48-3.03,2.98-.01.01,0,.04,0,.06.91.95,2.44,2.54,3.46,3.56.04.04.01.1-.05.1h-1.33c-.07,0-.1-.03-.14-.07-.73-.74-2.49-2.59-3.17-3.32v3.29c0,.07-.01.1-.08.1h-.98c-.08,0-.1-.03-.1-.1v-9.86c0-.06.01-.08.1-.08h.98c.06,0,.08.03.08.08v6.28c.66-.66,2.59-2.66,2.96-3.05.06-.06.08-.07.14-.07h1.12Z"/>
        <path class="cls-1" d="M58.21,143.24c0,.06-.01.11-.08.14-.32.14-.67.2-1.05.2-1.02,0-1.64-.49-1.64-1.83v-4.1h-.95c-.08-.01-.1-.04-.1-.11v-.8c0-.07.03-.1.1-.1h.95c.01-.52.07-1.48.13-1.79.01-.06.04-.08.1-.1l.95-.15c.06-.01.08,0,.08.06-.04.49-.08,1.3-.08,1.99h1.49c.06,0,.08.03.08.1v.83c0,.06-.03.08-.08.08h-1.49v3.94c0,.64.24,1.01.85,1.01.21,0,.42-.03.66-.11.04-.01.08-.01.08.06v.71Z"/>
        <path class="cls-1" d="M65.31,140.02c0,2.13-1.32,3.56-3.19,3.56-2.26,0-3.22-1.82-3.22-3.54,0-1.97,1.26-3.54,3.22-3.54s3.19,1.51,3.19,3.53ZM60.07,140c0,1.43.74,2.56,2.07,2.56.99,0,1.98-.79,1.98-2.52,0-1.3-.6-2.55-2.06-2.55-1.18,0-1.99,1.01-1.99,2.51Z"/>
        <path class="cls-1" d="M71.07,133.39c.07,0,.1,0,.1.08v3.29c.45-.18.95-.28,1.51-.28,1.93,0,3.19,1.39,3.19,3.28,0,2.52-1.9,3.81-3.88,3.81-.7,0-1.32-.08-1.92-.28-.06-.01-.08-.07-.08-.13v-9.69c0-.07.03-.08.1-.08h.98ZM72.5,137.51c-.6,0-.98.1-1.33.24v4.71c.27.08.55.11.92.11,1.34,0,2.59-.9,2.59-2.7,0-1.43-.84-2.35-2.18-2.35Z"/>
        <path class="cls-1" d="M83.38,140.02c0,2.13-1.32,3.56-3.19,3.56-2.26,0-3.22-1.82-3.22-3.54,0-1.97,1.26-3.54,3.22-3.54s3.19,1.51,3.19,3.53ZM78.15,140c0,1.43.74,2.56,2.07,2.56.99,0,1.98-.79,1.98-2.52,0-1.3-.6-2.55-2.06-2.55-1.18,0-1.99,1.01-1.99,2.51Z"/>
        <path class="cls-1" d="M90.87,140.02c0,2.13-1.32,3.56-3.19,3.56-2.26,0-3.22-1.82-3.22-3.54,0-1.97,1.26-3.54,3.22-3.54s3.19,1.51,3.19,3.53ZM85.64,140c0,1.43.74,2.56,2.07,2.56.99,0,1.97-.79,1.97-2.52,0-1.3-.6-2.55-2.06-2.55-1.18,0-1.99,1.01-1.99,2.51Z"/>
        <path class="cls-1" d="M97.71,136.63c.07,0,.1.06.04.11-.39.43-2.51,2.48-3.03,2.98-.01.01,0,.04,0,.06.91.95,2.44,2.54,3.46,3.56.04.04.01.1-.06.1h-1.33c-.07,0-.1-.03-.14-.07-.73-.74-2.49-2.59-3.17-3.32v3.29c0,.07-.01.1-.08.1h-.98c-.08,0-.1-.03-.1-.1v-9.86c0-.06.01-.08.1-.08h.98c.06,0,.08.03.08.08v6.28c.66-.66,2.59-2.66,2.96-3.05.06-.06.08-.07.14-.07h1.12Z"/>
        <path class="cls-1" d="M102.35,136.63c.06,0,.08.03.1.07,1.16,3.08,1.74,4.68,1.93,5.31.45-1.29,1.04-2.9,1.89-5.31.03-.04.06-.07.11-.07h.99c.07,0,.08.04.06.1-1.04,3.04-2.48,6.63-3.81,9.62-.03.06-.07.08-.15.1l-1.05.08c-.07,0-.07-.04-.04-.11.41-.85.92-1.99,1.39-3.1.03-.06.03-.1,0-.18-.34-.84-1.74-4.24-2.59-6.43-.03-.06.01-.08.07-.08h1.11Z"/>
        <path class="cls-1" d="M114.52,140.02c0,2.13-1.32,3.56-3.19,3.56-2.25,0-3.22-1.82-3.22-3.54,0-1.97,1.26-3.54,3.22-3.54s3.19,1.51,3.19,3.53ZM109.28,140c0,1.43.74,2.56,2.07,2.56.99,0,1.97-.79,1.97-2.52,0-1.3-.6-2.55-2.06-2.55-1.18,0-1.99,1.01-1.99,2.51Z"/>
        <path class="cls-1" d="M121.39,141.95c0,.74.04,1.09.08,1.4,0,.06-.01.08-.08.08h-.9c-.07,0-.08-.01-.11-.07-.04-.15-.07-.41-.08-.6-.59.6-1.33.81-2.03.81-1.19,0-2.31-.6-2.31-2.63v-4.23c0-.07.03-.08.1-.08h.99c.06,0,.07.03.07.08v4.09c0,1.08.5,1.74,1.48,1.74.67,0,1.21-.25,1.62-.71v-5.11c0-.06.03-.08.1-.08h.98c.08,0,.08.03.08.08v5.24Z"/>
        <path class="cls-1" d="M124.26,136.63c.08,0,.1.03.13.1.06.17.1.66.11.97.49-.67,1.36-1.21,2.26-1.21.07,0,.1.01.1.1v1.01c0,.07-.01.08-.1.08-.97-.01-1.85.46-2.2,1.02v4.65c-.01.07-.04.08-.1.08h-1c-.07,0-.1-.03-.1-.1v-4.83c0-.59-.03-1.4-.07-1.79,0-.06.01-.08.07-.08h.9Z"/>
        <path class="cls-1" d="M136.93,139.79c0,2.55-2.02,3.78-4.01,3.78-.32,0-.52-.03-.71-.06v2.8c0,.06,0,.08-.07.1-.32.03-.97.1-1.02.11-.06,0-.07-.01-.07-.08v-8.73c0-.13-.01-.43-.03-.62,0-.01,0-.04.03-.06.49-.18,1.42-.56,2.61-.56,2.07,0,3.28,1.43,3.28,3.31ZM132.21,137.73v4.75c.24.07.53.08.8.08,1.36,0,2.73-.84,2.73-2.7,0-1.43-.81-2.35-2.23-2.35-.49,0-.91.08-1.3.22Z"/>
        <path class="cls-1" d="M138.4,133.47c0-.07.03-.08.1-.08h.98c.07,0,.08.03.08.08v8.45c0,.55.22.67.56.67.1,0,.15-.01.28-.04.04,0,.06.03.06.08v.73c0,.07-.01.08-.07.11-.12.06-.35.1-.64.1-.69,0-1.34-.24-1.34-1.55v-8.54Z"/>
        <path class="cls-1" d="M146.51,142.24c0,.24,0,.45.03.67,0,.03,0,.04-.03.06-1.01.48-1.81.6-2.62.6-1.48,0-2.61-.73-2.61-2.2s1.39-2.14,3.12-2.14c.52,0,.81.01.97.03v-.34c0-.43-.21-1.4-1.58-1.4-.67,0-1.29.15-1.78.42-.04.01-.1,0-.1-.07v-.85c0-.06.03-.08.07-.11.55-.27,1.25-.42,1.99-.42,1.79,0,2.54,1.18,2.54,2.63v3.12ZM145.37,140.18c-.2-.03-.5-.06-.92-.06-1.36,0-2.02.46-2.02,1.25,0,.63.43,1.25,1.67,1.25.45,0,.87-.07,1.27-.24v-2.2Z"/>
        <path class="cls-1" d="M152.96,143.25c0,.06,0,.08-.06.1-.46.18-1.01.22-1.53.22-2.28,0-3.46-1.62-3.46-3.52,0-2.04,1.46-3.57,3.66-3.57.71,0,1.11.08,1.33.18.06.03.06.06.06.13v.88c0,.07-.04.07-.1.06-.35-.14-.71-.21-1.29-.21-1.44,0-2.46.97-2.46,2.49,0,1.68,1.16,2.51,2.46,2.51.52,0,.95-.06,1.3-.2.07-.01.08.01.08.06v.87Z"/>
        <path class="cls-1" d="M154.98,140.17c-.01,1.33.76,2.38,2.34,2.38.62,0,1.2-.11,1.75-.38.04-.03.07,0,.07.06v.8c0,.08-.03.11-.07.14-.48.24-1.09.41-1.97.41-2.42,0-3.29-1.78-3.29-3.49,0-1.96,1.15-3.6,3.1-3.6s2.73,1.62,2.73,2.82c0,.35-.03.6-.06.73,0,.04-.04.08-.1.08-.21.04-.83.06-1.44.06h-3.05ZM157.6,139.3c.69,0,.85-.01.9-.03.01-.04.01-.11.01-.15,0-.5-.34-1.67-1.65-1.67-1.16,0-1.74.91-1.86,1.85h2.61Z"/>
        <path class="cls-1" d="M164.27,138.21c0-.48-.03-1.26-.06-1.5,0-.06.01-.08.08-.08h.87c.07,0,.1.03.13.08.04.13.06.39.08.7.62-.62,1.33-.92,2.14-.92.99,0,2.28.49,2.28,2.7v4.15c0,.07-.03.1-.1.1h-.98c-.07,0-.1-.03-.1-.11v-4.02c0-1.07-.46-1.78-1.44-1.78-.71,0-1.3.32-1.75.85v4.96c0,.07-.01.1-.08.1h-1c-.05,0-.08-.03-.08-.1v-5.13Z"/>
        <path class="cls-1" d="M177.69,140.02c0,2.13-1.32,3.56-3.19,3.56-2.25,0-3.22-1.82-3.22-3.54,0-1.97,1.26-3.54,3.22-3.54s3.19,1.51,3.19,3.53ZM172.45,140c0,1.43.74,2.56,2.07,2.56.99,0,1.97-.79,1.97-2.52,0-1.3-.6-2.55-2.06-2.55-1.18,0-1.99,1.01-1.99,2.51Z"/>
        <path class="cls-1" d="M184.9,143.43c-.08,0-.11-.03-.12-.1-1.04-3.71-1.3-4.88-1.46-5.53h-.01c-.25,1.12-.76,2.83-1.55,5.53-.03.08-.07.1-.14.1h-1.08c-.11,0-.14-.03-.15-.1l-1.82-6.61c-.03-.06,0-.1.07-.1h1.05s.08.01.1.07c1.04,3.85,1.27,5.14,1.37,5.63h.03c.11-.48.36-1.64,1.55-5.6.01-.07.03-.1.1-.1h1.13c.06,0,.08.03.1.08,1.13,4.06,1.33,5.08,1.44,5.63h.03c.15-.66.36-1.85,1.46-5.64.01-.04.04-.07.1-.07h.98c.06,0,.08.03.07.08l-2,6.64c-.03.06-.04.08-.13.08h-1.11Z"/>
        <path class="cls-1" d="M188.32,142.8c0-.43.31-.76.76-.76s.74.32.74.76c0,.46-.28.77-.74.77s-.76-.29-.76-.77Z"/>
      </g>
    </g>
  </g>
</svg>