<?xml version="1.0" encoding="UTF-8"?>
<svg id="Layer_2" data-name="Layer 2" xmlns="http://www.w3.org/2000/svg" viewBox="0 0 61.15 63">
  <defs>
    <style>
      .cls-1 {
        fill: #c55e28;
      }

      .cls-2 {
        fill: #48aa48;
      }

      .cls-3 {
        fill: #ce6928;
      }

      .cls-4 {
        fill: #fdc025;
      }

      .cls-5 {
        fill: #28a0e1;
      }

      .cls-6 {
        fill: #eea61f;
      }

      .cls-7 {
        fill: #edab1f;
      }

      .cls-8 {
        fill: #fbcc19;
      }

      .cls-9 {
        fill: #e3772a;
      }

      .cls-10 {
        fill: #e49225;
      }

      .cls-11 {
        fill: #ffd76c;
      }

      .cls-12 {
        fill: #377639;
      }

      .cls-13 {
        fill: #379345;
      }
    </style>
  </defs>
  <g id="Layer_1-2" data-name="Layer 1">
    <g>
      <g>
        <path class="cls-4" d="M29.72,39.82c-2.01,0-4.02-.12-6-.35.25.59.47,1.18.58,1.81.14.73.1,1.57-.4,2.12-.61.66-1.65.65-2.52.46-2.17-.48-4.14-1.8-5.4-3.63-.61-.88-1.02-1.8-1.27-2.72-1.17-.39-2.24-.8-3.21-1.26.43,1.44,1.04,2.82,1.82,4.07,3.28,5.3,9.61,9.2,15.95,8.66,5.72-.48,11.22-4.17,13.44-9.53.2-.48.36-.96.5-1.45-2.38.66-4.82,1.14-7.27,1.45-2.06.25-4.14.38-6.21.38Z"/>
        <path class="cls-7" d="M50.57,36.56s-.01-.09-.02-.13c-.04-.34-.09-.68-.16-1.02-2.31,1.04-4.72,1.91-7.19,2.59-.14.49-.3.98-.5,1.45-2.22,5.36-7.72,9.05-13.44,9.53-6.34.54-12.67-3.37-15.95-8.66-.78-1.26-1.38-2.63-1.82-4.07-.29-.14-.58-.28-.85-.42-.37,2.52-.16,5.13.7,7.46,0,0,0,0,0,.01.03.07.05.15.08.22,0,.01,0,.02.01.04,0,.02.02.04.02.06,0,.02.01.03.02.05.01.03.02.05.03.08,0,.02.02.04.02.05,0,.02.01.03.02.05.01.03.02.05.03.08,0,.02.02.04.02.05l.03.07s.01.02.02.04c.01.03.03.06.04.1,0,0,0,.02.01.03.01.03.02.05.04.08l.02.03s.03.07.05.1c0,0,0,.01,0,.02.01.03.03.06.04.09,0,0,0,.02.01.02.02.03.03.07.05.1,0,0,0,0,0,0,.02.03.03.07.05.1v.02c.05.07.09.14.12.21,0,0,0,.01.01.02.02.03.04.07.06.1.6,1.05,1.32,1.99,2.15,2.81.02.02.04.04.06.06.07.07.15.14.22.21.03.03.06.06.1.09.02.02.04.04.06.06.04.04.09.08.13.12.02.02.04.04.07.06.04.04.09.08.13.11.04.04.09.08.13.11s.09.07.13.11c.04.04.09.07.14.11.04.03.08.06.12.1,0,0,.02.02.03.02.04.03.08.06.12.09.07.05.14.11.21.16.06.04.12.09.18.13.05.04.1.07.15.11.03.02.06.04.09.06.02.02.05.03.07.05.05.03.1.06.14.1.02.02.05.03.07.05.1.06.19.13.29.19.03.02.07.04.1.06.04.02.08.05.12.07.02.01.05.03.07.04.12.07.25.15.37.22.1.06.2.11.3.17.05.03.1.05.15.08.05.03.1.05.15.08.08.04.15.08.23.12.08.04.15.08.23.11.03.02.07.03.1.05.04.02.09.04.13.06.03.01.05.02.08.04.05.02.1.05.16.07.08.03.16.07.24.1.05.02.11.04.16.07.05.02.11.04.16.06.08.03.16.06.24.09.18.07.36.13.54.2.63-.34,1.32-.54,2.03-.53,1.34.02,2.47.39,3.65,1.03.11.06.3.14.48.23.02,0,.02,0,.04,0,.38-.12.78-.21,1.16-.33.72-.22,1.43-.47,2.18-.61,2.58-.48,4.82-.3,7.22.81.14.06.3.16.46.25.09-.02.17-.04.26-.06,1.17-.3,2.31-.67,3.43-1.12.19-.08.39-.16.58-.24.42-.18.83-.39,1.23-.6.02,0,.04-.02.05-.03.31-.17.61-.35.91-.54.02-.01.04-.03.07-.04.17-.11.34-.22.5-.33.04-.03.07-.05.11-.08.08-.05.15-.11.23-.16.01,0,.02-.02.04-.03.08-.06.15-.11.23-.17.03-.02.06-.05.1-.07.03-.03.07-.05.1-.08,0,0,.02-.01.03-.02.03-.03.07-.05.1-.08,0,0,.02-.01.02-.02.08-.06.16-.13.23-.19,0,0,.01-.01.02-.02.08-.07.16-.13.23-.2,0,0,0,0,.01-.01.08-.07.16-.14.23-.21.04-.04.09-.08.13-.12.06-.06.12-.11.17-.17.02-.02.04-.04.06-.06.61-.6,1.16-1.27,1.65-1.99.02-.02.03-.05.05-.07.06-.09.12-.19.18-.28.03-.05.06-.1.09-.14.03-.05.06-.1.09-.15.03-.05.06-.1.09-.15.1-.17.19-.35.29-.53.04-.08.08-.16.12-.23.04-.08.07-.16.11-.24.04-.08.07-.16.11-.24.05-.12.1-.24.15-.36.02-.04.03-.08.05-.12.05-.12.09-.24.13-.37.01-.04.03-.08.04-.12.11-.33.21-.66.29-1,.01-.04.02-.08.03-.13.08-.33.15-.67.2-1,0-.01,0-.03,0-.04.22-1.37.23-2.78.07-4.18Z"/>
        <path class="cls-4" d="M42.91,34.51c-.45-.2-.9-.47-1.33-.72-.8-.47-1.62-.95-2.49-1.06-1.6-.19-2.74.79-3.94,1.83-.68.58-1.37,1.19-2.18,1.61-.62.32-1.41.48-2.2.48-.94,0-1.88-.22-2.56-.66-.64-.41-1.13-.96-1.61-1.49-.52-.58-1.02-1.13-1.66-1.48-1.09-.59-2.19-.57-3.12-.33-.01.44,0,.88.04,1.32.25-.22.58-.35.94-.35.79,0,1.43.64,1.43,1.43s-.64,1.43-1.43,1.43c-.14,0-.28-.02-.41-.06.01.04.03.07.04.11.26.71.6,1.4.93,2.08,6.71.88,13.57.36,20.06-1.5.16-.77.24-1.56.26-2.35-.25-.07-.5-.17-.76-.28Z"/>
        <path class="cls-4" d="M35.88,30.43c-1.78.19-3.58.29-5.37.29-2.79,0-5.57-.23-8.3-.68-.16.6-.27,1.21-.34,1.83,1.23-.26,2.4-.1,3.44.46.77.42,1.33,1.04,1.87,1.65.47.52.9,1,1.45,1.36,1.01.65,2.87.72,3.97.14.72-.38,1.39-.95,2.03-1.5,1.28-1.11,2.61-2.25,4.55-2.02,1.03.12,1.92.65,2.79,1.16.43.25.84.49,1.25.68.15.07.3.13.44.18-.04-1.6-.33-3.22-.79-4.79-2.3.58-4.65,1-7,1.25Z"/>
        <path class="cls-9" d="M28.14,4.42c-1.58,1.98-3.42,3.61-4.95,5.64-.16.21-.31.42-.46.64-.63.91-1.19,1.95-1.6,3.07-.06.17-.12.34-.18.51-.15.46-.28.94-.37,1.42-.03.17-.06.34-.09.51.33.22.68.41,1.05.58.22-2.75,1.19-5.25,2.78-7.09l.03-.03c2.11-2.45,4.04-4.69,5.39-7.59-.47.84-1.01,1.62-1.58,2.33Z"/>
        <path class="cls-1" d="M23.64,17.79c0-.11.01-.22.02-.33-.07-.02-.15-.03-.22-.05-.57-.13-1.15-.3-1.71-.53,0,.13-.02.27-.02.4h-.21c0-.17.02-.33.03-.49-.37-.16-.72-.35-1.05-.58-.04.3-.08.6-.1.91,0,0,0,0,0,0h0s.01.07.04.1c0,0,.01,0,.02.01,0,0,.01,0,.02.01,0,0,.01,0,.02,0,0,0,0,0,0,0,0,0,0,0,0,0,.01,0,.03,0,.04,0,0,0,.01,0,.02,0,.01,0,.02,0,.04,0,0,0,.01,0,.02,0,.01,0,.02,0,.04,0,0,0,.01,0,.02,0,.01,0,.03,0,.04,0,0,0,0,0,.01,0,.01,0,.03,0,.04,0,0,0,.01,0,.02,0,.01,0,.03,0,.04,0,0,0,.01,0,.02,0,.01,0,.03,0,.04,0,0,0,.01,0,.02,0,.01,0,.03,0,.04,0,0,0,0,0,.01,0,.04,0,.08.02.12.02,0,0,0,0,0,0,.02,0,.03,0,.05,0,0,0,0,0,.01,0,.01,0,.03,0,.04,0,0,0,.02,0,.02,0,.01,0,.02,0,.04,0,0,0,.02,0,.02,0,.01,0,.03,0,.04,0,0,0,0,0,.01,0,.04,0,.08.02.13.02,0,0,0,0,.01,0,.01,0,.03,0,.04,0,0,0,.02,0,.02,0,.01,0,.03,0,.04,0,0,0,.02,0,.02,0,.01,0,.03,0,.04,0,0,0,.02,0,.03,0,.01,0,.02,0,.04,0,0,0,.02,0,.03,0,.01,0,.03,0,.04,0,0,0,.02,0,.03,0,.01,0,.03,0,.04,0,0,0,0,0,.01,0,.07.01.13.02.2.03.11.02.23.04.34.05,0,0,0,0,.01,0,.02,0,.03,0,.05,0,0,0,.01,0,.02,0,.02,0,.04,0,.05,0h.01s.04,0,.05.01c0,0,0,0,0,0,.07.01.14.02.21.03.27.04.56.08.85.11Z"/>
        <path class="cls-6" d="M20.44,17.24s-.01,0-.02-.01c-.03-.02-.04-.06-.04-.1h0s0,0,0,0c0-.05,0-.09,0-.14-.49-.48-1.14-.85-1.76-1.19-.04-.02-.08-.05-.12-.07-.04-.02-.07-.04-.11-.06-.29-.16-.59-.35-.87-.55-.14.15-.21.31-.21.46,0,.63,1.15,1.2,3.05,1.65.03,0,.07.02.1.02,0,0-.01,0-.02,0,0,0-.01,0-.02-.01Z"/>
        <path class="cls-13" d="M20.52,10c.24.23.44.51.58.81.12.27.28.68.19.98-.05.17-.18.31-.27.46-.1.17-.19.36-.25.55-.12.4-.04.76.08,1.15.03.11.07.22.1.33.06-.17.12-.34.18-.51.42-1.11.97-2.16,1.6-3.07.15-.22.31-.43.46-.64-.75-.86-1.55-1.66-2.52-2.23-2.5-1.48-5.69-1.11-7.77-3.15.51.56.83,1.29.91,2.04.69.59,1.55.97,2.41,1.26,1.49.51,3.14.87,4.3,2.02Z"/>
        <path class="cls-13" d="M20.57,15.71c-.18.11-.41.16-.64.19-.43.05-.84,0-1.27-.09,0,0-.01,0-.02,0,.62.35,1.26.71,1.76,1.19.03-.43.09-.86.17-1.28Z"/>
        <path class="cls-2" d="M17.54,15.12c.28.2.58.39.87.55.04.02.07.04.11.06.04.02.08.05.12.07,0,0,.01,0,.02,0,.43.1.84.14,1.27.09.24-.03.46-.08.64-.19.09-.48.22-.96.37-1.42-.03-.11-.06-.22-.1-.33-.12-.38-.2-.75-.08-1.15.06-.19.14-.38.25-.55.09-.15.22-.3.27-.46.09-.3-.07-.71-.19-.98-.14-.3-.34-.58-.58-.81-1.16-1.15-2.81-1.51-4.3-2.02-.86-.29-1.72-.66-2.41-1.26,0,0,0,0,0,0,.02.19.03.39.02.58-.03.55-.18,1.13.06,1.63.42.89,1.8.95,2.24,1.82.35.68-.04,1.5.01,2.26,0,.12.02.23.05.34.17.72.71,1.3,1.35,1.77ZM17.94,11.68c-.12-.71-.24-1.38-.74-1.83-.29-.26-.67-.4-1.05-.54-.42-.16-.86-.32-1.18-.65-.3-.32-.47-.79-.49-1.32h.17c.02.49.17.92.44,1.2.29.31.69.45,1.11.61.39.14.79.29,1.1.57.54.49.67,1.22.79,1.93.07.42.15.86.31,1.24.28.66.85,1.19,1.53,1.42l-.05.16c-.73-.25-1.34-.81-1.63-1.52-.17-.4-.25-.85-.32-1.28Z"/>
        <path class="cls-2" d="M46.07,8.66c-.32.34-.76.5-1.18.65-.37.14-.76.28-1.05.54-.5.45-.61,1.12-.74,1.83-.07.43-.15.88-.32,1.28-.3.71-.91,1.27-1.63,1.52l-.05-.16c.68-.23,1.25-.76,1.53-1.42.16-.38.24-.82.31-1.24.12-.71.25-1.44.79-1.93.31-.28.71-.43,1.1-.57.42-.16.82-.3,1.11-.61.25-.26.4-.64.44-1.08-.41.2-.84.37-1.27.52-1.49.51-3.14.87-4.3,2.02-.24.23-.44.51-.58.81-.12.27-.28.68-.19.98.05.17.18.31.27.46.1.17.19.36.25.55.12.4.04.76-.08,1.15,0,0,0,0,0,0,.09.25.17.51.25.77.02.07.04.13.05.2.02.07.03.13.05.2.02.07.03.13.05.2.02.07.03.13.04.2.02.1.04.19.06.29.13.04.27.07.42.09.43.05.84,0,1.27-.09,0,0,.01,0,.02,0,.04-.02.08-.05.12-.07.04-.02.07-.04.11-.06.25-.14.51-.3.75-.47.68-.47,1.27-1.07,1.46-1.81.03-.12.05-.25.06-.38.05-.76-.33-1.58.01-2.26.45-.87,1.82-.94,2.24-1.82.24-.5.09-1.08.06-1.63-.01-.19,0-.39.02-.58,0,0,0,0,0,0-.29.25-.62.47-.96.65-.02.52-.2.98-.49,1.29Z"/>
        <path class="cls-13" d="M40.45,13.86s.02.07.04.1c0,0,0,0,0,0,.12-.38.2-.75.08-1.15-.06-.19-.14-.38-.25-.55-.09-.15-.22-.3-.27-.46-.09-.3.07-.71.19-.98.14-.3.34-.58.58-.81,1.16-1.15,2.81-1.51,4.3-2.02.43-.15.86-.31,1.27-.52,0-.04,0-.09,0-.13h.17s0,.03,0,.04c.34-.18.67-.4.96-.65.08-.75.4-1.48.91-2.04-2.08,2.04-5.27,1.67-7.77,3.15-.92.55-1.69,1.3-2.41,2.1.19.25.38.51.56.77.64.94,1.22,2.01,1.63,3.16Z"/>
        <path class="cls-6" d="M42.82,15.73s-.08.05-.12.07c-.54.3-1.1.62-1.56,1.02,0,.07.01.15.02.22,0,.02,0,.04-.01.06,0,0,0,0,0,.01,0,0-.01.02-.02.02,0,0-.01,0-.02.01s-.01,0-.02.01c0,0-.01,0-.02,0,.03,0,.06-.02.1-.02,1.67-.43,2.66-.97,2.66-1.55,0-.13-.05-.26-.14-.38-.24.17-.5.33-.75.47-.04.02-.07.04-.11.06Z"/>
        <path class="cls-13" d="M42.68,15.81c-.43.1-.84.14-1.27.09-.15-.02-.29-.04-.42-.09.06.33.11.67.14,1.01.46-.4,1.02-.71,1.56-1.02,0,0-.01,0-.02,0Z"/>
        <path class="cls-4" d="M17.41,28.17c.07-.08.15-.17.22-.25.55-.62,1.13-1.22,1.71-1.83.99-1.06,1.96-2.14,2.72-3.37.33-.54.76-1.18,1.38-1.11.62.07.9.82.93,1.44.1,2.14-1.16,4.07-1.88,6.09-.02.05-.03.1-.05.14,6.72,1.12,13.63.82,20.22-.84-.87-2.59-2.23-5.04-3.78-7.07-.58-.76-1.22-1.46-1.91-2.09-1.99.15-4.14.23-6.39.23-3.48,0-6.74-.2-9.52-.54-.63,1.69-1.7,3.2-2.85,4.53-1.14,1.31-2.4,2.5-3.54,3.81.68.24,1.4.48,2.17.7.19.06.39.11.58.17Z"/>
        <path class="cls-7" d="M45.14,25.82s-.08-.08-.11-.12c-.06-.06-.12-.13-.19-.19-.08-.08-.15-.15-.23-.23-.08-.08-.15-.15-.23-.23-.05-.05-.1-.1-.15-.15-.08-.08-.15-.16-.22-.23-.05-.05-.1-.1-.15-.16-.02-.03-.05-.05-.07-.08-.42-.44-.84-.89-1.23-1.36-.23-.28-.46-.56-.68-.85-.03-.04-.07-.09-.1-.13-.04-.06-.09-.12-.13-.18-.16-.22-.32-.45-.46-.69-.03-.05-.06-.09-.09-.14-.02-.03-.04-.06-.06-.09-.06-.09-.11-.19-.17-.29,0-.02-.02-.03-.03-.05-.03-.05-.05-.1-.08-.15,0-.02-.02-.03-.03-.05-.04-.08-.09-.16-.13-.25,0-.02-.02-.03-.03-.05-.04-.08-.08-.17-.12-.25-.02-.03-.03-.07-.05-.1-.04-.08-.08-.17-.11-.25s-.07-.17-.11-.26c-.03-.07-.05-.14-.08-.21-.01-.03-.03-.07-.04-.1,0,0,0,0,0,0,5.36-.66,8.94-1.87,8.94-3.26,0-.88-1.45-1.69-3.88-2.33-.19.74-.78,1.34-1.46,1.81.09.12.14.25.14.38,0,.58-.99,1.12-2.66,1.55-.03,0-.06.02-.1.02,0,0,0,0,0,0,0,0,0,0,0,0-.01,0-.03,0-.04,0,0,0-.01,0-.02,0-.01,0-.03,0-.04,0,0,0,0,0-.01,0,0,0,0,0,0,0-.01,0-.02,0-.03,0,0,0-.02,0-.03,0-.01,0-.02,0-.04,0,0,0,0,0-.01,0,0,0,0,0,0,0-.01,0-.03,0-.04,0,0,0-.02,0-.02,0-.01,0-.02,0-.03,0,0,0-.01,0-.02,0,0,0,0,0-.01,0,0,0-.02,0-.03,0-.01,0-.02,0-.03,0,0,0-.02,0-.03,0,0,0-.01,0-.02,0,0,0,0,0,0,0-.01,0-.03,0-.04,0,0,0-.02,0-.02,0-.01,0-.03,0-.04,0,0,0,0,0-.01,0,0,0,0,0-.01,0-.01,0-.02,0-.04,0,0,0-.02,0-.03,0-.01,0-.02,0-.03,0,0,0-.01,0-.02,0,0,0,0,0-.01,0-.01,0-.02,0-.03,0,0,0-.02,0-.03,0-.01,0-.02,0-.04,0,0,0-.02,0-.03,0-.01,0-.02,0-.03,0,0,0-.02,0-.03,0-.01,0-.03,0-.04,0,0,0-.01,0-.02,0-.01,0-.03,0-.04,0-.01,0-.02,0-.03,0h-.03s-.02,0-.03.01c-.01,0-.03,0-.04,0,0,0-.02,0-.03,0-.01,0-.03,0-.04,0-.01,0-.02,0-.03,0-.01,0-.02,0-.03,0,0,0,0,0-.01,0,0,0,0,0-.01,0-.01,0-.03,0-.04,0,0,0,0,0,0,0,0,0,0,0-.01,0-.01,0-.03,0-.04,0-.01,0-.02,0-.03,0-.01,0-.03,0-.04,0,0,0,0,0-.01,0,0,0-.01,0-.02,0-.01,0-.03,0-.04,0,0,0,0,0-.01,0,0,0-.01,0-.02,0-.01,0-.02,0-.04,0-.01,0-.02,0-.03,0-.01,0-.02,0-.04,0-.01,0-.02,0-.04,0-.01,0-.02,0-.03,0,0,0-.02,0-.02,0,0,0,0,0-.01,0-.01,0-.02,0-.03,0-.01,0-.02,0-.04,0-.01,0-.02,0-.04,0,0,0,0,0,0,0,0,0-.02,0-.03,0-.01,0-.02,0-.03,0-.02,0-.03,0-.05,0,0,0-.02,0-.03,0-.01,0-.03,0-.04,0-.01,0-.02,0-.03,0,0,0,0,0-.01,0,0,0-.02,0-.03,0-.01,0-.02,0-.03,0-.01,0-.03,0-.04,0,0,0-.02,0-.03,0-.01,0-.02,0-.03,0-.01,0-.03,0-.04,0,0,0,0,0,0,0,0,0-.01,0-.02,0-.02,0-.03,0-.05,0-.01,0-.02,0-.04,0-.01,0-.02,0-.04,0-.02,0-.03,0-.05,0,0,0-.02,0-.03,0-.01,0-.02,0-.03,0-.02,0-.03,0-.05,0,0,0,0,0,0,0,0,0,0,0,0,0-.02,0-.04,0-.06,0-.01,0-.02,0-.03,0-.01,0-.03,0-.04,0,0,0-.01,0-.02,0,0,0-.02,0-.02,0-.01,0-.03,0-.04,0h0s-.02,0-.03,0c-.02,0-.03,0-.05,0,0,0-.02,0-.02,0-.02,0-.04,0-.06,0h0s-.05,0-.07.01c0,0,0,0,0,0,0,0,0,0-.01,0-.02,0-.04,0-.06,0-.01,0-.03,0-.04,0,0,0-.02,0-.03,0-.02,0-.03,0-.05,0-.01,0-.02,0-.03,0,0,0,0,0,0,0-.01,0-.02,0-.03,0-.02,0-.03,0-.05,0-.01,0-.03,0-.04,0-.01,0-.03,0-.04,0,0,0,0,0,0,0-.05,0-.09.01-.14.02-.02,0-.04,0-.06,0,0,0-.02,0-.02,0,0,0,0,0,0,0-.02,0-.04,0-.06,0,0,0-.02,0-.02,0-.01,0-.02,0-.03,0-.02,0-.03,0-.05,0-.01,0-.02,0-.04,0-.01,0-.03,0-.04,0h0s-.02,0-.03,0c-.04,0-.09,0-.13.01,0,0,0,0,0,0-.01,0-.03,0-.04,0-.01,0-.03,0-.04,0,0,0,0,0,0,0-.01,0-.03,0-.04,0-.02,0-.03,0-.05,0,0,0-.02,0-.02,0-.02,0-.03,0-.05,0h0s-.04,0-.06,0c0,0-.02,0-.02,0,0,0,0,0,0,0-.01,0-.02,0-.04,0-.02,0-.03,0-.05,0-.01,0-.02,0-.04,0-.01,0-.03,0-.04,0,0,0,0,0,0,0-.01,0-.02,0-.03,0-.02,0-.04,0-.06,0,0,0,0,0-.01,0-.02,0-.05,0-.07,0,0,0-.01,0-.02,0-.02,0-.03,0-.05,0,0,0,0,0,0,0-.02,0-.03,0-.05,0,0,0-.02,0-.03,0,0,0,0,0,0,0-.02,0-.03,0-.05,0-.01,0-.02,0-.04,0-.01,0-.02,0-.04,0-.02,0-.04,0-.06,0,0,0-.02,0-.03,0-.01,0-.03,0-.04,0,0,0,0,0,0,0-.02,0-.04,0-.05,0,0,0-.02,0-.02,0,0,0,0,0-.01,0-.01,0-.03,0-.04,0-.02,0-.03,0-.05,0-.01,0-.03,0-.04,0-.01,0-.02,0-.03,0,0,0,0,0-.01,0-.01,0-.03,0-.04,0-.02,0-.03,0-.05,0-.01,0-.02,0-.04,0-.02,0-.04,0-.06,0,0,0-.02,0-.03,0-.02,0-.04,0-.06,0-.01,0-.02,0-.04,0,0,0-.02,0-.03,0,0,0-.02,0-.03,0-.01,0-.03,0-.04,0-.02,0-.03,0-.05,0-.01,0-.03,0-.04,0-.02,0-.04,0-.06,0h-.04s-.03,0-.05,0c-.01,0-.03,0-.04,0-.02,0-.03,0-.05,0-.01,0-.03,0-.04,0,0,0-.02,0-.03,0,0,0-.01,0-.02,0-.02,0-.03,0-.05,0-.01,0-.02,0-.03,0-.02,0-.04,0-.05,0,0,0-.02,0-.02,0,0,0-.02,0-.03,0-.01,0-.02,0-.03,0-.02,0-.04,0-.06,0-.01,0-.02,0-.03,0-.02,0-.04,0-.06,0-.01,0-.03,0-.04,0,0,0-.02,0-.02,0,0,0-.01,0-.02,0-.02,0-.04,0-.05,0-.01,0-.02,0-.04,0-.02,0-.04,0-.06,0,0,0-.01,0-.02,0,0,0-.01,0-.02,0-.02,0-.03,0-.05,0-.01,0-.03,0-.04,0-.02,0-.04,0-.06,0-.01,0-.02,0-.03,0-.02,0-.04,0-.06,0,0,0-.01,0-.02,0,0,0-.02,0-.02,0-.02,0-.04,0-.05,0,0,0-.01,0-.02,0,0,0-.01,0-.02,0-.02,0-.04,0-.05,0-.02,0-.03,0-.05,0-.01,0-.02,0-.04,0-.02,0-.04,0-.06,0-.01,0-.02,0-.04,0-.02,0-.04,0-.06,0-.01,0-.02,0-.03,0-.02,0-.04,0-.06,0-.01,0-.02,0-.03,0-.02,0-.04,0-.06,0-.01,0-.03,0-.04,0-.02,0-.04,0-.06,0-.01,0-.02,0-.03,0-.02,0-.04,0-.06,0-.01,0-.03,0-.04,0,0,0-.01,0-.02,0-.01,0-.02,0-.03,0-.01,0-.03,0-.04,0-.02,0-.04,0-.06,0-.01,0-.02,0-.04,0,0,0-.01,0-.02,0-.01,0-.02,0-.03,0-.02,0-.04,0-.06,0,0,0,0,0,0,0,0,0-.02,0-.02,0-.02,0-.04,0-.06,0-.02,0-.03,0-.05,0-.01,0-.03,0-.04,0,0,0-.01,0-.02,0,0,0,0,0,0,0-.01,0-.02,0-.04,0-.01,0-.03,0-.04,0-.02,0-.03,0-.05,0-.02,0-.03,0-.05,0,0,0,0,0-.01,0,0,0-.02,0-.03,0,0,0,0,0-.01,0-.01,0-.03,0-.04,0,0,0,0,0-.01,0-.01,0-.03,0-.04,0-.01,0-.03,0-.04,0-.02,0-.03,0-.05,0-.02,0-.04,0-.05,0-.01,0-.03,0-.04,0-.02,0-.04,0-.05,0,0,0,0,0,0,0-.01,0-.03,0-.04,0-.02,0-.03,0-.05,0-.02,0-.04,0-.06,0-.01,0-.02,0-.04,0-.03,0-.06,0-.08,0,0,0,0,0-.01,0-.03,0-.05,0-.08,0,0,0-.01,0-.02,0-.02,0-.04,0-.07,0-.01,0-.02,0-.04,0,0,0,0,0,0,0-.02,0-.03,0-.05,0-.01,0-.03,0-.04,0-.02,0-.04,0-.06,0-.02,0-.03,0-.05,0,0,0-.02,0-.03,0-.06,0-.11,0-.17,0-.02,0-.05,0-.07,0-.01,0-.02,0-.03,0-.05,0-.09,0-.14,0-.09,0-.17,0-.26,0-.04,0-.09,0-.13,0-.03,0-.06,0-.1,0-.04,0-.08,0-.11,0-.01,0-.03,0-.04,0h0s-.02,0-.03,0c-.02,0-.04,0-.06,0h0s-.04,0-.07,0c0,0-.02,0-.03,0-.02,0-.05,0-.07,0,0,0-.02,0-.03,0-.02,0-.04,0-.05,0-.01,0-.03,0-.04,0h0s-.03,0-.04,0c-.02,0-.04,0-.06,0,0,0-.02,0-.03,0-.02,0-.04,0-.06,0,0,0,0,0,0,0-.02,0-.04,0-.06,0,0,0-.02,0-.03,0-.02,0-.03,0-.05,0-.01,0-.03,0-.04,0,0,0,0,0-.01,0,0,0,0,0,0,0,0,0-.01,0-.02,0-.03,0-.05,0-.08,0-.01,0-.02,0-.03,0-.02,0-.04,0-.06,0-.01,0-.03,0-.04,0-.01,0-.03,0-.04,0,0,0,0,0-.01,0h-.04s-.03,0-.05,0c-.01,0-.03,0-.04,0-.01,0-.03,0-.04,0,0,0-.01,0-.02,0-.01,0-.02,0-.03,0-.02,0-.04,0-.05,0-.01,0-.03,0-.04,0-.02,0-.04,0-.06,0-.01,0-.03,0-.04,0-.01,0-.03,0-.04,0-.02,0-.03,0-.05,0-.02,0-.03,0-.05,0-.01,0-.03,0-.04,0-.01,0-.03,0-.04,0-.02,0-.04,0-.05,0-.01,0-.03,0-.04,0-.01,0-.02,0-.03,0-.02,0-.04,0-.06,0,0,0-.02,0-.03,0-.01,0-.03,0-.04,0,0,0-.01,0-.02,0-.01,0-.03,0-.04,0-.01,0-.03,0-.04,0-.02,0-.03,0-.05,0-.01,0-.03,0-.04,0-.02,0-.03,0-.05,0-.01,0-.03,0-.04,0-.02,0-.03,0-.05,0-.01,0-.03,0-.04,0-.02,0-.04,0-.05,0-.01,0-.02,0-.03,0-.02,0-.03,0-.05,0-.02,0-.04,0-.05,0-.01,0-.03,0-.04,0-.01,0-.03,0-.04,0-.02,0-.03,0-.05,0-.01,0-.02,0-.04,0-.02,0-.04,0-.05,0-.01,0-.03,0-.04,0-.01,0-.03,0-.04,0-.02,0-.04,0-.06,0,0,0-.02,0-.03,0-.02,0-.03,0-.05,0-.01,0-.03,0-.04,0-.02,0-.03,0-.05,0-.02,0-.03,0-.04,0-.01,0-.02,0-.04,0-.02,0-.04,0-.05,0,0,0-.01,0-.02,0,0,0-.01,0-.02,0-.02,0-.03,0-.05,0-.01,0-.03,0-.04,0-.01,0-.03,0-.04,0-.02,0-.03,0-.05,0-.01,0-.03,0-.04,0-.02,0-.04,0-.06,0,0,0-.02,0-.03,0-.02,0-.03,0-.05,0s-.03,0-.05,0c-.01,0-.02,0-.04,0-.02,0-.03,0-.05,0-.02,0-.03,0-.05,0-.01,0-.02,0-.03,0-.01,0-.03,0-.04,0-.02,0-.03,0-.05,0h-.02s-.01,0-.02,0c-.02,0-.03,0-.05,0-.02,0-.03,0-.05,0-.01,0-.03,0-.04,0-.01,0-.03,0-.04,0-.02,0-.03,0-.05,0-.01,0-.03,0-.04,0-.01,0-.02,0-.04,0,0,0-.01,0-.02,0-.01,0-.02,0-.04,0-.01,0-.02,0-.03,0-.02,0-.03,0-.05,0-.01,0-.03,0-.04,0-.01,0-.03,0-.04,0-.01,0-.03,0-.04,0-.01,0-.03,0-.04,0-.02,0-.03,0-.05,0-.01,0-.03,0-.04,0-.02,0-.03,0-.05,0,0,0,0,0,0,0-.01,0-.03,0-.04,0,0,0-.02,0-.03,0-.02,0-.05,0-.07,0,0,0,0,0-.01,0-.02,0-.04,0-.06,0,0,0-.02,0-.03,0-.02,0-.04,0-.06,0,0,0-.01,0-.02,0h-.05s-.03,0-.05,0c0,0-.02,0-.03,0-.02,0-.03,0-.05,0-.02,0-.04,0-.06,0,0,0-.01,0-.02,0-.02,0-.03,0-.05,0-.01,0-.02,0-.03,0-.02,0-.04,0-.06,0,0,0-.01,0-.02,0-.01,0-.03,0-.04,0-.02,0-.03,0-.05,0,0,0,0,0,0,0,0,0-.02,0-.03,0-.02,0-.03,0-.05,0-.02,0-.04,0-.06,0,0,0-.02,0-.03,0,0,0,0,0,0,0-.02,0-.03,0-.05,0,0,0-.02,0-.03,0-.05,0-.09,0-.13-.01,0,0-.02,0-.03,0-.04,0-.09,0-.13-.01-.04,0-.09,0-.13-.01-.04,0-.08,0-.12-.01-.01,0-.03,0-.04,0-.01,0-.02,0-.04,0-.01,0-.03,0-.04,0,0,0,0,0,0,0,0,0-.02,0-.03,0,0,0,0,0,0,0-.02,0-.05,0-.07,0,0,0,0,0,0,0h0s-.03,0-.05,0c0,0-.02,0-.03,0-.04,0-.08,0-.12-.02,0,0-.02,0-.03,0-.01,0-.03,0-.04,0-.01,0-.02,0-.04,0-.01,0-.02,0-.03,0-.01,0-.03,0-.04,0,0,0-.02,0-.03,0-.02,0-.03,0-.05,0-.01,0-.02,0-.03,0-.01,0-.02,0-.03,0-.01,0-.03,0-.04,0-.01,0-.02,0-.03,0,0,0-.02,0-.03,0-.02,0-.03,0-.05,0,0,0-.02,0-.03,0-.01,0-.03,0-.04,0-.01,0-.03,0-.04,0-.01,0-.02,0-.03,0,0,0-.02,0-.03,0-.02,0-.03,0-.05,0-.01,0-.02,0-.03,0,0,0-.02,0-.02,0,0,0,0,0,0,0-.02,0-.03,0-.05,0,0,0-.01,0-.02,0-.01,0-.02,0-.04,0-.01,0-.03,0-.04,0-.01,0-.02,0-.03,0,0,0-.02,0-.02,0,0,0,0,0,0,0-.02,0-.04,0-.05,0h-.01s-.04,0-.05,0c0,0-.01,0-.02,0-.02,0-.03,0-.05,0,0,0,0,0-.01,0,0,0,0,0,0,0-.01,0-.03,0-.04,0,0,0-.02,0-.03,0-.01,0-.02,0-.03,0-.01,0-.03,0-.04,0,0,0-.02,0-.03,0-.01,0-.03,0-.04,0-.01,0-.02,0-.03,0-.01,0-.03,0-.04,0-.01,0-.02,0-.04,0,0,0-.01,0-.02,0,0,0,0,0,0,0-.01,0-.03,0-.04,0-.01,0-.02,0-.04,0,0,0-.02,0-.03,0-.01,0-.02,0-.04,0-.01,0-.02,0-.03,0,0,0-.01,0-.02,0,0,0,0,0-.01,0-.01,0-.03,0-.04,0,0,0-.02,0-.03,0-.01,0-.03,0-.04,0,0,0-.02,0-.03,0-.01,0-.02,0-.04,0,0,0-.02,0-.03,0-.01,0-.03,0-.04,0,0,0-.02,0-.02,0-.01,0-.03,0-.04,0,0,0-.02,0-.02,0-.01,0-.03,0-.04,0,0,0,0,0-.01,0,0,0,0,0-.01,0-.01,0-.03,0-.04,0-.01,0-.02,0-.03,0-.01,0-.02,0-.04,0,0,0,0,0-.01,0,0,0,0,0-.01,0-.01,0-.03,0-.04,0,0,0-.02,0-.02,0-.01,0-.02,0-.04,0,0,0-.02,0-.02,0-.01,0-.03,0-.04,0,0,0,0,0-.01,0-.02,0-.03,0-.05,0,0,0,0,0,0,0,0,0,0,0,0,0-.01,0-.03,0-.04,0,0,0-.02,0-.02,0-.01,0-.03,0-.04,0h0s0,0-.01,0c-.01,0-.03,0-.04,0,0,0-.01,0-.02,0-.01,0-.03,0-.04,0,0,0-.01,0-.02,0-.01,0-.03,0-.04,0,0,0-.01,0-.02,0-.01,0-.03,0-.04,0,0,0,0,0-.01,0-.01,0-.03,0-.04,0h-.02s-.02-.01-.04-.01c0,0-.01,0-.02,0-.01,0-.02,0-.04,0,0,0-.01,0-.02,0-.01,0-.03,0-.04,0h0s0,0,0,0c-.03,0-.07-.02-.1-.02-1.91-.45-3.05-1.02-3.05-1.65,0-.16.07-.31.21-.46-.64-.47-1.18-1.05-1.35-1.77-2.54.65-4.06,1.48-4.06,2.38,0,1.38,3.57,2.59,8.92,3.25,2.78.35,6.04.54,9.52.54,2.25,0,4.4-.08,6.39-.23.69.63,1.33,1.33,1.91,2.09,1.55,2.03,2.9,4.48,3.78,7.07,1.3-.33,2.59-.71,3.86-1.14-.35-.4-.7-.79-1.07-1.17-.1-.1-.2-.21-.3-.31Z"/>
        <path class="cls-9" d="M32.68,6.01c-.38-.71-.72-1.51-.99-2.36.43,1.65.97,3.41,1.44,4.76.22.64.45,1.24.66,1.83.38,1.03.74,2.01,1.09,3.14.11.36.2.72.27,1.09.03-.07.05-.15.08-.22.91-2.94-1.26-5.79-2.55-8.23Z"/>
        <path class="cls-9" d="M35,14.82c-.08-.47-.19-.94-.33-1.39-.35-1.12-.71-2.1-1.09-3.13-.22-.58-.44-1.19-.66-1.83-.64-1.84-1.41-4.48-1.87-6.52.13,1.21.27,2.49.43,3.84.43,3.79.9,7.88,1.03,11.35,1.07-.49,1.99-1.25,2.5-2.33Z"/>
        <path class="cls-9" d="M29.2,17.87c-.15-3.54.45-7.91.97-11.69.23-1.65.43-3.12.54-4.33-.47,2.72-1.68,5.77-2.64,8.17-.4,1-.74,1.86-.98,2.56-.58,1.7-.83,3.48-.77,5.27.96.07,1.93.08,2.88.03Z"/>
        <path class="cls-9" d="M23.66,17.46c.04-.51.12-1.03.21-1.56.2-1.15.4-2.33.8-3.46.62-1.79,1.7-3.38,2.75-4.92.5-.74,1.02-1.51,1.48-2.28.65-1.1,1.06-2.51,1.41-3.96-1.36,3.38-3.48,5.84-5.81,8.54l-.03.03c-1.57,1.82-2.53,4.31-2.73,7.04.55.23,1.14.4,1.71.53.07.02.14.03.22.05Z"/>
        <path class="cls-9" d="M26.88,12.51c.24-.71.58-1.57.98-2.57,1.07-2.69,2.48-6.21,2.77-9.12-.38,1.64-.81,3.27-1.55,4.53-.46.78-.99,1.55-1.49,2.29-1.04,1.53-2.11,3.11-2.72,4.87-.39,1.11-.59,2.28-.79,3.42-.09.53-.18,1.06-.21,1.57.73.15,1.48.25,2.23.31-.06-1.8.2-3.6.78-5.32Z"/>
        <path class="cls-9" d="M32.29,17.24c-.12-3.49-.59-7.6-1.03-11.42-.14-1.22-.27-2.39-.39-3.49-.12,1.12-.3,2.43-.49,3.87-.49,3.6-1.1,8.06-.96,11.65.12,0,.23-.02.35-.02.85-.06,1.72-.25,2.52-.59Z"/>
        <path class="cls-1" d="M40.16,17.37c-.66-2.91-1.65-5.81-3.58-8.16-.34-.41-.69-.81-1.03-1.2-.62-.7-1.25-1.42-1.8-2.21-1.18-1.7-2.01-3.27-2.64-5.06,0,0,0,0,0,.01.52,1.7,1.66,4.21,2.24,5.28.68,1.27,1.25,2.37,1.86,3.54.19.36.38.74.59,1.13.73,1.4.96,2.06,1.34,3.15.55,1.56.9,2.76,1.12,3.83,0,0,.01,0,.02,0,.01,0,.03,0,.04,0,.01,0,.02,0,.03,0,.02,0,.04,0,.06,0,0,0,0,0,0,0,0,0,0,0,0,0,.02,0,.03,0,.05,0,.01,0,.02,0,.03,0,0,0,.02,0,.03,0,.02,0,.03,0,.05,0,.01,0,.02,0,.04,0,.01,0,.02,0,.04,0,.02,0,.03,0,.05,0,0,0,.01,0,.02,0,.07-.01.15-.02.22-.03.07-.01.14-.02.21-.03.04,0,.09-.01.13-.02,0,0,.02,0,.02,0,0,0,0,0,0,0,.07-.01.13-.02.2-.03,0,0,0,0,.01,0,.01,0,.03,0,.04,0,0,0,.01,0,.02,0,.05,0,.09-.02.14-.02,0,0,0,0,0,0,.01,0,.03,0,.04,0,0,0,0,0,.01,0,0,0,0,0,.01,0,.01,0,.02,0,.03,0,.01,0,.02,0,.03,0,.01,0,.03,0,.04,0,0,0,.02,0,.03,0,.01,0,.03,0,.04,0,.01,0,.02,0,.03,0,0,0,.02,0,.03,0,.01,0,.02,0,.03,0,.01,0,.03,0,.04,0,0,0,.01,0,.02,0,.01,0,.03,0,.04,0,0,0,.02,0,.03,0,.01,0,.02,0,.03,0,0,0,.02,0,.03,0,.01,0,.02,0,.04,0,0,0,.02,0,.03,0,.01,0,.02,0,.03,0,0,0,0,0,.01,0-.06.01-.12.03-.18.04Z"/>
        <path class="cls-1" d="M33.91,5.68c.54.78,1.17,1.49,1.79,2.19.34.39.7.79,1.04,1.21,1.94,2.36,2.96,5.35,3.62,8.25,0,0-.01,0-.02,0,0,0,.01,0,.02,0,.01,0,.02,0,.03,0,0,0,.02,0,.03,0,.01,0,.02,0,.04,0,0,0,0,0,.01,0,0,0,0,0,.01,0,.01,0,.03,0,.04,0,0,0,.02,0,.02,0,.01,0,.03,0,.04,0,0,0,0,0,0,0,.04,0,.08-.02.12-.03,0,0,.01,0,.02,0,.01,0,.02,0,.03,0,0,0,.02,0,.02,0,.01,0,.03,0,.04,0,0,0,0,0,0,0,.04,0,.08-.02.12-.03,0,0,0,0,.01,0,.01,0,.03,0,.04,0,0,0,.01,0,.02,0,.01,0,.03,0,.04,0,0,0,0,0,0,0,0,0,0,0,0,0,0,0,.01,0,.02,0,0,0,.01,0,.02-.01s.01,0,.02-.01c0,0,.01-.02.02-.02,0,0,0,0,0-.01,0-.02.01-.04.01-.06,0-.07-.01-.15-.02-.22-.03-.34-.08-.67-.14-1.01-.02-.1-.04-.19-.06-.29-.01-.07-.03-.13-.04-.2-.02-.07-.03-.13-.05-.2-.02-.07-.03-.13-.05-.2-.02-.07-.04-.13-.05-.2-.07-.26-.16-.52-.25-.77-.01-.03-.02-.07-.04-.1-.42-1.15-.99-2.22-1.63-3.16-.18-.26-.37-.52-.56-.77-1.51-1.98-3.3-3.58-4.86-5.52-.03-.03-.05-.07-.08-.1,0,0,0,0,0-.01-.03-.03-.05-.06-.08-.1,0,0,0,0,0,0-.82-1.06-1.58-2.27-2.14-3.59,0,0,0,0,0,0,.27.64.58,1.25.93,1.83.51,1.09,1.12,2.14,1.89,3.24Z"/>
        <path class="cls-1" d="M35.22,18.01c.01-1.07-.04-2.15-.22-3.19-.51,1.08-1.43,1.84-2.5,2.33.01.34.02.67.03.99,0,0,0,0,0,0,.06,0,.13,0,.19,0,0,0,0,0,0,0,.02,0,.04,0,.06,0,.01,0,.02,0,.03,0,.06,0,.13,0,.19,0,.25,0,.5-.02.75-.03,0,0,.01,0,.02,0,.02,0,.04,0,.05,0,0,0,.02,0,.02,0,.09,0,.18,0,.28-.01,0,0,.01,0,.02,0,.02,0,.04,0,.06,0,.01,0,.02,0,.04,0,.02,0,.04,0,.05,0,0,0,.01,0,.02,0,.09,0,.18-.01.27-.02.06,0,.12,0,.18-.01.15-.01.3-.02.45-.03Z"/>
        <path class="cls-1" d="M32.29,17.24c-.8.33-1.67.52-2.52.59-.12,0-.23.02-.35.02,0,.1,0,.21.01.31,0,0,0,0,.01,0,.01,0,.03,0,.04,0,.02,0,.03,0,.05,0,0,0,.02,0,.03,0,.02,0,.04,0,.06,0,0,0,0,0,0,0,.06,0,.12,0,.19,0,.09,0,.19,0,.28,0,.02,0,.04,0,.06,0,.01,0,.02,0,.03,0h0c.09,0,.19,0,.28,0,.03,0,.06,0,.09,0,.09,0,.18,0,.26,0,.05,0,.09,0,.14,0,.01,0,.02,0,.03,0,.02,0,.05,0,.07,0,.06,0,.11,0,.17,0,0,0,.02,0,.03,0,.02,0,.03,0,.05,0,.02,0,.04,0,.06,0,.01,0,.03,0,.04,0,.02,0,.03,0,.05,0,.16,0,.33,0,.49,0,.1,0,.19,0,.29,0,0,0,0,0,.01,0,.01,0,.03,0,.04,0,0,0,0,0,.01,0,0-.3-.01-.6-.02-.91Z"/>
        <path class="cls-1" d="M26.11,18.02c0-.07,0-.13,0-.2-.75-.06-1.5-.17-2.23-.31,0,.1-.01.21-.02.31.24.03.49.06.75.08.05,0,.11.01.16.02.27.03.54.05.81.07.14.01.28.02.42.03.04,0,.08,0,.12,0Z"/>
        <path class="cls-1" d="M29.21,18.16c0-.1-.01-.2-.01-.29-.95.05-1.92.04-2.88-.03,0,.07,0,.13,0,.2.23.02.46.03.69.04.41.02.82.04,1.24.06.24,0,.48.02.73.02.01,0,.03,0,.04,0,.01,0,.03,0,.04,0,.02,0,.03,0,.05,0h.04s0,0,.01,0c.01,0,.03,0,.04,0Z"/>
        <path class="cls-1" d="M38.04,17.72c-.22-1.06-.57-2.25-1.11-3.79-.38-1.08-.61-1.74-1.33-3.13-.2-.39-.4-.77-.59-1.13-.6-1.17-1.17-2.27-1.86-3.53-.49-.92-1.35-2.76-1.93-4.35,0,.01,0,.03,0,.04.13.57.28,1.19.45,1.82.27.85.62,1.65.99,2.36,1.3,2.44,3.47,5.29,2.55,8.23-.02.08-.05.15-.08.22.23,1.14.3,2.34.28,3.53.04,0,.09,0,.13-.01.06,0,.12,0,.17-.01,0,0,.02,0,.02,0,.02,0,.04,0,.05,0,0,0,0,0,0,0,.09,0,.17-.01.26-.02,0,0,.02,0,.03,0,.02,0,.03,0,.05,0,0,0,0,0,0,0,.08,0,.17-.02.25-.02.06,0,.11-.01.17-.02,0,0,.02,0,.02,0,.02,0,.04,0,.06,0h0c.06,0,.11-.01.17-.02.01,0,.03,0,.04,0,.01,0,.03,0,.04,0,0,0,0,0,0,0,.05,0,.11-.01.16-.02.08,0,.16-.02.23-.03,0,0,0,0,0,0,0,0,0,0,0,0,.07,0,.15-.02.22-.03,0,0,0,0,0,0,0,0,0,0,0,0,.05,0,.1-.01.15-.02.08,0,.16-.02.23-.03,0,0,0,0,0,0,.02,0,.05,0,.07,0,0,0,0,0,0,0,0,0,0,0,0,0Z"/>
        <path class="cls-8" d="M38.9,34.43c-.36,0-.64.29-.64.64s.29.64.64.64.64-.29.64-.64c0-.36-.29-.64-.64-.64Z"/>
        <path class="cls-8" d="M22.79,35.72c.36,0,.64-.29.64-.64s-.29-.64-.64-.64-.64.29-.64.64c0,.36.29.64.64.64Z"/>
        <path class="cls-8" d="M30.74,31.99c-.36,0-.64.29-.64.64s.29.64.64.64.64-.29.64-.64c0-.36-.29-.64-.64-.64Z"/>
        <path class="cls-4" d="M14.46,34.77c.03-.38.08-.76.16-1.14-.25-.26-.4-.6-.4-.99,0-.71.52-1.3,1.2-1.41.39-.83.88-1.63,1.45-2.39-.09-.03-.18-.05-.27-.08-.88-.26-1.71-.53-2.49-.81-.31.37-.6.76-.88,1.16-.65.93-1.18,1.95-1.61,3.02.62.92,1.61,2.12,2.83,2.64Z"/>
        <path class="cls-4" d="M14.52,36.62c-.05-.34-.08-.68-.09-1.02-1.32-.45-2.4-1.57-3.14-2.57-.12.36-.22.72-.31,1.08.07.38.15.75.24,1.12.99.51,2.08.96,3.3,1.38Z"/>
        <path class="cls-11" d="M15.01,32.64c0,.36.29.64.64.64s.64-.29.64-.64-.29-.64-.64-.64c-.36,0-.64.29-.64.64Z"/>
        <path class="cls-11" d="M22.38,36.45c-.59-.18-1.02-.72-1.02-1.37,0-.43.19-.82.49-1.08-.04-.44-.05-.88-.04-1.32-.39.1-.76.24-1.07.38-.57.26-1.12.69-1.7,1.14-.87.68-1.77,1.38-2.81,1.55-.19.03-.39.05-.57.05-.42,0-.83-.08-1.22-.21,0,.34.04.68.09,1.02.73.25,1.5.49,2.32.71,2.14.59,4.31,1.02,6.5,1.31-.33-.69-.67-1.37-.93-2.08-.01-.04-.03-.07-.04-.11Z"/>
        <path class="cls-11" d="M21.38,43.86c.87.19,1.91.2,2.52-.46.51-.55.54-1.39.4-2.12-.12-.63-.33-1.23-.58-1.81-2.41-.29-4.78-.75-7.09-1.38-.68-.19-1.32-.38-1.93-.58.24.92.66,1.83,1.27,2.72,1.26,1.83,3.23,3.15,5.4,3.63Z"/>
        <path class="cls-11" d="M16.87,28.84c-.57.76-1.06,1.56-1.45,2.39.08-.01.15-.02.23-.02.79,0,1.43.64,1.43,1.43s-.64,1.43-1.43,1.43c-.41,0-.77-.17-1.03-.44-.08.38-.13.76-.16,1.14.51.22,1.06.31,1.64.22.84-.13,1.66-.78,2.45-1.39.59-.46,1.2-.94,1.85-1.24.49-.23.98-.39,1.46-.49.06-.62.18-1.23.34-1.83-1.81-.3-3.59-.7-5.33-1.2Z"/>
        <path class="cls-11" d="M24.36,23.05c-.03-.62-.31-1.37-.93-1.44-.62-.07-1.06.57-1.38,1.11-.75,1.24-1.72,2.32-2.72,3.37-.57.61-1.15,1.21-1.71,1.83-.07.08-.15.17-.22.25,1.66.46,3.34.83,5.03,1.11.02-.05.03-.1.05-.14.72-2.02,1.98-3.95,1.88-6.09Z"/>
        <path class="cls-7" d="M10.79,35c.14.08.29.15.44.23-.09-.37-.17-.75-.24-1.12-.08.3-.14.59-.2.89Z"/>
        <path class="cls-7" d="M45.4,31.99c-.36,0-.64.29-.64.64s.29.64.64.64.64-.29.64-.64c0-.36-.29-.64-.64-.64Z"/>
        <path class="cls-7" d="M49.66,32.68s-.02-.06-.03-.09c-1.73,1.67-3.65,2.86-5.96,2.2-.02.79-.11,1.58-.26,2.35,2.33-.67,4.61-1.51,6.83-2.52-.15-.66-.34-1.31-.57-1.94Z"/>
        <path class="cls-7" d="M48.83,30.74c-.04-.08-.08-.16-.12-.23-.06-.12-.12-.23-.19-.35-.3-.53-.62-1.05-.97-1.54-.11-.16-.22-.31-.34-.46-.06-.08-.12-.15-.19-.23-1.36.47-2.75.88-4.15,1.24.47,1.57.75,3.19.79,4.79,2.05.7,3.79-.31,5.65-2.17-.15-.36-.31-.71-.49-1.06Z"/>
        <path class="cls-10" d="M15.65,34.07c.79,0,1.43-.64,1.43-1.43s-.64-1.43-1.43-1.43c-.08,0-.16,0-.23.02-.68.11-1.2.7-1.2,1.41,0,.38.15.73.4.99.26.27.63.44,1.03.44ZM16.3,32.64c0,.36-.29.64-.64.64s-.64-.29-.64-.64.29-.64.64-.64c.36,0,.64.29.64.64Z"/>
        <path class="cls-10" d="M30.74,31.21c-.79,0-1.43.64-1.43,1.43s.64,1.43,1.43,1.43,1.43-.64,1.43-1.43-.64-1.43-1.43-1.43ZM30.74,33.28c-.36,0-.64-.29-.64-.64s.29-.64.64-.64.64.29.64.64c0,.36-.29.64-.64.64Z"/>
        <path class="cls-10" d="M45.4,31.21c-.79,0-1.43.64-1.43,1.43s.64,1.43,1.43,1.43,1.43-.64,1.43-1.43c0-.79-.64-1.43-1.43-1.43ZM45.4,33.28c-.36,0-.64-.29-.64-.64s.29-.64.64-.64.64.29.64.64c0,.36-.29.64-.64.64Z"/>
        <path class="cls-10" d="M21.36,35.08c0,.65.43,1.19,1.02,1.37.13.04.27.06.41.06.79,0,1.43-.64,1.43-1.43s-.64-1.43-1.43-1.43c-.36,0-.69.13-.94.35-.3.26-.49.65-.49,1.08ZM22.79,34.43c.36,0,.64.29.64.64s-.29.64-.64.64-.64-.29-.64-.64c0-.36.29-.64.64-.64Z"/>
        <path class="cls-10" d="M38.9,33.65c-.79,0-1.43.64-1.43,1.43s.64,1.43,1.43,1.43,1.43-.64,1.43-1.43c0-.79-.64-1.43-1.43-1.43ZM38.9,35.72c-.36,0-.64-.29-.64-.64s.29-.64.64-.64.64.29.64.64c0,.36-.29.64-.64.64Z"/>
        <path class="cls-10" d="M14.44,35.6c.38.13.79.21,1.22.21.19,0,.38-.01.57-.05,1.04-.17,1.94-.87,2.81-1.55.58-.45,1.13-.88,1.7-1.14.32-.14.68-.28,1.07-.38.93-.23,2.04-.26,3.12.33.65.35,1.14.9,1.66,1.48.48.53.97,1.08,1.61,1.49.68.44,1.63.66,2.56.66.79,0,1.57-.16,2.2-.48.81-.42,1.51-1.02,2.18-1.61,1.21-1.04,2.35-2.02,3.94-1.83.86.1,1.69.59,2.49,1.06.43.25.87.51,1.33.72.26.12.51.21.76.28,2.31.66,4.23-.52,5.96-2.2-.02-.05-.04-.11-.06-.16-.08-.21-.16-.43-.25-.64-1.85,1.86-3.59,2.87-5.65,2.17-.15-.05-.29-.11-.44-.18-.42-.19-.82-.43-1.25-.68-.87-.51-1.76-1.03-2.79-1.16-1.94-.24-3.27.91-4.55,2.02-.64.55-1.3,1.13-2.03,1.5-1.11.57-2.96.51-3.97-.14-.55-.35-.99-.84-1.45-1.36-.54-.6-1.11-1.23-1.87-1.65-1.04-.57-2.21-.72-3.44-.46-.48.1-.96.26-1.46.49-.65.3-1.26.78-1.85,1.24-.79.62-1.61,1.26-2.45,1.39-.58.09-1.13,0-1.64-.22-1.22-.51-2.21-1.71-2.83-2.64-.12.3-.23.6-.33.9.74.99,1.81,2.11,3.14,2.57Z"/>
        <path class="cls-10" d="M11.5,36.24c.97.46,2.04.88,3.21,1.26.61.2,1.26.4,1.93.58,2.3.63,4.67,1.09,7.09,1.38,1.98.24,3.99.35,6,.35s4.15-.13,6.21-.38c2.45-.3,4.89-.79,7.27-1.45,2.47-.68,4.88-1.55,7.19-2.59-.03-.18-.07-.37-.11-.55-.02-.08-.03-.15-.05-.23-2.21,1.01-4.5,1.85-6.83,2.52-6.49,1.86-13.35,2.38-20.06,1.5-2.19-.29-4.36-.72-6.5-1.31-.82-.23-1.6-.46-2.32-.71-1.22-.42-2.31-.88-3.3-1.38-.15-.08-.29-.15-.44-.23,0,0,0,0,0,0-.05.27-.1.54-.14.82,0,0,0,0,0,0,.28.15.56.29.85.42Z"/>
        <path class="cls-10" d="M16.87,28.84c1.74.5,3.52.9,5.33,1.2,2.72.45,5.51.68,8.3.68,1.79,0,3.59-.09,5.37-.29,2.36-.25,4.71-.67,7-1.25,1.41-.35,2.79-.77,4.16-1.24-.17-.22-.35-.43-.53-.63-1.27.43-2.56.81-3.86,1.14-6.59,1.66-13.5,1.96-20.22.84-1.69-.28-3.37-.65-5.03-1.11-.19-.05-.39-.11-.58-.17-.76-.22-1.49-.46-2.17-.7-.18.21-.37.42-.54.64.78.29,1.6.56,2.49.81.09.03.18.05.27.08Z"/>
        <path class="cls-3" d="M24.31,9.71c-1.58,1.84-2.56,4.34-2.78,7.09-.01.16-.02.32-.03.48h.21c0-.13.01-.26.02-.39.2-2.73,1.16-5.22,2.73-7.04l.03-.03c2.33-2.71,4.45-5.16,5.81-8.54-.35,1.45-.75,2.86-1.41,3.96-.46.78-.98,1.54-1.48,2.28-1.04,1.54-2.13,3.14-2.75,4.92-.39,1.12-.6,2.31-.8,3.46-.09.53-.17,1.05-.21,1.56,0,.11-.01.22-.02.33h0s.02,0,.03,0c0,0,.02,0,.03,0,.02,0,.03,0,.05,0h0s0,0,0,0c.02,0,.05,0,.07,0,0,0,0,0,0,0,0,0,.02,0,.03,0h0c0-.1,0-.2.02-.31.04-.51.12-1.04.21-1.57.2-1.14.4-2.32.79-3.42.61-1.76,1.69-3.34,2.72-4.87.5-.74,1.02-1.51,1.49-2.29.75-1.26,1.17-2.89,1.55-4.53-.29,2.91-1.69,6.43-2.77,9.12-.4,1-.74,1.86-.98,2.57-.58,1.71-.84,3.52-.78,5.32,0,.07,0,.13,0,.2h0s.01,0,.02,0c.01,0,.03,0,.04,0,.01,0,.03,0,.04,0,.02,0,.03,0,.05,0,.02,0,.03,0,.05,0,0,0,.01,0,.02,0h0c0-.07,0-.13,0-.2-.07-1.78.19-3.57.77-5.27.24-.7.58-1.56.98-2.56.96-2.4,2.18-5.45,2.64-8.17-.11,1.21-.31,2.68-.54,4.33-.52,3.78-1.12,8.16-.97,11.69,0,.1,0,.2.01.29h0s.03,0,.04,0c.02,0,.04,0,.06,0,.01,0,.02,0,.03,0,.03,0,.05,0,.08,0,0,0,.01,0,.02,0,0,0,0,0,0,0h0c0-.1-.01-.21-.01-.31-.15-3.59.46-8.05.96-11.65.2-1.45.38-2.76.49-3.87.12,1.11.25,2.28.39,3.49.44,3.82.91,7.93,1.03,11.42.01.31.02.61.02.91,0,0,.02,0,.03,0,0,0,0,0,.01,0,.02,0,.03,0,.05,0,.02,0,.03,0,.05,0,.01,0,.03,0,.04,0,.01,0,.02,0,.04,0h0c0-.33-.02-.66-.03-.99-.13-3.48-.59-7.57-1.03-11.35-.15-1.35-.3-2.63-.43-3.84.46,2.04,1.23,4.68,1.87,6.52.22.64.45,1.25.66,1.83.38,1.03.74,2.01,1.09,3.13.14.45.25.91.33,1.39.18,1.03.24,2.12.22,3.19h0s.02,0,.03,0c.01,0,.02,0,.04,0,.02,0,.04,0,.06,0,0,0,.02,0,.03,0,.02,0,.04,0,.06,0,0,0,0,0,0,0h0c.02-1.19-.06-2.39-.28-3.53-.07-.37-.17-.74-.27-1.09-.35-1.13-.71-2.1-1.09-3.14-.22-.58-.44-1.19-.66-1.83-.47-1.34-1-3.11-1.44-4.76-.17-.64-.32-1.25-.45-1.82,0-.02,0-.04-.01-.06,0,0,0,.01,0,.02.58,1.59,1.43,3.43,1.93,4.35.68,1.26,1.25,2.37,1.86,3.53.19.37.38.74.59,1.13.72,1.39.95,2.04,1.33,3.13.54,1.54.89,2.73,1.11,3.79h0s.03,0,.05,0c0,0,.02,0,.02,0,.02,0,.03,0,.05,0,0,0,.02,0,.03,0h0s.03,0,.04,0c0,0,.02,0,.02,0-.23-1.07-.58-2.27-1.12-3.83-.38-1.09-.61-1.75-1.34-3.15-.2-.39-.4-.77-.59-1.13-.6-1.17-1.17-2.27-1.86-3.54-.58-1.07-1.72-3.57-2.24-5.28,0-.03-.02-.05-.02-.08,0,.02.01.04.02.06.63,1.78,1.45,3.36,2.64,5.06.55.79,1.19,1.51,1.8,2.21.34.39.7.79,1.03,1.2,1.93,2.35,2.92,5.25,3.58,8.16.06-.01.12-.03.18-.04,0,0,.01,0,.02,0-.66-2.9-1.68-5.89-3.62-8.25-.34-.41-.69-.82-1.04-1.21-.61-.7-1.25-1.41-1.79-2.19-.77-1.1-1.38-2.15-1.89-3.24-.35-.58-.66-1.19-.93-1.83-.07-.18-.15-.35-.21-.54-.04-.11-.19-.11-.23,0-.26.7-.58,1.37-.93,2.01-1.35,2.91-3.28,5.15-5.39,7.59l-.03.03Z"/>
        <path class="cls-12" d="M19.89,14.48l.05-.16c-.68-.23-1.25-.76-1.53-1.42-.16-.38-.24-.82-.31-1.24-.12-.71-.25-1.44-.79-1.93-.31-.28-.71-.43-1.1-.57-.42-.16-.82-.3-1.11-.61-.27-.29-.43-.72-.44-1.21h-.17c.02.54.19,1.01.49,1.33.32.34.76.5,1.18.65.37.14.76.28,1.05.54.5.45.61,1.12.74,1.83.07.43.15.88.32,1.28.3.71.91,1.27,1.63,1.52Z"/>
        <path class="cls-12" d="M44.83,9.15c-.39.14-.79.29-1.1.57-.54.49-.67,1.22-.79,1.93-.07.42-.15.86-.31,1.24-.28.66-.85,1.19-1.53,1.42l.05.16c.73-.25,1.34-.81,1.63-1.52.17-.4.25-.85.32-1.28.12-.71.24-1.38.74-1.83.29-.26.67-.4,1.05-.54.42-.16.86-.32,1.18-.65.29-.31.47-.77.49-1.29,0-.01,0-.02,0-.03h-.17s0,.08,0,.13c-.04.44-.19.82-.44,1.08-.29.31-.69.45-1.11.61Z"/>
      </g>
      <path class="cls-5" d="M0,50.45c1.44-.27,2.74.78,3.88,1.39,2.26.94,3.51-.55,5.27-1.72,1.53-.73,3.42-.65,4.8.3,1.17.84,1.83,1.27,3.16,1.05,1.38-.22,1.92-1.42,3.45-1.92,1.67-.59,3.77-.22,5.03.87.6.46.95.7,1.4.8,1.08.23,1.87.05,2.82-.74,1.2-1.08,3.34-1.6,5.01-1.07,1.54.38,2.22,1.65,3.53,1.9,1.26.21,1.88-.1,3-.95,1.36-1.03,3.35-1.26,4.98-.55,1.46.63,1.92,1.75,3.39,1.91,1.4.22,2.17-.4,3.38-1.18,1.44-.79,3.16-.72,4.48.05,1.22.82,2.02,1.92,3.57,1.98-1.44.27-2.74-.78-3.88-1.39-2.26-.93-3.51.52-5.27,1.7-1.52.74-3.41.68-4.81-.26-.67-.44-1.13-.83-1.61-.97-2.11-.76-3.08,1.01-4.99,1.8-1.68.61-3.76.26-5.04-.83-1.41-1.17-2.8-1.28-4.22-.12-1.84,1.77-5.42,1.67-7.2-.12-.9-.74-1.83-.88-2.84-.64-.44.13-.85.42-1.49.88-1.34,1.03-3.34,1.28-4.97.59-1.47-.61-1.94-1.75-3.4-1.92-1.4-.23-2.17.38-3.38,1.17-1.43.8-3.16.73-4.48-.03-1.22-.82-2.02-1.93-3.57-1.98h0Z"/>
      <path class="cls-5" d="M11.83,55.73c1.7-.4,3.29.98,4.75,1.42,1.5.36,2.99.04,4.21-.98,2.2-1.96,5.73-1.47,7.82.27,1.14.63,2.78.62,3.92-.01,1.24-.98,3.5-1.91,5.25-1.45,1.85.18,2.87,1.88,4.54,2.19,2.56.82,4.45-1.88,7-1.43-1.91.1-2.8,1.49-4.44,2.29-1.72.72-3.88.44-5.34-.61-.72-.44-1.29-.72-2-.79-2.61-.5-4.28,2.4-6.96,2.17-2.69.25-4.36-2.65-6.97-2.17-1.61.13-2.85,1.73-4.6,1.77-.93.06-1.85,0-2.73-.37-1.64-.8-2.54-2.19-4.44-2.29h0Z"/>
      <path class="cls-5" d="M19.79,60.78c1.41-.4,2.6,1.16,3.98.61.37-.1.61-.28.98-.59.83-.8,2.29-1.11,3.49-.71,1.12.39,1.29,1.04,2.33,1,1.03.03,1.22-.64,2.34-1.01,1.19-.39,2.65-.07,3.48.73.37.31.61.48.98.58,1.38.54,2.57-1.02,3.98-.61-1.14.17-1.48,1.01-2.48,1.54-1.04.52-2.45.34-3.34-.3-.43-.25-.68-.35-1.02-.38-1.42-.17-2.33,1.51-3.94,1.35-1.65.17-2.52-1.51-3.96-1.36-.88.06-1.63.99-2.65.98-.59.02-1.15-.03-1.69-.29-1-.53-1.34-1.38-2.48-1.55h0Z"/>
    </g>
  </g>
</svg>