<?xml version="1.0" encoding="UTF-8"?>
<svg id="Layer_2" data-name="Layer 2" xmlns="http://www.w3.org/2000/svg" viewBox="0 0 300 215.93">
  <defs>
    <style>
      .cls-1 {
        fill: #fff;
      }

      .cls-2 {
        fill: #0f1e91;
        opacity: .9;
      }
    </style>
  </defs>
  <g id="Layer_1-2" data-name="Layer 1">
    <g>
      <rect class="cls-2" y="0" width="300" height="215.93" rx="20" ry="20"/>
      <g>
        <path class="cls-1" d="M39.94,39.13c0,5.49-4.5,8.22-9.18,8.22-.15,0-.36,0-.57-.03v5.1c0,.15-.03.24-.24.27-1.23.12-3.54.33-3.72.36-.18,0-.21-.06-.21-.21v-17.64c0-.42-.06-1.53-.09-1.98,0-.03,0-.12.12-.15,1.53-.51,3.69-1.23,6.3-1.23,5.22,0,7.59,3.54,7.59,7.29ZM30.19,35.62v8.19c.24.06.69.06.96.06,2.07,0,4.5-1.2,4.5-4.47,0-2.58-1.32-4.02-3.66-4.02-.69,0-1.2.06-1.8.24Z"/>
        <path class="cls-1" d="M46.81,46.81c0,.18-.06.24-.24.24h-3.69c-.18,0-.24-.09-.24-.24v-20.82c0-.12.03-.21.24-.21h3.69c.18,0,.24.06.24.21v7.08c1.08-.72,2.25-1.23,3.93-1.23,2.34,0,5.07,1.2,5.07,6.03v8.91c0,.18-.06.27-.27.27h-3.6c-.21,0-.3-.09-.3-.27v-8.49c0-1.89-.81-2.82-2.37-2.82-.93,0-1.74.24-2.46.75v10.59Z"/>
        <path class="cls-1" d="M73.3,39.52c0,4.71-3.06,7.83-7.38,7.83-5.13,0-7.41-3.87-7.41-7.74,0-4.26,2.85-7.77,7.47-7.77s7.32,3.63,7.32,7.68ZM62.74,39.55c0,2.64,1.23,4.32,3.24,4.32,1.74,0,3.06-1.5,3.06-4.26,0-2.34-.96-4.29-3.24-4.29-1.74,0-3.06,1.56-3.06,4.23Z"/>
        <path class="cls-1" d="M83.56,46.54c0,.18-.03.33-.21.39-.84.3-1.62.42-2.67.42-2.61,0-4.14-1.29-4.14-4.29v-7.44h-1.8c-.18-.03-.24-.09-.24-.27v-2.94c0-.21.06-.27.27-.27h1.8c.03-1.02.15-2.79.3-3.63.03-.15.12-.24.27-.27l3.51-.45c.15-.03.24-.03.24.18-.09.93-.15,2.7-.15,4.17h2.76c.18,0,.24.06.24.24v3.03c0,.15-.06.18-.21.21h-2.82v6.42c0,1.32.39,1.92,1.62,1.92.36,0,.66-.06,1.02-.12.12,0,.21.03.21.21v2.49Z"/>
        <path class="cls-1" d="M99.88,39.52c0,4.71-3.06,7.83-7.38,7.83-5.13,0-7.41-3.87-7.41-7.74,0-4.26,2.85-7.77,7.47-7.77s7.32,3.63,7.32,7.68ZM89.32,39.55c0,2.64,1.23,4.32,3.24,4.32,1.74,0,3.06-1.5,3.06-4.26,0-2.34-.96-4.29-3.24-4.29-1.74,0-3.06,1.56-3.06,4.23Z"/>
        <path class="cls-1" d="M110.38,43.57c4.29.21,5.88,1.95,5.88,4.32,0,3.12-3.06,5.64-7.89,5.64s-7.2-2.49-7.2-4.65c0-.96.78-2.16,2.76-3.81-.45-.66-.66-1.47-.63-2.25,0-.69.21-1.38.54-1.98-1.23-.78-2.07-2.01-2.07-3.87,0-2.88,2.25-5.13,6.15-5.13,1.11,0,2.16.12,2.85.24.27.06.51.06.72.06h4.11c.15,0,.21.06.21.21v2.79c0,.15-.06.21-.21.21-.45,0-1.44-.09-2.07-.15.24.42.45,1.05.45,1.95,0,3.18-2.61,4.77-5.94,4.77-.33,0-.69-.03-1.02-.06-.09.24-.12.54-.06.81.03.27.15.54.33.78l3.09.12ZM106.12,46.93c-.66.48-1.14,1.29-1.14,1.59,0,.93,1.32,1.95,3.66,1.95,2.67,0,3.81-.93,3.81-1.92,0-1.11-1.32-1.41-3-1.5l-3.33-.12ZM105.82,36.91c0,1.17.75,2.04,2.13,2.04s2.07-.72,2.07-1.95-.6-2.16-2.1-2.16c-1.29,0-2.1.75-2.1,2.07Z"/>
        <path class="cls-1" d="M121.42,32.14c.21,0,.3.09.36.27.15.39.3,1.02.33,1.68.99-1.17,2.64-2.25,4.77-2.25.18,0,.24.06.24.24v3.69c0,.15-.06.21-.27.21-2.16-.09-3.9.57-4.53,1.29l-.03,9.54c0,.18-.06.24-.27.24h-3.6c-.24,0-.3-.09-.3-.27v-10.35c0-1.29-.03-3.03-.15-4.08,0-.15.03-.21.18-.21h3.27Z"/>
        <path class="cls-1" d="M140.47,43.72c0,.78,0,1.41.06,2.13,0,.06,0,.12-.06.15-2.64,1.02-4.38,1.35-6.54,1.35-3.33,0-6.06-1.53-6.06-5.01,0-3.18,2.79-4.86,6.78-4.86.81,0,1.5,0,1.77.06v-.21c0-.57-.36-1.89-2.88-1.89-1.5,0-2.82.3-3.96.81-.12.06-.27,0-.27-.15v-3.03c0-.15.03-.24.21-.3,1.32-.63,3.03-.93,4.71-.93,4.32,0,6.24,2.67,6.24,6.09v5.79ZM136.42,40.63c-.48-.06-.9-.09-1.5-.09-2.13,0-3,.69-3,1.77,0,.99.75,1.8,2.64,1.8.69,0,1.29-.09,1.86-.27v-3.21Z"/>
        <path class="cls-1" d="M157.96,39.13c0,5.49-4.5,8.22-9.18,8.22-.15,0-.36,0-.57-.03v5.1c0,.15-.03.24-.24.27-1.23.12-3.54.33-3.72.36-.18,0-.21-.06-.21-.21v-17.64c0-.42-.06-1.53-.09-1.98,0-.03,0-.12.12-.15,1.53-.51,3.69-1.23,6.3-1.23,5.22,0,7.59,3.54,7.59,7.29ZM148.21,35.62v8.19c.24.06.69.06.96.06,2.07,0,4.5-1.2,4.5-4.47,0-2.58-1.32-4.02-3.66-4.02-.69,0-1.2.06-1.8.24Z"/>
        <path class="cls-1" d="M164.83,46.81c0,.18-.06.24-.24.24h-3.69c-.18,0-.24-.09-.24-.24v-20.82c0-.12.03-.21.24-.21h3.69c.18,0,.24.06.24.21v7.08c1.08-.72,2.25-1.23,3.93-1.23,2.34,0,5.07,1.2,5.07,6.03v8.91c0,.18-.06.27-.27.27h-3.6c-.21,0-.3-.09-.3-.27v-8.49c0-1.89-.81-2.82-2.37-2.82-.93,0-1.74.24-2.46.75v10.59Z"/>
        <path class="cls-1" d="M179.59,32.14c.12,0,.24.06.3.21,1.71,5.13,2.61,8.25,3.03,9.81.96-3.18,1.89-6.06,3.06-9.81.03-.12.15-.21.33-.21h3.57c.21,0,.24.12.21.27-2.16,6.72-5.49,15-7.71,20.13-.06.12-.15.21-.42.21l-3.78.3c-.18,0-.24-.09-.15-.27.87-1.8,1.77-3.78,2.73-6.03.09-.21.12-.3.03-.51-.84-2.07-3.66-9.15-5.43-13.86-.09-.15.03-.24.18-.24h4.05Z"/>
        <path class="cls-1" d="M36.55,76.63c0,.15-.03.21-.15.24-.96.39-2.19.48-3.36.48-4.86,0-7.92-3.27-7.92-7.68s3.39-7.83,8.49-7.83c1.47,0,2.28.15,2.76.33.15.06.18.15.18.33l-.03,3.09c0,.21-.12.24-.24.21-.57-.21-1.41-.36-2.52-.36-2.52,0-4.35,1.38-4.35,4.08,0,3.12,2.31,4.14,4.41,4.14,1.05,0,1.98-.12,2.49-.27.18-.06.24,0,.24.12v3.12Z"/>
        <path class="cls-1" d="M52.99,69.52c0,4.71-3.06,7.83-7.38,7.83-5.13,0-7.41-3.87-7.41-7.74,0-4.26,2.85-7.77,7.47-7.77s7.32,3.63,7.32,7.68ZM42.43,69.55c0,2.64,1.23,4.32,3.24,4.32,1.74,0,3.06-1.5,3.06-4.26,0-2.34-.96-4.29-3.24-4.29-1.74,0-3.06,1.56-3.06,4.23Z"/>
        <path class="cls-1" d="M55.96,77.05c-.21,0-.27-.09-.27-.27v-11.4c0-1.11-.09-2.4-.12-2.97-.03-.18.06-.27.24-.27h3.18c.18,0,.24.06.36.18.09.24.15.63.18,1.11,1.41-1.14,2.76-1.59,4.32-1.59,1.74,0,3.03.66,3.84,1.92,1.29-1.11,2.88-1.92,4.86-1.92,2.61,0,5.13,1.41,5.13,5.94v9c0,.18-.09.27-.27.27h-3.6c-.21,0-.3-.09-.3-.27v-8.58c0-1.56-.54-2.76-2.28-2.76-.99,0-1.92.42-2.55.96.06.33.09,1.11.09,1.68v8.7c0,.15-.06.27-.24.27h-3.63c-.18,0-.3-.06-.3-.27v-8.7c0-1.8-.84-2.61-2.28-2.61-.9,0-1.65.27-2.46.84v10.5c0,.15-.06.24-.27.24h-3.63Z"/>
        <path class="cls-1" d="M95.11,69.13c0,5.49-4.5,8.22-9.18,8.22-.15,0-.36,0-.57-.03v5.1c0,.15-.03.24-.24.27-1.23.12-3.54.33-3.72.36-.18,0-.21-.06-.21-.21v-17.64c0-.42-.06-1.53-.09-1.98,0-.03,0-.12.12-.15,1.53-.51,3.69-1.23,6.3-1.23,5.22,0,7.59,3.54,7.59,7.29ZM85.36,65.62v8.19c.24.06.69.06.96.06,2.07,0,4.5-1.2,4.5-4.47,0-2.58-1.32-4.02-3.66-4.02-.69,0-1.2.06-1.8.24Z"/>
        <path class="cls-1" d="M101.32,70.69c.15,1.71,1.35,3.12,4.29,3.12,1.35,0,2.55-.21,3.69-.69.09-.06.18-.03.18.15v2.85c0,.21-.06.3-.21.36-1.2.57-2.52.87-4.59.87-5.64,0-7.62-3.87-7.62-7.59,0-4.14,2.55-7.92,7.26-7.92s6.33,3.51,6.33,6.48c0,.93-.06,1.68-.15,2.01-.03.15-.09.21-.24.24-.39.06-1.53.12-3.09.12h-5.85ZM105.22,67.78c.96,0,1.38-.03,1.5-.06v-.21c0-.72-.57-2.37-2.55-2.37s-2.7,1.41-2.88,2.64h3.93Z"/>
        <path class="cls-1" d="M121.09,76.54c0,.18-.03.33-.21.39-.84.3-1.62.42-2.67.42-2.61,0-4.14-1.29-4.14-4.29v-7.44h-1.8c-.18-.03-.24-.09-.24-.27v-2.94c0-.21.06-.27.27-.27h1.8c.03-1.02.15-2.79.3-3.63.03-.15.12-.24.27-.27l3.51-.45c.15-.03.24-.03.24.18-.09.93-.15,2.7-.15,4.17h2.76c.18,0,.24.06.24.24v3.03c0,.15-.06.18-.21.21h-2.82v6.42c0,1.32.39,1.92,1.62,1.92.36,0,.66-.06,1.02-.12.12,0,.21.03.21.21v2.49Z"/>
        <path class="cls-1" d="M123.46,58.21c0-1.35.99-2.31,2.34-2.31,1.44,0,2.31.96,2.31,2.31s-.93,2.34-2.34,2.34-2.31-.93-2.31-2.34ZM123.67,62.38c0-.15.06-.24.24-.24h3.69c.18,0,.24.06.24.24v14.4c0,.18-.03.27-.27.27h-3.6c-.21,0-.3-.09-.3-.27v-14.4Z"/>
        <path class="cls-1" d="M139.12,76.54c0,.18-.03.33-.21.39-.84.3-1.62.42-2.67.42-2.61,0-4.14-1.29-4.14-4.29v-7.44h-1.8c-.18-.03-.24-.09-.24-.27v-2.94c0-.21.06-.27.27-.27h1.8c.03-1.02.15-2.79.3-3.63.03-.15.12-.24.27-.27l3.51-.45c.15-.03.24-.03.24.18-.09.93-.15,2.7-.15,4.17h2.76c.18,0,.24.06.24.24v3.03c0,.15-.06.18-.21.21h-2.82v6.42c0,1.32.39,1.92,1.62,1.92.36,0,.66-.06,1.02-.12.12,0,.21.03.21.21v2.49Z"/>
        <path class="cls-1" d="M141.49,58.21c0-1.35.99-2.31,2.34-2.31,1.44,0,2.31.96,2.31,2.31s-.93,2.34-2.34,2.34-2.31-.93-2.31-2.34ZM141.7,62.38c0-.15.06-.24.24-.24h3.69c.18,0,.24.06.24.24v14.4c0,.18-.03.27-.27.27h-3.6c-.21,0-.3-.09-.3-.27v-14.4Z"/>
        <path class="cls-1" d="M163.36,69.52c0,4.71-3.06,7.83-7.38,7.83-5.13,0-7.41-3.87-7.41-7.74,0-4.26,2.85-7.77,7.47-7.77s7.32,3.63,7.32,7.68ZM152.8,69.55c0,2.64,1.23,4.32,3.24,4.32,1.74,0,3.06-1.5,3.06-4.26,0-2.34-.96-4.29-3.24-4.29-1.74,0-3.06,1.56-3.06,4.23Z"/>
        <path class="cls-1" d="M166.06,65.62c0-1.02-.06-2.58-.12-3.24-.03-.15.03-.24.21-.24h3.15c.24,0,.33.09.39.24.12.27.18.57.24.99,1.26-1.02,2.67-1.53,4.26-1.53,2.31,0,5.04,1.2,5.04,6.03v8.91c0,.18-.06.27-.27.27h-3.6c-.21,0-.3-.09-.3-.27v-8.55c0-1.8-.78-2.76-2.34-2.76-1.02,0-1.86.36-2.49.93v10.41c0,.15-.09.24-.27.24h-3.63c-.21,0-.27-.09-.27-.27v-11.16Z"/>
        <path class="cls-1" d="M38.29,107.05c-.18,0-.24-.06-.27-.21-2.22-7.95-2.79-10.44-3.12-11.85h-.03c-.54,2.4-1.62,6.06-3.33,11.85-.06.18-.15.21-.3.21h-2.31c-.24,0-.3-.06-.33-.21l-3.9-14.16c-.06-.12,0-.21.15-.21h2.25c.09,0,.18.03.21.15,2.22,8.25,2.73,11.01,2.94,12.06h.06c.24-1.02.78-3.51,3.33-12,.03-.15.06-.21.21-.21h2.43c.12,0,.18.06.21.18,2.43,8.7,2.85,10.89,3.09,12.06h.06c.33-1.41.78-3.96,3.12-12.09.03-.09.09-.15.21-.15h2.1c.12,0,.18.06.15.18l-4.29,14.22c-.06.12-.09.18-.27.18h-2.37Z"/>
        <path class="cls-1" d="M47.83,88.06c0-.9.63-1.53,1.53-1.53.96,0,1.5.66,1.5,1.53s-.6,1.53-1.53,1.53-1.5-.63-1.5-1.53ZM48.07,92.68c0-.15.06-.21.21-.21h2.13c.12,0,.18.03.18.18v14.19c0,.15-.03.21-.21.21h-2.07c-.15,0-.24-.06-.24-.24v-14.13Z"/>
        <path class="cls-1" d="M54.82,95.86c0-1.02-.06-2.7-.12-3.21,0-.12.03-.18.18-.18h1.86c.15,0,.21.06.27.18.09.27.12.84.18,1.5,1.32-1.32,2.85-1.98,4.59-1.98,2.13,0,4.89,1.05,4.89,5.79v8.88c0,.15-.06.21-.21.21h-2.1c-.15,0-.21-.06-.21-.24v-8.61c0-2.28-.99-3.81-3.09-3.81-1.53,0-2.79.69-3.75,1.83v10.62c0,.15-.03.21-.18.21h-2.13c-.12,0-.18-.06-.18-.21v-10.98Z"/>
        <path class="cls-1" d="M70.87,95.86c0-1.02-.06-2.7-.12-3.21,0-.12.03-.18.18-.18h1.86c.15,0,.21.06.27.18.09.27.12.84.18,1.5,1.32-1.32,2.85-1.98,4.59-1.98,2.13,0,4.89,1.05,4.89,5.79v8.88c0,.15-.06.21-.21.21h-2.1c-.15,0-.21-.06-.21-.24v-8.61c0-2.28-.99-3.81-3.09-3.81-1.53,0-2.79.69-3.75,1.83v10.62c0,.15-.03.21-.18.21h-2.13c-.12,0-.18-.06-.18-.21v-10.98Z"/>
        <path class="cls-1" d="M88.39,100.06c-.03,2.85,1.62,5.1,5.01,5.1,1.32,0,2.58-.24,3.75-.81.09-.06.15,0,.15.12v1.71c0,.18-.06.24-.15.3-1.02.51-2.34.87-4.23.87-5.19,0-7.05-3.81-7.05-7.47,0-4.2,2.46-7.71,6.63-7.71s5.85,3.48,5.85,6.03c0,.75-.06,1.29-.12,1.56,0,.09-.09.18-.21.18-.45.09-1.77.12-3.09.12h-6.54ZM94,98.2c1.47,0,1.83-.03,1.92-.06.03-.09.03-.24.03-.33,0-1.08-.72-3.57-3.54-3.57-2.49,0-3.72,1.95-3.99,3.96h5.58Z"/>
        <path class="cls-1" d="M103.3,92.47c.18,0,.21.06.27.21.12.36.21,1.41.24,2.07,1.05-1.44,2.91-2.58,4.83-2.58.15,0,.21.03.21.21v2.16c0,.15-.03.18-.21.18-2.07-.03-3.96.99-4.71,2.19l-.03,9.96c0,.15-.06.18-.18.18h-2.13c-.15,0-.21-.06-.21-.21v-10.35c0-1.26-.06-3-.15-3.84,0-.12.03-.18.15-.18h1.92Z"/>
        <path class="cls-1" d="M115.6,94.24c-1.98,0-2.64.96-2.64,1.86s.54,1.53,2.79,2.43c3.03,1.17,4.26,2.4,4.26,4.53,0,2.76-2.25,4.29-5.37,4.29-1.65,0-3.15-.36-4.02-.87-.09-.06-.15-.12-.15-.27v-2.01c0-.15.09-.21.18-.15,1.2.84,2.73,1.2,4.05,1.2,1.92,0,2.85-.84,2.85-1.95s-.66-1.77-2.73-2.58c-3-1.14-4.26-2.37-4.26-4.5s1.83-4.05,5.1-4.05c1.65,0,2.88.3,3.51.66.15.06.15.18.15.3v1.83c0,.15-.09.24-.24.15-.84-.51-2.22-.87-3.48-.87Z"/>
      </g>
      <g>
        <path class="cls-1" d="M25.66,143.43c-.06,0-.1-.01-.1-.1v-9.08c0-.06.01-.08.08-.08h1.39c.07,0,.08.03.13.08,1.22,2.06,3.91,6.61,4.47,7.7h.01c-.03-.38-.04-.91-.04-2.13v-5.56c0-.07.03-.1.1-.1h.92c.07,0,.1.04.1.11v9.05c0,.07-.03.1-.13.1h-1.25c-.08,0-.13-.01-.15-.08-.63-1.18-4.12-6.96-4.57-8h-.01c.03.55.06,1.23.06,2.46v5.52c0,.07-.03.1-.08.1h-.92Z"/>
        <path class="cls-1" d="M39.38,142.24c0,.24,0,.45.03.67,0,.03,0,.04-.03.06-1.01.48-1.81.6-2.62.6-1.49,0-2.61-.73-2.61-2.2s1.39-2.14,3.12-2.14c.52,0,.81.01.97.03v-.34c0-.43-.21-1.4-1.58-1.4-.67,0-1.29.15-1.78.42-.04.01-.1,0-.1-.07v-.85c0-.06.03-.08.07-.11.55-.27,1.25-.42,1.99-.42,1.79,0,2.54,1.18,2.54,2.63v3.12ZM38.25,140.18c-.2-.03-.5-.06-.92-.06-1.36,0-2.02.46-2.02,1.25,0,.63.43,1.25,1.67,1.25.45,0,.87-.07,1.27-.24v-2.2Z"/>
        <path class="cls-1" d="M44.17,143.24c0,.06-.01.11-.08.14-.32.14-.67.2-1.05.2-1.02,0-1.64-.49-1.64-1.83v-4.1h-.95c-.08-.01-.1-.04-.1-.11v-.8c0-.07.03-.1.1-.1h.95c.01-.52.07-1.48.13-1.79.01-.06.04-.08.1-.1l.95-.15c.06-.01.08,0,.08.06-.04.49-.08,1.3-.08,1.99h1.49c.06,0,.08.03.08.1v.83c0,.06-.03.08-.08.08h-1.49v3.94c0,.64.24,1.01.85,1.01.21,0,.42-.03.66-.11.04-.01.08-.01.08.06v.71Z"/>
        <path class="cls-1" d="M50.76,141.95c0,.74.04,1.09.08,1.4,0,.06-.01.08-.08.08h-.9c-.07,0-.08-.01-.11-.07-.04-.15-.07-.41-.08-.6-.59.6-1.33.81-2.03.81-1.19,0-2.31-.6-2.31-2.63v-4.23c0-.07.03-.08.1-.08h1c.06,0,.07.03.07.08v4.09c0,1.08.5,1.74,1.48,1.74.67,0,1.21-.25,1.62-.71v-5.11c0-.06.03-.08.1-.08h.98c.08,0,.08.03.08.08v5.24Z"/>
        <path class="cls-1" d="M53.63,136.63c.08,0,.1.03.13.1.06.17.1.66.11.97.49-.67,1.36-1.21,2.25-1.21.07,0,.1.01.1.1v1.01c0,.07-.01.08-.1.08-.97-.01-1.85.46-2.2,1.02v4.65c-.01.07-.04.08-.1.08h-1c-.07,0-.1-.03-.1-.1v-4.83c0-.59-.03-1.4-.07-1.79,0-.06.01-.08.07-.08h.9Z"/>
        <path class="cls-1" d="M57.98,140.17c-.01,1.33.76,2.38,2.34,2.38.62,0,1.2-.11,1.75-.38.04-.03.07,0,.07.06v.8c0,.08-.03.11-.07.14-.48.24-1.09.41-1.98.41-2.42,0-3.29-1.78-3.29-3.49,0-1.96,1.15-3.6,3.1-3.6s2.73,1.62,2.73,2.82c0,.35-.03.6-.06.73,0,.04-.04.08-.1.08-.21.04-.83.06-1.44.06h-3.05ZM60.6,139.3c.69,0,.85-.01.9-.03.01-.04.01-.11.01-.15,0-.5-.34-1.67-1.65-1.67-1.16,0-1.74.91-1.86,1.85h2.6Z"/>
        <path class="cls-1" d="M71.36,138.88c.52.46,1.39,1.47,1.99,2.35.62.91,1.02,1.25,1.65,1.25.14,0,.29-.01.41-.04.06-.01.07,0,.07.07v.83c0,.08,0,.11-.07.14-.15.07-.35.1-.64.1-.83,0-1.4-.24-2.37-1.71-1.04-1.58-2.2-2.75-2.62-2.94-.6.01-1.67.56-1.67,1.77,0,.94.71,1.79,2.03,1.79.62,0,1.06-.11,1.42-.28.06-.01.07.01.07.07v.91c0,.07-.03.08-.08.11-.27.14-.76.28-1.57.28-1.74,0-3.04-1.05-3.04-2.79,0-1.43,1.01-2.33,2.13-2.68-.42-.41-.95-1.02-.95-1.89,0-1.4,1.09-2.2,2.58-2.2.67,0,1.19.1,1.54.29.04.03.06.08.06.14v.9c0,.07-.04.08-.1.06-.29-.18-.81-.35-1.47-.35-.9,0-1.46.38-1.46,1.16,0,.62.55,1.18,1.18,1.62h4.51c.07,0,.08.03.07.08l-.15.87c-.01.07-.04.08-.1.08h-3.4Z"/>
        <path class="cls-1" d="M80.15,134.3c0-.07,0-.1.07-.11.52-.01,1.61-.04,2.42-.04,2.8,0,3.19,1.55,3.19,2.4,0,1.06-.6,1.67-.99,1.93.57.25,1.47.88,1.47,2.21,0,1.85-1.61,2.77-3.73,2.77-.95,0-1.82-.01-2.35-.03-.07-.01-.08-.04-.08-.1v-9.04ZM81.3,138.04h1.3c.55,0,1.09.04,1.32.08.41-.27.77-.7.77-1.43,0-1.05-.77-1.54-2.12-1.54-.46,0-1.01.01-1.27.03v2.86ZM81.3,142.42c.31.01.76.03,1.19.03,1.55.03,2.62-.53,2.62-1.74,0-.76-.42-1.33-1.27-1.55-.31-.08-.7-.1-1.11-.1h-1.43v3.36Z"/>
        <path class="cls-1" d="M87.71,134.57c0-.42.29-.71.71-.71.45,0,.7.31.7.71s-.28.71-.71.71-.7-.29-.7-.71ZM87.82,136.72c0-.07.03-.1.1-.1h1c.06,0,.08.01.08.08v6.63c0,.07-.01.1-.1.1h-.97c-.07,0-.11-.03-.11-.11v-6.6Z"/>
        <path class="cls-1" d="M91.86,136.63c.08,0,.1.03.13.1.06.17.1.66.11.97.49-.67,1.36-1.21,2.26-1.21.07,0,.1.01.1.1v1.01c0,.07-.01.08-.1.08-.97-.01-1.85.46-2.2,1.02v4.65c-.01.07-.04.08-.1.08h-.99c-.07,0-.1-.03-.1-.1v-4.83c0-.59-.03-1.4-.07-1.79,0-.06.01-.08.07-.08h.9Z"/>
        <path class="cls-1" d="M95.04,140.09c0-2.06,1.53-3.6,3.81-3.6.39,0,.62.04.88.08v-3.1c0-.07.03-.08.08-.08h1.01c.07,0,.08.03.08.07v8.83c0,.2,0,.43.03.67,0,.06-.01.07-.07.1-.8.38-1.58.52-2.37.52-1.95,0-3.46-1.18-3.46-3.49ZM99.73,137.63c-.22-.1-.56-.14-.91-.14-1.6,0-2.59,1.08-2.59,2.54,0,1.82,1.15,2.52,2.38,2.52.36,0,.8-.04,1.12-.18v-4.73Z"/>
        <path class="cls-1" d="M107.41,143.34c0,.07-.03.1-.08.1h-1.01c-.06,0-.07-.04-.07-.1v-9.08c0-.06.01-.08.08-.08h5.14c.06,0,.08.03.1.08l.1.88c.01.07-.01.1-.08.1h-4.17v3.1h3.73c.07,0,.1.03.1.08v.9c0,.06-.04.08-.1.08h-3.73v3.94Z"/>
        <path class="cls-1" d="M113.44,140.17c-.01,1.33.76,2.38,2.34,2.38.62,0,1.2-.11,1.75-.38.04-.03.07,0,.07.06v.8c0,.08-.03.11-.07.14-.48.24-1.09.41-1.98.41-2.42,0-3.29-1.78-3.29-3.49,0-1.96,1.15-3.6,3.1-3.6s2.73,1.62,2.73,2.82c0,.35-.03.6-.06.73,0,.04-.04.08-.1.08-.21.04-.83.06-1.44.06h-3.05ZM116.06,139.3c.69,0,.85-.01.9-.03.01-.04.01-.11.01-.15,0-.5-.34-1.67-1.65-1.67-1.16,0-1.74.91-1.86,1.85h2.6Z"/>
        <path class="cls-1" d="M121.59,137.45c-.92,0-1.23.45-1.23.87s.25.71,1.3,1.13c1.42.55,1.99,1.12,1.99,2.12,0,1.29-1.05,2-2.51,2-.77,0-1.47-.17-1.88-.41-.04-.03-.07-.06-.07-.13v-.94c0-.07.04-.1.08-.07.56.39,1.27.56,1.89.56.9,0,1.33-.39,1.33-.91s-.31-.83-1.28-1.21c-1.4-.53-1.99-1.11-1.99-2.1s.85-1.89,2.38-1.89c.77,0,1.34.14,1.64.31.07.03.07.08.07.14v.85c0,.07-.04.11-.11.07-.39-.24-1.04-.41-1.62-.41Z"/>
        <path class="cls-1" d="M128.08,143.24c0,.06-.01.11-.08.14-.32.14-.67.2-1.05.2-1.02,0-1.64-.49-1.64-1.83v-4.1h-.95c-.08-.01-.1-.04-.1-.11v-.8c0-.07.03-.1.1-.1h.95c.01-.52.07-1.48.13-1.79.01-.06.04-.08.1-.1l.95-.15c.06-.01.08,0,.08.06-.04.49-.08,1.3-.08,1.99h1.49c.06,0,.08.03.08.1v.83c0,.06-.03.08-.08.08h-1.49v3.94c0,.64.24,1.01.85,1.01.21,0,.42-.03.66-.11.04-.01.08-.01.08.06v.71Z"/>
        <path class="cls-1" d="M129.24,134.57c0-.42.29-.71.71-.71.45,0,.7.31.7.71s-.28.71-.71.71-.7-.29-.7-.71ZM129.36,136.72c0-.07.03-.1.1-.1h1c.06,0,.08.01.08.08v6.63c0,.07-.01.1-.1.1h-.97c-.07,0-.11-.03-.11-.11v-6.6Z"/>
        <path class="cls-1" d="M134.23,143.43c-.08,0-.1-.03-.13-.07-.29-.85-2.02-5.7-2.35-6.64-.01-.06-.01-.1.06-.1h1.08c.07,0,.08.03.11.08,1.18,3.54,1.68,5.07,1.83,5.65h.03c.17-.58.69-2.07,1.92-5.66.03-.06.06-.07.11-.07h.97s.08.03.06.1c-.41,1.09-2.12,5.79-2.42,6.63-.03.06-.06.08-.13.08h-1.13Z"/>
        <path class="cls-1" d="M143.6,142.24c0,.24,0,.45.03.67,0,.03,0,.04-.03.06-1.01.48-1.81.6-2.62.6-1.49,0-2.61-.73-2.61-2.2s1.39-2.14,3.12-2.14c.52,0,.81.01.97.03v-.34c0-.43-.21-1.4-1.58-1.4-.67,0-1.29.15-1.78.42-.04.01-.1,0-.1-.07v-.85c0-.06.03-.08.07-.11.55-.27,1.25-.42,1.99-.42,1.79,0,2.54,1.18,2.54,2.63v3.12ZM142.46,140.18c-.2-.03-.5-.06-.92-.06-1.36,0-2.02.46-2.02,1.25,0,.63.43,1.25,1.67,1.25.45,0,.87-.07,1.27-.24v-2.2Z"/>
        <path class="cls-1" d="M145.55,133.47c0-.07.03-.08.1-.08h.98c.07,0,.08.03.08.08v8.45c0,.55.22.67.56.67.1,0,.15-.01.28-.04.04,0,.06.03.06.08v.73c0,.07-.01.08-.07.11-.13.06-.35.1-.64.1-.69,0-1.34-.24-1.34-1.55v-8.54Z"/>
        <path class="cls-1" d="M151.55,143.43c-.07,0-.08-.04-.08-.1v-.63c0-.07.01-.1.06-.14.59-.46,1.61-1.3,2.56-2.24,1.34-1.29,1.67-2.16,1.67-3.05,0-1.01-.55-1.82-1.85-1.82-.85,0-1.47.27-2.07.62-.06.04-.1.01-.1-.04v-.9c0-.07,0-.08.06-.13.66-.38,1.44-.63,2.34-.63,1.93,0,2.8,1.32,2.8,2.77,0,1.08-.38,2.12-1.67,3.39-.84.87-1.57,1.48-2.09,1.92.48-.04.94-.04,2.2-.04h1.93c.07,0,.1.01.08.07l-.21.87c-.03.07-.04.08-.11.08h-5.52Z"/>
        <path class="cls-1" d="M158.35,138.95c0-2.54,1.05-4.58,3.08-4.58,2.49,0,3.04,2.59,3.04,4.58,0,2.27-.7,4.62-3.03,4.62-2.18,0-3.1-2.07-3.1-4.62ZM159.53,138.92c0,2.12.62,3.61,1.93,3.61s1.83-1.4,1.83-3.57c0-2.38-.67-3.57-1.89-3.57-1.08,0-1.88,1.12-1.88,3.53Z"/>
        <path class="cls-1" d="M165.42,143.43c-.07,0-.08-.04-.08-.1v-.63c0-.07.01-.1.06-.14.59-.46,1.61-1.3,2.56-2.24,1.34-1.29,1.67-2.16,1.67-3.05,0-1.01-.55-1.82-1.85-1.82-.85,0-1.47.27-2.07.62-.06.04-.1.01-.1-.04v-.9c0-.07,0-.08.06-.13.66-.38,1.44-.63,2.34-.63,1.93,0,2.8,1.32,2.8,2.77,0,1.08-.38,2.12-1.67,3.39-.84.87-1.57,1.48-2.09,1.92.48-.04.94-.04,2.2-.04h1.93c.07,0,.1.01.08.07l-.21.87c-.03.07-.04.08-.11.08h-5.52Z"/>
        <path class="cls-1" d="M174.2,135.56c-.15.52-.43,1.67-.53,2.09,2.9.29,4.17,1.32,4.17,3.1,0,1.65-1.26,2.83-3.25,2.83-.92,0-1.61-.17-2.14-.43-.04-.03-.06-.07-.06-.14v-.97c0-.06.04-.07.07-.06.64.35,1.33.55,2.13.55,1.51,0,2.07-.85,2.07-1.7,0-1.32-1.12-2.02-4.02-2.25-.06,0-.1-.01-.1-.08v-.48c.04-.25.88-3.35.9-3.42.03-.07.04-.08.1-.08h3.96c.06,0,.08.01.06.08l-.25.88c-.01.06-.04.08-.11.08h-3Z"/>
      </g>
    </g>
  </g>
</svg>