<?xml version="1.0" encoding="UTF-8"?>
<svg id="Layer_2" data-name="Layer 2" xmlns="http://www.w3.org/2000/svg" viewBox="0 0 250 35">
  <defs>
    <style>
      .cls-1 {
        fill: #fff;
      }

      .cls-2 {
        fill: #f15a25;
      }
    </style>
  </defs>
  <g id="Layer_1-2" data-name="Layer 1">
    <g>
      <rect class="cls-2" width="250" height="35" rx="10" ry="10"/>
      <g>
        <path class="cls-1" d="M49.04,22.39c-.12,0-.16-.04-.16-.18v-12.7c0-.1.02-.2.14-.2,1.8-.04,2.56-.06,4.18-.06,3.32,0,5.18,1.42,5.18,4,0,1.66-1.04,2.94-2.5,3.52.66.9,2.92,4.3,3.54,5.38.06.12.08.24-.06.24h-2.9c-.18,0-.24-.04-.28-.12-.58-.88-1.84-3.02-2.66-4.38-.14-.24-.24-.34-.46-.34h-1.46v4.68c0,.1-.06.16-.16.16h-2.4ZM53.14,15.19c1.5,0,2.46-.6,2.46-1.78s-1-1.74-2.48-1.74c-.66,0-1.22.02-1.52.04v3.48h1.54Z"/>
        <path class="cls-1" d="M62.54,18.15c.1,1.14.9,2.08,2.86,2.08.9,0,1.7-.14,2.46-.46.06-.04.12-.02.12.1v1.9c0,.14-.04.2-.14.24-.8.38-1.68.58-3.06.58-3.76,0-5.08-2.58-5.08-5.06,0-2.76,1.7-5.28,4.84-5.28s4.22,2.34,4.22,4.32c0,.62-.04,1.12-.1,1.34-.02.1-.06.14-.16.16-.26.04-1.02.08-2.06.08h-3.9ZM65.14,16.21c.64,0,.92-.02,1-.04v-.14c0-.48-.38-1.58-1.7-1.58s-1.8.94-1.92,1.76h2.62Z"/>
        <path class="cls-1" d="M75.76,20.07c2.86.14,3.92,1.3,3.92,2.88,0,2.08-2.04,3.76-5.26,3.76s-4.8-1.66-4.8-3.1c0-.64.52-1.44,1.84-2.54-.3-.44-.44-.98-.42-1.5,0-.46.14-.92.36-1.32-.82-.52-1.38-1.34-1.38-2.58,0-1.92,1.5-3.42,4.1-3.42.74,0,1.44.08,1.9.16.18.04.34.04.48.04h2.74c.1,0,.14.04.14.14v1.86c0,.1-.04.14-.14.14-.3,0-.96-.06-1.38-.1.16.28.3.7.3,1.3,0,2.12-1.74,3.18-3.96,3.18-.22,0-.46-.02-.68-.04-.06.16-.08.36-.04.54.02.18.1.36.22.52l2.06.08ZM72.92,22.31c-.44.32-.76.86-.76,1.06,0,.62.88,1.3,2.44,1.3,1.78,0,2.54-.62,2.54-1.28,0-.74-.88-.94-2-1l-2.22-.08ZM72.72,15.63c0,.78.5,1.36,1.42,1.36s1.38-.48,1.38-1.3-.4-1.44-1.4-1.44c-.86,0-1.4.5-1.4,1.38Z"/>
        <path class="cls-1" d="M80.68,9.83c0-.9.66-1.54,1.56-1.54.96,0,1.54.64,1.54,1.54s-.62,1.56-1.56,1.56-1.54-.62-1.54-1.56ZM80.82,12.61c0-.1.04-.16.16-.16h2.46c.12,0,.16.04.16.16v9.6c0,.12-.02.18-.18.18h-2.4c-.14,0-.2-.06-.2-.18v-9.6Z"/>
        <path class="cls-1" d="M89.4,14.47c-.94,0-1.24.34-1.24.68s.26.6,1.42,1.04c2.42.88,3.18,1.82,3.18,3.24,0,1.9-1.48,3.16-4.12,3.16-1.22,0-2.28-.22-2.9-.56-.1-.06-.14-.12-.14-.22v-2.16c0-.12.08-.18.16-.12.92.58,2.04.8,2.94.8s1.36-.26,1.36-.68c0-.38-.34-.66-1.52-1.1-2.26-.84-3-1.8-3-3.24,0-1.56,1.26-3.06,3.9-3.06,1.18,0,2.1.16,2.6.4.12.06.14.16.14.26v2c0,.12-.08.2-.2.14-.66-.34-1.68-.58-2.58-.58Z"/>
        <path class="cls-1" d="M99.52,22.05c0,.12-.02.22-.14.26-.56.2-1.08.28-1.78.28-1.74,0-2.76-.86-2.76-2.86v-4.96h-1.2c-.12-.02-.16-.06-.16-.18v-1.96c0-.14.04-.18.18-.18h1.2c.02-.68.1-1.86.2-2.42.02-.1.08-.16.18-.18l2.34-.3c.1-.02.16-.02.16.12-.06.62-.1,1.8-.1,2.78h1.84c.12,0,.16.04.16.16v2.02c0,.1-.04.12-.14.14h-1.88v4.28c0,.88.26,1.28,1.08,1.28.24,0,.44-.04.68-.08.08,0,.14.02.14.14v1.66Z"/>
        <path class="cls-1" d="M103.4,12.45c.14,0,.2.06.24.18.1.26.2.68.22,1.12.66-.78,1.76-1.5,3.18-1.5.12,0,.16.04.16.16v2.46c0,.1-.04.14-.18.14-1.44-.06-2.6.38-3.02.86l-.02,6.36c0,.12-.04.16-.18.16h-2.4c-.16,0-.2-.06-.2-.18v-6.9c0-.86-.02-2.02-.1-2.72,0-.1.02-.14.12-.14h2.18Z"/>
        <path class="cls-1" d="M116.1,20.17c0,.52,0,.94.04,1.42,0,.04,0,.08-.04.1-1.76.68-2.92.9-4.36.9-2.22,0-4.04-1.02-4.04-3.34,0-2.12,1.86-3.24,4.52-3.24.54,0,1,0,1.18.04v-.14c0-.38-.24-1.26-1.92-1.26-1,0-1.88.2-2.64.54-.08.04-.18,0-.18-.1v-2.02c0-.1.02-.16.14-.2.88-.42,2.02-.62,3.14-.62,2.88,0,4.16,1.78,4.16,4.06v3.86ZM113.4,18.11c-.32-.04-.6-.06-1-.06-1.42,0-2,.46-2,1.18,0,.66.5,1.2,1.76,1.2.46,0,.86-.06,1.24-.18v-2.14Z"/>
        <path class="cls-1" d="M123.3,22.05c0,.12-.02.22-.14.26-.56.2-1.08.28-1.78.28-1.74,0-2.76-.86-2.76-2.86v-4.96h-1.2c-.12-.02-.16-.06-.16-.18v-1.96c0-.14.04-.18.18-.18h1.2c.02-.68.1-1.86.2-2.42.02-.1.08-.16.18-.18l2.34-.3c.1-.02.16-.02.16.12-.06.62-.1,1.8-.1,2.78h1.84c.12,0,.16.04.16.16v2.02c0,.1-.04.12-.14.14h-1.88v4.28c0,.88.26,1.28,1.08,1.28.24,0,.44-.04.68-.08.08,0,.14.02.14.14v1.66Z"/>
        <path class="cls-1" d="M124.88,9.83c0-.9.66-1.54,1.56-1.54.96,0,1.54.64,1.54,1.54s-.62,1.56-1.56,1.56-1.54-.62-1.54-1.56ZM125.02,12.61c0-.1.04-.16.16-.16h2.46c.12,0,.16.04.16.16v9.6c0,.12-.02.18-.18.18h-2.4c-.14,0-.2-.06-.2-.18v-9.6Z"/>
        <path class="cls-1" d="M139.46,17.37c0,3.14-2.04,5.22-4.92,5.22-3.42,0-4.94-2.58-4.94-5.16,0-2.84,1.9-5.18,4.98-5.18s4.88,2.42,4.88,5.12ZM132.42,17.39c0,1.76.82,2.88,2.16,2.88,1.16,0,2.04-1,2.04-2.84,0-1.56-.64-2.86-2.16-2.86-1.16,0-2.04,1.04-2.04,2.82Z"/>
        <path class="cls-1" d="M141.26,14.77c0-.68-.04-1.72-.08-2.16-.02-.1.02-.16.14-.16h2.1c.16,0,.22.06.26.16.08.18.12.38.16.66.84-.68,1.78-1.02,2.84-1.02,1.54,0,3.36.8,3.36,4.02v5.94c0,.12-.04.18-.18.18h-2.4c-.14,0-.2-.06-.2-.18v-5.7c0-1.2-.52-1.84-1.56-1.84-.68,0-1.24.24-1.66.62v6.94c0,.1-.06.16-.18.16h-2.42c-.14,0-.18-.06-.18-.18v-7.44Z"/>
        <path class="cls-1" d="M169,15.77c.02,4.08-2.54,6.82-6.28,6.82s-6.24-2.88-6.24-6.76,2.5-6.74,6.28-6.74c3.98,0,6.22,3.02,6.24,6.68ZM162.82,20.13c2.08,0,3.32-1.7,3.32-4.28-.02-2.66-1.26-4.3-3.42-4.3-2,0-3.38,1.56-3.38,4.3,0,2.42,1.24,4.28,3.48,4.28Z"/>
        <path class="cls-1" d="M180.2,17.11c0,3.66-3,5.48-6.12,5.48-.1,0-.24,0-.38-.02v3.4c0,.1-.02.16-.16.18-.82.08-2.36.22-2.48.24-.12,0-.14-.04-.14-.14v-11.76c0-.28-.04-1.02-.06-1.32,0-.02,0-.08.08-.1,1.02-.34,2.46-.82,4.2-.82,3.48,0,5.06,2.36,5.06,4.86ZM173.7,14.77v5.46c.16.04.46.04.64.04,1.38,0,3-.8,3-2.98,0-1.72-.88-2.68-2.44-2.68-.46,0-.8.04-1.2.16Z"/>
        <path class="cls-1" d="M184.34,18.15c.1,1.14.9,2.08,2.86,2.08.9,0,1.7-.14,2.46-.46.06-.04.12-.02.12.1v1.9c0,.14-.04.2-.14.24-.8.38-1.68.58-3.06.58-3.76,0-5.08-2.58-5.08-5.06,0-2.76,1.7-5.28,4.84-5.28s4.22,2.34,4.22,4.32c0,.62-.04,1.12-.1,1.34-.02.1-.06.14-.16.16-.26.04-1.02.08-2.06.08h-3.9ZM186.94,16.21c.64,0,.92-.02,1-.04v-.14c0-.48-.38-1.58-1.7-1.58s-1.8.94-1.92,1.76h2.62Z"/>
        <path class="cls-1" d="M192.34,14.77c0-.68-.04-1.72-.08-2.16-.02-.1.02-.16.14-.16h2.1c.16,0,.22.06.26.16.08.18.12.38.16.66.84-.68,1.78-1.02,2.84-1.02,1.54,0,3.36.8,3.36,4.02v5.94c0,.12-.04.18-.18.18h-2.4c-.14,0-.2-.06-.2-.18v-5.7c0-1.2-.52-1.84-1.56-1.84-.68,0-1.24.24-1.66.62v6.94c0,.1-.06.16-.18.16h-2.42c-.14,0-.18-.06-.18-.18v-7.44Z"/>
      </g>
    </g>
  </g>
</svg>