<?xml version="1.0" encoding="UTF-8"?>
<svg id="Layer_2" data-name="Layer 2" xmlns="http://www.w3.org/2000/svg" viewBox="0 0 11.35 20">
  <defs>
    <style>
      .cls-1 {
        fill: #ff6700;
      }
    </style>
  </defs>
  <g id="Layer_1-2" data-name="Layer 1">
    <path class="cls-1" d="M7.01,20h-3.2c-.53,0-.97-.44-.97-.97v-7.22H.97c-.53,0-.97-.44-.97-.97v-3.1c0-.53.44-.97.97-.97h1.87v-1.55c0-1.54.48-2.84,1.4-3.78.92-.94,2.2-1.44,3.71-1.44h2.44c.53,0,.97.44.97.97v2.87c0,.53-.44.97-.97.97h-1.64c-.5,0-.63.1-.66.13-.05.05-.1.2-.1.59v1.22h2.28c.17,0,.34.04.48.12.31.17.5.5.5.85v3.1c0,.53-.44.97-.97.97h-2.28v7.22c0,.53-.44.97-.97.97ZM4.01,18.83h2.8v-7.55c0-.36.29-.65.65-.65h2.61v-2.69s-2.61,0-2.61,0c-.36,0-.65-.29-.65-.65v-1.75c0-.46.05-.98.39-1.37.42-.47,1.08-.53,1.54-.53h1.44V1.18h-2.24c-2.42,0-3.93,1.55-3.93,4.04v2.07c0,.36-.29.65-.65.65H1.17v2.69h2.19c.36,0,.65.29.65.65v7.55ZM10.38,1.18h0,0Z"/>
  </g>
</svg>