<?xml version="1.0" encoding="UTF-8"?>
<svg id="Layer_2" data-name="Layer 2" xmlns="http://www.w3.org/2000/svg" viewBox="0 0 20 20">
  <defs>
    <style>
      .cls-1 {
        fill: #ff6700;
      }
    </style>
  </defs>
  <g id="Layer_1-2" data-name="Layer 1">
    <g>
      <path class="cls-1" d="M19.95,5.88c-.05-1.06-.22-1.79-.46-2.43-.25-.67-.64-1.27-1.16-1.77-.5-.51-1.11-.9-1.77-1.15-.64-.25-1.36-.42-2.43-.46-1.07-.05-1.41-.06-4.13-.06s-3.06.01-4.12.06c-1.06.05-1.79.22-2.43.46-.67.25-1.27.64-1.77,1.16-.51.5-.9,1.11-1.15,1.77-.25.64-.42,1.36-.46,2.43-.05,1.07-.06,1.41-.06,4.13s.01,3.06.06,4.12c.05,1.06.22,1.79.47,2.43.25.67.65,1.27,1.16,1.77.5.51,1.11.9,1.77,1.15.64.25,1.36.42,2.43.46,1.07.05,1.41.06,4.12.06s3.06-.01,4.12-.06c1.06-.05,1.79-.22,2.43-.46,1.34-.52,2.41-1.58,2.93-2.93.25-.64.42-1.36.46-2.43.05-1.07.06-1.41.06-4.12s0-3.06-.05-4.12ZM18.14,14.05c-.04.98-.21,1.5-.34,1.86-.34.87-1.03,1.56-1.9,1.9-.35.14-.88.3-1.86.34-1.05.05-1.37.06-4.04.06s-2.99-.01-4.04-.06c-.98-.04-1.5-.21-1.86-.34-.43-.16-.83-.41-1.15-.75-.33-.32-.59-.72-.75-1.15-.14-.35-.3-.88-.34-1.86-.05-1.05-.06-1.37-.06-4.04s.01-2.99.06-4.04c.04-.98.21-1.5.34-1.86.16-.43.41-.83.75-1.15.32-.33.71-.59,1.15-.75.35-.14.88-.3,1.86-.34,1.05-.05,1.37-.06,4.04-.06s2.99.01,4.04.06c.98.04,1.5.21,1.86.34.43.16.83.41,1.15.75.33.32.59.72.75,1.15.14.35.3.88.34,1.86.05,1.05.06,1.37.06,4.04s-.01,2.98-.06,4.04Z"/>
      <path class="cls-1" d="M10,4.86c-2.84,0-5.14,2.3-5.14,5.14s2.3,5.14,5.14,5.14,5.14-2.3,5.14-5.14-2.3-5.14-5.14-5.14ZM10,13.33c-1.84,0-3.33-1.49-3.33-3.33s1.49-3.33,3.33-3.33,3.33,1.49,3.33,3.33-1.49,3.33-3.33,3.33Z"/>
      <path class="cls-1" d="M16.54,4.66c0,.66-.54,1.2-1.2,1.2s-1.2-.54-1.2-1.2.54-1.2,1.2-1.2,1.2.54,1.2,1.2Z"/>
    </g>
  </g>
</svg>