<?xml version="1.0" encoding="UTF-8"?>
<svg id="Layer_2" data-name="Layer 2" xmlns="http://www.w3.org/2000/svg" xmlns:xlink="http://www.w3.org/1999/xlink" viewBox="0 0 158.69 190">
  <defs>
    <style>
      .cls-1 {
        fill: #28a0e1;
      }

      .cls-2 {
        fill: #0f1e91;
      }

      .cls-3 {
        fill: #641e00;
      }

      .cls-4 {
        fill: #0a8200;
      }

      .cls-5 {
        fill: #f05a23;
      }

      .cls-6 {
        fill: url(#linear-gradient);
      }

      .cls-7 {
        fill: #87b928;
      }
    </style>
    <linearGradient id="linear-gradient" x1="35.71" y1="125.69" x2="35.71" y2="138.02" gradientUnits="userSpaceOnUse">
      <stop offset="0" stop-color="#ffe400"/>
      <stop offset=".11" stop-color="#ffe615" stop-opacity=".92"/>
      <stop offset=".35" stop-color="#ffec4d" stop-opacity=".7"/>
      <stop offset=".68" stop-color="#fff5a5" stop-opacity=".35"/>
      <stop offset="1" stop-color="#fff" stop-opacity="0"/>
    </linearGradient>
  </defs>
  <g id="Layer_1-2" data-name="Layer 1">
    <g>
      <path class="cls-6" d="M49.35,138.48c.96-2.3,1.44-4.85,1.44-7.61,0-4.49-1.42-8.36-4.11-11.18-2.72-2.86-6.47-4.37-10.84-4.37s-8.1,1.68-10.88,4.72c-2.84,3.11-4.34,7.31-4.34,12.16,0,2.27.36,4.37,1.06,6.28h27.68Z"/>
      <g>
        <path class="cls-4" d="M88.91,78.14h0s.07-.01.19-.04c.82-.16,1.8-.37,2.29-.49,1.12-.25,2.32-.55,2.89-.77,0,0-4.61.87-7.89.24l-.29-.07c-.05-.01-.1-.02-.14-.03,0,0,0,0,0,0-.12-.03-.18-.05-.32-.14-1.06-.82-2.2-1.68-3.32-2.43-2.66-1.98-5.9-.48-7.69,1.89,1.54-1.29,3.76-2.43,5.7-1.65.45.18.83.45,1.21.78.76.65,1.51,1.32,2.24,2.01-1.51.53-2.88,1.46-3.89,2.74-.72.89-1.2,1.98-1.52,3.06-1.67,6.5-4.58,11.9-10.82,14.58,3.92-5.4,5.37-12.18,2.88-19.31-3.78-9.29-13.44-14.85-22.94-16.66,0,0-1.7-.33-1.7-.33.17,1.07.34,2.52.59,3.54.09.38.18.77.29,1.15.66,2.51,1.57,5.02,2.79,7.34,1.78,3.38,4.24,6.36,7.56,8.37,2.46,1.51,5.3,2.17,8.12,2.3,0,0,0,0,0,0-.72-3-2.15-5.77-4.05-8.17-1.69-2.1-3.83-3.86-6.26-5,3.34,2.11,5.9,5.3,7.46,8.9.36.83.69,1.72.95,2.61-3.42-.68-6.24-2.53-8.47-5.02-2.04-2.28-3.58-5.1-4.61-8.03-.56-1.57-1.04-3.22-1.39-4.87.33.08.66.17.99.26,1.51.42,3,.93,4.45,1.54,4.38,1.85,8.38,4.57,11.4,8.28,1.08,1.37,2.16,2.88,2.77,4.49,2.73,7.11,1.21,13.8-2.72,19.28-5.34,1.69-11.03,1.37-16.64.77,1.9.61,3.93,1.14,5.9,1.46,3.05.53,5.98.63,8.7.27-1.67,1.83-3.6,3.48-5.73,4.93,2.68-1.38,5.07-3.12,7.09-5.14,6.96-1.33,12.42-5.83,14.83-13.98.61-1.8.73-3.77,1.82-5.32.98-1.41,2.62-2.38,4.3-2.73l1.88-.4s.48-.09,1.1-.22Z"/>
        <path class="cls-4" d="M126.98,24.01c-2.33,0-4.59,1.28-6.72,3.81-2.06,2.45-3.83,5.7-5.24,9.67-.31.88-.59,1.78-.86,2.68v-16.19c-.2-.19-.41-.23-.55-.23-.11,0-.31.02-.5.19-.77.43-1.9.87-3.37,1.32-1.51.45-3.01.81-4.47,1.08h-.03v1.61h.09c1.23,0,2.05.38,2.53,1.17.51.84.77,2.17.79,3.94v.12h0v22.15c.24-.01.52,0,.86,0h0c2.58,0,4.67-2.1,4.67-4.68v-1.43c.35-3.68,1.12-7.3,2.3-10.78,1.21-3.55,2.64-6.47,4.27-8.68,1.55-2.11,3-3.18,4.31-3.18.84,0,1.52.53,2.08,1.62.04.09.09.17.13.27.39.82.92,2.25,1.27,4.5.94-2.09,2.34-4.02,4.13-5.68-1.66-2.17-3.57-3.27-5.68-3.27Z"/>
        <path class="cls-4" d="M102.88,73.61c-2.04,0-4.02,1.12-5.88,3.34-1.81,2.14-3.35,4.99-4.59,8.46-.27.77-.52,1.55-.75,2.35v-8.16c-.55.13-1.37.3-2.21.47-.99.24-1.95.41-2.39.49l-.25.05v19.39c.21-.01.45,0,.75,0,0,0,.76,0,1.63,0,1.36,0,2.47-1.11,2.47-2.47v-1.86c.3-3.22.98-6.39,2.02-9.44,1.06-3.11,2.31-5.66,3.74-7.6,1.35-1.85,2.62-2.78,3.78-2.78.65,0,1.19.37,1.65,1.12h0s.8.96,1.43,5.02c.28-.75.61-1.47.98-2.15.71-1.3,1.56-2.45,2.53-3.46-1.44-1.84-3.08-2.78-4.9-2.78Z"/>
        <path class="cls-5" d="M60.87,127.9c-3.75-1.8-7.29-3.5-7.29-7.09,0-.8.2-1.56.58-2.26-.55.25-1.05.54-1.5.87-1.65,1.2-2.52,2.88-2.52,4.87,0,4.17,4.2,6.21,8.27,8.18,3.84,1.86,7.46,3.61,7.46,7.27,0,1.1-.37,2.14-1.06,3.03,2.88-1.2,4.5-3.43,4.5-6.28,0-4.53-4.29-6.59-8.45-8.59Z"/>
        <path class="cls-5" d="M52.89,135.17c-1.59,0-2.74,1.18-2.74,2.8,0,1.06.43,2.09,1.24,2.99l1.16-.12c1.91-.2,3.14-1.37,3.14-2.98s-1.18-2.69-2.8-2.69Z"/>
        <path class="cls-5" d="M66.21,123.63c.55-.55.84-1.24.84-1.95,0-.71-.32-1.41-.88-1.97-.75-.75-1.78-1.18-2.99-1.24l-.74.91c-1.21,1.49-1.25,3.19-.11,4.33.52.52,1.19.81,1.87.81.72,0,1.44-.32,2.01-.89Z"/>
      </g>
      <rect class="cls-3" x="26.58" y="151.78" width="105.53" height=".44"/>
      <rect class="cls-3" x="26.58" y="167.33" width="105.53" height=".44"/>
      <path class="cls-3" d="M132.78,63.5c-.76,0-1.37.61-1.37,1.37s.61,1.37,1.37,1.37,1.37-.61,1.37-1.37-.61-1.37-1.37-1.37ZM132.78,65.84c-.53,0-.96-.43-.96-.96s.43-.96.96-.96.96.43.96.96-.43.96-.96.96Z"/>
      <path class="cls-3" d="M132.78,64.08c-.44,0-.79.35-.79.79s.35.79.79.79.79-.35.79-.79-.35-.79-.79-.79Z"/>
      <path class="cls-3" d="M127.54,65.58h3.86c-.05-.11-.1-.22-.13-.34h-3.61c-.03.12-.07.23-.13.34Z"/>
      <path class="cls-3" d="M131.24,65.08c0-.07-.01-.13-.01-.2,0-.05,0-.09,0-.14h-3.54s0,.09,0,.14c0,.07,0,.14-.01.2h3.55Z"/>
      <path class="cls-3" d="M127.68,64.58h3.58c.1-.53.47-.96.96-1.15h-5.51c.49.19.86.62.96,1.15Z"/>
      <path class="cls-3" d="M130.43,65.88v.52c0,.09.08.17.17.17s.17-.08.17-.17v-.52c0-.09-.08-.17-.17-.17s-.17.08-.17.17Z"/>
      <path class="cls-3" d="M129.86,65.88v.52c0,.09.08.17.17.17s.17-.08.17-.17v-.52c0-.09-.08-.17-.17-.17s-.17.08-.17.17Z"/>
      <path class="cls-3" d="M127.38,66.4v-.52s0-.02,0-.03c-.1.12-.21.23-.34.31v.24c0,.09.08.17.17.17s.17-.08.17-.17Z"/>
      <path class="cls-3" d="M130.99,65.88v.52c0,.09.08.17.17.17s.17-.08.17-.17v-.52c0-.09-.08-.17-.17-.17s-.17.08-.17.17Z"/>
      <path class="cls-3" d="M128.73,65.88v.52c0,.09.08.17.17.17s.17-.08.17-.17v-.52c0-.09-.08-.17-.17-.17s-.17.08-.17.17Z"/>
      <path class="cls-3" d="M131.9,66.4v-.24c-.13-.09-.24-.19-.34-.31,0,.01,0,.02,0,.03v.52c0,.09.08.17.17.17s.17-.08.17-.17Z"/>
      <path class="cls-3" d="M127.6,65.88v.52c0,.09.08.17.17.17s.17-.08.17-.17v-.52c0-.09-.08-.17-.17-.17s-.17.08-.17.17Z"/>
      <path class="cls-3" d="M128.17,65.88v.52c0,.09.08.17.17.17s.17-.08.17-.17v-.52c0-.09-.08-.17-.17-.17s-.17.08-.17.17Z"/>
      <path class="cls-3" d="M129.3,65.88v.52c0,.09.08.17.17.17s.17-.08.17-.17v-.52c0-.09-.08-.17-.17-.17s-.17.08-.17.17Z"/>
      <path class="cls-3" d="M126.52,66.9c0,.11.09.21.21.21h5.43c.11,0,.21-.09.21-.21s-.09-.21-.21-.21h-5.43c-.11,0-.21.09-.21.21Z"/>
      <path class="cls-3" d="M132.16,67.26h-5.43c-.11,0-.21.09-.21.21s.09.21.21.21h5.43c.11,0,.21-.09.21-.21s-.09-.21-.21-.21Z"/>
      <path class="cls-3" d="M126.16,63.5c-.76,0-1.37.61-1.37,1.37s.61,1.37,1.37,1.37,1.37-.61,1.37-1.37-.61-1.37-1.37-1.37ZM126.16,65.84c-.53,0-.96-.43-.96-.96s.43-.96.96-.96.96.43.96.96-.43.96-.96.96Z"/>
      <path class="cls-3" d="M126.16,64.08c-.44,0-.79.35-.79.79s.35.79.79.79.79-.35.79-.79-.35-.79-.79-.79Z"/>
      <path class="cls-3" d="M135.59,99.99h.26v-1.33h-1.36c-1.31,0-2.38-1.06-2.38-2.37v-25.07h0v-2.7c0-.08.03-.15.08-.21v-.49h-5.49v.49c.05.06.08.13.08.21v27.79c-.02,1.3-1.07,2.35-2.38,2.35h-1.36v1.33h12.56ZM127.71,98.74c0,.08-.06.14-.14.14s-.14-.06-.14-.14v-29.66c0-.08.06-.14.14-.14s.14.06.14.14v29.66ZM128.65,98.74c0,.08-.06.14-.14.14s-.14-.06-.14-.14v-29.66c0-.08.06-.14.14-.14s.14.06.14.14v29.66ZM129.59,98.74c0,.08-.06.14-.14.14s-.14-.06-.14-.14v-29.66c0-.08.06-.14.14-.14s.14.06.14.14v29.66ZM130.52,98.74c0,.08-.06.14-.14.14s-.14-.06-.14-.14v-29.66c0-.08.06-.14.14-.14s.14.06.14.14v29.66ZM131.46,98.74c0,.08-.06.14-.14.14s-.14-.06-.14-.14v-29.66c0-.08.06-.14.14-.14s.14.06.14.14v29.66Z"/>
      <path class="cls-3" d="M112.05,75.27c-2.2,1.23-3.97,3.06-5.27,5.42-1.14,2.07-1.78,4.51-1.92,7.28-.02.38-.03.77-.03,1.17,0,.2,0,.4,0,.59.08,3.6.93,6.29,2.51,8.01,1.68,1.82,3.82,2.75,6.34,2.75,2.32,0,4.49-.99,6.45-2.93,1.91-1.9,3.58-4.6,4.96-8.03.64-1.58,1.19-3.31,1.67-5.16v-8.85c-2.45-1.4-4.96-2.1-7.46-2.1-2.63,0-5.07.62-7.26,1.86ZM125.69,82.68c-.39,1.75-.89,3.62-1.5,5.12-1.27,3.12-2.57,5.7-4.21,7.55-1.58,1.79-3.27,2.69-5,2.69-1.52,0-2.65-.94-3.47-2.88-.87-2.05-1.3-4.51-1.3-7.32,0-2.51.4-4.79,1.18-6.78.78-1.96,1.85-3.51,3.21-4.6,1.33-1.07,2.82-1.49,4.41-1.61.15-.01.31-.02.46-.02,4.09-.07,7.11,3.85,6.22,7.84Z"/>
      <path class="cls-3" d="M1.56,55.33c.11,0,.31-.02.5-.19.77-.43,1.9-.87,3.37-1.32,1.51-.45,3.01-.81,4.47-1.08h.03v-1.61h-.09c-1.23,0-2.05-.38-2.53-1.17-.51-.84-.77-2.17-.79-3.94v-.79c0-.7.09-1.56.25-2.57.19-1.2.49-2.62.89-4.24.76-3.04,1.9-5.81,3.41-8.22,1.45-2.32,3.17-3.44,5.26-3.44,1.92,0,3.42.71,4.57,2.16,1.17,1.47,1.76,4.15,1.76,7.94v7.83l-.06,10.22.17.17c.21.21.43.25.58.25.11,0,.31-.02.5-.19.77-.43,1.9-.87,3.37-1.32.91-.27,1.82-.51,2.73-.72-.44-.4-.81-.82-1.11-1.29,0,0,0,0,0,0,0,0-2.91-3.53-.51-8.62v-6.52c0-4.07-.66-7.25-1.97-9.46-1.36-2.3-3.88-3.47-7.48-3.47-4.39,0-7.69,2.16-9.8,6.41-.93,1.87-1.76,3.96-2.49,6.2h-.08v-7.93c0-2.58-2.1-4.68-4.68-4.68h-.99v22.14s-.06,9.01-.06,9.01l.17.17c.21.21.43.25.58.25Z"/>
      <path class="cls-3" d="M157.87,49.78v-2.54c-.49.87-1.09,1.61-1.71,2.22-1.95,1.93-4.57,3-7.31,3.13-2.13.1-3.93-.27-5.26-.7-.03,0-.05-.02-.08-.02-.02,0-.04-.01-.06-.02-1.24-.41-2.11-.89-2.4-1.1l16.79-18.08c-.52-1.51-1.71-3.59-3.67-5.34-2.45-2.19-5.52-3.35-8.88-3.35-4.16,0-8.34,1.66-11.47,4.56-3.24,3.01-5.03,6.95-5.03,11.11s1.79,8.1,5.03,11.11c3.12,2.9,7.3,4.56,11.47,4.56,5.08,0,9.5-2.01,12.55-5.56ZM135.06,38.7c0-7.95,3.96-13.09,10.09-13.09,4.62,0,7.65,3.37,7.65,7.83,0,3.31-6.32,9.17-10.82,13.88-.77.81-1.5,1.57-2.17,2.29-3.07-2.5-4.75-6.36-4.75-10.9Z"/>
      <path class="cls-3" d="M9.74,107.77c-.44,0-.79.35-.79.79s.35.79.79.79.79-.35.79-.79-.35-.79-.79-.79Z"/>
      <path class="cls-3" d="M4.63,108.93c-.03.12-.07.23-.13.34h3.86c-.05-.11-.1-.22-.13-.34h-3.61Z"/>
      <path class="cls-3" d="M8.21,108.77c0-.07-.01-.13-.01-.2,0-.05,0-.09,0-.14h-3.54s0,.09,0,.14c0,.07,0,.14-.01.2h3.55Z"/>
      <path class="cls-3" d="M9.19,107.12H3.68c.49.19.86.62.96,1.15h3.58c.1-.53.47-.96.96-1.15Z"/>
      <path class="cls-3" d="M7.73,110.09v-.52c0-.09-.08-.17-.17-.17s-.17.08-.17.17v.52c0,.09.08.17.17.17s.17-.08.17-.17Z"/>
      <path class="cls-3" d="M7.17,110.09v-.52c0-.09-.08-.17-.17-.17s-.17.08-.17.17v.52c0,.09.08.17.17.17s.17-.08.17-.17Z"/>
      <path class="cls-3" d="M4.34,110.09v-.52s0-.02,0-.03c-.1.12-.21.23-.34.31v.24c0,.09.08.17.17.17s.17-.08.17-.17Z"/>
      <path class="cls-3" d="M8.3,110.09v-.52c0-.09-.08-.17-.17-.17s-.17.08-.17.17v.52c0,.09.08.17.17.17s.17-.08.17-.17Z"/>
      <path class="cls-3" d="M6.04,110.09v-.52c0-.09-.08-.17-.17-.17s-.17.08-.17.17v.52c0,.09.08.17.17.17s.17-.08.17-.17Z"/>
      <path class="cls-3" d="M8.86,110.09v-.24c-.13-.09-.24-.19-.34-.31,0,.01,0,.02,0,.03v.52c0,.09.08.17.17.17s.17-.08.17-.17Z"/>
      <path class="cls-3" d="M4.91,110.09v-.52c0-.09-.08-.17-.17-.17s-.17.08-.17.17v.52c0,.09.08.17.17.17s.17-.08.17-.17Z"/>
      <path class="cls-3" d="M5.47,110.09v-.52c0-.09-.08-.17-.17-.17s-.17.08-.17.17v.52c0,.09.08.17.17.17s.17-.08.17-.17Z"/>
      <path class="cls-3" d="M6.6,110.09v-.52c0-.09-.08-.17-.17-.17s-.17.08-.17.17v.52c0,.09.08.17.17.17s.17-.08.17-.17Z"/>
      <path class="cls-3" d="M3.49,110.59c0,.11.09.21.21.21h5.43c.11,0,.21-.09.21-.21s-.09-.21-.21-.21H3.69c-.11,0-.21.09-.21.21Z"/>
      <path class="cls-3" d="M9.12,110.95H3.69c-.11,0-.21.09-.21.21s.09.21.21.21h5.43c.11,0,.21-.09.21-.21s-.09-.21-.21-.21Z"/>
      <path class="cls-3" d="M3.12,109.36c.44,0,.79-.35.79-.79s-.35-.79-.79-.79-.79.35-.79.79.35.79.79.79Z"/>
      <path class="cls-3" d="M1.92,109.22c.23.42.68.71,1.2.71.76,0,1.37-.61,1.37-1.37s-.61-1.37-1.37-1.37c-.49,0-.91.25-1.16.64H0v1.33h1.36c.19,0,.38.03.56.07ZM3.12,107.6c.53,0,.96.43.96.96s-.43.96-.96.96-.96-.43-.96-.96.43-.96.96-.96Z"/>
      <path class="cls-3" d="M156.98,108.7c0-.76-.61-1.37-1.37-1.37s-1.37.61-1.37,1.37.61,1.37,1.37,1.37,1.37-.61,1.37-1.37ZM154.65,108.7c0-.53.43-.96.96-.96s.96.43.96.96-.43.96-.96.96-.96-.43-.96-.96Z"/>
      <path class="cls-3" d="M156.4,108.7c0-.44-.35-.79-.79-.79s-.79.35-.79.79.35.79.79.79.79-.35.79-.79Z"/>
      <path class="cls-3" d="M154.11,109.06h-3.61c-.03.12-.07.23-.13.34h3.86c-.05-.11-.1-.22-.13-.34Z"/>
      <path class="cls-3" d="M154.08,108.9c0-.07-.01-.13-.01-.2,0-.05,0-.09,0-.14h-3.54s0,.09,0,.14c0,.07,0,.14-.01.2h3.55Z"/>
      <path class="cls-3" d="M155.05,107.25h-5.51c.49.19.86.62.96,1.15h3.58c.1-.53.47-.96.96-1.15Z"/>
      <path class="cls-3" d="M153.26,109.7v.52c0,.09.08.17.17.17s.17-.08.17-.17v-.52c0-.09-.08-.17-.17-.17s-.17.08-.17.17Z"/>
      <path class="cls-3" d="M152.7,109.7v.52c0,.09.08.17.17.17s.17-.08.17-.17v-.52c0-.09-.08-.17-.17-.17s-.17.08-.17.17Z"/>
      <path class="cls-3" d="M149.87,109.98v.24c0,.09.08.17.17.17s.17-.08.17-.17v-.52s0-.02,0-.03c-.1.12-.21.23-.34.31Z"/>
      <path class="cls-3" d="M153.83,109.7v.52c0,.09.08.17.17.17s.17-.08.17-.17v-.52c0-.09-.08-.17-.17-.17s-.17.08-.17.17Z"/>
      <path class="cls-3" d="M151.56,109.7v.52c0,.09.08.17.17.17s.17-.08.17-.17v-.52c0-.09-.08-.17-.17-.17s-.17.08-.17.17Z"/>
      <path class="cls-3" d="M154.73,110.22v-.24c-.13-.09-.24-.19-.34-.31,0,.01,0,.02,0,.03v.52c0,.09.08.17.17.17s.17-.08.17-.17Z"/>
      <path class="cls-3" d="M150.43,109.7v.52c0,.09.08.17.17.17s.17-.08.17-.17v-.52c0-.09-.08-.17-.17-.17s-.17.08-.17.17Z"/>
      <path class="cls-3" d="M151,109.7v.52c0,.09.08.17.17.17s.17-.08.17-.17v-.52c0-.09-.08-.17-.17-.17s-.17.08-.17.17Z"/>
      <path class="cls-3" d="M152.13,109.7v.52c0,.09.08.17.17.17s.17-.08.17-.17v-.52c0-.09-.08-.17-.17-.17s-.17.08-.17.17Z"/>
      <path class="cls-3" d="M154.99,110.52h-5.43c-.11,0-.21.09-.21.21s.09.21.21.21h5.43c.11,0,.21-.09.21-.21s-.09-.21-.21-.21Z"/>
      <path class="cls-3" d="M154.99,111.08h-5.43c-.11,0-.21.09-.21.21s.09.21.21.21h5.43c.11,0,.21-.09.21-.21s-.09-.21-.21-.21Z"/>
      <path class="cls-3" d="M147.62,108.7c0,.76.61,1.37,1.37,1.37s1.37-.61,1.37-1.37-.61-1.37-1.37-1.37-1.37.61-1.37,1.37ZM149.95,108.7c0,.53-.43.96-.96.96s-.96-.43-.96-.96.43-.96.96-.96.96.43.96.96Z"/>
      <path class="cls-3" d="M148.2,108.7c0,.44.35.79.79.79s.79-.35.79-.79-.35-.79-.79-.79-.79.35-.79.79Z"/>
      <path class="cls-3" d="M157.59,142.49h-.26c-1.31,0-2.38-1.06-2.38-2.37v-25.07h0v-2.7c0-.08.03-.15.08-.21v-.49h-5.49v.49c.05.06.08.13.08.21v27.79c-.01,1.18-.89,2.15-2.02,2.32l.25,1.36h10.85v-1.33h-1.1ZM150.55,142.56c0,.08-.06.14-.14.14s-.14-.06-.14-.14v-29.66c0-.08.06-.14.14-.14s.14.06.14.14v29.66ZM151.48,142.56c0,.08-.06.14-.14.14s-.14-.06-.14-.14v-29.66c0-.08.06-.14.14-.14s.14.06.14.14v29.66ZM152.42,142.56c0,.08-.06.14-.14.14s-.14-.06-.14-.14v-29.66c0-.08.06-.14.14-.14s.14.06.14.14v29.66ZM153.36,142.56c0,.08-.06.14-.14.14s-.14-.06-.14-.14v-29.66c0-.08.06-.14.14-.14s.14.06.14.14v29.66ZM154.29,142.56c0,.08-.06.14-.14.14s-.14-.06-.14-.14v-29.66c0-.08.06-.14.14-.14s.14.06.14.14v29.66Z"/>
      <path class="cls-3" d="M145.87,143.81h.08s-.05,0-.08,0h0Z"/>
      <path class="cls-3" d="M19.89,122.71c-.12.2-.63.7-2.88,1.16-1.76.36-3.45.54-5,.54h-2.93v-9.49h0v-2.7c0-.08.03-.15.08-.21v-.49H3.66v.49c.05.06.08.13.08.21v27.79c-.02,1.3-1.07,2.35-2.38,2.35H0v1.33h12.82v-1.33h-1.36c-1.31,0-2.38-1.06-2.38-2.37v-14.14h2.93c.73,0,1.56.18,2.48.54.92.36,1.67.8,2.23,1.32.43.4.62.74.54.96l-.69,2.03,1.25.78c.46-1.51,1.19-3.4,2.16-5.64.92-2.08,1.97-4.04,3.13-5.81l-1.2-.75-2.02,3.42ZM4.68,142.43c0,.08-.06.14-.14.14s-.14-.06-.14-.14v-29.66c0-.08.06-.14.14-.14s.14.06.14.14v29.66ZM5.61,142.43c0,.08-.06.14-.14.14s-.14-.06-.14-.14v-29.66c0-.08.06-.14.14-.14s.14.06.14.14v29.66ZM6.55,142.43c0,.08-.06.14-.14.14s-.14-.06-.14-.14v-29.66c0-.08.06-.14.14-.14s.14.06.14.14v29.66ZM7.49,142.43c0,.08-.06.14-.14.14s-.14-.06-.14-.14v-29.66c0-.08.06-.14.14-.14s.14.06.14.14v29.66ZM8.42,142.43c0,.08-.06.14-.14.14s-.14-.06-.14-.14v-29.66c0-.08.06-.14.14-.14s.14.06.14.14v29.66Z"/>
      <path class="cls-3" d="M28.29,114.6l-1.81-8.02c-.03-.32-.28-.54-.6-.54-.24,0-.45.12-.54.29-.9,1-2.78,1.5-5.58,1.5h-8.87c-.24-.38-.67-.64-1.16-.64-.76,0-1.37.61-1.37,1.37s.61,1.37,1.37,1.37c.5,0,.93-.26,1.17-.66h2.99c1.89,0,3.85.34,5.81,1.02,1.49.51,2.82,1.14,3.98,1.88h0s.03.02.09.06c.34.22.66.44.97.68.15.12.3.24.44.35.65.51,1.43,1.17,2.13,1.88.41.42,1.11.03.98-.54ZM9.74,109.53c-.53,0-.96-.43-.96-.96s.43-.96.96-.96.96.43.96.96-.43.96-.96.96Z"/>
      <path class="cls-4" d="M75.39,111.18c0,.91-.18,1.82-.58,2.64-.4.83-.89,1.56-1.47,2.18-.81.86-1.84,1.58-3.03,2.17-.37.17-1.21.5-2.34.71.34.44.59.92.76,1.43,0,0,0,0,0,0h3.25v16.83c0,4.31,1.66,6.7,4.94,7.11.1.01.2.02.3.03.03,0,.08,0,.13,0,.04,0,.08,0,.12,0,.06,0,.12,0,.18,0,1.99,0,3.74-1.07,4.7-2.66-.23.11-.48.19-.73.25-.28.06-.56.1-.86.1-.13,0-.26,0-.38-.02-1.44-.14-2.64-1.09-3.17-2.38-.18-.44-.28-.93-.28-1.43v-17.84h4.87c.14,0,.71.06,1.04.27,0,0,0,0,0,0,.41.21.74.55.98,1.02.49.96.73,2.4.73,4.27v7.1c0,3.57.58,6.36,1.72,8.29.72,1.22,1.81,2.07,3.26,2.56v-10.23c0-.25-.01-.51-.01-.77v-8.74s.01-7.1.01-7.1c-.06.04-.13.08-.2.12-.01,0-.03.02-.04.02-2.26,1.34-5.68,1.65-7.41,1.71-.11,0-.21.01-.32.01h0s-.28,0-.28,0h-4.31v-8.14h-1.58v.46Z"/>
      <path class="cls-5" d="M32.57,64.08c-.44,0-.79.35-.79.79s.35.79.79.79.79-.35.79-.79-.35-.79-.79-.79Z"/>
      <path class="cls-5" d="M27.46,65.24c-.03.12-.07.23-.13.34h3.86c-.05-.11-.1-.22-.13-.34h-3.61Z"/>
      <path class="cls-5" d="M31.04,65.08c0-.07-.01-.13-.01-.2,0-.05,0-.09,0-.14h-3.54s0,.09,0,.14c0,.07,0,.14-.01.2h3.55Z"/>
      <path class="cls-5" d="M27.47,64.58h3.58c.1-.53.47-.96.96-1.15h-5.51c.49.19.86.62.96,1.15Z"/>
      <path class="cls-5" d="M30.57,66.4v-.52c0-.09-.08-.17-.17-.17s-.17.08-.17.17v.52c0,.09.08.17.17.17s.17-.08.17-.17Z"/>
      <path class="cls-5" d="M30,66.4v-.52c0-.09-.08-.17-.17-.17s-.17.08-.17.17v.52c0,.09.08.17.17.17s.17-.08.17-.17Z"/>
      <path class="cls-5" d="M27.18,66.4v-.52s0-.02,0-.03c-.1.12-.21.23-.34.31v.24c0,.09.08.17.17.17s.17-.08.17-.17Z"/>
      <path class="cls-5" d="M31.13,66.4v-.52c0-.09-.08-.17-.17-.17s-.17.08-.17.17v.52c0,.09.08.17.17.17s.17-.08.17-.17Z"/>
      <path class="cls-5" d="M28.87,66.4v-.52c0-.09-.08-.17-.17-.17s-.17.08-.17.17v.52c0,.09.08.17.17.17s.17-.08.17-.17Z"/>
      <path class="cls-5" d="M31.7,66.4v-.24c-.13-.09-.24-.19-.34-.31,0,.01,0,.02,0,.03v.52c0,.09.08.17.17.17s.17-.08.17-.17Z"/>
      <path class="cls-5" d="M27.74,66.4v-.52c0-.09-.08-.17-.17-.17s-.17.08-.17.17v.52c0,.09.08.17.17.17s.17-.08.17-.17Z"/>
      <path class="cls-5" d="M28.31,66.4v-.52c0-.09-.08-.17-.17-.17s-.17.08-.17.17v.52c0,.09.08.17.17.17s.17-.08.17-.17Z"/>
      <path class="cls-5" d="M29.44,66.4v-.52c0-.09-.08-.17-.17-.17s-.17.08-.17.17v.52c0,.09.08.17.17.17s.17-.08.17-.17Z"/>
      <path class="cls-5" d="M26.32,66.9c0,.11.09.21.21.21h5.43c.11,0,.21-.09.21-.21s-.09-.21-.21-.21h-5.43c-.11,0-.21.09-.21.21Z"/>
      <path class="cls-5" d="M31.96,67.26h-5.43c-.11,0-.21.09-.21.21s.09.21.21.21h5.43c.11,0,.21-.09.21-.21s-.09-.21-.21-.21Z"/>
      <path class="cls-5" d="M25.96,66.24c.76,0,1.37-.61,1.37-1.37s-.61-1.37-1.37-1.37-1.37.61-1.37,1.37.61,1.37,1.37,1.37ZM25.96,63.91c.53,0,.96.43.96.96s-.43.96-.96.96-.96-.43-.96-.96.43-.96.96-.96Z"/>
      <path class="cls-5" d="M25.96,65.67c.44,0,.79-.35.79-.79s-.35-.79-.79-.79-.79.35-.79.79.35.79.79.79Z"/>
      <path class="cls-5" d="M51.55,80.82c-2.27-1.3-4.99-2.22-8.08-2.74,1.4-.4,2.62-.96,3.62-1.67,1.17-.83,1.96-1.78,2.36-2.85-1.23-2.32-2.13-4.83-2.79-7.34-.19-.11-.38-.22-.58-.32-2.33-1.16-5.71-1.74-10.05-1.74h-2.28c-.24-.39-.67-.65-1.17-.65-.76,0-1.37.61-1.37,1.37s.61,1.37,1.37,1.37c.49,0,.91-.26,1.16-.64h1.45c2.87,0,5.07.48,6.52,1.44,1.39.91,2.09,2.5,2.09,4.73,0,1.8-.4,3.23-1.19,4.25-.76.98-2.28,1.47-4.53,1.47h-6.16v-6.27h0v-2.7c0-.08.03-.15.08-.21v-.49h-5.49v.49c.05.06.08.13.08.21v27.79c-.02,1.3-1.07,2.35-2.38,2.35h-1.36v1.33h16.57c2.99,0,5.79-.4,8.31-1.19,2.56-.8,4.64-2.05,6.19-3.72,1.57-1.7,2.37-3.81,2.37-6.29,0-3.49-1.59-6.18-4.73-7.97ZM32.57,65.84c-.53,0-.96-.43-.96-.96s.43-.96.96-.96.96.43.96.96-.43.96-.96.96ZM27.51,98.74c0,.08-.06.14-.14.14s-.14-.06-.14-.14v-29.66c0-.08.06-.14.14-.14s.14.06.14.14v29.66ZM28.45,98.74c0,.08-.06.14-.14.14s-.14-.06-.14-.14v-29.66c0-.08.06-.14.14-.14s.14.06.14.14v29.66ZM29.38,98.74c0,.08-.06.14-.14.14s-.14-.06-.14-.14v-29.66c0-.08.06-.14.14-.14s.14.06.14.14v29.66ZM30.32,98.74c0,.08-.06.14-.14.14s-.14-.06-.14-.14v-29.66c0-.08.06-.14.14-.14s.14.06.14.14v29.66ZM31.26,98.74c0,.08-.06.14-.14.14s-.14-.06-.14-.14v-29.66c0-.08.06-.14.14-.14s.14.06.14.14v29.66ZM49.05,93.6c-.83,1.45-2.12,2.65-3.83,3.56-1.73.92-3.92,1.38-6.51,1.38h-5.17c-.94-.31-1.63-1.2-1.63-2.25v-17.31l6.16-.05c3.71,0,6.72.89,8.95,2.63,2.18,1.72,3.29,4.16,3.29,7.27,0,1.69-.42,3.29-1.25,4.75Z"/>
      <path class="cls-5" d="M147.59,142.46l-.41-2.26c-.03-.13-.06-.27-.08-.41l-.44-2.49h0s0,0,0,0l-2.04-11.48c-.62-3.44-1.8-5.79-3.51-6.99-.6-.42-1.26-.77-1.98-1.04-1.12-.42-2.33-.59-3.53-.59h-3.13s-5.6,0-5.6,0h0s-12.06,0-12.06,0c-.51,0-.91.41-.91.91,0,.42.29.8.7.89.18.04.35.08.53.13,1.47.37,2.76,1.09,3.86,2.14,1.05,1.01,1.59,2.42,1.59,4.19s-.52,3.63-1.56,5.53c-1.06,1.97-2.65,4.46-4.72,7.42l-.49.71-1.9-4.33c-1.06.84-3.89-.1-5.75-.86l.17.4c2.39,1.25,4.62,1.7,4.62,1.7-.73.93-2.69.08-4.24-.83l.3.68c1.29.94,2.58,1.78,2.58,1.78-.21.15-.83.28-1.62.44l2.48,5.71h1.89l1.99-2.9.99-1.44c2.19-3.15,3.86-5.8,4.98-7.89,1.15-2.14,1.73-4.18,1.73-6.08,0-1.58-.3-2.87-.9-3.82-.04-.07-.1-.14-.14-.21-1.71-2.35-3.36-2.93-3.36-2.93h9.25s1.35,0,1.35,0h5.77c1.2,0,2.32.59,3.33,1.77,1.05,1.22,1.83,2.97,2.3,5.2l.44,2.15c-6.07.65-10.66,1.87-13.64,3.62-3.17,1.86-4.77,4.21-4.77,6.97,0,1.81.72,3.31,2.15,4.45.6.48,1.3.85,2.07,1.13,1.01.36,2.16.55,3.44.55,1.06,0,2.1-.19,3.12-.55.92-.33,1.82-.79,2.69-1.41,1.81-1.28,3.33-3,4.5-5.12.67-1.21,1.18-2.47,1.51-3.78l1.12,6.23c.25,1.21.74,2.25,1.48,3.11,0,0,0,0,.01.01.53.62,1.33.94,2.14.96.03,0,.05,0,.08,0,0,0,0,0,0,0h1.89s-.25-1.36-.25-1.36ZM139.17,134.63c-.77,2.04-1.85,3.76-3.22,5.09-1.32,1.29-2.81,1.95-4.43,1.95s-2.73-.4-3.44-1.18c-.72-.8-1.09-1.96-1.09-3.45,0-1.76.92-3.44,2.74-4.99,1.79-1.53,5.32-2.53,10.5-2.97-.01,1.82-.37,3.68-1.07,5.55Z"/>
      <path class="cls-5" d="M98.63,119.14c.57.39,1.14,1.05,1.7,1.96.58.95,1.31,2.43,2.16,4.39l1.32,3.03.22.51c.22-.14.44-.29.67-.44.24-.16.49-.32.73-.47h0c.08-.08,1.56-1.35,2.42-2.53l-.22-.49c-.93-2.21-1.4-3.82-1.4-4.78,0-.63.19-1.04.59-1.29.46-.29,1.29-.46,2.39-.49.5,0,.73-.33.75-.64v-.06c-.02-.32-.25-.64-.75-.64-.38,0-.74,0-1.1,0,0,0,0,0,0,0h-11.34s-.17,0-.17,0h-3.76c-.37,0-.68.3-.68.68h0c0,.37.3.68.68.68h3.77c.8.04,1.47.24,2,.6Z"/>
      <path class="cls-5" d="M41.42,141.6s.05,0,.07-.01h0s-.05,0-.07.01Z"/>
      <g>
        <path class="cls-7" d="M64.32,78.56c-.85-2.86-2.34-5.53-4.37-7.72-.48-.52-.98-1.01-1.52-1.47-1.29-1.12-2.7-2.13-4.23-2.89-1.45-.61-2.94-1.12-4.45-1.54.6,4.1,2.23,8.01,4.35,11.55.22.36.44.72.67,1.08,2.22,2.49,5.04,4.34,8.47,5.02-.26-.89-.59-1.78-.95-2.61-1.56-3.6-4.12-6.79-7.46-8.9,2.43,1.14,4.57,2.9,6.26,5,1.91,2.4,3.33,5.17,4.05,8.17.02,0-.03-1.51-.04-1.59-.11-1.38-.38-2.75-.77-4.08Z"/>
        <path class="cls-7" d="M51.42,50.04c.28,1.38.85,2.57,1.69,3.55,0,0,0,0,.01.01.63.73,1.58,1.1,2.54,1.1h2.16l-.75-4.13c-.03-.15-.07-.3-.1-.47l-.51-2.85h0s0,0,0,0l-2.33-13.12c-.71-3.92-2.06-6.61-4.01-7.98-.69-.48-1.44-.88-2.26-1.18-1.28-.48-2.66-.67-4.03-.68h-3.58s-6.41,0-6.41,0v1.54h8.13c1.37,0,2.65.68,3.8,2.02,1.2,1.4,2.08,3.4,2.63,5.94l.5,2.45c-6.94.74-12.18,2.13-15.58,4.13-3.62,2.13-5.45,4.81-5.45,7.97,0,1.31.33,2.48.99,3.49.3.46.67.89,1.11,1.29.11.1.23.21.36.31.69.55,1.48.98,2.37,1.29,1.15.41,2.46.62,3.93.62,1.21,0,2.4-.21,3.56-.62,1.05-.37,2.08-.91,3.07-1.61,2.07-1.46,3.8-3.43,5.14-5.84.77-1.38,1.35-2.83,1.73-4.32l1.28,7.11ZM47.92,44.22c-.87,2.33-2.11,4.29-3.67,5.82-1.51,1.48-3.21,2.22-5.06,2.22s-3.11-.45-3.93-1.35c-.27-.3-.49-.64-.68-1.02,1.77-.1,3.49-.73,4.97-1.68,3.01-1.92,5.32-4.75,7.13-7.76-1.73,2.12-3.78,4.04-6.1,5.46-1.45.89-3.14,1.6-4.84,1.71,0,0-.01,0-.02,0-.12,0-.24.01-.36.01-1.33-.02-1.34-1.13-1.27-1.66.29-1.65,1.31-3.23,3.04-4.71,2.04-1.75,6.08-2.89,12-3.4-.01,2.08-.42,4.21-1.22,6.34Z"/>
        <path class="cls-7" d="M89.53,109.52c-.68-.66-1.53-.99-2.52-.99s-1.84.35-2.51,1.04c-.66.68-.99,1.51-.99,2.47s.35,1.84,1.04,2.51c.19.18.38.33.59.46.55.35,1.18.53,1.88.53.42,0,.8-.05,1.16-.15.56-.16,1.04-.44,1.44-.85.64-.66.97-1.5.97-2.5s-.35-1.84-1.04-2.51Z"/>
      </g>
      <g>
        <path class="cls-3" d="M30.75,183.8c.44.35.66.82.66,1.42,0,.65-.21,1.16-.63,1.54-.42.38-1.05.57-1.91.57-.19,0-.38,0-.59-.03v.51c0,.68.01,1.14.03,1.36.02.22.07.46.15.72h-1.89c.08-.25.14-.49.15-.7.02-.21.03-.67.03-1.37v-1.42c0-.85,0-1.45,0-1.8,0-.35-.02-.6-.05-.75-.02-.15-.06-.3-.12-.46.67-.07,1.38-.1,2.14-.1.91,0,1.59.17,2.03.52ZM28.29,187.17c.54-.1.93-.3,1.18-.61.24-.31.36-.67.36-1.06,0-.32-.08-.57-.25-.76-.17-.19-.41-.28-.74-.28-.22,0-.39.02-.5.05-.02.16-.03.34-.04.55,0,.2,0,.66,0,1.37v.75Z"/>
        <path class="cls-3" d="M36.64,187.86c.3.44.58.84.82,1.19.25.35.46.63.64.83h-1.78c-.24-.32-.62-.92-1.14-1.79l-.87-1.33c.44-.02.77-.12,1-.3.23-.18.35-.51.35-.98,0-.32-.08-.57-.25-.75-.17-.18-.42-.27-.77-.27-.18,0-.34.02-.47.05-.03.22-.05.86-.05,1.92v1.4c0,.7,0,1.16.03,1.37.02.21.07.45.15.7h-1.89c.08-.25.14-.49.15-.7.02-.21.03-.67.03-1.37v-1.42c0-.85,0-1.45-.01-1.8,0-.35-.03-.6-.05-.75-.02-.15-.07-.3-.13-.46.66-.08,1.35-.12,2.07-.12.95,0,1.65.17,2.09.51.44.34.67.79.67,1.35,0,.43-.12.78-.36,1.06-.24.28-.57.49-.97.62l.74,1.05Z"/>
        <path class="cls-3" d="M41.77,188.71c.44,0,.75-.01.93-.05s.35-.08.5-.15l-.39,1.44c-.16-.02-.31-.04-.45-.05-.14,0-.35-.01-.6-.01h-2.81c.07-.14.11-.28.14-.4.02-.12.04-.3.05-.52,0-.22,0-.61,0-1.15v-2.34c0-.55,0-.93,0-1.16,0-.23-.02-.4-.05-.52-.02-.12-.07-.26-.13-.4h2.59c.27,0,.49,0,.64,0,.16,0,.31-.02.46-.05l.42,1.4c-.16-.06-.32-.1-.5-.12-.17-.02-.49-.03-.96-.03h-.92c-.02.34-.03.78-.03,1.32h.91c.31,0,.57-.02.78-.05l.19,1.31c-.1-.03-.21-.05-.35-.07-.14-.01-.36-.02-.66-.02h-.87c0,.83,0,1.38.02,1.65h1.09Z"/>
        <path class="cls-3" d="M44.17,189.7l-.17-1.6c.19.18.45.34.78.48.34.14.69.21,1.07.21.31,0,.54-.06.71-.17.17-.11.25-.27.25-.46,0-.22-.08-.41-.25-.56-.17-.15-.43-.3-.79-.44-.66-.26-1.11-.55-1.35-.88-.24-.33-.36-.73-.36-1.2,0-.32.07-.61.22-.88.14-.27.38-.49.7-.65.32-.17.73-.25,1.24-.25.56,0,1.09.1,1.59.3l.18,1.52c-.27-.19-.53-.33-.78-.44-.25-.11-.54-.16-.87-.16-.49,0-.73.17-.73.52,0,.15.07.28.21.4.14.12.39.25.77.4.46.18.81.37,1.07.57.26.2.44.42.55.68.11.25.17.56.17.91,0,.4-.1.75-.29,1.05-.19.31-.47.54-.83.71-.36.17-.79.25-1.28.25-.72,0-1.32-.1-1.8-.3Z"/>
        <path class="cls-3" d="M52.39,188.71c.44,0,.75-.01.93-.05s.35-.08.5-.15l-.39,1.44c-.16-.02-.31-.04-.45-.05-.14,0-.35-.01-.6-.01h-2.81c.07-.14.11-.28.14-.4.02-.12.04-.3.05-.52,0-.22,0-.61,0-1.15v-2.34c0-.55,0-.93,0-1.16,0-.23-.02-.4-.05-.52-.02-.12-.07-.26-.13-.4h2.59c.27,0,.49,0,.64,0,.16,0,.31-.02.46-.05l.42,1.4c-.16-.06-.32-.1-.5-.12-.17-.02-.49-.03-.96-.03h-.92c-.02.34-.03.78-.03,1.32h.91c.31,0,.57-.02.78-.05l.19,1.31c-.1-.03-.21-.05-.35-.07-.14-.01-.36-.02-.66-.02h-.87c0,.83,0,1.38.02,1.65h1.09Z"/>
        <path class="cls-3" d="M59.11,187.86c.3.44.58.84.82,1.19.25.35.46.63.64.83h-1.78c-.24-.32-.62-.92-1.14-1.79l-.87-1.33c.44-.02.77-.12,1-.3.23-.18.35-.51.35-.98,0-.32-.08-.57-.25-.75-.17-.18-.42-.27-.77-.27-.18,0-.34.02-.47.05-.03.22-.05.86-.05,1.92v1.4c0,.7,0,1.16.03,1.37.02.21.07.45.15.7h-1.89c.08-.25.14-.49.15-.7.02-.21.03-.67.03-1.37v-1.42c0-.85,0-1.45-.01-1.8,0-.35-.03-.6-.05-.75-.02-.15-.07-.3-.13-.46.66-.08,1.35-.12,2.07-.12.95,0,1.65.17,2.09.51.44.34.67.79.67,1.35,0,.43-.12.78-.36,1.06-.24.28-.57.49-.97.62l.74,1.05Z"/>
        <path class="cls-3" d="M66.94,183.39c-.16.23-.31.56-.46.97l-1.19,3.42-.27.77c-.12.32-.21.58-.28.78-.07.2-.12.39-.16.55h-1.66c-.05-.19-.12-.44-.23-.75-.11-.32-.26-.76-.47-1.35l-1.15-3.34c-.16-.45-.32-.8-.5-1.05h2.02c-.04.1-.05.22-.05.36,0,.26.06.57.18.94l.61,1.88c.14.45.25.8.32,1.04.07.24.13.51.18.82.05-.32.11-.62.18-.88.07-.26.17-.58.29-.95l.62-1.91c.12-.37.18-.68.18-.96,0-.12-.02-.23-.05-.34h1.88Z"/>
        <path class="cls-3" d="M68.02,185.46c0-.7,0-1.15-.03-1.37-.02-.21-.07-.45-.14-.71h1.89c-.06.19-.1.34-.13.47-.02.13-.04.31-.05.53,0,.23-.01.58-.01,1.07v2.36c0,.68.01,1.14.03,1.36.02.22.07.46.15.72h-1.89c.08-.25.14-.49.15-.7.02-.21.03-.67.03-1.37v-2.36Z"/>
        <path class="cls-3" d="M72.78,187.94c0,.47,0,.82.01,1.04,0,.22.03.39.05.51.02.12.07.26.13.41h-1.71c.06-.15.1-.28.12-.4.02-.12.04-.28.05-.5,0-.22.01-.57.01-1.05v-1.62c0-1,0-1.69-.02-2.05-.02-.36-.06-.65-.13-.87h2.07l2.56,4.33h0v-2.38c0-.49,0-.84-.01-1.05,0-.22-.02-.38-.05-.5-.02-.12-.06-.25-.12-.4h1.7c-.06.15-.1.28-.12.4-.02.12-.04.28-.05.5,0,.22-.01.57-.01,1.05v1.6c0,.99,0,1.67.03,2.07.02.39.06.68.14.87h-1.69l-2.95-4.79h0v2.83Z"/>
        <path class="cls-3" d="M80.28,189.56c-.49-.29-.87-.69-1.14-1.2-.27-.51-.4-1.08-.4-1.73s.14-1.21.41-1.72c.28-.51.67-.91,1.17-1.2.5-.29,1.08-.44,1.74-.44s1.23.1,1.67.31l.25,1.57c-.27-.17-.55-.32-.83-.43-.29-.11-.62-.17-1-.17s-.7.09-.97.27c-.27.18-.48.43-.62.75-.14.32-.21.67-.21,1.05,0,.62.16,1.12.47,1.51.31.39.77.59,1.36.59.19,0,.37-.02.55-.05s.34-.09.48-.16v-1.22h-.59c-.25,0-.43,0-.54,0-.11,0-.22.02-.32.05l.32-1.16c.16.03.46.05.89.05h1.59c-.02.06-.03.2-.04.42,0,.22,0,.59,0,1.12,0,.49,0,.84,0,1.05,0,.2.02.34.04.4-.37.25-.75.44-1.14.57-.4.14-.88.2-1.44.2-.64,0-1.21-.15-1.7-.44Z"/>
        <path class="cls-4" d="M94.11,188.08c0,.65,0,1.08.03,1.28.02.2.06.37.13.54h-1.46c.05-.11.08-.22.1-.32.02-.1.04-.26.05-.47,0-.21.01-.55.01-1.01v-1.09h-3.15v1.09c0,.65,0,1.08.03,1.28.02.2.06.37.13.54h-1.46c.05-.11.08-.22.1-.32.02-.1.04-.26.05-.47,0-.21.01-.55.01-1.01v-2.88c0-.65,0-1.08-.03-1.28-.02-.2-.06-.37-.13-.54h1.46c-.05.11-.08.22-.1.32-.02.1-.04.26-.05.47,0,.21-.01.55-.01,1.01v.8h3.15v-.8c0-.65,0-1.08-.03-1.28-.02-.2-.06-.37-.13-.54h1.46c-.05.11-.08.22-.1.32-.02.1-.04.26-.05.47,0,.21-.01.55-.01,1.01v2.88Z"/>
        <path class="cls-4" d="M98.61,188.93c.44,0,.75-.02.92-.05.17-.03.33-.08.46-.15l-.36,1.24c-.14-.04-.28-.06-.41-.07-.14,0-.34-.01-.6-.01h-2.69c.05-.11.09-.22.11-.33.02-.11.04-.26.05-.48s.01-.55.01-1v-2.86c0-.47,0-.81-.01-1.03,0-.22-.02-.38-.05-.48-.02-.1-.06-.21-.1-.32h2.35c.26,0,.48,0,.65-.01.17,0,.32-.03.46-.07l.35,1.16c-.1-.05-.23-.09-.38-.1-.15-.01-.48-.02-.99-.02h-1.11c-.02.26-.03.82-.03,1.68h1.15c.37,0,.64-.01.83-.05l.13,1.1c-.09-.04-.2-.06-.32-.08-.13-.02-.32-.03-.59-.03h-1.2v.07c0,.97,0,1.6.02,1.87h1.34Z"/>
        <path class="cls-4" d="M105.02,188.18c.07.09.12.17.18.24.05.07.09.13.13.18.47.65.8,1.09.98,1.3h-1.39c-.13-.16-.41-.56-.84-1.18l-.19-.27-1.2-1.74h.04c.52.02.92-.07,1.21-.26s.43-.56.43-1.09c0-.35-.11-.62-.32-.82-.22-.2-.53-.29-.94-.29-.26,0-.47.01-.62.05-.03.24-.05.93-.05,2.08v1.71c0,.65,0,1.08.03,1.28.02.2.06.37.13.54h-1.46c.05-.11.08-.22.1-.32.02-.1.04-.26.05-.47,0-.21.01-.55.01-1.01v-1.73c0-.85,0-1.45-.01-1.82,0-.37-.02-.62-.05-.76-.02-.14-.06-.27-.1-.39.59-.08,1.21-.12,1.86-.12.58,0,1.07.08,1.45.24s.67.37.85.64c.18.27.27.56.27.89,0,.49-.14.88-.42,1.16-.28.28-.66.47-1.14.58l1.03,1.41Z"/>
        <path class="cls-4" d="M107.4,185.2c0-.65,0-1.08-.03-1.28-.02-.2-.06-.37-.13-.54h1.46c-.05.11-.08.22-.1.32-.02.1-.04.26-.05.47,0,.21-.01.55-.01,1.01v2.88c0,.65,0,1.08.03,1.28.02.2.06.37.13.54h-1.46c.05-.11.08-.22.1-.32.02-.1.04-.26.05-.47,0-.21.01-.55.01-1.01v-2.88Z"/>
        <path class="cls-4" d="M112.63,184.36v3.72c0,.65,0,1.08.03,1.28.02.2.06.37.13.54h-1.46c.05-.11.08-.22.1-.32.02-.1.04-.26.05-.47,0-.21.01-.55.01-1.01v-3.72h-.19c-.56,0-.94,0-1.12.02-.18.01-.32.05-.43.1l.17-1.16c.2.05.53.08,1,.08h2.28c.47,0,.8-.03,1-.08l.17,1.16c-.11-.05-.25-.09-.43-.1-.18-.01-.55-.02-1.12-.02h-.19Z"/>
        <path class="cls-4" d="M119,189.89c.02-.07.04-.16.04-.27,0-.25-.08-.61-.24-1.06l-.18-.51h-2.25l-.18.51c-.17.5-.25.86-.25,1.09,0,.1.01.18.04.24h-1.51c.12-.16.26-.44.41-.84l1.16-3.18c.14-.4.27-.75.39-1.05.12-.3.19-.5.23-.59.14-.37.23-.62.25-.74l1.27-.18c.02.15.06.31.12.48.06.17.18.51.36,1.03l.39,1.06,1.13,3.13c.15.41.29.71.43.89h-1.6ZM116.66,187.17h1.64l-.17-.49c-.21-.6-.36-1.04-.44-1.32-.08-.28-.16-.61-.23-.98-.07.4-.14.75-.23,1.04-.08.29-.22.7-.4,1.21l-.18.53Z"/>
        <path class="cls-4" d="M122.52,189.57c-.48-.29-.84-.69-1.09-1.2-.25-.51-.38-1.09-.38-1.73s.13-1.21.39-1.72c.26-.51.63-.91,1.12-1.2.49-.29,1.06-.43,1.71-.43s1.23.1,1.67.31l.21,1.26c-.27-.17-.55-.31-.84-.42-.29-.11-.64-.16-1.06-.16s-.76.11-1.07.33c-.3.22-.53.52-.69.88-.16.36-.23.75-.23,1.16,0,.43.08.83.23,1.19.16.36.39.65.71.87.32.22.7.32,1.16.32.24,0,.47-.03.7-.08.23-.05.42-.12.57-.22v-1.5h-.59c-.29,0-.51,0-.64.01-.13,0-.23.03-.29.06l.2-.99c.08.01.19.02.33.02.14,0,.33,0,.56,0h1.47c-.02.06-.03.2-.04.42,0,.22,0,.6,0,1.13,0,.44,0,.75,0,.93,0,.18.01.3.03.37-.35.26-.72.47-1.1.6-.38.14-.83.21-1.34.21-.65,0-1.21-.14-1.69-.43Z"/>
        <path class="cls-4" d="M130.72,188.93c.44,0,.75-.02.92-.05.17-.03.33-.08.46-.15l-.36,1.24c-.14-.04-.28-.06-.41-.07-.14,0-.34-.01-.6-.01h-2.69c.05-.11.09-.22.11-.33.02-.11.04-.26.05-.48,0-.21.01-.55.01-1v-2.86c0-.47,0-.81-.01-1.03,0-.22-.02-.38-.05-.48-.02-.1-.06-.21-.1-.32h2.35c.26,0,.48,0,.65-.01.17,0,.32-.03.46-.07l.35,1.16c-.1-.05-.23-.09-.38-.1-.15-.01-.48-.02-.99-.02h-1.11c-.02.26-.03.82-.03,1.68h1.15c.37,0,.64-.01.83-.05l.13,1.1c-.09-.04-.2-.06-.32-.08-.13-.02-.32-.03-.59-.03h-1.2v.07c0,.97,0,1.6.02,1.87h1.34Z"/>
      </g>
      <g>
        <path class="cls-4" d="M28.13,178.97c-.5-.3-.88-.71-1.15-1.24-.27-.53-.4-1.13-.4-1.79s.14-1.3.41-1.83c.27-.53.66-.95,1.17-1.25.51-.3,1.11-.45,1.81-.45.58,0,1.11.1,1.6.31l.23,1.33c-.21-.14-.38-.24-.52-.32-.14-.08-.32-.14-.55-.2-.22-.06-.48-.09-.78-.09-.41,0-.77.1-1.09.31-.32.21-.57.5-.75.87-.18.37-.27.8-.27,1.29,0,.46.08.87.24,1.25.16.37.41.67.73.89.33.22.72.33,1.17.33.74,0,1.38-.2,1.91-.61l-.23,1.33c-.26.11-.51.18-.75.23-.24.05-.59.08-1.05.08-.66,0-1.24-.15-1.73-.45Z"/>
        <path class="cls-4" d="M34.34,178.92c-.5-.33-.89-.76-1.16-1.3-.27-.54-.4-1.12-.4-1.75s.13-1.21.4-1.74c.27-.53.65-.95,1.16-1.26.5-.31,1.09-.47,1.77-.47s1.27.15,1.78.47c.5.31.88.73,1.15,1.26.26.53.39,1.11.39,1.74s-.13,1.21-.4,1.75c-.27.54-.65.97-1.15,1.3-.5.33-1.09.49-1.77.49s-1.27-.16-1.77-.49ZM37.17,178.06c.31-.21.55-.51.72-.89.17-.38.26-.81.26-1.3s-.09-.89-.26-1.25c-.17-.37-.41-.65-.72-.86s-.67-.31-1.07-.31-.76.1-1.07.31-.55.49-.73.86c-.18.37-.26.78-.26,1.25s.09.92.26,1.3c.18.38.42.68.73.89.31.21.67.32,1.07.32s.76-.11,1.07-.32Z"/>
        <path class="cls-4" d="M42.21,177.49c0,.65,0,1.07.03,1.27.02.2.07.38.14.55h-1.44c.08-.16.12-.34.14-.55.02-.2.03-.62.03-1.27v-1.97c0-1.09,0-1.82-.03-2.18-.02-.36-.08-.63-.17-.81h1.8l3.05,5.04h0v-3.22c0-.65,0-1.07-.03-1.27-.02-.2-.07-.38-.14-.55h1.44c-.08.16-.12.34-.14.55-.02.2-.03.62-.03,1.27v1.95c0,1.03.01,1.74.03,2.13.02.39.08.68.16.87h-1.49l-3.36-5.36h0v3.54Z"/>
        <path class="cls-4" d="M49.39,179.32c-.3-.06-.55-.14-.75-.23l-.16-1.4c.27.21.55.37.84.5.29.13.64.19,1.04.19s.68-.08.89-.24c.2-.16.31-.37.31-.63,0-.31-.1-.56-.31-.76-.21-.2-.55-.39-1.04-.57-.43-.16-.77-.34-1-.55-.23-.2-.4-.42-.48-.66-.09-.24-.13-.52-.13-.85,0-.29.08-.57.23-.84.15-.26.38-.48.7-.64.32-.16.72-.24,1.2-.24.3,0,.59.03.87.08.28.06.52.13.71.23l.16,1.33c-.2-.14-.37-.24-.5-.31-.13-.07-.31-.14-.51-.2-.21-.06-.44-.09-.7-.09-.32,0-.56.06-.72.17-.16.12-.24.3-.24.55,0,.2.08.38.25.54.17.16.45.31.84.45.66.23,1.15.52,1.44.86.3.34.45.81.45,1.4,0,.38-.09.72-.27,1.02-.18.3-.45.54-.81.72-.36.18-.79.26-1.29.26-.35,0-.68-.03-.98-.09Z"/>
        <path class="cls-4" d="M56.91,178.3c.46,0,.78-.02.96-.05.18-.03.34-.09.48-.16l-.38,1.3c-.14-.04-.29-.06-.43-.07-.14,0-.35-.01-.63-.01h-2.8c.06-.12.1-.23.12-.34.02-.11.04-.28.05-.5,0-.22.01-.57.01-1.05v-2.98c0-.49,0-.85-.01-1.07,0-.23-.03-.39-.05-.5-.02-.11-.06-.22-.11-.34h2.45c.28,0,.5,0,.68-.01.18,0,.34-.03.47-.07l.37,1.21c-.11-.06-.24-.09-.39-.1-.16-.01-.5-.02-1.03-.02h-1.16c-.02.28-.03.86-.03,1.75h1.2c.38,0,.67-.02.86-.05l.13,1.15c-.09-.04-.21-.07-.34-.08-.13-.02-.34-.03-.61-.03h-1.25v.08c0,1.01,0,1.67.02,1.95h1.4Z"/>
        <path class="cls-4" d="M63.59,177.52c.07.09.13.18.18.25.05.07.1.13.14.18.49.68.83,1.13,1.02,1.35h-1.45c-.14-.17-.43-.58-.87-1.23l-.2-.28-1.25-1.81h.04c.54.02.96-.07,1.26-.27.3-.2.45-.58.45-1.14,0-.36-.11-.65-.34-.85-.23-.2-.55-.31-.98-.31-.27,0-.49.02-.65.05-.03.25-.05.97-.05,2.17v1.79c0,.68,0,1.13.03,1.33.02.2.06.39.13.56h-1.52c.05-.12.09-.23.11-.34.02-.11.04-.27.05-.49,0-.22.01-.57.01-1.06v-1.8c0-.88,0-1.52-.01-1.9,0-.38-.03-.65-.05-.79-.02-.14-.06-.28-.11-.4.61-.08,1.26-.12,1.94-.12.61,0,1.11.08,1.51.25.4.17.7.39.88.67.19.28.28.59.28.93,0,.51-.15.92-.44,1.21-.29.29-.69.5-1.19.6l1.07,1.47Z"/>
        <path class="cls-4" d="M71.42,172.52c-.14.18-.28.47-.42.87l-1.18,3.32c-.26.73-.43,1.17-.49,1.34-.13.36-.22.61-.27.76-.05.15-.09.31-.13.48h-1.33c-.02-.13-.06-.27-.11-.43-.06-.16-.13-.37-.23-.63l-.55-1.52-1.16-3.26c-.15-.42-.3-.73-.45-.93h1.66c-.03.09-.05.19-.05.29,0,.23.08.59.25,1.1l.67,1.95.07.19c.19.58.33,1.01.41,1.27.08.26.15.57.2.93.06-.4.14-.75.22-1.06s.22-.73.41-1.28l.68-2c.17-.51.25-.89.25-1.13,0-.11-.01-.19-.04-.26h1.58Z"/>
        <path class="cls-4" d="M72.67,174.4c0-.68,0-1.13-.03-1.33-.02-.2-.06-.39-.13-.56h1.52c-.05.12-.09.23-.11.34-.02.11-.04.27-.05.49,0,.22-.01.57-.01,1.06v3.01c0,.68,0,1.13.03,1.33.02.2.06.39.13.56h-1.52c.05-.12.09-.23.11-.34.02-.11.04-.27.05-.49,0-.22.01-.57.01-1.06v-3.01Z"/>
        <path class="cls-4" d="M77.06,177.49c0,.65,0,1.07.03,1.27.02.2.07.38.14.55h-1.44c.08-.16.12-.34.14-.55.02-.2.03-.62.03-1.27v-1.97c0-1.09,0-1.82-.03-2.18-.02-.36-.08-.63-.17-.81h1.8l3.05,5.04h0v-3.22c0-.65,0-1.07-.03-1.27-.02-.2-.07-.38-.14-.55h1.44c-.08.16-.12.34-.14.55-.02.2-.03.62-.03,1.27v1.95c0,1.03.01,1.74.03,2.13.02.39.08.68.16.87h-1.49l-3.36-5.36h0v3.54Z"/>
        <path class="cls-4" d="M84.94,178.96c-.5-.3-.88-.72-1.14-1.25-.26-.53-.39-1.13-.39-1.8s.13-1.26.4-1.8c.27-.53.66-.95,1.17-1.25.51-.3,1.1-.45,1.79-.45s1.28.11,1.74.32l.22,1.32c-.28-.18-.57-.33-.88-.44-.3-.11-.67-.16-1.1-.16s-.8.12-1.11.35c-.32.23-.56.54-.72.92-.16.38-.24.78-.24,1.21,0,.45.08.86.24,1.24.16.38.41.68.74.9.33.23.73.34,1.21.34.25,0,.49-.03.73-.08.24-.05.44-.13.59-.23v-1.56h-.61c-.31,0-.53,0-.66.01-.13,0-.24.03-.31.06l.21-1.03c.08.01.2.02.34.02.15,0,.34,0,.59,0h1.53c-.02.06-.03.21-.04.44,0,.23,0,.62,0,1.17,0,.46,0,.78,0,.97,0,.19.02.32.03.39-.37.28-.75.49-1.15.63-.4.14-.86.22-1.4.22-.68,0-1.26-.15-1.76-.45Z"/>
        <path class="cls-3" d="M94.97,177.26c0,.5,0,.86.01,1.09,0,.23.03.41.05.53.03.13.07.27.13.42h-1.79c.06-.16.1-.3.13-.42.02-.12.04-.3.05-.52,0-.23.01-.59.01-1.1v-1.69c0-1.05,0-1.76-.02-2.13-.02-.38-.06-.68-.14-.91h2.16l2.67,4.52h0v-2.48c0-.51,0-.87-.01-1.1,0-.23-.03-.4-.05-.52-.02-.12-.06-.26-.13-.42h1.78c-.06.16-.11.3-.13.42-.02.12-.04.3-.05.52,0,.23-.01.59-.01,1.1v1.67c0,1.03,0,1.75.03,2.16.02.41.07.71.14.91h-1.77l-3.07-4.99h0v2.95Z"/>
        <path class="cls-3" d="M105.33,179.3c.04-.11.06-.23.06-.37,0-.26-.07-.59-.2-.99l-.08-.23h-2.19l-.08.23c-.13.41-.2.75-.2,1.02,0,.12.02.23.05.34h-1.92c.15-.23.31-.56.48-1.01l1.26-3.57c.13-.37.32-.87.55-1.5.11-.3.18-.5.21-.59l1.72-.19c.05.22.12.47.21.75.09.28.27.79.53,1.54l1.22,3.49c.16.46.33.83.52,1.1h-2.15ZM103.3,176.59h1.44l-.2-.61c-.16-.47-.27-.83-.34-1.09-.07-.26-.14-.56-.19-.91-.06.37-.12.69-.19.95s-.17.6-.31,1.02l-.21.64Z"/>
        <path class="cls-3" d="M110.81,173.76v3.38c0,.73,0,1.2.03,1.43.02.23.07.47.15.73h-1.97c.06-.19.11-.35.13-.48.03-.13.04-.32.05-.55,0-.23.01-.61.01-1.13v-3.38h-.17c-.51,0-.87,0-1.07.03-.2.02-.37.06-.51.13l.21-1.46c.15.03.32.05.52.06.19,0,.39,0,.57,0h2.49c.19,0,.38,0,.57,0,.19,0,.37-.02.52-.06l.21,1.46c-.14-.07-.31-.11-.51-.13-.2-.02-.55-.03-1.07-.03h-.16Z"/>
        <path class="cls-3" d="M114.31,178.64c-.51-.51-.77-1.23-.77-2.16v-1.8c0-.73,0-1.2-.03-1.42-.02-.22-.07-.47-.15-.74h1.96c-.09.27-.14.52-.16.74-.02.22-.03.7-.03,1.42v1.63c0,.56.13,1,.38,1.3.25.3.58.46,1,.46.46,0,.79-.15,1.01-.45.22-.3.32-.75.32-1.35v-1.7c0-.51,0-.87-.01-1.1,0-.23-.03-.4-.05-.53-.02-.13-.06-.27-.13-.42h1.81c-.06.16-.11.3-.13.42-.02.13-.04.3-.05.53,0,.23-.01.59-.01,1.1v2.01c0,.89-.24,1.59-.73,2.09-.49.5-1.18.75-2.08.75s-1.65-.26-2.16-.77Z"/>
        <path class="cls-3" d="M125.28,177.19c.31.46.6.88.86,1.25.26.37.48.66.66.87h-1.86c-.25-.33-.65-.96-1.19-1.87l-.9-1.39c.46-.02.81-.12,1.05-.31.24-.19.36-.53.36-1.02,0-.33-.09-.59-.26-.78-.18-.19-.44-.29-.8-.29-.19,0-.35.02-.49.05-.03.23-.05.9-.05,2v1.46c0,.73,0,1.21.03,1.43.02.22.07.47.16.73h-1.97c.09-.26.14-.51.16-.73.02-.22.03-.7.03-1.43v-1.48c0-.89,0-1.52-.01-1.88,0-.36-.03-.62-.05-.78-.03-.16-.07-.32-.13-.48.69-.08,1.41-.12,2.16-.12.99,0,1.72.18,2.18.54.46.36.7.83.7,1.41,0,.45-.13.81-.38,1.11-.25.29-.59.51-1.01.65l.77,1.09Z"/>
        <path class="cls-3" d="M130.63,178.07c.46,0,.78-.02.97-.05.19-.03.36-.08.52-.16l-.4,1.5c-.16-.03-.32-.04-.47-.05-.15,0-.36-.01-.63-.01h-2.93c.07-.15.12-.29.14-.42.02-.13.04-.31.05-.54s0-.63,0-1.2v-2.44c0-.57,0-.97,0-1.21s-.02-.42-.05-.55c-.03-.13-.07-.27-.13-.42h2.7c.28,0,.51,0,.67,0,.17,0,.32-.02.47-.06l.44,1.46c-.16-.06-.34-.1-.52-.13-.18-.02-.51-.03-1-.03h-.96c-.02.36-.03.82-.03,1.38h.95c.33,0,.6-.02.82-.06l.2,1.36c-.1-.03-.22-.05-.36-.07-.14-.02-.37-.02-.69-.02h-.91c0,.86,0,1.44.02,1.72h1.14Z"/>
      </g>
      <g>
        <path class="cls-3" d="M28.54,9c-.56-.3-.99-.74-1.29-1.31-.3-.57-.46-1.26-.46-2.06v-2.92c0-.92-.01-1.52-.04-1.79-.03-.27-.08-.52-.18-.75h2.05c-.07.16-.12.31-.15.46-.03.14-.05.36-.06.66-.01.3-.02.77-.02,1.42v2.61c0,.83.19,1.48.57,1.96.38.48.89.72,1.53.72.71,0,1.24-.23,1.59-.7.35-.47.52-1.13.52-1.98v-2.71c0-.87-.01-1.44-.04-1.71-.03-.27-.09-.51-.19-.73h1.93c-.1.22-.16.46-.19.73-.03.27-.04.84-.04,1.71v3.11c0,1.18-.31,2.1-.92,2.75-.62.65-1.5.98-2.67.98-.75,0-1.4-.15-1.96-.45Z"/>
        <path class="cls-3" d="M39.74,1.53v5.22c0,.92.01,1.52.04,1.79.03.27.08.52.18.75h-2.05c.07-.16.12-.31.15-.46.03-.14.05-.36.06-.66.01-.3.02-.77.02-1.42V1.53h-.27c-.79,0-1.32,0-1.57.03-.25.02-.46.06-.61.14l.24-1.63c.28.08.75.11,1.4.11h3.2c.66,0,1.13-.04,1.4-.11l.24,1.63c-.15-.08-.35-.12-.61-.14-.25-.02-.78-.03-1.57-.03h-.27Z"/>
        <path class="cls-3" d="M47.2,1.53v5.22c0,.92.01,1.52.04,1.79.03.27.08.52.18.75h-2.05c.07-.16.12-.31.15-.46.03-.14.05-.36.06-.66.01-.3.02-.77.02-1.42V1.53h-.27c-.79,0-1.32,0-1.57.03-.25.02-.46.06-.61.14l.24-1.63c.28.08.75.11,1.4.11h3.2c.66,0,1.13-.04,1.4-.11l.24,1.63c-.15-.08-.35-.12-.61-.14-.25-.02-.78-.03-1.57-.03h-.27Z"/>
        <path class="cls-3" d="M56.32,9.3c.03-.09.05-.22.05-.38,0-.35-.11-.85-.34-1.49l-.25-.72h-3.16l-.25.72c-.24.7-.35,1.21-.35,1.53,0,.13.02.25.05.34h-2.12c.17-.22.36-.61.57-1.18l1.63-4.46c.2-.56.39-1.06.55-1.48.16-.42.27-.7.32-.83.2-.52.32-.87.35-1.04l1.78-.25c.03.21.09.43.17.67.08.24.25.72.51,1.44l.54,1.49,1.58,4.39c.21.58.41,1,.61,1.25h-2.24ZM53.05,5.48h2.3l-.24-.68c-.3-.84-.5-1.46-.62-1.85-.12-.39-.22-.85-.32-1.37-.09.56-.2,1.05-.32,1.46-.12.41-.3.98-.56,1.7l-.25.75Z"/>
        <path class="cls-3" d="M65.65,6.89c.09.13.17.24.25.34.07.1.13.18.18.25.66.92,1.12,1.53,1.38,1.82h-1.95c-.19-.23-.58-.78-1.18-1.66l-.27-.38-1.68-2.44h.05c.72.03,1.29-.1,1.69-.37.4-.27.61-.78.61-1.53,0-.49-.15-.87-.46-1.14s-.74-.41-1.32-.41c-.36,0-.65.02-.87.06-.04.34-.06,1.31-.06,2.92v2.4c0,.92.01,1.52.04,1.79.03.27.08.52.18.75h-2.05c.07-.16.12-.31.15-.46.03-.14.05-.36.06-.66.01-.3.02-.77.02-1.42v-2.43c0-1.19,0-2.04-.02-2.55-.01-.51-.03-.87-.06-1.06-.03-.19-.08-.38-.15-.54.83-.11,1.69-.16,2.61-.16.82,0,1.5.11,2.04.34.54.22.94.52,1.19.9s.38.79.38,1.25c0,.69-.2,1.24-.59,1.63-.4.4-.93.67-1.61.81l1.44,1.97Z"/>
        <path class="cls-3" d="M78.17.75c.58.49.87,1.17.87,2.04s-.29,1.56-.87,2.07c-.58.51-1.51.77-2.79.77-.31,0-.56,0-.73-.03v1.14c0,.92.01,1.52.04,1.79.03.27.08.52.18.75h-2.05c.07-.16.12-.31.15-.46.03-.14.05-.36.06-.66.01-.3.02-.77.02-1.42v-2.43c0-1.18,0-2.03-.02-2.54-.01-.51-.03-.87-.06-1.07-.03-.2-.08-.38-.15-.55.94-.1,1.86-.15,2.77-.15,1.14,0,2,.25,2.58.74ZM74.66,5.44c.65-.06,1.18-.22,1.58-.47.4-.26.7-.56.87-.91.18-.35.27-.7.27-1.06,0-.54-.15-.95-.45-1.22-.3-.27-.71-.41-1.25-.41-.44,0-.76.02-.96.06-.03.24-.04.51-.05.82,0,.31-.01,1.01-.01,2.11v1.09Z"/>
        <path class="cls-3" d="M86.24,6.89c.09.13.17.24.25.34.07.1.13.18.18.25.66.92,1.12,1.53,1.38,1.82h-1.95c-.19-.23-.58-.78-1.18-1.66l-.27-.38-1.68-2.44h.05c.73.03,1.29-.1,1.69-.37.4-.27.61-.78.61-1.53,0-.49-.15-.87-.46-1.14s-.74-.41-1.32-.41c-.36,0-.65.02-.87.06-.04.34-.06,1.31-.06,2.92v2.4c0,.92.01,1.52.04,1.79.03.27.08.52.18.75h-2.05c.07-.16.12-.31.15-.46.03-.14.05-.36.06-.66.01-.3.02-.77.02-1.42v-2.43c0-1.19,0-2.04-.02-2.55-.01-.51-.03-.87-.06-1.06-.03-.19-.08-.38-.15-.54.83-.11,1.69-.16,2.61-.16.82,0,1.5.11,2.04.34.54.22.94.52,1.19.9s.38.79.38,1.25c0,.69-.2,1.24-.59,1.63s-.93.67-1.61.81l1.44,1.97Z"/>
        <path class="cls-3" d="M95.04,9.3c.03-.09.05-.22.05-.38,0-.35-.11-.85-.34-1.49l-.25-.72h-3.16l-.25.72c-.24.7-.35,1.21-.35,1.53,0,.13.02.25.05.34h-2.12c.17-.22.36-.61.57-1.18l1.63-4.46c.2-.56.39-1.06.55-1.48.16-.42.27-.7.32-.83.2-.52.32-.87.35-1.04l1.78-.25c.03.21.09.43.17.67.08.24.25.72.51,1.44l.54,1.49,1.58,4.39c.21.58.41,1,.61,1.25h-2.24ZM91.77,5.48h2.3l-.24-.68c-.3-.84-.5-1.46-.62-1.85-.12-.39-.22-.85-.32-1.37-.09.56-.2,1.05-.32,1.46-.12.41-.3.98-.56,1.7l-.25.75Z"/>
        <path class="cls-3" d="M98.93,9.3c.08-.15.13-.3.16-.46.03-.15.05-.37.06-.66,0-.29.01-.77.01-1.42V2.71c0-.92-.01-1.52-.04-1.8-.03-.28-.08-.53-.18-.75.89-.1,1.91-.15,3.06-.15,1.09,0,2,.19,2.75.56.75.37,1.31.9,1.69,1.57.38.68.57,1.48.57,2.41s-.2,1.81-.59,2.55c-.39.74-.97,1.31-1.74,1.73-.77.41-1.7.62-2.81.62-1.05,0-2.03-.05-2.95-.15ZM103.61,7.69c.48-.24.88-.63,1.2-1.15.32-.52.49-1.18.49-1.96s-.17-1.4-.5-1.87c-.33-.47-.75-.81-1.26-1.01-.51-.2-1.05-.3-1.61-.3-.26,0-.62.02-1.09.06-.03.11-.04.38-.06.81-.01.43-.02,1.25-.02,2.47,0,1.82,0,2.86.03,3.11.15.07.34.12.55.15.22.03.5.05.87.05.46,0,.93-.12,1.41-.37Z"/>
        <path class="cls-3" d="M112.95,7.94c.62,0,1.06-.02,1.3-.07.24-.05.46-.12.65-.21l-.51,1.75c-.19-.05-.39-.08-.58-.09-.19-.01-.48-.02-.85-.02h-3.77c.08-.16.13-.31.16-.46.03-.15.05-.37.06-.67.01-.3.02-.77.02-1.41V2.74c0-.66,0-1.14-.02-1.44-.01-.3-.03-.53-.06-.67-.03-.14-.08-.3-.15-.46h3.3c.37,0,.68,0,.92-.02.24-.01.45-.04.64-.09l.49,1.63c-.14-.08-.32-.12-.53-.14-.21-.02-.67-.03-1.39-.03h-1.56c-.03.37-.04,1.16-.04,2.35h1.62c.51,0,.9-.02,1.16-.06l.18,1.54c-.13-.05-.28-.09-.46-.11-.18-.03-.45-.04-.82-.04h-1.68v.1c0,1.37,0,2.24.03,2.63h1.88Z"/>
        <path class="cls-3" d="M117.47,9.33c-.4-.08-.74-.18-1.01-.31l-.22-1.88c.36.28.74.5,1.13.67.39.17.86.25,1.4.25s.92-.11,1.2-.32c.27-.22.41-.5.41-.84,0-.41-.14-.75-.42-1.02-.28-.27-.75-.52-1.4-.77-.58-.22-1.03-.46-1.35-.73-.32-.27-.53-.57-.65-.89-.12-.32-.18-.71-.18-1.14,0-.4.1-.77.3-1.13.2-.35.52-.64.94-.86.43-.22.96-.33,1.61-.33.4,0,.79.04,1.17.11.38.08.69.18.95.3l.21,1.78c-.27-.19-.5-.33-.68-.42s-.41-.19-.69-.27c-.28-.08-.59-.12-.95-.12-.43,0-.75.08-.97.23s-.32.4-.32.74c0,.27.11.51.34.73s.6.42,1.13.6c.89.31,1.54.7,1.94,1.16.4.46.6,1.09.6,1.88,0,.51-.12.96-.37,1.37-.24.41-.61.73-1.09.97-.49.24-1.06.35-1.74.35-.47,0-.91-.04-1.32-.12Z"/>
        <path class="cls-3" d="M131.88,6.75c0,.92.01,1.52.04,1.79.03.27.08.52.18.75h-2.05c.07-.16.12-.31.15-.46.03-.14.05-.36.06-.66.01-.3.02-.77.02-1.42v-1.53h-4.43v1.53c0,.92.01,1.52.04,1.79.03.27.08.52.18.75h-2.05c.07-.16.12-.31.15-.46.03-.14.05-.36.06-.66.01-.3.02-.77.02-1.42V2.71c0-.92-.01-1.52-.04-1.79-.03-.27-.08-.52-.18-.75h2.05c-.07.16-.12.31-.15.46-.03.14-.05.36-.06.66-.01.3-.02.77-.02,1.42v1.13h4.43v-1.13c0-.92-.01-1.52-.04-1.79-.03-.27-.08-.52-.18-.75h2.05c-.07.16-.12.31-.15.46-.03.14-.05.36-.06.66-.01.3-.02.77-.02,1.42v4.05Z"/>
      </g>
      <g>
        <path class="cls-3" d="M73.35,67.7c.02-.07.04-.16.04-.28,0-.26-.08-.62-.25-1.09l-.19-.53h-2.31l-.19.53c-.17.51-.26.88-.26,1.12,0,.1.01.18.04.25h-1.55c.12-.16.26-.45.42-.86l1.19-3.27c.15-.41.28-.77.4-1.08.12-.31.2-.51.24-.61.15-.38.23-.64.26-.76l1.3-.19c.02.15.07.32.12.49.06.17.18.52.37,1.05l.4,1.09,1.16,3.21c.15.43.3.73.44.92h-1.64ZM70.95,64.9h1.68l-.18-.5c-.22-.62-.37-1.07-.45-1.36-.09-.29-.16-.62-.23-1-.07.41-.14.77-.23,1.07-.09.3-.22.71-.41,1.24l-.18.55Z"/>
        <path class="cls-3" d="M77.47,65.91c0,.64,0,1.05.03,1.25.02.2.06.38.14.54h-1.42c.07-.16.12-.34.14-.54.02-.2.03-.61.03-1.25v-1.94c0-1.07,0-1.79-.03-2.14-.02-.35-.07-.62-.17-.8h1.77l3.01,4.96h0v-3.17c0-.64,0-1.05-.03-1.25-.02-.2-.06-.38-.14-.54h1.42c-.07.16-.12.34-.14.54-.02.2-.03.61-.03,1.25v1.92c0,1.02.01,1.72.03,2.1.02.38.08.67.16.86h-1.47l-3.3-5.27h0v3.49Z"/>
        <path class="cls-3" d="M84.1,67.7c.06-.11.09-.22.12-.33.02-.11.04-.27.04-.49,0-.21,0-.56,0-1.04v-2.96c0-.67,0-1.11-.03-1.31-.02-.2-.06-.39-.13-.55.65-.07,1.39-.11,2.24-.11.8,0,1.47.14,2.01.41.55.27.96.66,1.23,1.15.28.5.42,1.08.42,1.76s-.14,1.32-.43,1.86c-.29.54-.71.96-1.27,1.26-.56.3-1.25.45-2.05.45-.76,0-1.48-.04-2.16-.11ZM87.52,66.52c.35-.18.64-.46.88-.84.24-.38.36-.86.36-1.43s-.12-1.02-.37-1.37c-.24-.35-.55-.59-.92-.74-.37-.14-.77-.22-1.18-.22-.19,0-.46.02-.8.05-.02.08-.03.28-.04.59,0,.31-.01.92-.01,1.8,0,1.33,0,2.09.02,2.28.11.05.25.09.4.11.16.02.37.04.63.04.34,0,.68-.09,1.03-.27Z"/>
      </g>
      <g>
        <path class="cls-5" d="M27.5,162.69c-.06,0-.08-.02-.08-.07v-4.51c-.27.13-.56.19-.77.22-.05,0-.07,0-.07-.06v-.86c0-.05,0-.07.05-.09.39-.1.77-.25,1.15-.48.04-.04.1-.04.16-.04h.7s.05.03.05.07v5.75c0,.05-.02.07-.06.07h-1.13Z"/>
        <path class="cls-5" d="M33.77,156.84s.06,0,.06.07v.71s0,.08-.03.13c-.45,1-1.67,3.61-2.3,4.89-.02.04-.05.05-.09.05h-1.23s-.06-.03-.05-.06c1.46-2.89,2.05-4.06,2.37-4.67h-2.84s-.06-.02-.06-.08l.16-.97s.03-.06.07-.06h3.92Z"/>
        <path class="cls-5" d="M35.77,159.28s0,.06-.04.07c-.15.05-.28.07-.46.07-.45,0-.72-.22-.72-.73v-1.26h-.31s-.04-.02-.04-.05v-.5s.01-.05.05-.05h.31c0-.17.03-.47.05-.61,0-.03.02-.04.05-.05l.61-.08s.04,0,.04.03c-.02.16-.03.46-.03.71h.48s.04.01.04.04v.51s-.01.03-.04.04h-.49v1.09c0,.22.07.33.28.33.06,0,.11-.01.18-.02.02,0,.04,0,.04.04v.42Z"/>
        <path class="cls-5" d="M36.95,159.32s-.01.04-.04.04h-.64s-.04-.02-.04-.04v-3.52s0-.04.04-.04h.64s.04.01.04.04v1.2c.19-.12.39-.21.68-.21.41,0,.88.2.88,1.02v1.51s-.01.05-.05.05h-.63s-.05-.02-.05-.05v-1.44c0-.32-.14-.48-.41-.48-.16,0-.3.04-.43.13v1.79Z"/>
        <path class="cls-5" d="M42.84,162.61c0,.05-.03.08-.08.08h-1.13s-.06-.03-.06-.08v-5.7c0-.05.02-.07.06-.07h3.63c.06,0,.08.02.09.08l.1.96c0,.05-.02.08-.08.08h-2.53v1.36h2.28c.05,0,.07.02.07.07v.97c0,.05-.02.07-.06.07h-2.29v2.18Z"/>
        <path class="cls-5" d="M50.17,162.61c0,.07-.03.08-.09.08h-3.73c-.05,0-.07-.03-.07-.08v-5.69c0-.05.02-.08.07-.08h3.62c.07,0,.09,0,.1.07l.1.96s0,.08-.06.08h-2.56v1.2h2.34s.07.02.07.07v.98c0,.05-.04.06-.07.06h-2.34v1.3h2.7c.07,0,.08.03.07.08l-.16.96Z"/>
        <path class="cls-5" d="M51.17,156.94c0-.05,0-.08.05-.09.32,0,1.22-.03,1.87-.03,1.95,0,2.27.97,2.27,1.56s-.33.97-.56,1.13c.34.17.85.55.85,1.38,0,1.09-.97,1.81-2.55,1.81-.89,0-1.54,0-1.88-.02-.05,0-.06-.04-.06-.08v-5.67ZM52.41,159.13h.62c.31,0,.68.03.82.04.16-.14.27-.31.27-.61,0-.46-.35-.7-1.04-.7-.28,0-.47,0-.67.02v1.24ZM52.41,161.66c.19,0,.39.02.67.02.79,0,1.26-.24,1.26-.76,0-.3-.13-.56-.56-.67-.15-.04-.35-.05-.58-.05h-.79v1.46Z"/>
        <path class="cls-5" d="M56.06,163.84c-.06,0-.07-.04-.05-.08.49-.9.58-1.66.53-2.47,0-.04.03-.05.05-.05h1.04c.05,0,.06.02.07.07.06.88-.13,1.79-.63,2.47,0,.02-.05.05-.12.05h-.89Z"/>
        <path class="cls-5" d="M60.48,162.69c-.06,0-.06-.04-.06-.08v-.72c0-.07,0-.1.04-.13.42-.29,1.06-.74,1.63-1.24.86-.77,1.06-1.3,1.06-1.71,0-.56-.32-.92-1.07-.92-.49,0-.96.15-1.38.38-.06.04-.09.02-.09-.04v-.97c0-.05,0-.08.05-.11.45-.24,1.01-.4,1.68-.4,1.44,0,2.12.88,2.12,1.92,0,.65-.24,1.32-1.01,2.05-.45.43-.81.71-1.1.92.41-.02.84-.03,1.38-.03h1c.08,0,.1.02.09.06l-.23.94c-.03.05-.05.07-.1.07h-4Z"/>
        <path class="cls-5" d="M65.28,159.76c0-1.77.86-3,2.31-3,1.79,0,2.28,1.55,2.28,3,0,1.61-.67,3.03-2.28,3.03s-2.31-1.31-2.31-3.03ZM66.57,159.71c0,1.21.34,1.99,1.03,1.99.62,0,1.01-.65,1.01-1.96s-.38-1.94-1.02-1.94c-.58,0-1.02.56-1.02,1.9Z"/>
        <path class="cls-5" d="M70.41,162.69c-.06,0-.06-.04-.06-.08v-.72c0-.07,0-.1.04-.13.42-.29,1.06-.74,1.63-1.24.86-.77,1.06-1.3,1.06-1.71,0-.56-.32-.92-1.07-.92-.49,0-.96.15-1.38.38-.06.04-.09.02-.09-.04v-.97c0-.05,0-.08.05-.11.45-.24,1.01-.4,1.68-.4,1.44,0,2.12.88,2.12,1.92,0,.65-.24,1.32-1.01,2.05-.45.43-.81.71-1.1.92.41-.02.84-.03,1.38-.03h1c.08,0,.1.02.09.06l-.23.94c-.03.05-.05.07-.1.07h-4Z"/>
        <path class="cls-5" d="M76.93,157.96c-.05.19-.16.64-.21.85,2.06.17,2.78.97,2.78,2.04s-.93,1.94-2.43,1.94c-.8,0-1.28-.13-1.63-.3-.05-.03-.07-.04-.07-.11v-1.03s.05-.06.08-.04c.47.25,1.01.37,1.52.37.92,0,1.23-.32,1.23-.77,0-.69-.8-1.01-2.65-1.11-.05,0-.09,0-.09-.07v-.52c.06-.29.6-2.24.62-2.29.02-.05.04-.07.09-.07h3.05c.05,0,.07.03.05.08l-.27.96c0,.06-.04.08-.1.08h-1.97Z"/>
        <path class="cls-5" d="M82.97,163.7v-7.87h.44v7.87h-.44Z"/>
        <path class="cls-5" d="M86.89,156.92c0-.05,0-.07.05-.07.38,0,1.1-.03,1.8-.03,1.85,0,2.49,1,2.49,1.97,0,1.45-1.15,2.06-2.56,2.06h-.52v1.76s-.02.07-.07.07h-1.13s-.06-.03-.06-.07v-5.7ZM88.16,159.76c.16,0,.26,0,.51,0,.72,0,1.3-.21,1.3-.95,0-.56-.39-.92-1.19-.92-.29,0-.54,0-.62.02v1.84Z"/>
        <path class="cls-5" d="M92.18,162.69c-.05,0-.07-.02-.07-.08v-5.67s0-.09.06-.09c.82-.02,1.17-.03,1.91-.03,1.52,0,2.37.63,2.37,1.79,0,.74-.48,1.31-1.15,1.57.3.4,1.34,1.92,1.62,2.4.03.05.04.11-.03.11h-1.33c-.08,0-.11-.02-.13-.05-.27-.39-.84-1.35-1.22-1.96-.06-.11-.11-.15-.21-.15h-.67v2.09s-.03.07-.07.07h-1.1ZM94.06,159.48c.69,0,1.13-.27,1.13-.79s-.46-.78-1.14-.78c-.3,0-.56,0-.7.02v1.55h.71Z"/>
        <path class="cls-5" d="M98.62,161.3l-.44,1.32s-.05.07-.1.07h-1.06c-.06,0-.08-.04-.07-.09l1.83-5.15c.04-.1.07-.21.09-.54,0-.04.03-.06.05-.06h1.47s.06,0,.07.05l2.08,5.72s0,.08-.05.08h-1.19c-.05,0-.08-.02-.1-.06l-.47-1.33h-2.12ZM100.4,160.18c-.18-.59-.55-1.67-.72-2.3h0c-.15.6-.48,1.58-.71,2.3h1.45Z"/>
        <path class="cls-5" d="M101.83,156.93c-.05-.05,0-.09.05-.09h1.28c.05,0,.07.02.09.05.89,1.76,1.17,2.29,1.3,2.58.14-.3.4-.88,1.23-2.58.02-.04.04-.05.09-.05h1.23c.05,0,.06.04.05.08l-1.96,3.47c-.06.1-.08.17-.08.29v1.94c0,.05-.02.08-.09.08h-1.08c-.08,0-.1-.03-.1-.08v-1.98c0-.13,0-.18-.06-.28l-1.94-3.42Z"/>
        <path class="cls-5" d="M108.23,161.3l-.44,1.32s-.05.07-.1.07h-1.06c-.06,0-.08-.04-.07-.09l1.83-5.15c.04-.1.07-.21.09-.54,0-.04.03-.06.05-.06h1.47s.06,0,.07.05l2.08,5.72s0,.08-.05.08h-1.19c-.05,0-.08-.02-.1-.06l-.47-1.33h-2.12ZM110.01,160.18c-.18-.59-.55-1.67-.72-2.3h0c-.15.6-.48,1.58-.71,2.3h1.45Z"/>
        <path class="cls-5" d="M115.36,160.42c-.06,0-.08-.03-.08-.08v-.92s.03-.05.07-.05h2.11c.07,0,.08.02.08.07v2.96c0,.05,0,.07-.06.09-.67.23-1.31.3-1.85.3-2.17,0-3.22-1.34-3.22-2.97,0-1.85,1.36-3.05,3.42-3.05.6,0,1.15.06,1.48.21.05,0,.06.04.06.12v.97c0,.06-.04.08-.08.05-.4-.2-.88-.25-1.43-.26-1.43-.02-2.14.71-2.14,1.92,0,1.09.68,1.93,1.98,1.93.27,0,.42-.02.58-.06v-1.18l-.91-.04Z"/>
        <path class="cls-5" d="M118.77,162.69c-.05,0-.07-.02-.07-.08v-5.67s0-.09.06-.09c.82-.02,1.17-.03,1.91-.03,1.52,0,2.37.63,2.37,1.79,0,.74-.48,1.31-1.15,1.57.3.4,1.34,1.92,1.62,2.4.03.05.04.11-.03.11h-1.33c-.08,0-.11-.02-.13-.05-.27-.39-.84-1.35-1.22-1.96-.06-.11-.11-.15-.21-.15h-.67v2.09s-.03.07-.07.07h-1.1ZM120.65,159.48c.69,0,1.13-.27,1.13-.79s-.46-.78-1.14-.78c-.3,0-.56,0-.7.02v1.55h.71Z"/>
        <path class="cls-5" d="M125.21,161.3l-.44,1.32s-.05.07-.1.07h-1.06c-.06,0-.08-.04-.07-.09l1.83-5.15c.04-.1.07-.21.09-.54,0-.04.03-.06.05-.06h1.47s.06,0,.07.05l2.08,5.72s0,.08-.05.08h-1.19c-.05,0-.08-.02-.1-.06l-.47-1.33h-2.12ZM126.99,160.18c-.18-.59-.55-1.67-.72-2.3h0c-.15.6-.48,1.58-.71,2.3h1.45Z"/>
        <path class="cls-5" d="M130.84,156.91s.02-.07.07-.07h1.14s.06,0,.06.06v4.03c0,.29-.02.61-.07.84-.22.96-.93,1.39-1.95,1.39-.16,0-.32,0-.43-.04-.07-.02-.07-.04-.07-.11v-.95c0-.05.02-.07.08-.06.15.02.2.02.29.02.54,0,.88-.19.88-.98v-4.14Z"/>
      </g>
      <path class="cls-5" d="M35.84,117.09c-7.6,0-13.46,6.02-13.46,15.12,0,1.37.14,2.67.42,3.87.42-.08.85-.14,1.29-.18.58-.06,1.16-.09,1.73-.09.24,0,.47,0,.7.02.57.03,1.12.09,1.62.17-.2-1.19-.3-2.48-.3-3.85,0-8.21,3.46-13.63,7.95-13.63s7.75,4.97,7.79,12.29h5.46c-.03-8.15-5.29-13.71-13.19-13.71Z"/>
      <g>
        <path class="cls-2" d="M79.09,75.68c-.46,0-.83.37-.83.83s.37.83.83.83.83-.37.83-.83-.37-.83-.83-.83Z"/>
        <path class="cls-2" d="M105.47,132.38c-.35-.08-.71-.16-1.08-.26,0,0,.39.05,1.01.1,1.29.1,3.57.22,5.32-.09,1.3-.22,2.3-.68,2.41-1.53,0,0-.96.45-2.74.78-1.32.25-3.08.43-5.22.31-.23-.01-.46-.03-.69-.05,0,0,.25-.01.65-.04,1.06-.08,3.21-.31,5-.81,1.66-.47,3-1.19,2.83-2.28,0,0-1.05.81-3.15,1.56-1.25.44-2.88.85-4.89,1.05-.15.01-.29.03-.44.04,0,0,.15-.03.42-.1.86-.21,2.9-.75,4.67-1.56,1.72-.79,3.18-1.83,3.01-3.07,0,0-1.2,1.08-3.37,2.24-1.22.65-2.75,1.33-4.54,1.85-.02,0-.04.01-.06.02,0,0,.02,0,.05-.02.44-.21,3.59-1.73,4.28-2.21.02-.02.05-.03.08-.05.86-.57,3.73-2.26,2.13-6.15,0,0,0,1.73-3.01,4.14-.42.34-.9.69-1.45,1.05-.42.28-.84.55-1.26.82,0,0,0,0,0,0-.24.16-.49.32-.73.47-.22.15-.45.29-.67.44-3.42,2.23-6.32,4.32-6.91,6.95-.74,3.29,3.33,7.38,8.19,10.3,0,0-3.73-2.99-3.1-5.41.45-1.75,3.69-2.36,5.74-2.78.79-.16,1.41-.29,1.62-.44,0,0-1.3-.84-2.58-1.78-1.06-.77-2.11-1.61-2.43-2.09,0,0,.95.72,2.13,1.41,1.55.91,3.51,1.76,4.24.83,0,0-2.23-.45-4.62-1.7-.64-.34-1.3-.73-1.92-1.19,0,0,.73.37,1.75.78,1.86.76,4.69,1.7,5.75.86.11-.09.2-.19.27-.32,0,0-.14.01-.4.01-.86,0-3.03-.12-5.88-1.16-.47-.17-.96-.37-1.46-.59,0,0,.54.14,1.34.32,1.52.33,4,.77,5.61.54.85-.12,1.46-.43,1.54-1.04,0,0-.68.18-1.87.27-1.3.09-3.22.07-5.55-.44Z"/>
        <path class="cls-2" d="M97.15,131.67c.82-.08,1.67.09,1.67.09,0,0-1.94-1.16-3.86-.25-.41.2-.8.45-1.16.73-.36.28-.69.63-1.09.85-.28.16-1.2.08-1.35.33,0,0,3.45-.02,4.85,2.1,0,0-.45-1.02-.57-1.98-.05-.65.11-1.66,1.5-1.86ZM94.5,132.74c-.11,0-.2-.09-.2-.2s.09-.2.2-.2.2.09.2.2-.09.2-.2.2Z"/>
        <path class="cls-2" d="M30.27,137.61c-.25-.17-.64-.36-1.25-.53-.6-.17-1.43-.33-2.54-.38-.71-.03-1.49-.01-2.3.07-.47.05-.94.12-1.41.21-1.3.25-2.57.69-3.63,1.22-.53.26-1.01.55-1.42.82-.41.28-.76.55-1.04.79-.14.12-.26.23-.37.33-.11.1-.19.18-.26.26-.14.14-.22.22-.22.22,0,0,.1-.05.27-.15.09-.05.19-.11.32-.17.13-.07.27-.14.43-.22.32-.16.72-.32,1.16-.49.45-.16.95-.31,1.48-.45,1.07-.27,2.29-.43,3.48-.48.86-.04,1.71-.02,2.5,0,.32.01.62.02.92.04,1.03.05,1.82.08,2.42.06.6-.02,1.02-.08,1.3-.16.57-.16.62-.41.62-.41,0,0,.04-.25-.47-.59Z"/>
      </g>
      <g>
        <path class="cls-1" d="M102.23,24.01c-.21-.21-.43-.25-.58-.25-.11,0-.31.02-.5.19-.77.43-1.9.87-3.37,1.31-1.5.45-3.01.81-4.47,1.08h-.03v1.61h.09c1.22,0,2.05.38,2.52,1.17.51.84.77,2.17.79,3.94v.79c-.02,1.53-.4,3.82-1.14,6.81-.76,3.04-1.9,5.8-3.41,8.21-1.45,2.32-3.17,3.44-5.26,3.44-1.92,0-3.42-.71-4.57-2.16-1.17-1.47-1.76-4.14-1.76-7.94v-9.24l.06-10.21-.17-.17c-.21-.21-.43-.25-.58-.25-.11,0-.31.02-.5.19-.77.43-1.9.87-3.37,1.31-1.26.38-2.52.69-3.76.94-.25.05-.5.07-.75.07v1.65h.22s.8.03,1.23.31c0,0,0,0,0,0,.47.24.84.62,1.12,1.17.56,1.09.84,2.73.84,4.87v9.53c0,4.07.66,7.25,1.96,9.45,1.36,2.3,3.88,3.47,7.48,3.47,4.39,0,7.69-2.16,9.79-6.41.93-1.87,1.76-3.96,2.48-6.2h.08v7.93c0,2.58,2.09,4.68,4.68,4.68h.99v-22.13s.06-9,.06-9l-.17-.17Z"/>
        <path class="cls-1" d="M65.16,18.27v-2.69h-1.8v.53c0,1.04-.21,2.07-.66,3.01-.45.95-1.01,1.78-1.68,2.48-.93.98-2.09,1.8-3.46,2.47-.55.25-2.01.82-3.93.99.76.43,1.47.92,2.14,1.46h3.71v20.63c0,4.91,1.89,7.63,5.63,8.11.11.01.22.03.34.04.04,0,.09,0,.14,0,.05,0,.09,0,.13,0,.07,0,.14,0,.2,0,2.27,0,4.26-1.22,5.35-3.03-.27.12-.54.22-.84.28-.31.07-.64.11-.98.11-.15,0-.29,0-.44-.02-1.64-.16-3.01-1.24-3.61-2.71-.2-.5-.32-1.06-.32-1.63v-21.78h6.35v-1.65h-6.29v-6.59Z"/>
        <path class="cls-1" d="M47.48,138.02s-.07-.02-.24.09c-.08.06-.18.14-.32.27-.15.12-.3.3-.53.51-.06.05-.11.11-.17.17-.06.06-.13.12-.2.18-.13.13-.3.26-.47.41-.11.09-.24.18-.37.28,0,0-.02.01-.02.02-.1.07-.21.15-.32.23-.01,0-.02.01-.03.02-.18.12-.38.25-.6.37-.07.04-.14.08-.21.12-.08.04-.15.08-.23.11-.15.08-.32.15-.49.23-.17.08-.36.14-.54.22-.19.06-.39.14-.6.19-.42.13-.87.22-1.37.29-.36.05-.75.09-1.16.11-.16,0-.31.01-.48.01-1.18.01-2.48-.12-3.84-.38-.94-.17-1.91-.4-2.9-.65-.1-.03-.21-.05-.31-.08-.04-.01-.09-.02-.13-.03-.3-.08-.61-.15-.92-.23-.22-.05-.44-.11-.66-.16-1.26-.3-2.56-.59-3.86-.75-.09-.01-.17-.02-.26-.03-.68-.08-1.35-.13-2.02-.13-.09,0-.19,0-.28,0-.09,0-.19,0-.28,0-.18,0-.37,0-.55.02-.36.03-.72.05-1.07.1-.7.08-1.38.22-2.02.36-.64.16-1.24.34-1.8.54-.8.29-1.51.61-2.13.93-.25.13-.48.25-.69.38-.38.21-.71.43-1,.62-.28.19-.52.37-.71.51-.37.3-.58.46-.58.46,0,0,.23-.13.64-.37.21-.11.47-.25.77-.4.31-.14.65-.31,1.05-.47.26-.11.54-.21.83-.32.61-.22,1.29-.42,2.03-.59.25-.06.5-.11.76-.15.32-.06.66-.11,1-.15.62-.06,1.26-.12,1.92-.12.33-.01.66.01,1,.02.17,0,.34.03.51.04l.26.02.26.03c.68.07,1.37.2,2.07.36,1.12.26,2.25.6,3.39.97.28.09.56.18.85.28.3.1.6.2.91.3.17.05.33.11.5.16.97.31,1.95.6,2.94.83.7.17,1.41.3,2.11.39.76.1,1.51.15,2.24.14.7,0,1.37-.07,1.99-.18.62-.11,1.21-.26,1.72-.46.26-.09.51-.21.74-.3.23-.12.46-.22.66-.34.21-.12.41-.24.59-.37.09-.06.18-.12.27-.19.09-.06.17-.13.25-.19.64-.51,1.1-1.03,1.43-1.5.15-.24.3-.45.4-.67.05-.1.1-.2.14-.3.02-.05.04-.09.06-.14.02-.05.03-.09.05-.13.13-.34.16-.62.19-.83.01-.21,0-.36-.03-.46-.04-.2-.11-.23-.11-.23Z"/>
        <path class="cls-1" d="M40.91,140.59c.21,0,.51-.03.85-.12.34-.08.71-.23,1.04-.44.34-.21.63-.47.84-.75.11-.13.17-.27.23-.39.05-.12.09-.23.1-.33.03-.2,0-.35-.04-.45-.09-.22-.25-.27-.25-.27,0,0-.16-.06-.37,0-.1.03-.22.09-.35.19-.06.05-.13.11-.19.18-.07.07-.14.16-.22.26-.15.2-.32.45-.51.7-.19.25-.4.5-.62.71-.22.21-.43.39-.6.51-.08.06-.15.1-.2.14-.05.03-.07.05-.07.05,0,0,.03,0,.09,0,.06,0,.14,0,.25,0Z"/>
      </g>
      <rect class="cls-5" x="33.12" y="129.35" width="10.91" height="1.45"/>
      <path class="cls-3" d="M30.03,123.8c-.02.49.07.96.17,1.44.09.52.14,1.05.25,1.57.13.42.3.81.44,1.23.13.4.19.81.29,1.21.09.27.23.52.36.77.06.14.18.27.16.43-.01.34.02.67.05,1.01.03.17.04.35.07.52.06.25.15.49.18.74.01.16.1.31.14.47.07.28.13.57.22.85.03.17.12.31.16.48.03.23,0,.47.01.71,0,.43.07.86.08,1.29.07.26.15.53.18.81.04.28.1.56.09.84-.05.48-.14.95-.2,1.43,0,.1-.1.14-.16.21-.04.05,0,.14-.04.18-.12.1-.31-.18-.3.12,0,.2.06.21.23.2.05,0,.11,0,.11.06,0,.03-.01.05-.03.07-.19.08-.53,0-.45-.26,0-.05-.04-.05-.06-.02-.14.09-.14.28-.14.43.02.1.17,0,.09.16,0,0,0,0,0,.01h0s.09.02.13.03h0c.09-.08.22-.11.35-.06.03.02.03.12,0,.14,0,0-.02,0-.02,0h0c.99.25,1.96.48,2.9.65,1.36.26,2.66.39,3.84.38.16,0,.32,0,.48-.01h0c0-.08,0-.17,0-.25,0-.18.06-.38.01-.55-.02-.14-.11-.26-.15-.39,0-.17.03-.34-.02-.5-.05-.17-.17-.32-.19-.5-.07-.21-.05-.43-.1-.65-.07-.28-.2-.55-.27-.83-.01-.23-.04-.47-.03-.7,0-.46.18-.9.2-1.36.04-.48,0-.96-.02-1.43,0-.37.11-.73.21-1.08.03-.24.03-.48.12-.71.1-.26.15-.53.22-.79.08-.17.07-.35.09-.53.03-.22.09-.44.08-.66,0-.22-.02-.44.02-.66.21-.47.5-.91.63-1.42.22-.7.55-1.36.76-2.07.08-.28.06-.57.1-.85.04-.36.12-.71.14-1.07.04-.43.1-.85.07-1.28,0-.14.07-.28.03-.42-.1-.34-.19-.69-.33-1.01-.14-.28-.35-.52-.42-.83-.21-.59-.54-1.12-.89-1.63-.07-.09,0-.18.02-.28,0-.19-.12-.38-.3-.45-.07-.03-.18.02-.24,0-.13-.16-.23-.37-.35-.54-.09-.16-.22-.3-.22-.49-.1-.18-.18-.38-.32-.54-.05-.06-.13-.1-.16-.17-.01-.03.03-.07.04-.11.02-.04,0-.1-.05-.1-.05-.01-.11.04-.17.04-.05,0-.09-.04-.12-.07-.08-.1-.15-.21-.2-.33-.32-.54-.6-1.11-.95-1.63-.03-.1.02-.21-.03-.31-.14-.24-.31-.46-.45-.69-.16-.24-.26-.53-.45-.75-.05-.05-.12-.04-.18-.07-.07-.04-.15-.05-.19.03-.09.16-.15.33-.21.51-.14.23-.31.46-.42.71-.09.17-.18.34-.26.51-.14.22-.32.41-.43.65-.22.42-.44.84-.68,1.25-.14.24-.37.4-.54.61-.2.31-.29.73-.57.98-.12.02-.32-.03-.36.13-.02.1.1.19.08.29-.02.12-.1.27-.22.32-.06.02-.13-.01-.19.01-.07.03-.09.1-.12.16-.04.07-.1.12-.14.18-.06.14-.17.28-.16.43,0,.06.07.11.06.17-.25.41-.45.86-.65,1.3-.19.35-.46.68-.57,1.07-.06.25-.23.45-.21.71,0,.22.13.42.11.64ZM34.23,123.01s-.01.01-.02.01c0-.02,0-.05,0-.07h0s.04.02.06.04c0,0-.03.02-.04.03ZM34.28,122.86s0,.02-.01,0c0-.01-.02-.03-.03-.04.02-.02.05-.03.08-.04h0s-.02.05-.03.08ZM34.28,122.49h0c0,.05-.01.12-.02.17-.03-.06-.01-.13.02-.17ZM34.28,122.61s0,0,0,0c0,.02.01.04.02.05,0,0-.01,0-.02,0v-.05ZM34.49,122.11s0,0,0,0h0s0-.05,0-.07c0,0,0-.02,0-.02,0,.01,0,.03,0,.04,0,.01,0,.03,0,.04ZM34.57,122.09s0,0,0,0c0-.02,0-.05,0-.07h0s.04.02.05.03c0,.01-.03.03-.04.04ZM34.62,122.01h0s-.04-.04-.03-.07c0-.03.03-.04.05-.03,0,0,.02,0,.02,0,0,0,0,.01,0,.02,0,.04-.05.04-.05.08ZM34.91,121.98s-.03.03-.04.04c0,0-.01,0-.01,0,0-.01.02-.03.03-.04.01-.02.01-.02.03,0h0ZM35.41,121.33s-.01-.01-.02-.02c.01,0,.02-.02.03-.03,0,0,0,0,.01,0,0,.01-.02.02-.03.03ZM35.76,121.4s-.05,0-.06,0c-.02,0-.02-.03,0-.04,0,0,0,0,0,0,.03,0,.05,0,.06.04h0ZM35.98,121.45h0s-.05-.02-.05-.05c.01,0,.04,0,.05,0,.01,0,0,.03,0,.04ZM35.86,121.1s.04-.06.08-.06c0,0,.01,0,.02,0,0,0,0,.01,0,.01h0s-.07.04-.1.05ZM36.02,121.05s0,0,0-.01c.01,0,.03-.01.04-.02,0,0,0,0,0,.01-.01,0-.03,0-.04.01ZM36.18,121.66s.02.04.03.05t-.03-.05ZM36.26,121.81s0-.03,0-.05c0,0,0,0,.01,0,0,.02,0,.03.01.05,0,0-.01,0-.02,0ZM36.32,121.9s.02.02.03.03t-.03-.03ZM36.76,122.39s-.02-.03-.03-.04c0-.01-.02-.02,0-.03h0s.02.04.03.05c0,0,0,.01,0,.01ZM36.81,122.48s0,0,0-.01c0-.02-.02-.04-.02-.05,0,0,0,0,.01,0h0s.02.05.02.07c0,0-.01,0-.01,0ZM37.05,123.12s-.03.01-.04,0c0-.01-.02-.03-.02-.05,0,0,0,0,.01,0h0s.04.03.05.04c.01.01,0,0,0,.01ZM35.31,114.67c.05-.08.11-.15.14-.23.07-.15.15-.31.23-.46.02-.06.09-.11.13-.04.05.11.07.24.11.35.02.08.16.29.09.37-.05.04-.1,0-.14-.04-.07-.05-.15-.11-.23-.04-.07.06-.13.12-.2.18-.02.02-.04.03-.07.04h0c-.07,0-.08-.08-.05-.13ZM31.73,122.68c.16-.35.33-.69.52-1.03.12-.23.2-.48.32-.72.04-.08.06-.18.13-.24.1-.05.18.03.27-.11.09-.12.12-.27.19-.4.08-.07.19-.06.2-.2.03-.14-.1-.2-.16-.3-.02-.03-.03-.07.01-.09.22-.06.12-.21.17-.37.02-.04.08-.04.12-.07.13-.1-.06-.15-.1-.22-.03-.08.09-.19.12-.27.1-.21.18-.44.31-.64.1-.18.21-.36.36-.5.12-.12.28-.18.41-.28.22-.19.38-.47.47-.74.06-.15.02-.33.09-.48.1-.21.24-.41.31-.64.01-.04.02-.08.04-.11.03-.05.11-.05.13,0,.03.35.3.55.45.85.07.16.09.33.15.49.1.24.24.46.45.63.14.12.35.15.49.27.03.04.03.09.04.14.01.05.04.08.06.13.02.1.08.17.16.24.1.13.11.32.22.45.04.05.09.08.13.12.09.09.1.23.16.33.07.13.12.27.18.41.04.1.11.21.13.32-.01.18-.28.1-.22.47.03.16.16.3.32.34.06.02.14,0,.18.06.21.48.39.97.62,1.44.07.15.14.31.21.46.08.16.18.3.25.47.06.15.16.29.2.45,0,.13-.08.25-.14.36-.05.12-.1.23-.14.36-.02.11-.06.21-.08.32-.01.11-.02.23-.04.34-.05.23-.03.48-.11.71-.03.11-.03.22-.05.33,0,.18-.06.35-.1.53-.01.1-.04.21-.09.3-.12.17-.29.31-.4.49-.02.03-.05.06-.08.09-.18.14-.28.35-.45.5-.19.16-.31.37-.41.59-.04.09-.09.22-.2.21-.06-.01-.09-.07-.11-.12-.05-.09-.08-.2-.02-.3.04-.14.02-.3.04-.45,0-.08-.01-.17.04-.24.05-.09.02-.2.06-.29.02-.03.12-.04.06-.09-.08-.03-.15-.1-.16-.19,0-.05.06-.07.09-.1.04-.04.07-.09.1-.13.27-.32.5-.77.36-1.18-.01-.03-.03-.05-.06-.07-.1-.11-.13-.25-.15-.39-.01-.09-.03-.18-.05-.27-.05-.2-.01-.41-.09-.6-.02-.1-.16-.13-.16-.23,0-.08.11-.05.15-.09.06-.1-.15-.29-.23-.36-.07-.06-.16-.11-.23-.17-.03-.03-.05-.08-.08-.11-.06-.06-.2-.13-.11-.22.04-.06.1-.13.09-.21,0-.05-.06-.06-.09-.09-.04-.04-.03-.09-.05-.15-.07-.15,0,.07-.01.1-.01.05-.03,0-.04-.03-.03-.13-.09-.23-.22-.29-.11-.05.04-.03,0-.11,0-.01-.02-.01-.03-.02-.02-.02-.04-.06-.01-.09.04-.05.1-.1.09-.17,0-.04-.06-.06-.08-.09-.01,0-.03-.11-.03-.08,0,.18-.05,0-.08-.06-.04-.08-.12-.11-.19-.14-.05-.03-.11-.03-.17-.04-.04-.02-.02-.07.01-.09.08-.04.17-.02.26-.01.05,0,0-.04-.01-.06-.05-.04-.12-.03-.18-.04-.02-.01.04-.04,0-.07-.01-.01-.03-.02-.05-.03-.03,0-.06-.01-.05-.01.03,0,.04-.03.02-.05-.04-.06-.09-.11-.16-.09-.11.02-.23.02-.33.09h0c-.07.05-.1.15-.18.19-.07,0-.13.03-.19.05-.05,0-.1-.02-.15-.01-.15.05-.29.13-.41.23-.08.07-.11.18-.12.28-.01.03-.01-.05-.01-.04,0,.04-.04.11-.07.14-.06.07-.09.2-.05.29,0,.04-.03.06-.05.08-.09.1-.18.23-.19.36,0,.02,0,.04-.01.06,0,.02-.02.03-.04.05-.1.09-.13.24-.12.38.04.12.29-.04-.01.26-.07.05-.16.1-.24.14-.05.02-.2.02-.14.11.04.04.12.04.12.11,0,.08-.01.17,0,.25,0,.06-.02.11-.05.15-.07.1-.15.21-.18.34,0,.08.02.15.01.23-.01.16.03.35-.08.49-.1.1-.19.2-.22.33-.04.09-.06.18-.06.28,0,.06-.06.11,0,.16.09.07.07.2.14.29.09.1.04.31-.11.25-.1-.04-.17-.13-.17-.25,0-.06.02-.14-.01-.19-.05-.02-.07.1-.08.13-.03.09.01.17.07.24.28.37.45,0,.68.4.06.07.08.16.07.25,0,.16.02.32.07.48.02.1.1.18.1.28,0,.06-.02.11.03.12.1,0,.12.09.07.17-.06.09-.14.18-.19.28-.03.04-.08.05-.13.06-.04,0-.09.02-.12,0-.04-.03-.03-.08-.05-.13-.02-.05-.06-.09-.08-.14-.07-.18-.18-.34-.29-.49-.08-.11-.19-.19-.29-.29-.09-.09-.18-.19-.28-.27-.13-.1-.21-.26-.31-.38-.11-.11-.11-.26-.15-.4-.1-.35-.17-.71-.19-1.08-.06-.55-.1-1.12-.33-1.64-.04-.09-.05-.19-.1-.28-.06-.24.1-.46.19-.68ZM36.27,121.24s.03,0,.05,0c.02,0,.03.01.05.02h0s-.07,0-.09-.02ZM34.12,123.06s0-.1,0-.15h0s0,.1,0,.15Z"/>
      <path class="cls-2" d="M30.27,137.61c-.25-.17-.64-.36-1.25-.53-.6-.17-1.43-.33-2.54-.38-.71-.03-1.49-.01-2.3.07-.47.05-.94.12-1.41.21-1.3.25-2.57.69-3.63,1.22-.53.26-1.01.55-1.42.82-.41.28-.76.55-1.04.79-.14.12-.26.23-.37.33-.11.1-.19.18-.26.26-.14.14-.22.22-.22.22,0,0,.1-.05.27-.15.09-.05.19-.11.32-.17.13-.07.27-.14.43-.22.32-.16.72-.32,1.16-.49.45-.16.95-.31,1.48-.45,1.07-.27,2.29-.43,3.48-.48.86-.04,1.71-.02,2.5,0,.32.01.62.02.92.04,1.03.05,1.82.08,2.42.06.6-.02,1.02-.08,1.3-.16.57-.16.62-.41.62-.41,0,0,.04-.25-.47-.59Z"/>
    </g>
  </g>
</svg>