<?xml version="1.0" encoding="UTF-8"?>
<svg id="Layer_2" data-name="Layer 2" xmlns="http://www.w3.org/2000/svg" viewBox="0 0 157.46 125">
  <defs>
    <style>
      .cls-1 {
        fill: #87b928;
      }
    </style>
  </defs>
  <g id="Layer_1-2" data-name="Layer 1">
    <g>
      <path class="cls-1" d="M126.92,125c-3.28-5.47-5.86-10.92-9.5-15.54-5.43-6.91-11.24-13.6-17.54-19.71-7.78-7.55-17.7-11.21-28.19-13.58-10.9-2.46-19.9-7.8-25.43-18.01-2.97-5.49-3.93-11.43-4.4-17.52-.22-2.82-.37-5.65-.73-8.45-.74-5.72-2.28-11.17-6.33-15.61.21-.14.42-.28.63-.42,1.29,1.72,2.75,3.35,3.85,5.18,3.57,5.96,4.16,12.74,4.95,19.42.87,7.39,2.78,14.34,7.63,20.24,4.85,5.9,11.16,9.39,18.4,11.29,6.11,1.6,12.35,2.7,18.42,4.43,19.48,5.55,31.78,18.86,39.38,37.08.05.13-.03.31-.09.81-6.98-13.35-16.25-24.14-29.78-30.77,12.07,11.82,22.35,24.86,28.73,41.16Z"/>
      <path class="cls-1" d="M114.54,31c9.62.91,19.15.49,28.65-.86,1.95-.28,3.87-.7,6.61-1.21-1.39-.78-2.1-1.23-2.86-1.6-15.05-7.4-30.8-8.45-46.94-4.8-8.99,2.04-17.89,4.48-26.8,6.86-4.15,1.11-7.43,3.31-8.26,8.68-.3-3.78,1.24-5.95,3.49-7.71.97-.76,2.05-1.51,3.21-1.88,12.81-4.08,25.27-9.36,38.82-10.85,16.96-1.86,32.31,2.35,46.34,11.81.19.13.31.36.65.76-14.4,3.47-28.65,4.11-42.92.79Z"/>
      <path class="cls-1" d="M64.96,21.26c-.78-1.13-1.68-2.21-2.32-3.44-.61-1.17-.94-2.48-1.39-3.73-2.08-5.85-6.3-9.01-12.39-9.76-5.99-.73-10.5,1.71-13.79,6.64-.14.2-.31.39-.59.74C23.02,8.05,11.51,4.37,0,.68c.05-.23.11-.46.16-.68,7.69,1.65,15.38,3.3,23.07,4.96.89.19,1.79.41,2.64.75,4.21,1.68,7.54,1.84,11.59-1.74,7.32-6.46,22.56-2.67,25.28,9.16.62,2.68,1.44,5.32,2.22,8.14Z"/>
      <path class="cls-1" d="M139.51,16.64c-6.58-.5-12.61-1.15-18.66-1.38-10.6-.41-20.79,1.6-30.77,5.27-5.34,1.96-11,3.08-16.56,4.4-1.45.35-3.06.05-4.6-.23,6.6-.78,12.58-3.31,18.42-6.12,16.4-7.89,33.16-8.18,50.24-2.7.46.15.91.36,1.92.76Z"/>
      <path class="cls-1" d="M103.78,30.98c12.25.81,23.01,5.16,32.68,13.76-15.98,2.42-30.35.15-43.28-9.11,11.43,5.92,23.57,8.19,36.38,7.12-7.59-6.21-16.43-9.54-25.78-11.77Z"/>
      <path class="cls-1" d="M128.44,108.85c-12.23-18.21-25.69-35.38-40.91-51.15,17.78,13.74,31.28,30.92,40.91,51.15Z"/>
      <path class="cls-1" d="M83.7,38.41c10.5-.18,19.45,3.12,26.31,12.22-12.48,1.81-24.36,2.12-35.69-3.53,9.94,2.97,20.04,2.68,30.87,1.68-6.2-6.42-13.61-8.82-21.49-10.37Z"/>
      <path class="cls-1" d="M43.94,11.23c1.48-.72,2.61-1.52.81-2.93,1.64-1.05,3.11-.94,3.76.54.38.86.1,2.54-.55,3.23-1.32,1.4-2.66.49-4.02-.84Z"/>
    </g>
  </g>
</svg>