<?xml version="1.0" encoding="UTF-8"?>
<svg id="Layer_2" data-name="Layer 2" xmlns="http://www.w3.org/2000/svg" viewBox="0 0 201.07 80.53">
  <defs>
    <style>
      .cls-1 {
        fill: #d49f02;
      }

      .cls-2 {
        fill: #721610;
      }

      .cls-3 {
        fill: #e84f13;
      }
    </style>
  </defs>
  <g id="Layer_1-2" data-name="Layer 1">
    <g>
      <rect class="cls-1" y="22.09" width="201.07" height=".97"/>
      <rect class="cls-1" y="79.56" width="201.07" height=".97"/>
      <g>
        <path class="cls-3" d="M54.14,9.12l.74,1.18s-1.28.91-3.31.91-5.3-1.67-5.3-5.72,3.74-5.5,5.64-5.5c2.03,0,2.99.74,2.99.74l-.98,1.45s-.89-.71-1.97-.71-2.39,1-2.39,4.01c0,3.47,2.22,4.87,4.58,3.62Z"/>
        <path class="cls-3" d="M64.7,8.31l-.34,2.75h-7.38V.2l7.24.04v2.26l-4.1-.95v2.97h3.59l-.17,1.91-3.42-.32v3.58l4.57-1.39Z"/>
        <path class="cls-3" d="M74.23,8.76v2.3h-7.24V.2h3.14v9.51l4.1-.95Z"/>
        <path class="cls-3" d="M83.99,8.31l-.34,2.75h-7.38V.2l7.24.04v2.26l-4.1-.95v2.97h3.59l-.17,1.91-3.42-.32v3.58l4.57-1.39Z"/>
        <path class="cls-3" d="M94.76,7.96c0,3.05-2.74,3.13-2.74,3.13h-5.74V.24h4.52c1.22,0,2.97.64,2.97,2.34s-1.72,2.37-1.72,2.37c0,0,2.7.3,2.7,3.01ZM89.43,4.83c.63-.06,1.71-.33,1.71-1.51,0-1.66-1.71-1.76-1.71-1.76v3.27ZM91.51,7.79c0-1.44-1.36-1.69-2.09-1.73v3.39s2.09.3,2.09-1.66Z"/>
        <path class="cls-3" d="M105.86,11.06h-3.5l-1.83-4.39s2.04-.74,2.04-2.8-1.7-1.99-1.7-1.99h-.71v9.18h-3.14V.24s2.57.02,3.64,0c1.33-.02,4.95.02,4.95,3.12s-2.33,3.25-2.33,3.25l2.59,4.46Z"/>
        <path class="cls-3" d="M113.41,9.33h-3.39l-.54,1.76h-2.11s3.01-9.75,3.17-10.28-.36-.72-.36-.72h1.63c1.37,0,2.57.92,2.92,2.24l2.33,8.75h-3.22l-.43-1.76ZM113.11,8.06l-1.18-4.88-1.51,4.88h2.69Z"/>
        <path class="cls-3" d="M125.33,2.4s-.76-.26-2.16-.39v9.06h-3.14V1.98c-1.62.12-2.6.42-2.6.42V.24h8.34l-.44,2.16Z"/>
        <path class="cls-3" d="M127.75,11.06V.24h3.14v10.83h-3.14Z"/>
        <path class="cls-3" d="M142.93.24v10.83h-2.11v-.85c0-.48-.21-.93-.57-1.24l-4.57-3.87v5.96h-2.11V.24h2.11c0,.48.21.93.57,1.24l4.57,3.87V.24h2.11Z"/>
        <path class="cls-3" d="M154.8,5.24v5.83h-1.8l-.25-.24c-.56.21-1.32.4-2.24.4-2.03,0-5.3-1.67-5.3-5.72s3.74-5.5,5.63-5.5c2.03,0,2.99.74,2.99.74l-.98,1.45s-.89-.71-1.97-.71-2.39,1-2.39,4.01c0,2.78,1.43,4.23,3.21,4.05l-.04-.07v-3.07l-.76-1.14,3.9-.03Z"/>
      </g>
      <g>
        <g>
          <path class="cls-2" d="M4.2,46.37c-.1-.11-.15-.29-.15-.56v-9.14H1.3c-.27,0-.46-.05-.56-.16s-.16-.29-.16-.54v-1.17c0-.27.05-.46.16-.56.11-.11.29-.16.56-.16h8.35c.27,0,.45.05.55.16.1.1.15.29.15.56v1.17c0,.26-.05.44-.15.54s-.28.16-.55.16h-2.75v9.14c0,.27-.05.46-.16.56s-.29.16-.56.16h-1.42c-.27,0-.45-.05-.55-.16Z"/>
          <path class="cls-2" d="M14.01,46.37c-.1-.11-.16-.29-.16-.54v-11.05c0-.27.05-.45.16-.55.11-.1.29-.15.54-.15h1.46c.27,0,.45.05.55.15s.15.28.15.55v11.05c0,.26-.05.44-.15.54-.1.1-.28.16-.55.16h-1.46c-.26,0-.44-.05-.54-.16Z"/>
          <path class="cls-2" d="M21.2,46.37c-.1-.11-.16-.29-.16-.54v-11.05c0-.26.05-.44.16-.54s.29-.16.56-.16h1.14c.29,0,.5.04.63.11s.25.21.37.42l3.23,5.93,3.23-5.91c.12-.22.23-.37.35-.44.12-.07.31-.11.58-.11h1.25c.27,0,.46.05.56.15s.16.28.16.55v11.05c0,.27-.05.45-.16.55-.11.1-.29.15-.56.15h-1.32c-.26,0-.44-.05-.54-.16s-.16-.29-.16-.54v-3.98c0-1.13.19-2.45.58-3.95h-.16c-.34,1.11-.8,2.2-1.39,3.26l-1.23,2.23c-.11.2-.21.33-.32.4-.11.07-.27.11-.48.11h-.81c-.22,0-.39-.04-.49-.11s-.21-.2-.32-.4l-1.26-2.23c-.52-.88-.95-1.96-1.3-3.26h-.16c.2.87.34,1.59.41,2.17s.11,1.18.11,1.8v3.96c0,.26-.05.44-.15.54-.1.1-.28.16-.55.16h-1.25c-.27,0-.46-.05-.56-.16Z"/>
          <path class="cls-2" d="M37.75,46.37c-.11-.11-.16-.29-.16-.56v-11.02c0-.27.05-.46.16-.56.11-.11.29-.16.56-.16h7.07c.27,0,.45.05.55.16.1.1.15.29.15.56v1.17c0,.26-.05.44-.15.54-.1.11-.28.16-.55.16h-4.93v2.26h4.03c.27,0,.46.05.56.15.11.1.16.28.16.55v1.18c0,.27-.05.46-.16.56-.11.11-.29.16-.56.16h-4.03v2.4h5.09c.27,0,.46.05.56.15.11.1.16.28.16.55v1.18c0,.27-.05.46-.16.56-.11.1-.29.16-.56.16h-7.23c-.27,0-.46-.05-.56-.16Z"/>
          <path class="cls-2" d="M50.18,46.37c-.1-.11-.16-.29-.16-.56v-11.02c0-.27.05-.46.16-.56s.29-.16.56-.16h1.42c.27,0,.46.05.56.16.11.1.16.29.16.56v9.14h4.53c.27,0,.46.05.56.15.11.1.16.28.16.55v1.18c0,.27-.05.46-.16.56-.11.1-.29.16-.56.16h-6.67c-.27,0-.46-.05-.56-.16Z"/>
          <path class="cls-2" d="M61.74,46.37c-.11-.11-.16-.29-.16-.56v-11.02c0-.27.05-.46.16-.56.11-.11.29-.16.56-.16h7.07c.27,0,.45.05.55.16.1.1.15.29.15.56v1.17c0,.26-.05.44-.15.54-.1.11-.28.16-.55.16h-4.93v2.26h4.04c.27,0,.46.05.56.15.11.1.16.28.16.55v1.18c0,.27-.05.46-.16.56-.11.11-.29.16-.56.16h-4.04v2.4h5.09c.27,0,.46.05.56.15.11.1.16.28.16.55v1.18c0,.27-.05.46-.16.56-.11.1-.29.16-.56.16h-7.23c-.27,0-.46-.05-.56-.16Z"/>
          <path class="cls-2" d="M75.27,46.08c-.8-.47-1.36-1.18-1.7-2.13-.06-.15-.09-.27-.09-.37,0-.25.18-.43.53-.54l1.28-.46c.17-.06.31-.09.4-.09.12,0,.21.04.29.11s.16.21.25.39c.16.39.44.68.83.89.39.21.87.32,1.43.32.76,0,1.34-.11,1.73-.32s.59-.57.59-1.06c0-.4-.2-.69-.61-.87-.41-.18-.99-.31-1.75-.39-.97-.12-1.78-.27-2.44-.46-.66-.19-1.22-.55-1.69-1.08s-.71-1.29-.71-2.29c0-.76.19-1.44.57-2.03.38-.6.94-1.06,1.69-1.39.75-.33,1.66-.5,2.74-.5,1.24,0,2.23.21,2.96.63.74.42,1.31,1.07,1.72,1.95.08.15.12.29.12.4,0,.22-.17.4-.51.54l-1.33.58c-.15.07-.28.11-.39.11s-.2-.04-.27-.11-.16-.19-.24-.35c-.2-.39-.46-.68-.79-.87-.33-.19-.75-.29-1.28-.29-.73,0-1.25.1-1.59.29-.33.19-.5.5-.5.92s.22.73.66.9c.44.17,1.1.3,1.99.4.87.1,1.62.27,2.25.48.64.22,1.18.59,1.61,1.13.44.54.66,1.29.66,2.25,0,.8-.21,1.5-.63,2.11s-1.02,1.08-1.81,1.41c-.78.33-1.71.5-2.77.5-1.34,0-2.42-.24-3.21-.71Z"/>
          <path class="cls-2" d="M88.67,46.08c-.79-.47-1.36-1.18-1.7-2.13-.06-.15-.09-.27-.09-.37,0-.25.18-.43.53-.54l1.28-.46c.18-.06.31-.09.4-.09.12,0,.21.04.29.11s.16.21.25.39c.16.39.44.68.83.89.39.21.87.32,1.43.32.76,0,1.34-.11,1.73-.32.39-.22.59-.57.59-1.06,0-.4-.2-.69-.61-.87-.41-.18-.99-.31-1.75-.39-.97-.12-1.78-.27-2.44-.46-.66-.19-1.22-.55-1.69-1.08-.47-.53-.71-1.29-.71-2.29,0-.76.19-1.44.57-2.03.38-.6.94-1.06,1.69-1.39.75-.33,1.66-.5,2.74-.5,1.24,0,2.23.21,2.96.63.74.42,1.31,1.07,1.72,1.95.08.15.12.29.12.4,0,.22-.17.4-.51.54l-1.33.58c-.15.07-.28.11-.39.11s-.2-.04-.27-.11-.16-.19-.24-.35c-.2-.39-.46-.68-.79-.87-.33-.19-.75-.29-1.28-.29-.73,0-1.25.1-1.59.29-.33.19-.5.5-.5.92s.22.73.66.9c.44.17,1.1.3,1.99.4.87.1,1.62.27,2.25.48.64.22,1.18.59,1.61,1.13.44.54.66,1.29.66,2.25,0,.8-.21,1.5-.63,2.11-.42.61-1.02,1.08-1.81,1.41-.78.33-1.71.5-2.77.5-1.35,0-2.42-.24-3.21-.71Z"/>
          <path class="cls-2" d="M106.68,46.42c-.07-.07-.11-.19-.11-.35v-11.54c0-.16.04-.28.11-.35s.19-.11.37-.11h.77c.16,0,.28.04.35.11s.11.19.11.35v4.89h6.02v-4.89c0-.16.03-.28.1-.35s.18-.11.36-.11h.77c.16,0,.28.04.35.11s.11.19.11.35v11.54c0,.16-.04.28-.11.35-.07.07-.19.11-.35.11h-.77c-.18,0-.29-.04-.36-.11-.06-.07-.1-.19-.1-.35v-5.07h-6.02v5.07c0,.16-.04.28-.11.35-.07.07-.19.11-.35.11h-.77c-.18,0-.3-.04-.37-.11Z"/>
          <path class="cls-2" d="M121.08,46.42c-.07-.07-.1-.19-.1-.35v-11.54c0-.16.04-.28.1-.35.07-.07.19-.11.37-.11h7.05c.16,0,.28.04.35.11s.11.19.11.35v.65c0,.17-.04.3-.11.37s-.19.11-.35.11h-5.82v3.77h5c.18,0,.29.03.36.1s.1.19.1.37v.65c0,.18-.03.3-.1.36-.06.06-.18.1-.36.1h-5v3.95h6.02c.18,0,.3.04.37.1.07.07.1.19.1.37v.65c0,.16-.03.28-.1.35-.07.07-.19.11-.37.11h-7.24c-.18,0-.3-.04-.37-.11Z"/>
          <path class="cls-2" d="M133.61,46.42c-.07-.07-.11-.19-.11-.35v-11.54c0-.16.04-.28.11-.35s.19-.11.37-.11h4.91c1.18,0,2.11.33,2.79.98s1.02,1.57,1.02,2.75c0,.94-.23,1.7-.68,2.3-.46.6-1.09.99-1.91,1.19.19.09.35.22.48.39.13.16.27.37.39.61l1.95,3.75c.05.08.07.16.07.25,0,.15-.1.23-.3.23h-.77c-.29,0-.5-.03-.61-.08-.12-.05-.22-.16-.3-.32l-1.6-3.21c-.26-.53-.55-.89-.88-1.1-.33-.2-.81-.31-1.46-.31h-1.88v4.56c0,.16-.04.28-.11.35-.07.07-.19.11-.35.11h-.77c-.18,0-.3-.04-.37-.11ZM138.73,39.95c.69,0,1.23-.19,1.61-.56s.58-.9.58-1.58-.19-1.22-.57-1.6c-.38-.37-.92-.56-1.62-.56h-3.53v4.3h3.53Z"/>
          <path class="cls-2" d="M147.38,46.42c-.07-.07-.11-.19-.11-.35v-11.54c0-.16.04-.28.11-.35s.19-.11.37-.11h.77c.16,0,.28.04.35.11.07.07.1.19.1.35v11.54c0,.16-.04.28-.1.35s-.19.11-.35.11h-.77c-.18,0-.3-.04-.37-.11Z"/>
          <path class="cls-2" d="M156.86,46.42c-.06-.07-.1-.19-.1-.35v-10.42h-3.39c-.16,0-.28-.04-.35-.11s-.11-.19-.11-.37v-.65c0-.16.04-.28.11-.35s.19-.11.35-.11h8.44c.17,0,.29.04.36.11s.1.19.1.35v.65c0,.17-.03.3-.1.37s-.18.11-.36.11h-3.37v10.42c0,.16-.04.28-.11.35-.07.07-.19.11-.35.11h-.77c-.18,0-.3-.04-.36-.11Z"/>
          <path class="cls-2" d="M163.71,46.3c0-.07.02-.15.05-.23l4.54-11.65c.06-.15.13-.25.21-.31s.21-.08.37-.08h.72c.16,0,.29.03.37.08.08.05.15.15.19.29l4.56,11.67c.04.08.05.16.05.23,0,.15-.12.23-.35.23h-.7c-.28,0-.48-.03-.59-.08-.11-.05-.19-.16-.24-.32l-1.09-2.86h-5.21l-1.09,2.86c-.06.16-.14.27-.25.32-.11.05-.31.08-.59.08h-.61c-.23,0-.35-.08-.35-.23ZM171.32,41.88l-1.75-4.63c-.12-.35-.2-.68-.25-1-.05-.32-.07-.53-.07-.63h-.11c0,.13-.02.34-.06.65-.04.3-.12.63-.24.96l-1.77,4.65h4.24Z"/>
          <path class="cls-2" d="M179.27,45.6c-.85-.79-1.28-1.89-1.28-3.3v-4c0-1.4.42-2.5,1.27-3.3.85-.79,2.05-1.19,3.62-1.19,1.29,0,2.31.25,3.08.75s1.31,1.25,1.64,2.23c.04.08.05.16.05.25s-.03.15-.08.2-.14.1-.25.15l-.74.25c-.08.04-.16.05-.25.05s-.15-.03-.19-.08c-.05-.05-.09-.14-.14-.25-.22-.67-.58-1.16-1.08-1.48-.5-.32-1.18-.48-2.04-.48-1.04,0-1.84.25-2.39.75-.55.5-.82,1.22-.82,2.14v4.02c0,.94.28,1.66.83,2.16.55.5,1.35.75,2.39.75s1.81-.24,2.38-.71c.57-.47.85-1.1.85-1.89v-1.14h-3.05c-.16,0-.28-.04-.35-.11-.07-.07-.11-.19-.11-.35v-.65c0-.18.04-.3.11-.37s.19-.1.35-.1h4.25c.18,0,.3.03.37.1.07.07.11.19.11.37v2.25c0,.82-.19,1.54-.57,2.17s-.94,1.12-1.67,1.47-1.62.53-2.65.53c-1.57,0-2.78-.4-3.63-1.19Z"/>
          <path class="cls-2" d="M192.41,46.42c-.07-.07-.1-.19-.1-.35v-11.54c0-.16.04-.28.1-.35.07-.07.19-.11.37-.11h7.05c.16,0,.28.04.35.11s.11.19.11.35v.65c0,.17-.04.3-.11.37s-.19.11-.35.11h-5.82v3.77h5c.17,0,.29.03.36.1s.1.19.1.37v.65c0,.18-.03.3-.1.36-.06.06-.18.1-.36.1h-5v3.95h6.02c.18,0,.3.04.37.1.07.07.11.19.11.37v.65c0,.16-.04.28-.11.35-.07.07-.19.11-.37.11h-7.24c-.18,0-.3-.04-.37-.11Z"/>
        </g>
        <g>
          <path class="cls-2" d="M.55,68.49c-.07-.07-.1-.19-.1-.35v-11.54c0-.16.04-.28.1-.35.07-.07.19-.1.37-.1h4.67c1.25,0,2.24.35,2.96,1.06.72.71,1.09,1.68,1.09,2.92s-.36,2.19-1.09,2.89c-.72.7-1.71,1.05-2.96,1.05h-3.44v4.07c0,.16-.04.28-.11.35s-.19.11-.35.11h-.77c-.18,0-.3-.04-.37-.11ZM5.43,62.51c.76,0,1.36-.21,1.79-.63s.65-1.01.65-1.75-.22-1.35-.65-1.77-1.03-.63-1.79-.63h-3.28v4.79h3.28Z"/>
          <path class="cls-2" d="M13.41,68.49c-.07-.07-.11-.19-.11-.35v-11.54c0-.16.04-.28.11-.35s.19-.1.37-.1h4.91c1.18,0,2.11.33,2.79.98.68.66,1.02,1.57,1.02,2.75,0,.94-.23,1.7-.68,2.3-.46.6-1.09.99-1.91,1.19.19.09.35.22.48.39.13.16.27.37.39.61l1.95,3.75c.05.08.07.16.07.25,0,.15-.1.23-.3.23h-.77c-.29,0-.5-.03-.61-.08-.12-.05-.22-.16-.3-.32l-1.6-3.21c-.26-.53-.55-.89-.88-1.1-.33-.2-.81-.31-1.46-.31h-1.88v4.56c0,.16-.04.28-.11.35s-.19.11-.35.11h-.77c-.18,0-.3-.04-.37-.11ZM18.53,62.02c.69,0,1.23-.19,1.61-.56.39-.37.58-.9.58-1.58s-.19-1.22-.57-1.6-.92-.56-1.62-.56h-3.53v4.3h3.53Z"/>
          <path class="cls-2" d="M26.62,68.49c-.07-.07-.1-.19-.1-.35v-11.54c0-.16.04-.28.1-.35.07-.07.19-.1.37-.1h7.05c.16,0,.28.03.35.1s.11.19.11.35v.65c0,.18-.04.3-.11.37-.07.07-.19.11-.35.11h-5.82v3.77h5c.17,0,.29.04.36.11s.1.19.1.37v.65c0,.17-.03.29-.1.36s-.18.1-.36.1h-5v3.95h6.02c.18,0,.3.04.37.11s.11.19.11.37v.65c0,.16-.04.28-.11.35s-.19.11-.37.11h-7.24c-.18,0-.3-.04-.37-.11Z"/>
          <path class="cls-2" d="M39.61,68.13c-.76-.49-1.33-1.25-1.72-2.26-.04-.11-.05-.19-.05-.25,0-.08.03-.15.08-.2.05-.05.14-.1.25-.15l.72-.26c.09-.03.18-.05.25-.05.08,0,.15.03.19.08.05.05.1.14.16.25.57,1.33,1.63,2,3.17,2,2.12,0,3.18-.73,3.18-2.18,0-.48-.14-.85-.41-1.12-.28-.27-.63-.46-1.06-.57-.43-.11-.98-.21-1.65-.29-.96-.11-1.76-.25-2.39-.43-.64-.18-1.18-.51-1.63-1-.45-.49-.68-1.18-.68-2.1,0-.74.18-1.39.54-1.95.36-.56.89-1,1.6-1.31.7-.31,1.54-.46,2.53-.46,1.19,0,2.15.22,2.86.65s1.29,1.11,1.74,2.03c.06.12.09.21.09.26,0,.15-.11.27-.33.35l-.74.33c-.14.05-.22.07-.25.07-.12,0-.23-.1-.33-.3-.32-.61-.71-1.06-1.18-1.35s-1.09-.44-1.86-.44c-.96,0-1.69.17-2.18.51-.5.34-.75.84-.75,1.49,0,.49.15.87.45,1.14.3.27.68.46,1.14.58.46.12,1.05.22,1.78.3.88.11,1.62.26,2.24.46.62.2,1.14.54,1.55,1.03s.62,1.17.62,2.06c0,1.18-.42,2.11-1.26,2.79-.84.68-2.05,1.02-3.61,1.02-1.27,0-2.29-.25-3.05-.74Z"/>
          <path class="cls-2" d="M51.47,68.49c-.07-.07-.11-.19-.11-.35v-11.54c0-.16.04-.28.11-.35s.19-.1.37-.1h7.05c.16,0,.28.03.35.1.07.07.1.19.1.35v.65c0,.18-.04.3-.1.37s-.19.11-.35.11h-5.82v3.77h5c.17,0,.29.04.36.11s.1.19.1.37v.65c0,.17-.03.29-.1.36s-.18.1-.36.1h-5v3.95h6.02c.18,0,.3.04.37.11s.11.19.11.37v.65c0,.16-.04.28-.11.35s-.19.11-.37.11h-7.24c-.18,0-.3-.04-.37-.11Z"/>
          <path class="cls-2" d="M63.44,68.49c-.07-.07-.11-.19-.11-.35v-11.54c0-.16.04-.28.11-.35s.19-.1.37-.1h4.91c1.18,0,2.11.33,2.79.98.68.66,1.02,1.57,1.02,2.75,0,.94-.23,1.7-.68,2.3-.46.6-1.09.99-1.91,1.19.19.09.35.22.48.39.13.16.27.37.39.61l1.95,3.75c.05.08.07.16.07.25,0,.15-.1.23-.3.23h-.77c-.29,0-.5-.03-.61-.08-.12-.05-.22-.16-.3-.32l-1.6-3.21c-.26-.53-.55-.89-.88-1.1-.33-.2-.81-.31-1.46-.31h-1.88v4.56c0,.16-.04.28-.11.35s-.19.11-.35.11h-.77c-.18,0-.3-.04-.37-.11ZM68.56,62.02c.69,0,1.23-.19,1.61-.56.39-.37.58-.9.58-1.58s-.19-1.22-.57-1.6-.92-.56-1.62-.56h-3.53v4.3h3.53Z"/>
          <path class="cls-2" d="M79.75,68.52c-.08-.05-.15-.15-.19-.29l-4.39-11.63c-.04-.09-.05-.17-.05-.23,0-.15.12-.23.35-.23h.68c.28,0,.47.03.58.08.1.05.19.16.24.33l3.05,8.44c.14.41.25.82.33,1.23l.1.39h.09s.06-.24.13-.57c.08-.33.17-.67.29-1.03l3.04-8.45c.06-.16.14-.27.25-.33.11-.05.3-.08.58-.08h.67c.22,0,.33.08.33.23,0,.06-.02.13-.05.23l-4.37,11.61c-.06.15-.13.25-.21.31s-.21.08-.37.08h-.72c-.16,0-.29-.03-.37-.08Z"/>
          <path class="cls-2" d="M89.24,68.49c-.07-.07-.11-.19-.11-.35v-11.54c0-.16.04-.28.11-.35s.19-.1.37-.1h.77c.16,0,.28.03.35.1.07.07.1.19.1.35v11.54c0,.16-.04.28-.1.35-.07.07-.19.11-.35.11h-.77c-.18,0-.3-.04-.37-.11Z"/>
          <path class="cls-2" d="M95.38,68.49c-.07-.07-.1-.19-.1-.35v-11.54c0-.16.04-.28.1-.35.07-.07.19-.1.37-.1h.75c.13,0,.23.02.29.05.06.04.12.09.17.18l4.93,7.17c.33.48.73,1.2,1.21,2.16.16.36.27.57.32.63h.09s-.02-.26-.07-.7c-.15-1.12-.23-2.02-.23-2.68v-6.35c0-.16.04-.28.11-.35s.19-.1.35-.1h.72c.18,0,.29.03.36.1s.1.19.1.35v11.54c0,.16-.03.28-.1.35s-.18.11-.36.11h-.75c-.12,0-.21-.01-.28-.04s-.13-.09-.19-.18l-5.02-7.3c-.27-.4-.51-.82-.72-1.26-.21-.44-.33-.7-.37-.77-.2-.41-.31-.63-.33-.67h-.07s.02.23.07.63c.14,1.04.21,1.92.21,2.65v6.49c0,.16-.04.28-.11.35s-.19.11-.37.11h-.7c-.18,0-.3-.04-.37-.11Z"/>
          <path class="cls-2" d="M110.22,67.67c-.85-.79-1.28-1.89-1.28-3.3v-4c0-1.4.42-2.5,1.27-3.3.85-.8,2.05-1.19,3.62-1.19,1.29,0,2.31.25,3.08.75.77.5,1.31,1.25,1.64,2.23.04.08.05.16.05.25s-.03.15-.08.2-.14.1-.25.15l-.74.25c-.08.04-.16.05-.25.05s-.15-.03-.19-.08-.09-.14-.14-.25c-.22-.67-.58-1.16-1.08-1.48-.5-.32-1.18-.48-2.04-.48-1.04,0-1.84.25-2.39.75s-.82,1.22-.82,2.14v4.02c0,.94.28,1.65.83,2.16s1.35.75,2.39.75,1.81-.24,2.38-.71.85-1.1.85-1.89v-1.14h-3.05c-.16,0-.28-.04-.35-.11-.07-.07-.11-.19-.11-.35v-.65c0-.18.04-.3.11-.37.07-.07.19-.11.35-.11h4.25c.17,0,.3.04.37.11.07.07.11.19.11.37v2.25c0,.82-.19,1.54-.57,2.17-.38.63-.94,1.12-1.67,1.47-.74.35-1.62.53-2.65.53-1.57,0-2.78-.4-3.63-1.19Z"/>
          <path class="cls-2" d="M127.37,68.44c-.11-.11-.16-.29-.16-.56v-11.02c0-.27.05-.46.16-.56s.29-.16.56-.16h1.46c.18,0,.31.03.41.08.1.05.19.14.27.25l3.51,5.31c.49.74.92,1.65,1.3,2.74l.16.4h.12c-.38-1.29-.56-2.58-.56-3.88v-4.19c0-.27.05-.46.16-.56s.29-.16.56-.16h1.3c.27,0,.45.05.55.16s.15.29.15.56v11.02c0,.27-.05.46-.15.56s-.28.16-.55.16h-1.42c-.18,0-.31-.02-.41-.07-.1-.05-.2-.13-.29-.26l-3.44-5.23c-.61-.91-1.1-2.01-1.47-3.28h-.12c.01.06.1.45.25,1.17.16.73.24,1.64.24,2.75v4.19c0,.27-.05.46-.16.56s-.29.16-.56.16h-1.3c-.27,0-.46-.05-.56-.16Z"/>
          <path class="cls-2" d="M140.11,68.25c0-.08.03-.2.09-.35l4.18-11.16c.08-.23.18-.39.31-.47.12-.08.31-.12.57-.12h1.35c.26,0,.45.04.57.11.12.08.23.23.31.45l4.19,11.19c.05.13.07.24.07.33,0,.25-.18.37-.54.37h-1.32c-.43,0-.74-.04-.91-.13s-.3-.26-.37-.52l-.56-1.67h-4.33l-.56,1.67c-.09.26-.22.43-.39.52-.16.09-.46.13-.89.13h-1.21c-.36,0-.54-.12-.54-.35ZM147.3,63.99l-.91-2.72c-.26-.8-.4-1.63-.44-2.51h-.16c-.01.87-.15,1.7-.42,2.49l-.91,2.74h2.84Z"/>
          <path class="cls-2" d="M155.97,68.44c-.1-.11-.15-.29-.15-.56v-9.14h-2.75c-.27,0-.46-.05-.56-.16-.11-.1-.16-.29-.16-.54v-1.17c0-.27.05-.46.16-.56s.29-.16.56-.16h8.35c.27,0,.45.05.55.16.1.11.15.29.15.56v1.17c0,.26-.05.44-.15.54-.1.11-.28.16-.55.16h-2.75v9.14c0,.27-.05.46-.16.56-.1.11-.29.16-.56.16h-1.42c-.27,0-.45-.05-.55-.16Z"/>
          <path class="cls-2" d="M166.3,67.62c-.88-.83-1.32-1.96-1.32-3.4v-7.35c0-.27.05-.46.16-.56.1-.11.29-.16.56-.16h1.42c.27,0,.45.05.55.16s.15.29.15.56v7.42c0,.64.19,1.13.57,1.47s.93.51,1.66.51,1.29-.17,1.67-.51c.38-.34.56-.83.56-1.47v-7.42c0-.27.05-.46.16-.56.11-.11.29-.16.56-.16h1.42c.27,0,.46.05.56.16s.16.29.16.56v7.35c0,1.44-.44,2.57-1.32,3.4s-2.13,1.25-3.77,1.25-2.88-.42-3.75-1.25Z"/>
          <path class="cls-2" d="M178.98,68.44c-.1-.11-.16-.29-.16-.56v-11.02c0-.27.05-.46.16-.56.11-.11.29-.16.56-.16h4.88c1.27,0,2.28.36,3.02,1.07.74.71,1.1,1.7,1.1,2.96,0,.87-.17,1.6-.53,2.22-.35.61-.85,1.07-1.51,1.38.04.05.16.25.37.61l1.81,3.46c.08.13.12.26.12.4,0,.23-.16.35-.49.35h-1.4c-.44,0-.77-.05-.97-.14s-.37-.27-.5-.54l-1.3-2.7c-.2-.41-.41-.68-.64-.82-.23-.14-.59-.21-1.1-.21h-.72v3.7c0,.27-.05.46-.16.56s-.29.16-.56.16h-1.42c-.27,0-.46-.05-.56-.16ZM184.12,61.62c.47,0,.83-.13,1.08-.38.25-.25.38-.61.38-1.06s-.13-.81-.38-1.06c-.25-.25-.61-.38-1.08-.38h-2.44v2.88h2.44Z"/>
          <path class="cls-2" d="M192.12,68.44c-.1-.11-.16-.29-.16-.56v-11.02c0-.27.05-.46.16-.56.11-.11.29-.16.56-.16h7.07c.27,0,.45.05.55.16s.15.29.15.56v1.17c0,.26-.05.44-.15.54-.1.11-.28.16-.55.16h-4.93v2.26h4.03c.27,0,.46.05.56.15s.16.28.16.55v1.17c0,.27-.05.46-.16.56s-.29.16-.56.16h-4.03v2.4h5.09c.27,0,.46.05.56.15.11.1.16.28.16.55v1.17c0,.27-.05.46-.16.56-.1.11-.29.16-.56.16h-7.23c-.27,0-.46-.05-.56-.16Z"/>
        </g>
      </g>
    </g>
  </g>
</svg>