<?xml version="1.0" encoding="UTF-8"?>
<svg id="Layer_2" xmlns="http://www.w3.org/2000/svg" version="1.1" viewBox="0 0 720 964.4">
  <!-- Generator: Adobe Illustrator 30.1.0, SVG Export Plug-In . SVG Version: 2.1.1 Build 136)  -->
  <defs>
    <style>
      .st0 {
        fill: #86b926;
      }

      .st1 {
        fill: #e84e0f;
      }

      .st2 {
        fill: #312783;
      }

      .st3 {
        fill: #fdc300;
      }

      .st4 {
        fill: #319fda;
      }

      .st5 {
        fill: #72170f;
      }

      .st6 {
        fill: #c90c0f;
      }

      .st7 {
        fill: #007739;
      }

      .st8 {
        fill: #d59f00;
      }
    </style>
  </defs>
  <g id="Layer_1-2">
    <g>
      <g>
        <path class="st1" d="M26.4,198.6c-3.2-3-4.8-7.2-4.8-12.5v-26.9c0-1,.2-1.7.6-2.1s1.1-.6,2.1-.6h5.2c1,0,1.7.2,2,.6.4.4.5,1.1.5,2.1v27.2c0,2.4.7,4.2,2.1,5.4,1.4,1.2,3.4,1.9,6.1,1.9s4.7-.6,6.1-1.9c1.4-1.2,2.1-3,2.1-5.4v-27.2c0-1,.2-1.7.6-2.1.4-.4,1.1-.6,2.1-.6h5.2c1,0,1.7.2,2.1.6.4.4.6,1.1.6,2.1v26.9c0,5.3-1.6,9.4-4.8,12.5-3.2,3-7.8,4.6-13.8,4.6s-10.5-1.5-13.8-4.6h0Z"/>
        <path class="st1" d="M91.5,201.7c-.4-.4-.6-1.1-.6-2.1v-33.5h-10.1c-1,0-1.7-.2-2.1-.6-.4-.4-.6-1.1-.6-2v-4.3c0-1,.2-1.7.6-2.1s1.1-.6,2.1-.6h30.6c1,0,1.7.2,2,.6.4.4.6,1.1.6,2.1v4.3c0,.9-.2,1.6-.6,2-.4.4-1,.6-2,.6h-10.1v33.5c0,1-.2,1.7-.6,2.1s-1.1.6-2.1.6h-5.2c-1,0-1.7-.2-2-.6h0Z"/>
        <path class="st1" d="M144,201.7c-.4-.4-.6-1.1-.6-2.1v-33.5h-10.1c-1,0-1.7-.2-2.1-.6-.4-.4-.6-1.1-.6-2v-4.3c0-1,.2-1.7.6-2.1s1.1-.6,2.1-.6h30.6c1,0,1.7.2,2,.6.4.4.6,1.1.6,2.1v4.3c0,.9-.2,1.6-.6,2-.4.4-1,.6-2,.6h-10.1v33.5c0,1-.2,1.7-.6,2.1s-1.1.6-2.1.6h-5.2c-1,0-1.7-.2-2-.6h0Z"/>
        <path class="st1" d="M177.8,201c0-.3.1-.7.3-1.3l15.3-40.9c.3-.9.7-1.4,1.1-1.7.4-.3,1.1-.4,2.1-.4h4.9c.9,0,1.6.1,2.1.4s.8.8,1.1,1.6l15.4,41c.2.5.3.9.3,1.2,0,.9-.7,1.4-2,1.4h-4.8c-1.6,0-2.7-.2-3.3-.5-.6-.3-1.1-.9-1.4-1.9l-2.1-6.1h-15.9l-2.1,6.1c-.3.9-.8,1.6-1.4,1.9-.6.3-1.7.5-3.3.5h-4.4c-1.3,0-2-.4-2-1.3h0ZM204.2,185.3l-3.3-10c-.9-2.9-1.5-6-1.6-9.2h-.6c0,3.2-.6,6.2-1.5,9.1l-3.3,10h10.4,0Z"/>
        <path class="st1" d="M240.2,201.7c-.4-.4-.6-1.1-.6-2.1v-40.4c0-1,.2-1.7.6-2.1s1.1-.6,2.1-.6h17.9c4.7,0,8.4,1.3,11.1,3.9s4,6.2,4,10.9-.6,5.9-1.9,8.1c-1.3,2.2-3.1,3.9-5.5,5.1.1.2.6.9,1.4,2.2l6.6,12.7c.3.5.5,1,.5,1.5,0,.9-.6,1.3-1.8,1.3h-5.1c-1.6,0-2.8-.2-3.6-.5s-1.4-1-1.8-2l-4.8-9.9c-.7-1.5-1.5-2.5-2.4-3-.8-.5-2.2-.8-4-.8h-2.6v13.6c0,1-.2,1.7-.6,2.1s-1.1.6-2.1.6h-5.2c-1,0-1.7-.2-2.1-.6h0ZM259.1,176.6c1.7,0,3-.5,4-1.4s1.4-2.2,1.4-3.9-.5-3-1.4-3.9-2.2-1.4-4-1.4h-8.9v10.6h8.9Z"/>
        <path class="st1" d="M324.2,201.7c-.4-.4-.6-1.1-.6-2.1v-40.4c0-1,.2-1.7.6-2.1.4-.4,1.1-.6,2.1-.6h17.2c4.8,0,8.7,1.4,11.5,4.1,2.8,2.7,4.2,6.5,4.2,11.3s-1.4,8.6-4.2,11.3c-2.8,2.7-6.7,4.1-11.5,4.1h-9.4v12.2c0,1-.2,1.7-.6,2.1-.4.4-1.1.6-2.1.6h-5.2c-1,0-1.7-.2-2.1-.6h0ZM342.4,177.8c1.9,0,3.4-.5,4.4-1.5,1-1,1.6-2.4,1.6-4.3s-.5-3.3-1.6-4.3-2.5-1.6-4.4-1.6h-8.3v11.7h8.3Z"/>
        <path class="st1" d="M380.3,201.7c-.4-.4-.6-1.1-.6-2.1v-40.4c0-1,.2-1.7.6-2.1.4-.4,1.1-.6,2.1-.6h17.9c4.7,0,8.4,1.3,11.1,3.9s4,6.2,4,10.9-.6,5.9-1.9,8.1c-1.3,2.2-3.1,3.9-5.5,5.1.1.2.6.9,1.4,2.2l6.6,12.7c.3.5.5,1,.5,1.5,0,.9-.6,1.3-1.8,1.3h-5.1c-1.6,0-2.8-.2-3.6-.5s-1.4-1-1.8-2l-4.8-9.9c-.7-1.5-1.5-2.5-2.4-3-.8-.5-2.2-.8-4-.8h-2.6v13.6c0,1-.2,1.7-.6,2.1-.4.4-1.1.6-2.1.6h-5.2c-1,0-1.7-.2-2.1-.6h0ZM399.2,176.6c1.7,0,3-.5,4-1.4s1.4-2.2,1.4-3.9-.5-3-1.4-3.9-2.2-1.4-4-1.4h-8.9v10.6h8.9Z"/>
        <path class="st1" d="M433.2,201c0-.3.1-.7.3-1.3l15.3-40.9c.3-.9.7-1.4,1.1-1.7.5-.3,1.1-.4,2.1-.4h5c.9,0,1.6.1,2.1.4.5.3.8.8,1.1,1.6l15.4,41c.2.5.3.9.3,1.2,0,.9-.7,1.4-2,1.4h-4.8c-1.6,0-2.7-.2-3.3-.5s-1.1-.9-1.4-1.9l-2.1-6.1h-15.9l-2.1,6.1c-.3.9-.8,1.6-1.4,1.9-.6.3-1.7.5-3.3.5h-4.4c-1.3,0-2-.4-2-1.3h0ZM459.6,185.3l-3.3-10c-.9-2.9-1.5-6-1.6-9.2h-.6c0,3.2-.6,6.2-1.5,9.1l-3.3,10h10.4,0Z"/>
        <path class="st1" d="M495.7,201.7c-.4-.4-.6-1.1-.6-2.1v-40.4c0-1,.2-1.7.6-2.1.4-.4,1.1-.6,2.1-.6h15c6,0,10.7,1.5,14,4.6,3.3,3.1,5,7.3,5,12.7v11.1c0,5.4-1.7,9.6-5,12.7-3.3,3.1-8,4.6-14,4.6h-15c-1,0-1.7-.2-2.1-.6h0ZM512.7,192.7c2.8,0,5-.6,6.4-2,1.5-1.3,2.2-3.2,2.2-5.8v-11.1c0-2.6-.7-4.5-2.2-5.8s-3.6-2-6.4-2h-7.1v26.6h7.1Z"/>
        <path class="st1" d="M554,201.7c-.4-.4-.6-1.1-.6-2.1v-40.4c0-1,.2-1.7.6-2.1.4-.4,1.1-.6,2.1-.6h25.9c1,0,1.7.2,2,.6.4.4.5,1.1.5,2.1v4.3c0,.9-.2,1.6-.5,2-.4.4-1,.6-2,.6h-18.1v8.3h14.8c1,0,1.7.2,2.1.6.4.4.6,1,.6,2v4.3c0,1-.2,1.7-.6,2.1-.4.4-1.1.6-2.1.6h-14.8v8.8h18.7c1,0,1.7.2,2.1.6.4.4.6,1,.6,2v4.3c0,1-.2,1.7-.6,2.1-.4.4-1.1.6-2.1.6h-26.5c-1,0-1.7-.2-2.1-.6h0Z"/>
        <path class="st1" d="M610.6,200.6c-2.9-1.7-5-4.3-6.2-7.8-.2-.6-.3-1-.3-1.4,0-.9.6-1.6,1.9-2l4.7-1.7c.6-.2,1.1-.3,1.5-.3s.8.1,1.1.4c.3.3.6.8.9,1.4.6,1.4,1.6,2.5,3,3.3,1.4.8,3.2,1.2,5.2,1.2s4.9-.4,6.3-1.2c1.4-.8,2.2-2.1,2.2-3.9s-.8-2.5-2.2-3.2c-1.5-.7-3.6-1.1-6.4-1.4-3.6-.4-6.5-1-8.9-1.7s-4.5-2-6.2-4c-1.7-1.9-2.6-4.8-2.6-8.4s.7-5.3,2.1-7.5,3.5-3.9,6.2-5.1c2.7-1.2,6.1-1.8,10-1.8s8.2.8,10.9,2.3c2.7,1.5,4.8,3.9,6.3,7.1.3.6.5,1.1.5,1.5,0,.8-.6,1.5-1.9,2l-4.9,2.1c-.6.3-1,.4-1.4.4s-.7-.1-1-.4-.6-.7-.9-1.3c-.7-1.4-1.7-2.5-2.9-3.2-1.2-.7-2.8-1.1-4.7-1.1s-4.6.4-5.8,1.1c-1.2.7-1.8,1.8-1.8,3.4s.8,2.7,2.4,3.3,4,1.1,7.3,1.4c3.2.4,5.9,1,8.3,1.8,2.3.8,4.3,2.2,5.9,4.1s2.4,4.7,2.4,8.2-.8,5.5-2.3,7.7c-1.5,2.2-3.8,3.9-6.6,5.2-2.9,1.2-6.3,1.8-10.2,1.8s-8.8-.9-11.8-2.6h0Z"/>
        <path class="st1" d="M662.7,201.7c-.4-.4-.6-1.1-.6-2.1v-40.4c0-1,.2-1.7.6-2.1.4-.4,1.1-.6,2.1-.6h5.2c1,0,1.7.2,2.1.6.4.4.6,1.1.6,2.1v15.1h15.5v-15.1c0-1,.2-1.7.6-2.1s1.1-.6,2.1-.6h5.2c1,0,1.7.2,2,.6.4.4.5,1.1.5,2.1v40.4c0,1-.2,1.7-.5,2.1s-1,.6-2,.6h-5.2c-1,0-1.7-.2-2.1-.6s-.6-1.1-.6-2.1v-15.7h-15.5v15.7c0,1-.2,1.7-.6,2.1-.4.4-1.1.6-2.1.6h-5.2c-1,0-1.7-.2-2.1-.6Z"/>
      </g>
      <rect class="st0" x="21.5" y="825.4" width="676.9" height="2.5"/>
      <g>
        <path class="st1" d="M205.4,748v19.1s-9.2,13.8-36.2,13.8-53.5-15.9-53.5-51.1,37-47.2,53-47.2,33.3,4.3,40.5,21c5,11.6,2.8,26-5.4,35.6-9.5,11-34.3,15.9-47.7,7.6,3.5,7.9,9.5,14.8,19.9,14.8,24.5,0,29.6-13.5,29.6-13.5h0ZM151.2,723.1s0,2.6.5,6.5c0,.1,2.5,9.8,17.8,7.6,17.2-2.5,20.8-34.4,1.4-34.4s-19.6,20.3-19.6,20.3h0Z"/>
        <path class="st2" d="M555.7,682.5h-24.3l-17.9,59.2-16-59.2h-36.2l19.3,71.6c3.9,14.7,17.2,25,32.4,25h13.2l14.8-48.7,14.6-47.9h0Z"/>
        <path class="st5" d="M61.6,648.2h0c0-3.2-2.6-5.9-5.9-5.9H23.6c-3.2,0-5.9,2.6-5.9,5.9h43.9Z"/>
        <path class="st5" d="M702.2,636.8h0c0-3.2-2.6-5.9-5.9-5.9h-32.1c-3.2,0-5.9,2.6-5.9,5.9h43.9Z"/>
        <g>
          <path class="st5" d="M666.6,668.6h0c2.4,0,4.4,2,4.4,4.4v100.1c0,2.4-2,4.4-4.4,4.4h0c-2.4,0-4.4-2-4.4-4.4v-100.1c0-2.4,2-4.4,4.4-4.4Z"/>
          <path class="st1" d="M694.1,668.6h0c2.4,0,4.4,2,4.4,4.4v100.1c0,2.4-2,4.4-4.4,4.4h0c-2.4,0-4.4-2-4.4-4.4v-100.1c0-2.4,2-4.4,4.4-4.4Z"/>
          <path class="st8" d="M680.4,668.6h0c2.4,0,4.4,2,4.4,4.4v100.1c0,2.4-2,4.4-4.4,4.4h0c-2.4,0-4.4-2-4.4-4.4v-100.1c0-2.4,2-4.4,4.4-4.4Z"/>
        </g>
        <g>
          <g>
            <path class="st1" d="M25.9,680h0c2.4,0,4.4,2,4.4,4.4v88.5c0,2.4-2,4.4-4.4,4.4h0c-2.4,0-4.4-2-4.4-4.4v-88.5c0-2.4,2-4.4,4.4-4.4Z"/>
            <rect class="st8" x="35.3" y="680" width="8.7" height="97.2" rx="4.4" ry="4.4"/>
          </g>
          <path class="st5" d="M87.8,727.8h-25.1v-23.3h39v9.4c0,7.7-6.2,13.8-13.8,13.8h0ZM54,642.3v5.8h13.8c.2,0,.3,0,.5,0,.8,0,1.6.1,2.5.3,0,0,.2,0,.3,0,.6.1,1.2.2,1.7.4.2,0,.5.1.7.2h.4c.3.2.7.3,1,.5.7.3,1.4.7,2.1,1.1,4,2.5,6.6,7,6.7,11.8.1,4.7-2.2,9.4-6.1,12.1-.5.4-1.1.7-1.7,1h34.5c11.6,0,21-9.4,21-21v-12.2H54ZM57.7,772.8v-88.5c0-2.4-2-4.4-4.4-4.4h0c-2.4,0-4.4,2-4.4,4.4v88.5c0,2.4,2,4.4,4.4,4.4h0c2.4,0,4.4-2,4.4-4.4Z"/>
        </g>
        <path class="st1" d="M293.7,730.7c-3.2-3.1-7-5.6-11-7.8-3.8-2.1-7.7-3.8-11.6-5.7-4-2-8.5-4-11.4-7.5-1.1-1.3-1.9-2.9-2-4.6-.1-1.1,0-2.2.7-3,.5-.7,1.4-1.1,2.3-1.3,2.7-.6,5.8,0,8.5.6,2.8.7,5.5,1.8,8.2,2.9.5.2,1,.4,1.5.6,3.6,1.5,7.2,3.3,10.6,5.2.7.4,1.4.8,2.1,1.2.2.1,2.1,1,2.1,1.2v-20.6c-6.4-4-16.8-8.9-29.5-8.9s-29.6,5.2-35.8,15c-2.3,3.6-3.6,7.8-3.6,12.6s1.4,9.4,3.6,13.1c2.8,4.6,6.9,8.3,11.3,11.3s9,5.5,13.6,8.2c3.6,2.1,7.5,4.3,10.1,7.7,1.1,1.4,1.9,3.1,2,4.8,0,1.4-.3,2.8-1.3,3.8-.8.8-1.9,1.2-3,1.5-2.1.5-4.2.3-6.3,0-7.2-1.1-14.4-3.8-20.6-7.5-1-.6-2-1.2-2.9-1.9-.5-.3-1-.7-1.5-1.1-.2-.2-1.4-.8-1.4-1.1v24c6.7,2.6,19.1,6.7,32.2,6.7s24.8-4,33.2-11c5.4-4.5,8.9-10.4,8.9-17.3s-3.7-16.3-8.9-21.3h0Z"/>
        <path class="st6" d="M361.1,702.7h0s17.8,0,17.8,0v-20.1h-17.8v-30.6h-20.1c0,16.5-13.4,30-30,30v20.7h14.2v43.8c0,17.1,13.9,31,31,31h22.6v-20.8h-7.5c-5.7,0-10.3-4.6-10.3-10.3v-43.6h0Z"/>
        <path class="st6" d="M400.5,750.6c.8,0,.8-1,1-1.5l.3.4c.2.2.5.2.6,0,.2-.4.3-1,0-1.7-.1-.4-.4-.9-.9-1.3-1-.9-2-1.7-2.6-2.8-.8-1.4-.8-3.2-.2-4.8,1.2,1.4,0,3.4,1.4,5.3.3.4.8.5,1.1.4,1.1-.3.7-2.5.5-3.8-.2-2.7.9-5.4-1.7-8.7-.9-1.1-1.3-2.4-1-4l2.8-11.4c2.4-9.7.8-10.5,1.8-18.7l1.1-9.7c0-.2,0-.3.2-.1,1.2,3.7,2.3,6.3,3.2,10.1.5,2.3.4,4.6-.3,6.9l-2.3,7.7c-3.1,10.4-2.2,25.6-.4,36.9.2,1.1.4,2.3.6,3.8h0c4.5,27,29.1,25.8,29.4,25.8,0-1.1,0-2.2-.2-3.4-.2-2.5-.1-4.7.3-7.1l3-16.3c2.1-11.6,3.4-28.4,0-39.7l-2.3-7.7c-.7-2.3-.9-4.5-.3-6.9.9-3.8,2-6.4,3.2-10.1.1-.2.2,0,.2.1l1.1,9.7c.9,8.1-.6,9,1.8,18.7l2.8,11.4c.4,1.5,0,2.8-1,4-2.7,3.3-1.5,6-1.7,8.7-.1,1.3-.5,3.5.5,3.8.4,0,.9,0,1.1-.4,1.5-1.9.2-3.8,1.4-5.3.6,1.5.6,3.3-.2,4.8-.6,1.2-1.6,2-2.6,2.8-.5.4-.8.9-.9,1.3-.3.8-.2,1.3,0,1.7.1.3.5.3.6,0l.3-.4c.1.5.1,1.4,1,1.5.3,0,.5-.2.7-.5,1.3-1.4,2.8-2.6,3.7-4.4,1-1.9,1.8-4,2.5-6.1.6-1.9.4-3.9.3-5.9-.4-7.9,1.2-17,.4-24l-.9-7.7c-.3-2.6,0-5.1,0-7.8v-18.1c0-4.8-3-8.5-7.5-10.2l-10.1-3.8c-1.4-.5-2.7-1.2-3.4-2.6-.7-1.4-1-3.3-.5-4.8.1-.5.5-.8.8-1.2h0s.6-.7.9-1.3h0c0,.7,0,1.6.3,2.3,0,0,0,0,0,0,0,0,0,0,0,0,.4.8,1.5.9,1.5-.6s1.5-4.6,1.5-4.6h0c.1-.4.3-.8.5-1.2.5-1.2,2.5-7.4-.8-6.2,1.2-5.4.4-10.5-4.6-13.5.4-.3.7-.9.7-1.4s-.4-1.3-.9-1.6c.3-.5.4-1,.4-1.6,0-2.5-3.1-4.5-6.8-4.5s-6.8,2-6.8,4.5.1,1.1.4,1.6c-.5.3-.9.9-.9,1.6s.3,1.1.7,1.4c-4.9,3-5.8,8.1-4.6,13.5-3.3-1.1-1.2,5-.8,6.2.1.4.3.8.5,1.2h0s1.5,3.1,1.5,4.6,1,1.4,1.5.6c0,0,0,0,0,0,0,0,0,0,0,0,.3-.7.3-1.6.3-2.3h0c.3.6.9,1.3.9,1.3.3.4.6.7.8,1.2.5,1.5.2,3.4-.5,4.8-.7,1.4-2,2.1-3.4,2.6l-10.1,3.8c-4.5,1.7-7.4,5.4-7.4,10.2v18.1c0,2.7.2,5.2,0,7.8l-.9,7.7c-.8,6.9.7,16,.4,24,0,2-.2,4,.3,5.9.6,2.1,1.5,4.1,2.5,6.1.9,1.7,2.4,3,3.7,4.4.2.2.4.5.7.5h0ZM423.5,682.8c-.5,0-1.2.2-1.6.7,0,.1-.3.1-.4,0-.4-.5-1.1-.7-1.6-.7-.2,0-.2-.2,0-.3.7-.5,1.9-.6,1.9-.6,0,0,1.1,0,1.9.6.1,0,0,.3,0,.3h0ZM425.6,676c.4,0,.7.3.7.7s-.3.7-.7.7-.7-.3-.7-.7.3-.7.7-.7ZM430.8,678.2c-1.2.4-1.8,1.3-1.8,1.3-2.1,3-6.3,1.9-6.3,1.9,0,0-.2.2,2.1-2.3s6-.9,6-.9h0ZM421.8,672.5s2.4,2,2.4,4.4-2.4,4.4-2.4,4.4c0,0-2.4-2-2.4-4.4s2.4-4.4,2.4-4.4ZM418,675.9c.4,0,.8.4.8.8s-.4.8-.8.8-.8-.4-.8-.8.4-.8.8-.8ZM418.8,679c2.3,2.5,2.1,2.3,2.1,2.3,0,0-4.2,1-6.3-1.9,0,0-.6-.8-1.8-1.3,0,0,3.7-1.7,6,.9h0Z"/>
        <path class="st2" d="M608.8,682.8h-41.7v13.2c0,5.2,4.2,9.5,9.5,9.5h17.3c9.9,0,18,8,18.2,17.9,0,.2,0,1.3,0,2.3-.1.6-.4,0-.4,0-.7-1.5-2.2-2.6-4-2.6h-15.6,0c-.8,0-1.7,0-2.6,0-18.4,0-33.2,12.9-33.2,27.7s5.5,29.8,28.1,29.8,28-18.8,28-18.8c0,8.8,7.2,16,16,16h16.7v-58.6c0-20-16.2-36.3-36.3-36.3h0ZM611.8,750.5c0,2.7-.8,5.3-2.5,7.4-1.6,2-4.3,3.8-8.6,3.8-9.5,0-9.9-6.7-9.9-10.9,0-6.5,7.3-18,21-18v17.7h0Z"/>
        <g>
          <path class="st8" d="M39.6,669.7h21.9c0,3.2-2.6,5.9-5.9,5.9H23.6c-3.2,0-5.9-2.6-5.9-5.9h21.9Z"/>
          <path class="st8" d="M74.6,654.4c-.5-.3-1-.5-1.5-.8-.3-.1-.6-.2-.9-.3-.2,0-.4-.2-.6-.2-.4-.1-.8-.2-1.3-.3,0,0-.2,0-.2,0-.8-.1-1.5-.2-2.3-.2H11.4c-.8,0-1.5.1-2.3.2,0,0-.1,0-.2,0-.4,0-.9.2-1.3.3-.2,0-.4.1-.6.2-.3,0-.6.2-.9.3-.5.2-1,.5-1.5.8-2.8,1.7-4.6,4.9-4.7,8.2,0,3.3,1.5,6.5,4.2,8.4,1.2.9,2.7,1.5,4.2,1.6,2.5.2,5-.9,6.6-2.8.6-.8,1.1-1.6,1.3-2.6.5-2.2.2-3.8-.2-4.8-.4-1-1.1-2-2-2.6-.2-.2-.4-.3-.7-.5,0,0-.1,0-.2-.1-.4-.2-.8-.3-1.2-.3,0,0,0,0,0,0h0c0,0-.2,0-.2,0-2.2,0-4,1.8-4,4s1.8,4,4,4,.1,0,.2,0c-.2,1.1-1,2.1-2.1,2.5-1.2.5-2.6.3-3.7-.4s-1.9-1.8-2.2-3c-.7-2.1-.1-4.6,1.3-6.3,1.3-1.5,3.2-2.3,5.2-2.7.4,0,.8,0,1.1-.1h.6s3.5,0,3.5,0c2.4,0,4.5,1.5,5.4,3.7.1.4.3.8.4,1.2.5,2.2,2.7,3.7,5,3.7h26.8c2.3,0,4.4-1.5,5-3.7,0-.4.2-.8.4-1.2.9-2.2,3-3.7,5.4-3.7h4.1c.4,0,.8,0,1.1.1,2,.3,3.9,1.2,5.2,2.7,1.5,1.7,2,4.2,1.3,6.3-.4,1.2-1.2,2.4-2.2,3-1.1.7-2.5.9-3.7.4-1.1-.4-1.9-1.4-2.1-2.5,0,0,.1,0,.2,0,2.2,0,4-1.8,4-4s-1.8-4-4-4-.2,0-.2,0h0s0,0,0,0c-.4,0-.8.1-1.2.3,0,0-.1,0-.2.1-.2.1-.5.3-.7.5-.9.7-1.6,1.6-2,2.6-.4,1.1-.6,2.7-.2,4.8.3.9.7,1.8,1.3,2.6,1.6,1.9,4.1,3,6.6,2.8,1.5-.1,2.9-.7,4.2-1.6,2.7-1.9,4.3-5.2,4.2-8.4,0-3.3-1.9-6.4-4.7-8.2Z"/>
        </g>
        <g>
          <path class="st8" d="M658.4,658.3c0,3.2,2.6,5.9,5.9,5.9h32.1c3.2,0,5.9-2.6,5.9-5.9h-43.9Z"/>
          <path class="st8" d="M715.3,643c-.5-.3-1-.5-1.5-.8-.3-.1-.6-.2-.9-.3-.2,0-.4-.2-.6-.2-.4-.1-.8-.2-1.3-.3,0,0-.2,0-.2,0-.8-.1-1.5-.2-2.3-.2h-56.4c-.8,0-1.5.1-2.3.2,0,0-.2,0-.2,0-.4,0-.9.2-1.3.3-.2,0-.4.1-.6.2-.3,0-.6.2-.9.3-.5.2-1,.5-1.5.8-2.8,1.7-4.6,4.9-4.7,8.2,0,3.3,1.5,6.5,4.2,8.4,1.2.9,2.7,1.5,4.2,1.6,2.5.2,5-.9,6.5-2.8.6-.8,1-1.6,1.3-2.6.5-2.2.2-3.8-.2-4.8-.4-1-1.1-2-2-2.6-.2-.2-.4-.3-.7-.5,0,0-.1,0-.2-.1-.4-.2-.8-.3-1.2-.3,0,0,0,0,0,0h0c0,0-.2,0-.2,0-2.2,0-4,1.8-4,4s1.8,4,4,4,.1,0,.2,0c-.2,1.1-1,2.1-2.1,2.5-1.2.5-2.6.3-3.7-.4s-1.9-1.8-2.2-3c-.7-2.1-.1-4.6,1.3-6.3,1.3-1.5,3.2-2.3,5.2-2.7.4,0,.8,0,1.1-.1h.6s3.5,0,3.5,0c2.4,0,4.5,1.5,5.4,3.7.1.4.3.8.4,1.2.5,2.2,2.7,3.7,5,3.7h26.8c2.3,0,4.4-1.5,5-3.7,0-.4.2-.8.4-1.2.9-2.2,3-3.7,5.4-3.7h4.1c.4,0,.8,0,1.1.1,2,.3,3.9,1.2,5.2,2.7,1.5,1.7,2,4.2,1.3,6.3-.4,1.2-1.2,2.4-2.2,3-1.1.7-2.5.9-3.7.4-1.1-.4-1.9-1.4-2.1-2.5,0,0,.1,0,.2,0,2.2,0,4-1.8,4-4s-1.8-4-4-4-.2,0-.2,0h0s0,0,0,0c-.4,0-.8.1-1.2.3,0,0-.1,0-.2.1-.2.1-.5.3-.7.5-.9.7-1.6,1.6-2,2.6-.4,1.1-.6,2.7-.2,4.8.3.9.7,1.8,1.3,2.6,1.5,1.9,4.1,3,6.5,2.8,1.5-.1,3-.7,4.2-1.6,2.7-1.9,4.3-5.2,4.2-8.4,0-3.3-1.9-6.4-4.7-8.2h0Z"/>
        </g>
        <path class="st3" d="M400.4,663.8c-.7.2-1.3.5-1.9.9-7.1-6.4-11.7-15.7-11.7-26,0-19.3,15.7-35,35-35s35,15.7,35,35-4.5,19.6-11.7,26c-.6-.3-1.3-.6-1.9-.9l-.6-.2c7.1-6,11.7-14.9,11.7-24.9,0-17.9-14.6-32.5-32.5-32.5s-32.5,14.6-32.5,32.5,4.6,19,11.7,24.9l-.6.2h0ZM397.3,638.6c0-13.5,11-24.5,24.5-24.5s24.5,11,24.5,24.5-5.3,17.3-13,21.5l3.1,1.2c7.4-4.8,12.4-13.1,12.4-22.6,0-14.9-12.1-27-27-27s-27,12.1-27,27,4.9,17.8,12.4,22.6l3.1-1.2c-7.7-4.1-13-12.2-13-21.5Z"/>
      </g>
      <g>
        <path class="st1" d="M659.1,366.9c-11.4,0-17.9-7.5-21.7-16.2,14.7,9.1,41.8,3.8,52.3-8.3,9-10.5,11.5-26.2,6-38.9-7.9-18.2-26.3-23-44.4-23s-58,13.2-58,51.7,29,56,58.6,56,39.7-15.1,39.7-15.1v-20.9s-5.5,14.7-32.3,14.7h0ZM632.5,332c-.5-4.2-.5-7.1-.5-7.1,0,0,.2-22.3,21.5-22.3s17.3,34.9-1.5,37.6c-16.7,2.4-19.4-8.1-19.4-8.3h0Z"/>
        <path class="st4" d="M507.1,280.5h29.7v103.9h-38.8v-94.8c0-5,4.1-9.1,9.1-9.1h0Z"/>
        <path class="st5" d="M443.1,289.5v63.2s-1.4,18-9.9,18-15.4-3.1-15.4-34.2v-56h-40.2v66.1c0,14.8,5.7,39.5,36.9,39.5s23.8-5.7,28.5-12.7v11h39v-103.9h-29.9c-5,0-9.1,4.1-9.1,9.1h0Z"/>
        <path class="st5" d="M378.8,258.3c-2.5-1.4-5.3-2-8.1-2.5-.1,0-.4-.4-.5-.5-.2-.2-.4-.4-.6-.6-.4-.4-.8-.7-1.2-1-.8-.6-1.7-1.1-2.7-1.5-2-.9-4.2-1.2-6.4-1.2-1,0-2,0-2.9.1-1.8.2-3.5.7-5,1.7-2.4,1.6-3.9,4.4-4.3,7.2-.6,4,.5,8,1.8,11.7,1,2.8,2.6,6,1.7,8.9-.5,1.6-1.7,3-3.4,3.3-1,.2-2,0-2.5-.8,1.4,0,2.4-.5,3-1.7.7-1.4.5-3.2-.3-4.5-3-4.8-12.4-5.6-11.5-4.5.7.8,1.5,1.5,2.1,2.5-2-1.3-4.7-2-7.2-2.5-2.1-.4-3.7-2.2-3.7-4.3v-21h-22c0,18.1-14.7,32.8-32.8,32.8v22.7h15.6v47.9c0,18.8,15.2,34,34,34h24.7v-22.8h-8.2c-6.2,0-11.3-5.1-11.3-11.3,0,0,0-20.3,0-22.1,0-.1,0-.3,0-.4.4-3.5,1.2-6.9,3-9.9.9-1.4,1.9-2.8,2.9-4.1,1.9-2.7,3.5-5.5,4.7-8.6,1.2-2.9,2.1-6,1.9-9.2-.1-2.9-1.2-5.4-3.3-7.4-1-1-2.2-1.8-3.4-2.4-4.2-2-9.1-2.2-13.5-1.1-2.9.7-5.6,2-8.1,3.7-3.2,2.2-6,5.1-8.1,8.4-2,3.1-3.4,6.4-4.3,10,.2-.9.3-1.9.5-2.8.2-.9.5-1.8.7-2.7.6-1.8,1.3-3.5,2.1-5.2,1.7-3.3,3.9-6.3,6.6-8.8,2.7-2.5,5.9-4.6,9.4-5.9,4.6-1.8,9.5-2.1,14.1-.5.5.2,1.1.4,1.6.6,3.6,1.6,6.9,4.3,8.6,7.9,2.6,5.2,1.5,11.5-.7,16.6-.5,1.2-1,2.5-1.6,3.6-1.3,2.5-2.8,4.8-4.4,7.1-2.8,3.8-4.5,8.4-4.5,13.2v6.5l1.6-1c4.1-2.7,7.6-5.9,10.9-9.6,4.1-4.6,7.2-9.7,9.8-15.2-.7,4.3-2.1,8.3-4.3,12l-2.6,4.5c2.5-1.4,4.5-3.1,6.4-5.1,5.3-5.6,8.9-12.6,10.6-20.1.2-.9.6-3.5.6-5.3,0-.9,0-1.6-.2-1.8-.1-.1-.4-.1-.6,0-.6.7-1.4,1.3-2.1,1.8-3.6,2.5-8.1,3-12.6,2,2.8-.4,5.3-.9,7.6-2,2.2-1,4.3-2.5,6.1-4.8,2.6-3.4,3.6-7.5,2.8-11.7-.4-2.1-1.1-4-1.9-6-.9-2.3-2.8-5.4.1-6.9,2.6-1.3,6.4-1.8,9.7-1.7h0c.1,0,.3,0,.4,0,1.4.1,5.4.3,5.4-.5,0,0,1.1,1.3,1.5,2.8.2.5.4.8.6.9.1,0,.3,0,.4-.2,2.1-4.1.9-8.5-3.1-10.8h0ZM361.8,259.9c-1.2,0-2.1-1-2.1-2.1s1-2.1,2.1-2.1,2.1.9,2.1,2.1-1,2.1-2.1,2.1Z"/>
        <path class="st7" d="M222,280.5h-45.6v14.5c0,5.7,4.6,10.4,10.4,10.4h18.9c10.9,0,19.7,8.7,19.9,19.6,0,.2,0,1.5,0,2.5-.1.7-.4,0-.4,0-.8-1.7-2.4-2.9-4.4-2.9h-17.1,0c-.9,0-1.9,0-2.8,0-20.1,0-36.3,14.1-36.3,30.3s6,32.7,30.8,32.7,30.6-20.6,30.6-20.6c0,9.7,7.9,17.5,17.5,17.5h18.3v-64.2c0-22-17.8-39.7-39.7-39.7h0ZM225.3,354.6c0,2.9-.9,5.8-2.7,8.1-1.8,2.2-4.7,4.2-9.4,4.2-10.4,0-10.8-7.4-10.8-11.9,0-7.1,8-19.7,22.9-19.7v19.4h0Z"/>
        <path class="st0" d="M592.2,272.1s-27.2-4-41.5,10.3-11.2,30.9-10.6,38.4c9.5-15.4,24.4-29.1,40.1-36.7-7.6,15.8-21.3,30.7-36.7,40.1,7.5.6,27,.8,38.4-10.6,14.3-14.3,10.3-41.5,10.3-41.5h0Z"/>
        <path class="st7" d="M148.6,247.1h-28.6v69.2l-62-52.5c-4.9-4.2-7.8-10.3-7.8-16.8h-28.6v137.1h28.6v-71l62,52.5c4.9,4.2,7.8,10.3,7.8,16.8v1.7h28.6v-137.1h0Z"/>
      </g>
      <g>
        <path class="st2" d="M288.5,455.8c0-.2,0-.5.2-.9l11-29.3c.2-.6.5-1,.8-1.2.3-.2.8-.3,1.5-.3h3.5c.7,0,1.2.1,1.5.3.3.2.6.6.8,1.2l11,29.4c.1.3.2.6.2.9,0,.6-.5,1-1.4,1h-3.5c-1.1,0-1.9-.1-2.4-.4s-.8-.7-1-1.4l-1.5-4.4h-11.4l-1.5,4.4c-.2.7-.6,1.1-1,1.4-.4.2-1.2.4-2.4.4h-3.2c-1,0-1.4-.3-1.4-.9h0ZM307.4,444.6l-2.4-7.1c-.7-2.1-1.1-4.3-1.1-6.6h-.4c0,2.3-.4,4.5-1.1,6.5l-2.4,7.2h7.5,0Z"/>
        <path class="st2" d="M349.3,456.3c-.3-.3-.4-.8-.4-1.5v-29c0-.7.1-1.2.4-1.5.3-.3.8-.4,1.5-.4h3.8c.5,0,.8,0,1.1.2.3.1.5.4.7.7l9.2,14c1.3,1.9,2.4,4.3,3.4,7.2l.4,1.1h.3c-1-3.4-1.5-6.8-1.5-10.2v-11c0-.7.1-1.2.4-1.5.3-.3.8-.4,1.5-.4h3.4c.7,0,1.2.1,1.5.4s.4.8.4,1.5v29c0,.7-.1,1.2-.4,1.5s-.7.4-1.5.4h-3.7c-.5,0-.8,0-1.1-.2-.3-.1-.5-.4-.8-.7l-9-13.7c-1.6-2.4-2.9-5.3-3.9-8.6h-.3c0,.1.2,1.2.7,3.1.4,1.9.6,4.3.6,7.2v11c0,.7-.1,1.2-.4,1.5-.3.3-.8.4-1.5.4h-3.4c-.7,0-1.2-.1-1.5-.4h0Z"/>
        <path class="st2" d="M405.6,456.3c-.3-.3-.4-.8-.4-1.5v-29c0-.7.1-1.2.4-1.5s.8-.4,1.5-.4h10.8c4.3,0,7.7,1.1,10,3.3,2.4,2.2,3.5,5.2,3.5,9.1v7.9c0,3.9-1.2,6.9-3.5,9.1-2.4,2.2-5.7,3.3-10,3.3h-10.8c-.7,0-1.2-.1-1.5-.4h0ZM417.8,449.9c2,0,3.6-.5,4.6-1.4,1-.9,1.6-2.3,1.6-4.2v-7.9c0-1.8-.5-3.2-1.6-4.2-1-.9-2.6-1.4-4.6-1.4h-5.1v19.1h5.1Z"/>
      </g>
      <g>
        <path class="st5" d="M233.5,524.1s21.4-8.4,21.4-29.4-21.8-29-36.9-29h-67.7v134.6h82.8s33.9-1,33.9-38.8-33.5-37.4-33.5-37.4h0ZM189.3,482.1h12.6c11.2,0,20.3,9.1,20.3,20.3s-9.1,20.3-20.3,20.3h-12.6v-40.5h0ZM205.7,580.2h-16.4v-42.3h16.4c11.7,0,21.1,9.5,21.1,21.1s-9.5,21.1-21.1,21.1h0Z"/>
        <circle class="st4" cx="302.5" cy="496.3" r="22"/>
        <path class="st1" d="M283,600.3v-59.7c0-5.5,4.5-10,10-10h29.1v69.6h-39Z"/>
        <path class="st0" d="M351.1,496.3h28.8v103.9h-38.8v-94c0-5.5,4.5-10,10-10h0Z"/>
        <path class="st6" d="M553.8,514.5v-61.6h-39v38c0,2.9,1.4,5.7,3.8,7.3,1.8,1.2,3.6,2.6,5.2,4,1.5,1.4,2.9,2.8,4,4.6.5.8,1,1.7,1.7,2.4.9.9,2.1,1.3,3.2,1.6,3.6.9,7.1,1.8,10.6,2.8.1,0,2,.4,2,.5-3.4-.2-6.8-.4-10.1-.5-.9,0-1.7,0-2.6,0-2.7-.1-5.7-.3-7.9-1.9-1.5-1.1-2.5-2.8-3.8-4.1-1.3-1.3-2.9-2.4-4.5-3.4-3.5-2.1-7.3-3.9-11.2-5.2-4-1.3-8.1-2.1-12.2-2.5-1.4-.1-2.7-.2-4.1-.2-8.5,0-16.5,2.1-23.6,5.7-.2,0-.3.2-.5.2-.3.2-1,.5-1.4.8-.1,0-.3.2-.5.3-15,8.7-25.3,24.6-26.1,43.1,0,.7-.1,1.4-.1,2.2,0,11.8,4,22.7,10.6,31.4,7.9,10.5,19.7,17.9,33.2,20.1,2.8.5,5.6.7,8.5.7s6.7-.3,9.9-1c0,0,0-.2,0-.2,0-7.7-2.9-15.3-8-21.1-.5-.6-1-1.2-1.6-1.7-2.8,4.5-7.3,7.8-12.5,8.7.8-.1,1.6-.7,2.3-1,.7-.4,1.5-.8,2.1-1.3,1.3-1,2.5-2.2,3.5-3.5,2-2.7,3.3-6,3.3-9.4,0-2.9-.9-5.7-2.5-8.1-1.5-1.9-2-4.1-1.4-6.4,1.4-1.2,2.6-2.6,3.7-4.1-1.6-.2-3.3.4-5.1,1.3-2.6-1.5-5.8-.4-9.2,2-.2.1-.4.3-.6.4-.7.5-1.5,1.2-2.2,2.1l1.3-.5c-1.1,1.3-1.9,2.9-2.4,4.6l1.6-.5c-1.4,2.2-2.7,4.6-3.5,7.1-.8,2.7-1,5.5-.9,8.3.2,2.9.8,5.7,1.4,8.6,0,0-.5-.3-.6-.4-.3-.2-.6-.4-.9-.6-2.3-1.7-4.2-3.8-5.8-6.2-1.5-2.3-2.7-4.8-3.5-7.5-.9-3.1-1.3-6.3-1.1-9.5.1-1.9.4-3.7.8-5.5.1-.5.3-1.1.5-1.7.5-1.5,1.1-3,1.8-4.5,2-4,5-7.5,8.6-10.2,3.6-2.8,7.9-4.6,12.4-5.5,2-.4,4.2-.6,6.3-.5,2.6.1,5.3.9,7.9.6,2-.2,3.9-1,5.7-2,2.2-1.3,4.2-3,6.5-4,2.5-1.1,5.2-1.9,7.9-2.3,1.4-.2,2.9-.4,4.3-.4,2.2,0,4.2.2,6.3.7,1,.2,1.9.5,2.8.8-5.3,2.1-9.9,5.5-13.5,9.8-5,5.9-7.1,13-7.8,20.5-.7,7.3.6,14.8,3.8,21.5,3.2,6.7,8.2,12.4,14.5,16.4,5.5,3.5,11.8,5.5,18.3,5.8.8,0,1.5.1,2.3.1s1.6,0,2.4,0c0,0,0,0,0,0-8.7-3.1-16-9-20.9-16.6-4.4-6.9-6.7-14.8-6.6-22.9,0-4.4.7-9,2.3-13.1,3-7.7,9.2-13.9,16.8-17-8.4,5.8-13.8,15.4-13.8,26.3,0,16.2,12.1,29.6,27.8,31.7v-62.3c1.2-.4,2.4-.9,3.4-1.3.4-.2.9-.4,1.3-.5,3.4-1.5,5.8-3,7.5-4.2,3.7-2.9,3.7-4.9,3.7-4.9l-15.9-.8h0ZM477.6,555.3c.8-.4,1.8-.2,2.1.5.3.7,0,1.6-.9,2-.8.4-3.9.4-3.9.4,0,0,1.8-2.4,2.7-2.9ZM493.7,527c-3.5,0-6.4-2.9-6.4-6.4s2.9-6.4,6.4-6.4,1.7.2,2.4.5c0,0-.1,0-.2,0-2,0-3.5,1.6-3.5,3.5s1.6,3.5,3.5,3.5,3.5-1.6,3.5-3.5,0-.2,0-.4c.4.8.6,1.8.6,2.8,0,3.5-2.8,6.4-6.4,6.4h0Z"/>
        <path class="st7" d="M435.4,487.8s-27.2-4-41.5,10.3-11.2,30.9-10.6,38.4c9.5-15.4,24.4-29.1,40.1-36.7-7.6,15.8-21.4,30.7-36.7,40.1,7.5.6,27,.8,38.4-10.6s10.3-41.5,10.3-41.5h0Z"/>
      </g>
      <path class="st5" d="M407.3,86.8c-1.4-1.7-2.8-3.4-4-4.7-2.3-2.5-6.3-3.2-10.3-4-5.6-1.1-11.8-2.2-13.6-8.5-1.4-4.7.7-9,3.5-12.4.3-.3,3.9-4.3,7.6-5.9,0,0-2.9-.3-5.8.8,0,0,0,0-.1,0-1,.4-1.6.2-1.9,0,0,0,0,0-.1,0-4-3.8-7.8-1.4-13.3,2.8-.8.6-1.6,1.2-2.4,1.8-5.2,3.6-9.5,1.8-10.5,1.3-1.7-.6-13.5-5.5-18.5-23.7-4.1-14.8-15.6-19.9-26-24.5-1.2-.6-2.5-1.1-3.7-1.7-5.8-2.7-9.8-5.7-12.5-8.1,2.2,11.4,7.1,16.2,11.2,20.3,2.8,2.7,5.4,5.4,7.1,9.6,1,2.5,1.8,5,2.6,7.4,3.9,11,6.6,19.7,20.9,26.4,2.8,1.3,5.2,2.9,7,4.7,1.9,1.9,3.2,4.2,3.7,6.5.8,3.7-.4,7.4-3.2,10.3-3.9,4-10.8,6.8-15,8.2.8,4.7,3,8.9,6.1,12.2,0,0,3.6-5.1,8.4-6.2,0,0-2,5.7-.9,11.3,2.7,1.1,5.7,1.8,8.8,1.8s1.9,0,2.9-.2c-3.6-13.6,1.5-20,6.8-24,.8-.6,1.6-1.1,2.4-1.4,4.4-1.9,8.4.3,10,2,.2.2.5.4.7.6,21.4,18,39.5,14.6,49.1,12.8-6.9-3.1-12.3-9.6-17-15.4h0Z"/>
      <g>
        <g>
          <path class="st5" d="M30.9,906.6c-.3-.3-.4-.8-.4-1.5v-23.6h-7.1c-.7,0-1.2-.1-1.5-.4-.3-.3-.4-.7-.4-1.4v-3c0-.7.1-1.2.4-1.5s.8-.4,1.5-.4h21.6c.7,0,1.2.1,1.4.4.3.3.4.8.4,1.5v3c0,.7-.1,1.1-.4,1.4s-.7.4-1.4.4h-7.1v23.6c0,.7-.1,1.2-.4,1.5s-.8.4-1.5.4h-3.7c-.7,0-1.2-.1-1.4-.4Z"/>
          <path class="st5" d="M66.6,906.6c-.3-.3-.4-.7-.4-1.4v-28.5c0-.7.1-1.2.4-1.4.3-.3.7-.4,1.4-.4h3.8c.7,0,1.2.1,1.4.4s.4.7.4,1.4v28.5c0,.7-.1,1.1-.4,1.4-.3.3-.7.4-1.4.4h-3.8c-.7,0-1.1-.1-1.4-.4Z"/>
          <path class="st5" d="M95.6,906.6c-.3-.3-.4-.7-.4-1.4v-28.5c0-.7.1-1.1.4-1.4.3-.3.8-.4,1.4-.4h2.9c.8,0,1.3,0,1.6.3.3.2.7.5.9,1.1l8.3,15.3,8.3-15.3c.3-.6.6-1,.9-1.1.3-.2.8-.3,1.5-.3h3.2c.7,0,1.2.1,1.4.4s.4.7.4,1.4v28.5c0,.7-.1,1.2-.4,1.4-.3.3-.8.4-1.4.4h-3.4c-.7,0-1.1-.1-1.4-.4-.3-.3-.4-.7-.4-1.4v-10.3c0-2.9.5-6.3,1.5-10.2h-.4c-.9,2.9-2.1,5.7-3.6,8.4l-3.2,5.8c-.3.5-.6.9-.8,1-.3.2-.7.3-1.2.3h-2.1c-.6,0-1,0-1.3-.3s-.5-.5-.8-1l-3.3-5.8c-1.3-2.3-2.4-5.1-3.3-8.4h-.4c.5,2.2.9,4.1,1.1,5.6.2,1.5.3,3,.3,4.6v10.2c0,.7-.1,1.1-.4,1.4-.3.3-.7.4-1.4.4h-3.2c-.7,0-1.2-.1-1.4-.4h0Z"/>
          <path class="st5" d="M148.7,906.6c-.3-.3-.4-.8-.4-1.5v-28.4c0-.7.1-1.2.4-1.5s.8-.4,1.4-.4h18.2c.7,0,1.2.1,1.4.4.3.3.4.8.4,1.5v3c0,.7-.1,1.1-.4,1.4-.3.3-.7.4-1.4.4h-12.7v5.8h10.4c.7,0,1.2.1,1.4.4s.4.7.4,1.4v3c0,.7-.1,1.2-.4,1.5s-.8.4-1.4.4h-10.4v6.2h13.1c.7,0,1.2.1,1.4.4.3.3.4.7.4,1.4v3c0,.7-.1,1.2-.4,1.5s-.8.4-1.4.4h-18.7c-.7,0-1.2-.1-1.4-.4h0Z"/>
          <path class="st5" d="M191.3,906.6c-.3-.3-.4-.8-.4-1.5v-28.4c0-.7.1-1.2.4-1.5s.8-.4,1.4-.4h3.7c.7,0,1.2.1,1.4.4.3.3.4.8.4,1.5v23.6h11.7c.7,0,1.2.1,1.4.4.3.3.4.7.4,1.4v3c0,.7-.1,1.2-.4,1.5s-.8.4-1.4.4h-17.2c-.7,0-1.2-.1-1.4-.4h0Z"/>
          <path class="st5" d="M231.5,906.6c-.3-.3-.4-.8-.4-1.5v-28.4c0-.7.1-1.2.4-1.5s.8-.4,1.4-.4h18.2c.7,0,1.2.1,1.4.4.3.3.4.8.4,1.5v3c0,.7-.1,1.1-.4,1.4-.3.3-.7.4-1.4.4h-12.7v5.8h10.4c.7,0,1.2.1,1.4.4s.4.7.4,1.4v3c0,.7-.1,1.2-.4,1.5s-.8.4-1.4.4h-10.4v6.2h13.1c.7,0,1.2.1,1.4.4.3.3.4.7.4,1.4v3c0,.7-.1,1.2-.4,1.5s-.8.4-1.4.4h-18.7c-.7,0-1.2-.1-1.4-.4h0Z"/>
          <path class="st5" d="M276.8,905.8c-2-1.2-3.5-3.1-4.4-5.5-.1-.4-.2-.7-.2-1,0-.6.5-1.1,1.4-1.4l3.3-1.2c.5-.2.8-.2,1-.2s.5,0,.8.3c.2.2.4.5.7,1,.4,1,1.1,1.8,2.1,2.3,1,.5,2.2.8,3.7.8s3.5-.3,4.5-.8c1-.6,1.5-1.5,1.5-2.7s-.5-1.8-1.6-2.2c-1.1-.5-2.6-.8-4.5-1-2.5-.3-4.6-.7-6.3-1.2-1.7-.5-3.1-1.4-4.4-2.8-1.2-1.4-1.8-3.3-1.8-5.9s.5-3.7,1.5-5.2,2.4-2.7,4.4-3.6,4.3-1.3,7.1-1.3,5.8.5,7.6,1.6,3.4,2.8,4.4,5c.2.4.3.7.3,1,0,.6-.4,1-1.3,1.4l-3.4,1.5c-.4.2-.7.3-1,.3s-.5,0-.7-.3c-.2-.2-.4-.5-.6-.9-.5-1-1.2-1.7-2-2.2s-2-.8-3.3-.8-3.2.2-4.1.8c-.9.5-1.3,1.3-1.3,2.4s.6,1.9,1.7,2.3,2.9.8,5.1,1c2.2.3,4.2.7,5.8,1.2,1.6.6,3,1.5,4.2,2.9,1.1,1.4,1.7,3.3,1.7,5.8s-.5,3.9-1.6,5.4c-1.1,1.6-2.6,2.8-4.7,3.6s-4.4,1.3-7.2,1.3-6.2-.6-8.3-1.8h0Z"/>
          <path class="st5" d="M321.9,905.8c-2-1.2-3.5-3.1-4.4-5.5-.1-.4-.2-.7-.2-1,0-.6.5-1.1,1.4-1.4l3.3-1.2c.5-.2.8-.2,1-.2s.5,0,.8.3c.2.2.4.5.7,1,.4,1,1.1,1.8,2.1,2.3,1,.5,2.2.8,3.7.8s3.5-.3,4.5-.8c1-.6,1.5-1.5,1.5-2.7s-.5-1.8-1.6-2.2c-1.1-.5-2.6-.8-4.5-1-2.5-.3-4.6-.7-6.3-1.2-1.7-.5-3.1-1.4-4.4-2.8-1.2-1.4-1.8-3.3-1.8-5.9s.5-3.7,1.5-5.2,2.4-2.7,4.4-3.6,4.3-1.3,7.1-1.3,5.8.5,7.6,1.6,3.4,2.8,4.4,5c.2.4.3.7.3,1,0,.6-.4,1-1.3,1.4l-3.4,1.5c-.4.2-.7.3-1,.3s-.5,0-.7-.3c-.2-.2-.4-.5-.6-.9-.5-1-1.2-1.7-2-2.2s-2-.8-3.3-.8-3.2.2-4.1.8c-.9.5-1.3,1.3-1.3,2.4s.6,1.9,1.7,2.3c1.1.4,2.9.8,5.1,1,2.2.3,4.2.7,5.8,1.2,1.6.6,3,1.5,4.2,2.9,1.1,1.4,1.7,3.3,1.7,5.8s-.5,3.9-1.6,5.4c-1.1,1.6-2.6,2.8-4.7,3.6s-4.4,1.3-7.2,1.3-6.2-.6-8.3-1.8h0Z"/>
          <path class="st5" d="M383.4,906.7c-.2-.2-.3-.5-.3-.9v-29.8c0-.4,0-.7.3-.9.2-.2.5-.3,1-.3h2c.4,0,.7,0,.9.3.2.2.3.5.3.9v12.6h15.5v-12.6c0-.4,0-.7.2-.9.2-.2.5-.3.9-.3h2c.4,0,.7,0,.9.3.2.2.3.5.3.9v29.8c0,.4,0,.7-.3.9s-.5.3-.9.3h-2c-.5,0-.8,0-.9-.3s-.2-.5-.2-.9v-13.1h-15.5v13.1c0,.4,0,.7-.3.9s-.5.3-.9.3h-2c-.5,0-.8,0-1-.3Z"/>
          <path class="st5" d="M431,906.7c-.2-.2-.3-.5-.3-.9v-29.8c0-.4,0-.7.3-.9.2-.2.5-.3,1-.3h18.2c.4,0,.7,0,.9.3s.3.5.3.9v1.7c0,.5,0,.8-.3,1s-.5.3-.9.3h-15v9.7h12.9c.5,0,.8,0,.9.3.2.2.2.5.2,1v1.7c0,.5,0,.8-.2.9s-.5.2-.9.2h-12.9v10.2h15.5c.5,0,.8,0,1,.3s.3.5.3,1v1.7c0,.4,0,.7-.3.9-.2.2-.5.3-1,.3h-18.7c-.5,0-.8,0-1-.3h0Z"/>
          <path class="st5" d="M473.7,906.7c-.2-.2-.3-.5-.3-.9v-29.8c0-.4,0-.7.3-.9.2-.2.5-.3,1-.3h12.7c3,0,5.5.8,7.2,2.5s2.6,4.1,2.6,7.1-.6,4.4-1.8,5.9-2.8,2.6-4.9,3.1c.5.2.9.6,1.2,1,.4.4.7,1,1,1.6l5,9.7c.1.2.2.4.2.6,0,.4-.3.6-.8.6h-2c-.8,0-1.3,0-1.6-.2-.3-.1-.6-.4-.8-.8l-4.1-8.3c-.7-1.4-1.4-2.3-2.3-2.8-.8-.5-2.1-.8-3.8-.8h-4.9v11.8c0,.4,0,.7-.3.9s-.5.3-.9.3h-2c-.5,0-.8,0-1-.3h0ZM487,890c1.8,0,3.2-.5,4.2-1.5s1.5-2.3,1.5-4.1-.5-3.2-1.5-4.1-2.4-1.5-4.2-1.5h-9.1v11.1h9.1Z"/>
          <path class="st5" d="M519.7,906.7c-.2-.2-.3-.5-.3-.9v-29.8c0-.4,0-.7.3-.9.2-.2.5-.3,1-.3h2c.4,0,.7,0,.9.3.2.2.3.5.3.9v29.8c0,.4,0,.7-.3.9s-.5.3-.9.3h-2c-.5,0-.8,0-1-.3Z"/>
          <path class="st5" d="M554.6,906.7c-.2-.2-.2-.5-.2-.9v-26.9h-8.7c-.4,0-.7,0-.9-.3-.2-.2-.3-.5-.3-1v-1.7c0-.4,0-.7.3-.9.2-.2.5-.3.9-.3h21.8c.5,0,.8,0,.9.3s.2.5.2.9v1.7c0,.5,0,.8-.2,1s-.5.3-.9.3h-8.7v26.9c0,.4,0,.7-.3.9s-.5.3-.9.3h-2c-.5,0-.8,0-.9-.3h0Z"/>
          <path class="st5" d="M582.7,906.4c0-.2,0-.4.1-.6l11.7-30.1c.2-.4.3-.7.5-.8.2-.1.5-.2,1-.2h1.9c.4,0,.7,0,1,.2.2.1.4.4.5.8l11.8,30.1c0,.2.1.4.1.6,0,.4-.3.6-.9.6h-1.8c-.7,0-1.2,0-1.5-.2-.3-.1-.5-.4-.6-.8l-2.8-7.4h-13.5l-2.8,7.4c-.2.4-.4.7-.7.8s-.8.2-1.5.2h-1.6c-.6,0-.9-.2-.9-.6ZM602.3,895l-4.5-12c-.3-.9-.5-1.8-.6-2.6s-.2-1.4-.2-1.6h-.3c0,.3,0,.9-.2,1.7s-.3,1.6-.6,2.5l-4.6,12h11,0Z"/>
          <path class="st5" d="M633.3,904.6c-2.2-2-3.3-4.9-3.3-8.5v-10.3c0-3.6,1.1-6.5,3.3-8.5s5.3-3.1,9.3-3.1,6,.7,8,2c2,1.3,3.4,3.2,4.2,5.8,0,.2.1.4.1.6s0,.4-.2.5-.4.3-.7.4l-1.9.6c-.2,0-.4.1-.6.1s-.4,0-.5-.2c-.1-.1-.2-.3-.4-.7-.6-1.7-1.5-3-2.8-3.8-1.3-.8-3-1.2-5.3-1.2s-4.7.7-6.2,2-2.1,3.1-2.1,5.5v10.4c0,2.4.7,4.3,2.2,5.6,1.4,1.3,3.5,2,6.2,2s4.7-.6,6.1-1.8c1.5-1.2,2.2-2.8,2.2-4.9v-2.9h-7.9c-.4,0-.7,0-.9-.3-.2-.2-.3-.5-.3-.9v-1.7c0-.5,0-.8.3-1s.5-.3.9-.3h11c.5,0,.8,0,1,.3s.3.5.3,1v5.8c0,2.1-.5,4-1.5,5.6-1,1.6-2.4,2.9-4.3,3.8-1.9.9-4.2,1.4-6.8,1.4-4,0-7.2-1-9.4-3.1h0Z"/>
          <path class="st5" d="M677.6,906.7c-.2-.2-.3-.5-.3-.9v-29.8c0-.4,0-.7.3-.9.2-.2.5-.3,1-.3h18.2c.4,0,.7,0,.9.3.2.2.3.5.3.9v1.7c0,.5,0,.8-.3,1s-.5.3-.9.3h-15v9.7h12.9c.5,0,.8,0,.9.3s.2.5.2,1v1.7c0,.5,0,.8-.2.9s-.5.2-.9.2h-12.9v10.2h15.5c.5,0,.8,0,1,.3s.3.5.3,1v1.7c0,.4,0,.7-.3.9-.2.2-.5.3-1,.3h-18.7c-.5,0-.8,0-1-.3h0Z"/>
        </g>
        <g>
          <path class="st5" d="M21.8,963.5c-.2-.2-.3-.5-.3-.9v-29.9c0-.4,0-.7.3-.9s.5-.3,1-.3h12.1c3.2,0,5.8.9,7.7,2.8,1.9,1.8,2.8,4.4,2.8,7.6s-.9,5.7-2.8,7.5c-1.9,1.8-4.4,2.7-7.7,2.7h-8.9v10.5c0,.4,0,.7-.3.9s-.5.3-.9.3h-2c-.5,0-.8,0-1-.3h0ZM34.4,948c2,0,3.5-.5,4.6-1.6s1.7-2.6,1.7-4.5-.6-3.5-1.7-4.6-2.7-1.6-4.6-1.6h-8.5v12.4h8.5Z"/>
          <path class="st5" d="M65.4,963.5c-.2-.2-.3-.5-.3-.9v-29.9c0-.4,0-.7.3-.9s.5-.3,1-.3h12.7c3.1,0,5.5.8,7.2,2.5s2.6,4.1,2.6,7.1-.6,4.4-1.8,6c-1.2,1.5-2.8,2.6-5,3.1.5.2.9.6,1.2,1s.7,1,1,1.6l5.1,9.7c.1.2.2.4.2.6,0,.4-.3.6-.8.6h-2c-.8,0-1.3,0-1.6-.2-.3-.1-.6-.4-.8-.8l-4.1-8.3c-.7-1.4-1.4-2.3-2.3-2.8-.8-.5-2.1-.8-3.8-.8h-4.9v11.8c0,.4,0,.7-.3.9s-.5.3-.9.3h-2c-.5,0-.8,0-1-.3h0ZM78.7,946.7c1.8,0,3.2-.5,4.2-1.5,1-1,1.5-2.3,1.5-4.1s-.5-3.2-1.5-4.1c-1-1-2.4-1.5-4.2-1.5h-9.1v11.1h9.2Z"/>
          <path class="st5" d="M109.8,963.5c-.2-.2-.3-.5-.3-.9v-29.9c0-.4,0-.7.3-.9s.5-.3,1-.3h18.3c.4,0,.7,0,.9.3.2.2.3.5.3.9v1.7c0,.5,0,.8-.3,1-.2.2-.5.3-.9.3h-15.1v9.8h13c.4,0,.8,0,.9.3.2.2.3.5.3,1v1.7c0,.5,0,.8-.2.9-.2.2-.5.2-.9.2h-13v10.2h15.6c.5,0,.8,0,1,.3.2.2.3.5.3,1v1.7c0,.4,0,.7-.3.9-.2.2-.5.3-1,.3h-18.8c-.5,0-.8,0-1-.3h0Z"/>
          <path class="st5" d="M153.8,962.5c-2-1.3-3.5-3.2-4.5-5.9,0-.3-.1-.5-.1-.6s0-.4.2-.5.4-.3.7-.4l1.9-.7c.2,0,.5-.1.6-.1s.4,0,.5.2.3.4.4.7c1.5,3.5,4.2,5.2,8.2,5.2s8.2-1.9,8.2-5.6-.4-2.2-1.1-2.9c-.7-.7-1.6-1.2-2.8-1.5s-2.6-.5-4.3-.8c-2.5-.3-4.6-.6-6.2-1.1-1.6-.5-3.1-1.3-4.2-2.6s-1.8-3.1-1.8-5.4.5-3.6,1.4-5c.9-1.5,2.3-2.6,4.1-3.4,1.8-.8,4-1.2,6.6-1.2s5.6.6,7.4,1.7,3.4,2.9,4.5,5.3c.1.3.2.5.2.7,0,.4-.3.7-.9.9l-1.9.9c-.4.1-.6.2-.6.2-.3,0-.6-.3-.9-.8-.8-1.6-1.8-2.7-3.1-3.5-1.2-.8-2.8-1.1-4.8-1.1s-4.4.4-5.7,1.3c-1.3.9-1.9,2.2-1.9,3.9s.4,2.3,1.2,3,1.8,1.2,3,1.5c1.2.3,2.7.6,4.6.8,2.3.3,4.2.7,5.8,1.2,1.6.5,2.9,1.4,4,2.7,1.1,1.3,1.6,3,1.6,5.3s-1.1,5.5-3.3,7.2c-2.2,1.8-5.3,2.6-9.4,2.6s-5.9-.6-7.9-1.9h0Z"/>
          <path class="st5" d="M194.8,963.5c-.2-.2-.3-.5-.3-.9v-29.9c0-.4,0-.7.3-.9.2-.2.5-.3,1-.3h18.3c.4,0,.7,0,.9.3.2.2.3.5.3.9v1.7c0,.5,0,.8-.3,1-.2.2-.5.3-.9.3h-15.1v9.8h13c.4,0,.8,0,.9.3.2.2.2.5.2,1v1.7c0,.5,0,.8-.2.9-.2.2-.5.2-.9.2h-13v10.2h15.6c.5,0,.8,0,1,.3.2.2.3.5.3,1v1.7c0,.4,0,.7-.3.9-.2.2-.5.3-1,.3h-18.8c-.5,0-.8,0-1-.3h0Z"/>
          <path class="st5" d="M236,963.5c-.2-.2-.3-.5-.3-.9v-29.9c0-.4,0-.7.3-.9.2-.2.5-.3,1-.3h12.7c3.1,0,5.5.8,7.2,2.5,1.8,1.7,2.6,4.1,2.6,7.1s-.6,4.4-1.8,6c-1.2,1.5-2.8,2.6-5,3.1.5.2.9.6,1.2,1s.7,1,1,1.6l5,9.7c.1.2.2.4.2.6,0,.4-.3.6-.8.6h-2c-.8,0-1.3,0-1.6-.2-.3-.1-.6-.4-.8-.8l-4.1-8.3c-.7-1.4-1.4-2.3-2.3-2.8-.9-.5-2.1-.8-3.8-.8h-4.9v11.8c0,.4,0,.7-.3.9-.2.2-.5.3-.9.3h-2c-.5,0-.8,0-1-.3h0ZM249.3,946.7c1.8,0,3.2-.5,4.2-1.5,1-1,1.5-2.3,1.5-4.1s-.5-3.2-1.5-4.1c-1-1-2.4-1.5-4.2-1.5h-9.1v11.1h9.2Z"/>
          <path class="st5" d="M288.6,963.5c-.2-.1-.4-.4-.5-.8l-11.4-30.2c0-.2-.1-.4-.1-.6,0-.4.3-.6.9-.6h1.8c.7,0,1.2,0,1.5.2s.5.4.6.8l7.9,21.9c.4,1.1.6,2.1.9,3.2l.3,1h.2c0-.1.1-.6.3-1.5.2-.9.5-1.8.8-2.7l7.9-21.9c.1-.4.4-.7.6-.8.3-.1.8-.2,1.5-.2h1.7c.6,0,.9.2.9.6s0,.3-.1.6l-11.3,30.1c-.1.4-.3.7-.5.8-.2.1-.5.2-1,.2h-1.9c-.4,0-.7,0-1-.2h0Z"/>
          <path class="st5" d="M323.4,963.5c-.2-.2-.3-.5-.3-.9v-29.9c0-.4,0-.7.3-.9s.5-.3,1-.3h2c.4,0,.7,0,.9.3s.3.5.3.9v29.9c0,.4,0,.7-.3.9s-.5.3-.9.3h-2c-.5,0-.8,0-1-.3Z"/>
          <path class="st5" d="M349.5,963.5c-.2-.2-.3-.5-.3-.9v-29.9c0-.4,0-.7.3-.9s.5-.3,1-.3h2c.3,0,.6,0,.8.1s.3.2.4.5l12.8,18.6c.9,1.2,1.9,3.1,3.1,5.6.4.9.7,1.5.8,1.6h.2c0,0,0-.7-.2-1.8-.4-2.9-.6-5.2-.6-7v-16.5c0-.4,0-.7.3-.9s.5-.3.9-.3h1.9c.5,0,.8,0,.9.3.2.2.2.5.2.9v29.9c0,.4,0,.7-.2.9s-.5.3-.9.3h-2c-.3,0-.5,0-.7-.1-.2,0-.4-.2-.5-.5l-13-18.9c-.7-1-1.3-2.1-1.9-3.3s-.9-1.8-1-2c-.5-1.1-.8-1.6-.9-1.7h-.2c0,0,0,.6.2,1.6.4,2.7.5,5,.5,6.9v16.8c0,.4,0,.7-.3.9s-.5.3-1,.3h-1.8c-.5,0-.8,0-1-.3h0Z"/>
          <path class="st5" d="M398.3,961.3c-2.2-2.1-3.3-4.9-3.3-8.5v-10.4c0-3.6,1.1-6.5,3.3-8.5,2.2-2.1,5.3-3.1,9.4-3.1s6,.7,8,2c2,1.3,3.4,3.2,4.2,5.8,0,.2.1.4.1.6s0,.4-.2.5-.4.3-.7.4l-1.9.6c-.2,0-.4.1-.6.1s-.4,0-.5-.2-.2-.4-.4-.7c-.6-1.7-1.5-3-2.8-3.8-1.3-.8-3-1.2-5.3-1.2s-4.8.7-6.2,2c-1.4,1.3-2.1,3.2-2.1,5.5v10.4c0,2.4.7,4.3,2.2,5.6,1.4,1.3,3.5,2,6.2,2s4.7-.6,6.2-1.8c1.5-1.2,2.2-2.9,2.2-4.9v-3h-7.9c-.4,0-.7,0-.9-.3s-.3-.5-.3-.9v-1.7c0-.5,0-.8.3-1s.5-.3.9-.3h11c.5,0,.8,0,1,.3s.3.5.3,1v5.8c0,2.1-.5,4-1.5,5.6-1,1.6-2.4,2.9-4.3,3.8-1.9.9-4.2,1.4-6.9,1.4-4.1,0-7.2-1-9.4-3.1h0Z"/>
          <path class="st5" d="M457.4,963.3c-.3-.3-.4-.8-.4-1.5v-28.6c0-.7.1-1.2.4-1.5s.8-.4,1.5-.4h3.8c.5,0,.8,0,1.1.2s.5.4.7.7l9.1,13.8c1.3,1.9,2.4,4.3,3.4,7.1l.4,1h.3c-1-3.3-1.5-6.7-1.5-10v-10.9c0-.7.1-1.2.4-1.5.3-.3.8-.4,1.5-.4h3.4c.7,0,1.2.1,1.4.4.3.3.4.8.4,1.5v28.6c0,.7-.1,1.2-.4,1.5-.3.3-.7.4-1.4.4h-3.7c-.5,0-.8,0-1.1-.2s-.5-.3-.8-.7l-8.9-13.5c-1.6-2.4-2.9-5.2-3.8-8.5h-.3c0,.2.2,1.2.7,3s.6,4.3.6,7.1v10.9c0,.7-.1,1.2-.4,1.5-.3.3-.8.4-1.5.4h-3.4c-.7,0-1.2-.1-1.5-.4h0Z"/>
          <path class="st5" d="M500.6,962.8c0-.2,0-.5.2-.9l10.8-28.9c.2-.6.5-1,.8-1.2.3-.2.8-.3,1.5-.3h3.5c.7,0,1.2,0,1.5.3s.6.6.8,1.2l10.9,29c.1.3.2.6.2.9,0,.6-.5,1-1.4,1h-3.4c-1.1,0-1.9-.1-2.4-.3-.5-.2-.8-.7-1-1.3l-1.5-4.3h-11.2l-1.5,4.3c-.2.7-.6,1.1-1,1.3-.4.2-1.2.3-2.3.3h-3.1c-.9,0-1.4-.3-1.4-.9h0ZM519.3,951.8l-2.4-7c-.7-2.1-1-4.2-1.1-6.5h-.4c0,2.2-.4,4.4-1.1,6.5l-2.4,7.1h7.4Z"/>
          <path class="st5" d="M552,963.3c-.3-.3-.4-.8-.4-1.5v-23.7h-7.1c-.7,0-1.2-.1-1.5-.4-.3-.3-.4-.7-.4-1.4v-3c0-.7.1-1.2.4-1.5s.8-.4,1.5-.4h21.7c.7,0,1.2.1,1.4.4.3.3.4.8.4,1.5v3c0,.7-.1,1.1-.4,1.4-.3.3-.7.4-1.4.4h-7.1v23.7c0,.7-.1,1.2-.4,1.5s-.8.4-1.5.4h-3.7c-.7,0-1.2-.1-1.4-.4Z"/>
          <path class="st5" d="M589,961.2c-2.3-2.2-3.4-5.1-3.4-8.8v-19.1c0-.7.1-1.2.4-1.5s.8-.4,1.5-.4h3.7c.7,0,1.2.1,1.4.4.3.3.4.8.4,1.5v19.2c0,1.7.5,2.9,1.5,3.8,1,.9,2.4,1.3,4.3,1.3s3.3-.4,4.3-1.3c1-.9,1.5-2.2,1.5-3.8v-19.2c0-.7.1-1.2.4-1.5s.8-.4,1.5-.4h3.7c.7,0,1.2.1,1.5.4.3.3.4.8.4,1.5v19.1c0,3.7-1.1,6.7-3.4,8.8-2.3,2.2-5.5,3.2-9.8,3.2s-7.5-1.1-9.7-3.2h0Z"/>
          <path class="st5" d="M632.1,963.3c-.3-.3-.4-.8-.4-1.5v-28.6c0-.7.1-1.2.4-1.5.3-.3.8-.4,1.5-.4h12.6c3.3,0,5.9.9,7.8,2.8,1.9,1.8,2.9,4.4,2.9,7.7s-.5,4.2-1.4,5.8c-.9,1.6-2.2,2.8-3.9,3.6,0,.1.4.7,1,1.6l4.7,9c.2.3.3.7.3,1,0,.6-.4.9-1.3.9h-3.6c-1.2,0-2-.1-2.5-.4s-1-.7-1.3-1.4l-3.4-7c-.5-1.1-1.1-1.8-1.7-2.1-.6-.4-1.5-.5-2.8-.5h-1.9v9.6c0,.7-.1,1.2-.4,1.5-.3.3-.8.4-1.5.4h-3.7c-.7,0-1.2-.1-1.5-.4h0ZM645.4,945.7c1.2,0,2.2-.3,2.8-1,.7-.7,1-1.6,1-2.8s-.3-2.1-1-2.8c-.7-.7-1.6-1-2.8-1h-6.3v7.5h6.3Z"/>
          <path class="st5" d="M676.4,963.3c-.3-.3-.4-.8-.4-1.5v-28.6c0-.7.1-1.2.4-1.5.3-.3.8-.4,1.5-.4h18.3c.7,0,1.2.1,1.4.4.3.3.4.8.4,1.5v3c0,.7-.1,1.1-.4,1.4-.3.3-.7.4-1.4.4h-12.8v5.9h10.5c.7,0,1.2.1,1.5.4.3.3.4.7.4,1.4v3c0,.7-.1,1.2-.4,1.5-.3.3-.8.4-1.5.4h-10.5v6.2h13.2c.7,0,1.2.1,1.5.4.3.3.4.7.4,1.4v3c0,.7-.1,1.2-.4,1.5s-.8.4-1.5.4h-18.7c-.7,0-1.2-.1-1.5-.4h0Z"/>
        </g>
      </g>
    </g>
  </g>
</svg>